<svg xmlns="http://www.w3.org/2000/svg" viewBox="0 0 848 762" height="762.0px" width="848.0px">
<path id="" fill="none" stroke="#000000" stroke-width="2.0" stroke-opacity="1.0" stroke-linecap="round" stroke-linejoin="round"  filling="0" d="M173 63 C172 64 170 63 169 65 C168 68 170 70 171 72 C174 78 178 83 181 89 C182 92 184 94 185 97 C185 98 187 99 186 100 C185 102 181 102 179 102 C177 102 170 103 168 104 C161 108 151 105 144 109 C141 110 139 107 137 108 C135 109 133 109 132 111 C132 112 132 114 132 114 C131 115 127 115 126 116 C122 118 119 121 115 123 C111 125 106 128 102 130 C100 131 101 132 100 134 C99 137 94 140 92 142 C87 147 81 153 76 158 C74 160 70 163 69 165 C67 169 61 175 58 178 C53 183 48 188 45 194 C45 195 41 198 42 199 C44 201 50 195 51 194 C55 190 61 185 66 182 C69 181 70 177 73 176 C78 173 83 169 88 166 C89 165 91 165 92 164 C93 163 95 165 96 164 C97 163 98 162 99 161 C100 160 102 161 103 160 C105 159 106 156 108 155 C115 151 120 144 127 140 C133 137 139 134 145 131 C149 129 154 130 158 128 C161 126 165 126 168 124 C169 124 170 124 171 124 C173 123 176 121 178 121"></path>
<path id="" fill="none" stroke="#000000" stroke-width="2.0" stroke-opacity="1.0" stroke-linecap="round" stroke-linejoin="round"  filling="0" d="M89 75 C90 74 94 69 94 69 C94 69 95 70 95 70 C100 70 105 62 109 60 C119 55 135 45 147 51 C152 54 159 56 162 62 C162 62 164 65 164 65 C164 66 163 65 162 65 C161 65 160 66 159 66 C155 66 148 67 145 69 C139 72 134 74 128 77 C124 79 121 82 117 84 C114 86 112 90 109 92 C106 94 103 97 101 100 C99 104 94 106 92 110 C90 114 87 119 85 123 C83 127 82 130 80 134 C79 135 80 138 81 139 C82 140 82 138 83 138 C84 138 85 138 86 138 C90 136 94 132 99 132"></path>
<path id="" fill="none" stroke="#000000" stroke-width="2.0" stroke-opacity="1.0" stroke-linecap="round" stroke-linejoin="round"  filling="0" d="M213 84 C213 81 210 76 207 75 C206 75 206 73 205 74 C202 76 205 83 204 86 C204 87 203 87 203 88"></path>
<path id="" fill="none" stroke="#000000" stroke-width="2.0" stroke-opacity="1.0" stroke-linecap="round" stroke-linejoin="round"  filling="0" d="M249 84 C247 86 243 86 242 88 C240 92 233 100 229 102 C225 104 219 108 217 112 C215 116 210 119 208 123 C204 132 195 138 191 147 C189 152 186 156 184 161 C183 164 183 167 182 170 C180 173 186 175 186 176 C186 179 182 181 181 183 C181 184 181 184 181 185 C180 187 176 190 176 191 C176 192 177 192 177 193 C176 194 175 197 176 199 C177 201 180 199 181 198 C184 196 188 194 191 192 C192 191 195 188 197 189 C199 190 198 198 198 200 C198 209 198 218 202 225 C202 226 202 227 202 228 C202 229 204 229 204 230 C205 232 204 236 207 237 C209 238 215 237 215 241 C215 244 211 243 210 245 C209 246 211 251 212 252 C214 256 216 259 218 262 C219 264 222 265 221 268 C220 270 215 271 213 272 C208 275 202 277 197 280 C194 281 191 285 188 285 C187 285 187 281 187 280 C185 276 185 271 183 267 C183 266 183 266 183 265 C183 264 181 264 181 263 C181 261 182 262 182 263"></path>
<path id="" fill="none" stroke="#000000" stroke-width="2.0" stroke-opacity="1.0" stroke-linecap="round" stroke-linejoin="round"  filling="0" d="M235 85 C235 69 233 58 218 50 C215 49 210 48 207 48 C206 48 202 49 201 48 C200 47 198 43 197 42 C196 40 191 36 189 35 C186 34 184 33 181 32 C180 32 179 32 178 32 C170 28 160 28 150 28 C147 28 140 27 137 28 C133 30 129 32 125 34 C121 36 118 42 113 44 C109 46 103 52 101 56 C99 60 94 63 94 68"></path>
<path id="" fill="none" stroke="#000000" stroke-width="2.0" stroke-opacity="1.0" stroke-linecap="round" stroke-linejoin="round"  filling="0" d="M338 85 C335 88 331 93 329 97 C328 100 324 102 324 105 C324 105 325 106 325 106 C325 106 319 106 319 106 C319 107 321 108 320 110 C318 114 314 118 312 122 C311 123 311 125 310 126 C308 127 304 125 302 124 C297 122 291 121 286 119 C283 118 279 119 276 118 C272 116 267 117 263 117 C254 117 245 116 237 116"></path>
<path id="" fill="none" stroke="#000000" stroke-width="2.0" stroke-opacity="1.0" stroke-linecap="round" stroke-linejoin="round"  filling="0" d="M249 97 C252 97 256 99 259 100 C261 101 263 100 265 101 C266 102 269 101 270 101 C273 101 276 102 279 102 C280 102 284 101 285 102 C288 103 291 102 294 103 C297 104 300 103 303 104 C307 106 313 106 318 106"></path>
<path id="" fill="none" stroke="#000000" stroke-width="2.0" stroke-opacity="1.0" stroke-linecap="round" stroke-linejoin="round"  filling="0" d="M204 98 C201 101 197 98 193 100 C191 101 190 103 192 105"></path>
<path id="" fill="none" stroke="#000000" stroke-width="2.0" stroke-opacity="1.0" stroke-linecap="round" stroke-linejoin="round"  filling="0" d="M330 106 C329 107 328 107 326 107"></path>
<path id="" fill="none" stroke="#000000" stroke-width="2.0" stroke-opacity="1.0" stroke-linecap="round" stroke-linejoin="round"  filling="0" d="M177 155 C176 156 173 158 171 159 C167 161 165 165 161 167 C159 168 157 171 156 173 C156 174 156 175 156 175 C156 175 152 176 151 176 C149 177 147 181 145 182 C141 184 136 189 134 193 C133 195 131 195 130 196 C126 200 120 204 118 209 C117 212 112 215 110 217 C105 222 97 229 94 236 C93 238 89 240 88 242 C85 247 81 250 78 255 C77 256 75 262 73 262 C71 262 68 258 67 257"></path>
<path id="" fill="none" stroke="#000000" stroke-width="2.0" stroke-opacity="1.0" stroke-linecap="round" stroke-linejoin="round"  filling="0" d="M141 160 C137 164 132 169 127 171 C125 172 125 174 123 175 C118 177 114 182 109 184 C106 186 103 189 100 191 C99 192 97 191 96 192 C91 195 86 201 81 206 C79 208 76 210 75 212 C73 216 69 219 67 223 C66 224 67 226 66 227 C65 229 64 227 63 229 C62 232 60 234 59 237 C58 238 59 240 58 241 C57 242 55 242 54 244 C52 248 52 255 48 259"></path>
<path id="" fill="none" stroke="#000000" stroke-width="2.0" stroke-opacity="1.0" stroke-linecap="round" stroke-linejoin="round"  filling="0" d="M190 171 C189 172 189 173 189 174 C185 181 197 175 199 177 C199 177 199 180 199 180 C199 183 198 186 198 189"></path>
<path id="" fill="none" stroke="#000000" stroke-width="2.0" stroke-opacity="1.0" stroke-linecap="round" stroke-linejoin="round"  filling="0" d="M226 221 C229 224 231 227 234 230 C235 231 237 232 236 233 C235 236 229 238 226 238 C225 238 222 239 222 239 C222 241 224 244 225 246 C227 251 230 256 233 261 C234 263 236 266 238 267 C245 270 250 275 257 278 C260 280 265 280 268 282 C269 282 270 282 271 282 C274 284 281 284 284 282 C285 282 286 282 287 282 C289 281 295 278 296 276 C297 274 295 270 294 268 C293 267 295 265 294 264 C293 261 291 259 290 256 C288 252 289 248 287 244 C285 240 289 234 287 230 C286 227 282 225 284 221 C285 219 287 219 288 217 C290 213 287 208 289 204 C290 202 290 199 291 197 C292 195 290 192 291 190 C293 186 293 182 295 178 C296 176 294 174 295 172 C297 167 297 161 299 156 C299 155 299 154 299 153 C300 151 301 148 302 146 C302 145 302 144 302 143 C304 138 309 132 309 127"></path>
<path id="" fill="none" stroke="#000000" stroke-width="2.0" stroke-opacity="1.0" stroke-linecap="round" stroke-linejoin="round"  filling="0" d="M478 224 C480 226 483 227 484 229 C485 232 485 236 486 239 C490 246 487 258 480 261 C474 264 470 260 467 255 C466 253 468 248 467 246 C466 244 463 240 461 240 C460 240 461 242 460 242 C459 243 456 244 455 245 C454 248 453 253 451 255"></path>
<path id="" fill="none" stroke="#000000" stroke-width="2.0" stroke-opacity="1.0" stroke-linecap="round" stroke-linejoin="round"  filling="0" d="M492 229 C492 233 494 238 494 243 C494 244 494 248 494 248 C493 249 489 249 488 249"></path>
<path id="" fill="none" stroke="#000000" stroke-width="2.0" stroke-opacity="1.0" stroke-linecap="round" stroke-linejoin="round"  filling="0" d="M238 232 C238 232 237 233 237 233"></path>
<path id="" fill="none" stroke="#000000" stroke-width="2.0" stroke-opacity="1.0" stroke-linecap="round" stroke-linejoin="round"  filling="0" d="M220 236 C220 237 221 239 221 239 C221 240 217 240 216 241"></path>
<path id="" fill="none" stroke="#000000" stroke-width="2.0" stroke-opacity="1.0" stroke-linecap="round" stroke-linejoin="round"  filling="0" d="M16 241 C19 238 19 233 21 229 C26 219 33 209 42 200"></path>
<path id="" fill="none" stroke="#000000" stroke-width="2.0" stroke-opacity="1.0" stroke-linecap="round" stroke-linejoin="round"  filling="0" d="M74 242 C77 245 77 247 80 250"></path>
<path id="" fill="none" stroke="#000000" stroke-width="2.0" stroke-opacity="1.0" stroke-linecap="round" stroke-linejoin="round"  filling="0" d="M460 253 C460 250 461 244 464 244"></path>
<path id="" fill="none" stroke="#000000" stroke-width="2.0" stroke-opacity="1.0" stroke-linecap="round" stroke-linejoin="round"  filling="0" d="M502 255 C502 260 499 261 497 265 C496 267 497 270 496 272 C495 274 497 279 496 281 C493 286 497 294 494 299 C493 301 495 304 494 306 C490 314 491 325 487 333 C486 334 484 339 483 339 C480 340 477 342 475 345 C469 356 456 360 447 365 C444 366 441 366 438 367 C436 368 432 366 430 366 C429 366 428 369 427 369 C424 369 417 368 414 367 C412 366 410 368 408 367 C403 365 397 364 392 362 C387 360 383 357 378 355 C377 354 374 355 373 354 C370 353 368 351 365 351"></path>
<path id="" fill="none" stroke="#000000" stroke-width="2.0" stroke-opacity="1.0" stroke-linecap="round" stroke-linejoin="round"  filling="0" d="M169 258 C166 261 164 266 162 270 C162 270 162 274 162 274 C163 275 166 273 167 273 C169 272 170 269 172 268 C174 267 178 265 180 263"></path>
<path id="" fill="none" stroke="#000000" stroke-width="2.0" stroke-opacity="1.0" stroke-linecap="round" stroke-linejoin="round"  filling="0" d="M46 274 C46 275 47 276 48 277 C49 277 50 276 50 277 C50 278 48 278 48 279 C47 281 47 290 48 292 C49 295 53 295 54 298 C55 301 52 307 51 309 C50 311 52 315 52 317 C52 318 50 321 50 321"></path>
<path id="" fill="none" stroke="#000000" stroke-width="2.0" stroke-opacity="1.0" stroke-linecap="round" stroke-linejoin="round"  filling="0" d="M129 274 C128 275 119 278 121 274 C125 267 128 260 132 253 C133 251 132 248 133 246 C134 244 136 240 138 239 C139 238 142 239 140 239"></path>
<path id="" fill="none" stroke="#000000" stroke-width="2.0" stroke-opacity="1.0" stroke-linecap="round" stroke-linejoin="round"  filling="0" d="M104 285 C104 283 106 281 106 280 C106 278 99 279 98 278 C94 276 90 276 86 274 C83 273 82 270 79 269 C77 268 73 266 73 263"></path>
<path id="" fill="none" stroke="#000000" stroke-width="2.0" stroke-opacity="1.0" stroke-linecap="round" stroke-linejoin="round"  filling="0" d="M188 291 C186 289 183 291 180 290 C175 287 170 284 165 281 C164 280 163 279 162 278 C161 277 160 278 160 277 C160 277 161 276 161 276 C161 274 155 273 154 271 C152 267 149 264 147 260 C146 257 145 254 144 251 C143 248 144 242 142 240"></path>
<path id="" fill="none" stroke="#000000" stroke-width="2.0" stroke-opacity="1.0" stroke-linecap="round" stroke-linejoin="round"  filling="0" d="M215 291 C210 296 204 301 198 307 C196 309 192 312 191 314 C189 317 187 321 185 324 C184 326 178 329 176 331 C174 333 172 337 169 339 C161 343 151 352 147 361 C145 365 140 368 138 372 C134 380 129 388 125 396 C124 398 121 398 120 400 C119 403 119 407 118 410 C117 412 119 415 117 417"></path>
<path id="" fill="none" stroke="#000000" stroke-width="2.0" stroke-opacity="1.0" stroke-linecap="round" stroke-linejoin="round"  filling="0" d="M202 314 C199 317 191 322 187 322"></path>
<path id="" fill="none" stroke="#000000" stroke-width="2.0" stroke-opacity="1.0" stroke-linecap="round" stroke-linejoin="round"  filling="0" d="M323 316 C322 316 320 317 319 317 C315 315 309 316 304 316 C302 316 298 315 297 316 C295 317 295 319 294 320 C293 321 290 319 289 319 C288 319 289 322 289 323 C289 327 292 331 295 334 C301 340 308 344 316 348 C318 349 321 349 323 350 C324 350 324 349 325 349 C326 349 326 356 326 357 C326 363 328 370 325 375 C324 376 326 379 325 380 C325 380 324 380 323 380 C321 381 320 382 319 384 C319 385 316 386 317 387 C321 396 326 386 326 381"></path>
<path id="" fill="none" stroke="#000000" stroke-width="2.0" stroke-opacity="1.0" stroke-linecap="round" stroke-linejoin="round"  filling="0" d="M347 323 C343 323 340 319 337 317 C330 314 323 308 318 303 C315 300 313 297 311 294 C310 292 305 293 307 293"></path>
<path id="" fill="none" stroke="#000000" stroke-width="2.0" stroke-opacity="1.0" stroke-linecap="round" stroke-linejoin="round"  filling="0" d="M155 328 C154 327 149 322 149 322 C147 322 146 325 145 326 C142 329 137 333 135 337 C134 339 131 341 130 344 C124 355 119 366 119 380 C119 384 117 396 120 399"></path>
<path id="" fill="none" stroke="#000000" stroke-width="2.0" stroke-opacity="1.0" stroke-linecap="round" stroke-linejoin="round"  filling="0" d="M123 333 C122 334 116 335 114 334 C114 334 111 332 111 332 C110 332 108 334 107 334 C107 334 107 333 107 333 C106 332 101 334 99 333 C99 333 98 332 98 332 C97 332 97 334 97 335 C97 338 98 342 98 345 C98 345 97 347 97 348"></path>
<path id="" fill="none" stroke="#000000" stroke-width="2.0" stroke-opacity="1.0" stroke-linecap="round" stroke-linejoin="round"  filling="0" d="M422 334 C422 321 441 316 450 312 C453 310 462 308 462 314 C462 317 458 321 457 324 C453 331 447 338 441 344 C438 347 435 349 433 351 C433 351 430 352 430 353 C430 353 431 354 431 354 C432 357 430 362 430 365"></path>
<path id="" fill="none" stroke="#000000" stroke-width="2.0" stroke-opacity="1.0" stroke-linecap="round" stroke-linejoin="round"  filling="0" d="M342 339 C339 342 335 340 332 340 C323 340 316 337 308 333 C306 332 305 330 303 329 C301 328 295 324 295 321"></path>
<path id="" fill="none" stroke="#000000" stroke-width="2.0" stroke-opacity="1.0" stroke-linecap="round" stroke-linejoin="round"  filling="0" d="M367 342 C364 345 359 343 356 345 C354 346 350 346 348 347 C347 348 346 349 344 350 C343 351 340 350 339 350 C335 350 330 350 326 350"></path>
<path id="" fill="none" stroke="#000000" stroke-width="2.0" stroke-opacity="1.0" stroke-linecap="round" stroke-linejoin="round"  filling="0" d="M211 343 C211 352 221 344 225 342 C227 341 229 339 231 338 C232 337 235 338 236 337 C238 336 237 334 239 333 C244 331 247 326 252 324 C256 322 258 321 261 318 C264 315 269 311 273 309 C274 308 276 304 274 303 C267 300 261 297 254 294 C252 293 250 290 247 291 C246 292 246 293 245 294 C241 298 238 301 236 305 C234 309 229 311 227 315 C224 322 213 332 206 335 C203 336 202 340 199 341 C193 344 189 348 183 351 C181 352 176 355 175 357 C174 358 175 361 175 359"></path>
<path id="" fill="none" stroke="#000000" stroke-width="2.0" stroke-opacity="1.0" stroke-linecap="round" stroke-linejoin="round"  filling="0" d="M325 346 C325 347 325 347 325 348"></path>
<path id="" fill="none" stroke="#000000" stroke-width="2.0" stroke-opacity="1.0" stroke-linecap="round" stroke-linejoin="round"  filling="0" d="M419 346 C419 350 422 352 425 354 C426 354 428 353 429 353"></path>
<path id="" fill="none" stroke="#000000" stroke-width="2.0" stroke-opacity="1.0" stroke-linecap="round" stroke-linejoin="round"  filling="0" d="M170 360 C171 360 172 359 173 359"></path>
<path id="" fill="none" stroke="#000000" stroke-width="2.0" stroke-opacity="1.0" stroke-linecap="round" stroke-linejoin="round"  filling="0" d="M332 362 C332 364 330 365 328 365"></path>
<path id="" fill="none" stroke="#000000" stroke-width="2.0" stroke-opacity="1.0" stroke-linecap="round" stroke-linejoin="round"  filling="0" d="M359 369 C357 371 354 376 351 377 C348 378 346 377 345 380 C344 383 345 385 346 387 C347 389 346 394 346 396 C346 405 346 413 346 422 C346 424 347 430 346 432 C345 434 343 436 343 438 C343 439 345 439 346 440 C347 442 345 444 346 446 C348 450 352 452 355 454 C359 456 362 460 366 462 C368 463 368 465 370 466 C382 472 389 486 401 492 C406 494 409 500 414 502 C425 507 434 515 445 520 C448 522 451 523 454 525 C455 525 457 528 458 527 C460 525 461 521 462 519 C465 514 467 509 470 504 C471 501 471 498 472 495 C474 491 472 481 470 478 C469 476 470 471 469 469 C466 463 466 457 463 451 C462 449 464 447 464 446 C464 445 461 444 461 443 C459 440 456 437 454 433 C452 429 447 427 445 423 C443 419 444 410 439 408 C436 407 434 406 431 406 C430 406 427 406 427 406 C427 406 427 404 427 403 C425 400 426 395 426 391 C426 390 426 387 426 387 C428 385 434 389 436 390 C440 392 445 392 449 394 C454 396 457 401 460 404 C463 407 463 409 465 412 C465 413 467 415 466 416 C466 416 461 415 460 415 C455 412 450 411 443 411"></path>
<path id="" fill="none" stroke="#000000" stroke-width="2.0" stroke-opacity="1.0" stroke-linecap="round" stroke-linejoin="round"  filling="0" d="M447 374 C450 371 455 370 458 368 C466 364 476 355 480 347 C481 344 484 342 484 339"></path>
<path id="" fill="none" stroke="#000000" stroke-width="2.0" stroke-opacity="1.0" stroke-linecap="round" stroke-linejoin="round"  filling="0" d="M299 380 C295 384 291 390 288 395 C287 396 282 400 281 399 C279 398 280 394 280 392 C280 389 280 386 281 383 C282 382 280 381 280 380 C280 378 281 374 280 373 C279 370 277 371 275 372 C272 373 269 379 267 381 C264 384 257 389 255 393 C254 395 251 399 249 400 C248 400 246 401 245 402 C244 403 246 405 245 406 C244 407 244 407 243 408 C242 410 244 412 243 414 C240 420 241 429 238 435 C236 440 231 444 229 449 C228 451 226 451 225 453 C224 456 221 459 218 460 C216 461 216 463 214 464 C209 467 203 469 198 472 C196 473 193 473 191 474 C190 475 187 473 186 474 C179 477 169 476 161 476 C154 476 146 476 139 476 C137 476 132 477 130 476 C126 474 132 469 134 468 C135 468 136 468 137 468 C143 465 148 463 154 460 C155 460 156 460 157 460 C164 456 171 452 178 448 C187 444 194 433 198 425 C200 421 203 417 205 413 C205 412 205 411 205 410 C210 399 213 388 213 375 C213 370 214 362 212 357 C211 355 213 353 212 351 C210 347 204 353 202 354 C199 355 197 357 194 358 C193 358 191 358 191 359 C191 359 192 360 192 360 C192 364 186 368 183 371 C171 383 163 398 156 412 C156 413 156 414 156 415 C155 417 154 418 153 420 C152 422 153 424 151 426 C151 426 149 429 148 429 C146 429 146 426 146 425 C146 421 146 416 146 412 C146 411 145 408 146 407 C148 403 146 399 148 395 C149 393 147 391 148 389 C151 384 151 378 154 373 C154 372 154 371 154 370 C155 368 156 367 157 366 C157 365 157 364 157 363 C160 357 163 352 166 346 C167 344 169 343 169 340"></path>
<path id="" fill="none" stroke="#000000" stroke-width="2.0" stroke-opacity="1.0" stroke-linecap="round" stroke-linejoin="round"  filling="0" d="M564 390 C567 393 571 398 573 402 C575 406 572 408 569 406 C566 405 562 399 561 397 C560 395 557 393 555 391 C551 387 549 384 545 380 C542 377 541 374 539 371 C538 370 537 367 539 366 C542 364 547 367 550 367 C562 367 572 370 582 375 C586 377 588 380 592 382 C597 385 599 392 603 396 C605 398 608 401 610 397 C612 392 611 386 613 381 C614 380 612 377 613 376 C616 371 614 364 617 359 C618 358 616 355 617 354 C621 346 620 335 620 325 C620 322 619 316 620 313 C622 309 619 304 621 300 C624 295 625 289 628 283 C629 282 628 279 629 278 C632 272 636 266 641 261 C642 260 645 254 648 255 C650 256 650 259 650 261 C650 267 650 272 650 278 C650 290 650 302 650 314 C650 319 649 326 651 330 C654 335 648 344 651 349 C653 353 654 362 659 364 C666 368 679 372 683 381 C687 389 692 396 696 404 C696 405 696 406 696 407 C698 411 699 415 697 419 C696 422 698 426 697 429 C694 434 695 441 692 446 C691 448 692 450 691 452 C690 453 689 454 688 455 C686 459 689 466 687 470 C686 471 687 473 686 474 C685 475 684 476 683 477 C682 479 683 482 681 484"></path>
<path id="" fill="none" stroke="#000000" stroke-width="2.0" stroke-opacity="1.0" stroke-linecap="round" stroke-linejoin="round"  filling="0" d="M263 409 C261 411 259 415 258 418 C257 421 253 425 253 428 C253 428 253 431 253 431 C254 432 255 430 255 430 C256 429 258 431 259 430 C260 430 260 428 261 428 C262 428 265 425 265 425 C265 425 265 426 265 426 C266 427 267 425 267 425 C271 423 275 424 277 419 C277 418 277 418 277 417 C277 416 279 416 279 415 C280 413 281 405 279 404 C278 403 275 406 275 407 C274 408 275 412 274 413 C272 415 268 418 266 421 C266 422 266 423 265 424"></path>
<path id="" fill="none" stroke="#000000" stroke-width="2.0" stroke-opacity="1.0" stroke-linecap="round" stroke-linejoin="round"  filling="0" d="M317 411 C319 409 318 405 322 403 C324 402 325 405 326 406 C327 406 329 406 329 407 C329 408 327 411 328 413 C329 414 330 418 329 420 C328 421 326 421 325 422 C324 423 323 426 322 427 C321 428 321 434 319 434 C315 434 311 424 310 421 C309 420 311 417 310 416 C309 415 308 413 307 412 C306 412 305 412 305 412 C304 411 305 405 305 404 C305 402 303 401 303 400 C303 399 305 399 305 398 C305 397 305 397 305 396 C306 395 308 395 309 394 C311 393 314 389 316 387"></path>
<path id="" fill="none" stroke="#000000" stroke-width="2.0" stroke-opacity="1.0" stroke-linecap="round" stroke-linejoin="round"  filling="0" d="M506 419 C508 419 508 421 510 422 C513 424 516 426 519 428 C525 431 530 436 536 439 C538 440 539 443 541 444 C548 448 555 455 561 461 C565 465 572 469 574 474 C575 475 576 479 574 480 C573 481 572 479 571 479 C570 479 569 479 568 479 C565 477 561 477 558 475 C556 474 554 476 552 476 C546 476 539 476 533 476 C528 476 523 476 518 476 C517 476 513 475 512 476 C510 477 511 480 510 482 C509 484 508 482 506 482 C505 482 505 482 504 482 C500 480 499 475 495 473 C488 470 482 461 476 455 C473 452 469 446 465 446"></path>
<path id="" fill="none" stroke="#000000" stroke-width="2.0" stroke-opacity="1.0" stroke-linecap="round" stroke-linejoin="round"  filling="0" d="M432 433 C432 430 430 427 429 424 C428 422 430 418 429 416 C429 415 427 415 427 414 C426 413 427 409 427 407"></path>
<path id="" fill="none" stroke="#000000" stroke-width="2.0" stroke-opacity="1.0" stroke-linecap="round" stroke-linejoin="round"  filling="0" d="M485 435 C485 432 480 431 479 428 C478 427 479 424 478 423 C476 420 470 419 467 416"></path>
<path id="" fill="none" stroke="#000000" stroke-width="2.0" stroke-opacity="1.0" stroke-linecap="round" stroke-linejoin="round"  filling="0" d="M149 455 C147 453 149 450 148 448 C146 444 148 435 148 430"></path>
<path id="" fill="none" stroke="#000000" stroke-width="2.0" stroke-opacity="1.0" stroke-linecap="round" stroke-linejoin="round"  filling="0" d="M288 465 C288 466 290 474 291 475 C294 476 299 472 301 470"></path>
<path id="" fill="none" stroke="#000000" stroke-width="2.0" stroke-opacity="1.0" stroke-linecap="round" stroke-linejoin="round"  filling="0" d="M117 474 C119 474 121 476 123 475 C125 474 125 474 127 474"></path>
<path id="" fill="none" stroke="#000000" stroke-width="2.0" stroke-opacity="1.0" stroke-linecap="round" stroke-linejoin="round"  filling="0" d="M673 517 C671 515 664 506 661 508 C658 509 660 517 661 519 C662 522 660 526 661 529 C662 532 661 535 662 538 C664 541 665 548 665 551 C665 553 670 561 667 563 C665 564 662 561 661 560 C657 558 653 553 649 551 C647 550 646 547 644 546 C634 541 626 532 617 523 C612 518 604 511 600 504 C597 498 590 495 587 489 C586 487 581 482 579 481 C578 481 577 481 576 480"></path>
<path id="" fill="none" stroke="#000000" stroke-width="2.0" stroke-opacity="1.0" stroke-linecap="round" stroke-linejoin="round"  filling="0" d="M462 530 C461 529 459 529 458 528"></path>
<path id="" fill="none" stroke="#000000" stroke-width="2.0" stroke-opacity="1.0" stroke-linecap="round" stroke-linejoin="round"  filling="0" d="M615 530 C613 532 611 529 609 528 C603 525 596 521 590 518 C583 514 574 512 567 508 C566 508 565 508 564 508 C558 505 552 505 546 502 C544 501 540 503 540 503 C539 503 537 500 536 499 C535 499 534 499 533 499 C531 498 530 497 528 496 C524 494 517 491 514 488 C512 486 510 486 510 483"></path>
<path id="" fill="none" stroke="#000000" stroke-width="2.0" stroke-opacity="1.0" stroke-linecap="round" stroke-linejoin="round"  filling="0" d="M452 534 C453 533 455 530 455 528"></path>
<path id="" fill="none" stroke="#000000" stroke-width="2.0" stroke-opacity="1.0" stroke-linecap="round" stroke-linejoin="round"  filling="0" d="M566 535 C566 530 553 526 556 520 C556 519 558 519 559 519 C563 521 567 521 570 523 C579 527 586 535 595 539 C599 541 600 545 604 547 C607 548 609 551 612 554 C613 555 615 554 615 555 C615 556 613 556 612 557 C610 561 606 563 604 567 C604 568 604 569 604 570 C602 574 602 577 600 581 C600 582 600 583 600 584 C598 587 594 592 590 594 C589 594 588 594 587 594 C583 596 586 598 586 600 C586 601 584 600 584 601 C583 604 580 604 577 605 C574 606 571 607 569 608 C567 609 565 612 562 611 C560 610 562 609 561 608 C560 605 557 603 556 600 C555 598 552 596 551 594 C548 587 540 581 534 575"></path>
<path id="" fill="none" stroke="#000000" stroke-width="2.0" stroke-opacity="1.0" stroke-linecap="round" stroke-linejoin="round"  filling="0" d="M395 546 C395 560 394 574 394 588 C394 591 392 596 393 599 C393 599 394 600 394 600 C394 601 393 602 392 602 C387 604 382 601 377 601 C363 601 348 601 334 601 C330 601 325 601 321 601 C320 601 316 601 316 601 C315 602 315 606 315 608 C315 612 314 615 314 618 C314 619 315 623 314 624 C313 627 313 629 312 632 C311 633 313 636 312 637 C308 645 309 655 305 663 C305 664 305 665 305 666 C305 667 303 667 304 668 C304 669 306 672 305 673 C304 674 302 674 301 676 C299 679 301 686 298 689"></path>
<path id="" fill="none" stroke="#000000" stroke-width="2.0" stroke-opacity="1.0" stroke-linecap="round" stroke-linejoin="round"  filling="0" d="M620 550 C619 551 617 553 616 554"></path>
<path id="" fill="none" stroke="#000000" stroke-width="2.0" stroke-opacity="1.0" stroke-linecap="round" stroke-linejoin="round"  filling="0" d="M406 557 C412 557 421 559 426 556 C428 555 431 558 432 559 C433 562 433 566 433 570 C433 575 433 580 433 585 C433 586 432 590 433 591 C433 591 434 592 434 592 C434 592 433 592 433 592 C432 593 434 596 433 597 C433 598 431 598 431 599 C431 600 432 605 433 606 C434 607 433 611 433 612 C433 615 434 618 434 620 C434 620 433 620 433 620 C433 620 433 624 433 625 C433 631 433 638 433 644 C433 645 434 649 433 650 C432 651 427 650 426 650 C419 650 413 651 407 651"></path>
<path id="" fill="none" stroke="#000000" stroke-width="2.0" stroke-opacity="1.0" stroke-linecap="round" stroke-linejoin="round"  filling="0" d="M641 558 C639 560 631 566 629 565 C627 564 626 561 625 559 C624 556 621 554 619 552"></path>
<path id="" fill="none" stroke="#000000" stroke-width="2.0" stroke-opacity="1.0" stroke-linecap="round" stroke-linejoin="round"  filling="0" d="M317 576 C317 581 322 581 324 577 C328 569 332 563 339 556 C341 554 343 551 345 550 C352 547 359 544 366 541 C370 539 375 540 379 538 C383 536 389 539 391 534 C392 532 390 530 389 528 C387 524 384 519 382 515 C377 505 370 496 365 486 C364 485 363 484 362 483 C358 476 353 470 349 463 C347 458 343 454 341 450 C340 448 336 445 338 441 C339 439 341 440 342 439"></path>
<path id="" fill="none" stroke="#000000" stroke-width="2.0" stroke-opacity="1.0" stroke-linecap="round" stroke-linejoin="round"  filling="0" d="M200 604 C202 602 203 599 204 597 C204 596 204 595 204 594 C208 586 212 578 216 570 C217 569 216 566 217 565 C220 558 225 553 228 546 C236 531 245 515 258 502 C265 495 273 488 281 484 C283 483 289 477 291 478 C293 479 293 484 294 486 C297 491 299 501 305 504 C306 505 308 502 308 501 C308 496 308 490 308 485 C308 480 309 472 311 467 C312 464 312 461 313 458 C314 456 313 453 314 451 C316 447 316 444 318 440 C319 439 317 438 319 437 C321 436 325 438 327 439 C329 440 336 440 334 440"></path>
<path id="" fill="none" stroke="#000000" stroke-width="2.0" stroke-opacity="1.0" stroke-linecap="round" stroke-linejoin="round"  filling="0" d="M646 613 C644 613 643 615 642 615 C641 615 641 613 641 612 C641 609 641 605 641 602 C641 595 638 589 635 583 C634 581 637 577 634 575 C633 574 632 577 631 577 C628 578 632 581 634 581"></path>
<path id="" fill="none" stroke="#000000" stroke-width="2.0" stroke-opacity="1.0" stroke-linecap="round" stroke-linejoin="round"  filling="0" d="M357 614 C357 615 358 615 358 616 C359 618 358 622 358 624 C358 631 358 637 358 644 C358 648 357 654 359 658 C361 662 358 669 360 674 C361 675 360 679 360 681 C360 685 361 689 361 694 C361 695 360 699 361 700 C362 703 361 707 362 710 C363 712 364 714 365 716 C366 717 364 718 364 719 C364 720 367 720 368 721 C368 722 370 728 369 729 C369 729 365 729 364 729 C359 729 354 729 350 727 C348 726 346 726 344 725 C341 723 342 719 339 718 C338 717 336 718 335 717 C333 716 330 712 329 710 C327 706 323 704 321 700 C320 697 316 696 315 693 C313 689 310 684 308 680 C307 677 309 676 306 673"></path>
<path id="" fill="none" stroke="#000000" stroke-width="2.0" stroke-opacity="1.0" stroke-linecap="round" stroke-linejoin="round"  filling="0" d="M514 616 C511 613 510 606 505 604 C504 604 503 603 502 602 C501 601 499 603 498 602 C495 601 492 600 489 601 C485 603 480 615 475 612 C471 610 468 603 464 601 C460 599 457 596 453 594 C448 591 441 592 435 592"></path>
<path id="" fill="none" stroke="#000000" stroke-width="2.0" stroke-opacity="1.0" stroke-linecap="round" stroke-linejoin="round"  filling="0" d="M569 622 C569 618 565 616 565 612"></path>
<path id="" fill="none" stroke="#000000" stroke-width="2.0" stroke-opacity="1.0" stroke-linecap="round" stroke-linejoin="round"  filling="0" d="M640 638 C642 638 643 640 645 641 C649 643 654 645 658 647 C676 656 695 664 713 673 C722 677 731 679 740 683 C743 685 749 683 752 685 C753 686 752 689 751 690"></path>
<path id="" fill="none" stroke="#000000" stroke-width="2.0" stroke-opacity="1.0" stroke-linecap="round" stroke-linejoin="round"  filling="0" d="M714 648 C710 644 706 637 703 632 C700 627 696 622 693 617 C688 607 683 598 678 588 C675 583 674 576 671 571 C670 569 670 566 668 564"></path>
<path id="" fill="none" stroke="#000000" stroke-width="2.0" stroke-opacity="1.0" stroke-linecap="round" stroke-linejoin="round"  filling="0" d="M446 652 C443 652 438 648 434 650 C432 651 433 653 433 655 C433 661 434 665 434 671 C434 683 436 696 441 706 C443 710 442 715 444 719 C444 720 447 723 448 723 C448 723 449 723 449 723 C449 724 447 725 448 727 C449 729 452 731 453 733 C454 735 452 739 453 741 C456 746 457 754 457 760"></path>
<path id="" fill="none" stroke="#000000" stroke-width="2.0" stroke-opacity="1.0" stroke-linecap="round" stroke-linejoin="round"  filling="0" d="M598 668 C598 670 599 672 597 674 C597 674 595 674 594 674 C593 675 591 675 590 676 C582 680 575 683 567 687 C560 691 552 692 545 696 C541 698 536 698 532 700 C531 700 530 700 529 700 C523 703 517 703 511 706 C510 706 509 706 508 706 C503 709 496 708 491 711 C489 712 486 711 484 712 C478 715 470 715 464 718 C460 720 455 723 450 723"></path>
<path id="" fill="none" stroke="#000000" stroke-width="2.0" stroke-opacity="1.0" stroke-linecap="round" stroke-linejoin="round"  filling="0" d="M781 687 C779 689 774 688 772 687 C769 686 765 688 762 687 C761 687 757 684 757 684 C757 684 755 685 754 685"></path>
<path id="" fill="none" stroke="#000000" stroke-width="2.0" stroke-opacity="1.0" stroke-linecap="round" stroke-linejoin="round"  filling="0" d="M470 736 C469 737 469 737 468 737 C466 736 463 735 461 734 C459 733 456 735 454 733"></path>
<path id="" fill="none" stroke="#000000" stroke-width="2.0" stroke-opacity="1.0" stroke-linecap="round" stroke-linejoin="round"  filling="0" d="M411 739 C408 736 409 730 409 727 C409 726 407 727 407 726 C406 724 406 721 405 719 C404 718 406 716 405 715 C402 710 405 703 402 698 C401 697 402 693 402 692 C402 687 402 683 402 678 C402 676 401 675 401 673 C401 668 402 660 400 656 C399 653 400 649 399 646 C398 645 399 641 399 640 C399 637 398 632 397 629 C396 627 398 623 397 621 C394 616 397 606 393 602"></path>
<path id="" fill="none" stroke="#000000" stroke-width="2.0" stroke-opacity="1.0" stroke-linecap="round" stroke-linejoin="round"  filling="0" d="M587 759 C587 757 588 751 589 749 C590 747 588 745 589 743 C590 740 590 738 591 735 C592 733 590 731 591 729 C592 726 592 723 593 720 C595 716 591 713 596 710 C600 708 599 716 600 717 C602 721 602 725 604 729 C605 732 608 734 609 737 C610 739 612 743 616 741 C618 740 617 739 618 737 C619 734 620 732 621 729 C622 728 620 725 621 724 C624 719 620 711 622 706 C624 703 623 698 623 694 C623 686 623 678 623 670 C623 668 624 664 623 662 C622 659 620 658 622 655 C623 653 626 651 627 649 C632 638 641 629 641 616"></path>
<path id="" fill="none" stroke="#000000" stroke-width="2.0" stroke-opacity="1.0" stroke-linecap="round" stroke-linejoin="round"  filling="0" d="M376 760 C374 760 373 755 373 753 C373 750 372 746 371 744 C370 742 372 740 371 738 C370 736 369 732 370 730 C371 728 377 729 379 729 C389 729 398 728 407 728"></path>
<path id="" fill="none" stroke="#000000" stroke-width="2.0" stroke-opacity="1.0" stroke-linecap="round" stroke-linejoin="round"  filling="0" d="M155 178 C155 182 152 185 151 188 C151 189 151 190 151 191 C148 197 147 205 144 211 C143 214 144 221 145 223 C146 224 143 226 143 227 C141 230 143 234 140 237"></path>
<path id="" fill="none" stroke="#000000" stroke-width="2.0" stroke-opacity="1.0" stroke-linecap="round" stroke-linejoin="round"  filling="0" d="M168 197 C165 200 161 204 159 208 C158 211 154 212 153 215 C152 216 153 218 152 219 C151 222 148 221 146 223"></path>
<path id="" fill="none" stroke="#000000" stroke-width="2.0" stroke-opacity="1.0" stroke-linecap="round" stroke-linejoin="round"  filling="0" d="M99 194 C94 199 84 207 81 214 C80 216 76 218 75 220 C73 223 70 228 66 228"></path>
<path id="" fill="none" stroke="#000000" stroke-width="2.0" stroke-opacity="1.0" stroke-linecap="round" stroke-linejoin="round"  filling="0" d="M332 424 C332 428 336 425 338 428 C339 430 335 433 333 432 C331 431 332 429 332 427"></path>
<path id="" fill="none" stroke="#000000" stroke-width="2.0" stroke-opacity="1.0" stroke-linecap="round" stroke-linejoin="round"  filling="0" d="M153 291 C153 293 151 299 150 301 C149 302 151 305 150 306 C148 310 150 313 150 317 C150 318 149 320 149 321"></path>
<path id="" fill="none" stroke="#000000" stroke-width="2.0" stroke-opacity="1.0" stroke-linecap="round" stroke-linejoin="round"  filling="0" d="M325 400 C328 400 329 396 331 395 C334 393 335 398 334 400 C333 402 331 405 330 406"></path>
<path id="" fill="none" stroke="#000000" stroke-width="2.0" stroke-opacity="1.0" stroke-linecap="round" stroke-linejoin="round"  filling="0" d="M273 433 C270 436 273 441 271 444 C270 446 268 455 269 458 C269 458 270 459 270 459 C270 459 269 459 269 459 C269 459 269 462 269 463 C269 468 269 476 264 478 C260 480 254 480 252 475 C250 472 251 466 251 462 C251 457 250 451 250 446 C250 442 249 435 252 432"></path>
<path id="" fill="none" stroke="#000000" stroke-width="2.0" stroke-opacity="1.0" stroke-linecap="round" stroke-linejoin="round"  filling="0" d="M443 625 C446 625 450 628 452 629 C453 629 454 629 455 629 C461 632 468 631 474 634 C476 635 479 633 481 634 C485 636 491 635 495 635 C513 635 529 629 544 621 C549 618 557 616 561 612"></path>
<path id="" fill="none" stroke="#000000" stroke-width="2.0" stroke-opacity="1.0" stroke-linecap="round" stroke-linejoin="round"  filling="0" d="M102 316 C102 312 104 309 106 306 C106 305 106 304 106 303 C110 295 113 288 117 280 C119 276 110 279 110 277 C110 274 114 269 115 266 C116 264 117 266 118 264 C118 263 118 263 118 262 C118 262 120 259 120 259 C120 259 117 259 117 259 C114 258 111 259 107 259 C102 259 93 258 89 256 C86 255 83 255 81 253"></path>
<path id="" fill="none" stroke="#000000" stroke-width="2.0" stroke-opacity="1.0" stroke-linecap="round" stroke-linejoin="round"  filling="0" d="M322 393 C322 393 322 392 322 392"></path>
<path id="" fill="none" stroke="#000000" stroke-width="2.0" stroke-opacity="1.0" stroke-linecap="round" stroke-linejoin="round"  filling="0" d="M289 227 C288 228 288 228 287 229"></path>
<path id="" fill="none" stroke="#000000" stroke-width="2.0" stroke-opacity="1.0" stroke-linecap="round" stroke-linejoin="round"  filling="0" d="M59 302 C61 304 61 306 62 308 C65 314 71 320 77 323 C81 325 85 327 89 329 C90 329 92 329 92 330 C92 330 90 334 90 335 C89 337 84 335 82 334 C81 334 80 334 79 334 C77 333 74 332 72 331 C69 329 65 327 62 325 C58 323 57 318 52 318"></path>
<path id="" fill="none" stroke="#000000" stroke-width="2.0" stroke-opacity="1.0" stroke-linecap="round" stroke-linejoin="round"  filling="0" d="M290 219 C290 221 290 224 290 226"></path>
<path id="" fill="none" stroke="#000000" stroke-width="2.0" stroke-opacity="1.0" stroke-linecap="round" stroke-linejoin="round"  filling="0" d="M231 277 C233 279 236 284 239 285 C242 286 245 288 247 290"></path>
<path id="" fill="none" stroke="#000000" stroke-width="2.0" stroke-opacity="1.0" stroke-linecap="round" stroke-linejoin="round"  filling="0" d="M125 243 C128 246 128 247 132 247"></path>
<path id="" fill="none" stroke="#000000" stroke-width="2.0" stroke-opacity="1.0" stroke-linecap="round" stroke-linejoin="round"  filling="0" d="M335 393 C337 391 339 385 343 385"></path>
<path id="" fill="none" stroke="#000000" stroke-width="2.0" stroke-opacity="1.0" stroke-linecap="round" stroke-linejoin="round"  filling="0" d="M590 431 C592 433 594 435 595 437 C596 438 594 441 595 442 C596 444 598 446 599 448 C601 453 607 457 611 461 C620 470 630 482 641 488 C645 490 647 495 651 497 C656 499 660 502 660 508"></path>
<path id="" fill="none" stroke="#000000" stroke-width="2.0" stroke-opacity="1.0" stroke-linecap="round" stroke-linejoin="round"  filling="0" d="M120 319 C117 322 112 327 112 331"></path>
<path id="" fill="none" stroke="#000000" stroke-width="2.0" stroke-opacity="1.0" stroke-linecap="round" stroke-linejoin="round"  filling="0" d="M287 425 C284 428 285 433 283 436 C279 444 277 453 271 459"></path>
<path id="" fill="none" stroke="#000000" stroke-width="2.0" stroke-opacity="1.0" stroke-linecap="round" stroke-linejoin="round"  filling="0" d="M174 203 C174 206 171 205 169 207 C165 211 158 218 153 218"></path>
<path id="" fill="none" stroke="#000000" stroke-width="2.0" stroke-opacity="1.0" stroke-linecap="round" stroke-linejoin="round"  filling="0" d="M757 616 C760 619 758 625 760 628 C763 635 762 644 762 651 C762 655 763 660 761 664 C760 666 762 671 761 673 C760 676 758 680 758 683"></path>
<path id="" fill="none" stroke="#000000" stroke-width="2.0" stroke-opacity="1.0" stroke-linecap="round" stroke-linejoin="round"  filling="0" d="M467 233 C467 237 467 238 464 241"></path>
<path id="" fill="none" stroke="#000000" stroke-width="2.0" stroke-opacity="1.0" stroke-linecap="round" stroke-linejoin="round"  filling="0" d="M280 401 C279 402 275 398 272 400 C268 402 265 402 261 404 C260 404 259 404 258 404 C255 406 250 407 246 407"></path>
<path id="" fill="none" stroke="#000000" stroke-width="2.0" stroke-opacity="1.0" stroke-linecap="round" stroke-linejoin="round"  filling="0" d="M693 488 C695 490 696 493 697 496 C700 502 703 509 706 515 C717 536 727 557 738 578 C740 583 745 586 747 591 C749 595 751 601 753 605 C754 608 757 612 757 615"></path>
<path id="" fill="none" stroke="#000000" stroke-width="2.0" stroke-opacity="1.0" stroke-linecap="round" stroke-linejoin="round"  filling="0" d="M519 443 C522 443 524 447 526 448 C534 452 542 460 548 466 C550 468 555 470 555 474"></path>
<path id="" fill="none" stroke="#000000" stroke-width="2.0" stroke-opacity="1.0" stroke-linecap="round" stroke-linejoin="round"  filling="0" d="M422 728 C418 728 414 727 410 727"></path>
<path id="" fill="none" stroke="#000000" stroke-width="2.0" stroke-opacity="1.0" stroke-linecap="round" stroke-linejoin="round"  filling="0" d="M545 511 C547 513 549 517 552 519 C553 519 554 519 555 520"></path>
<path id="" fill="none" stroke="#000000" stroke-width="2.0" stroke-opacity="1.0" stroke-linecap="round" stroke-linejoin="round"  filling="0" d="M204 68 C204 70 206 72 204 74"></path>
<path id="" fill="none" stroke="#000000" stroke-width="2.0" stroke-opacity="1.0" stroke-linecap="round" stroke-linejoin="round"  filling="0" d="M143 294 C135 302 128 311 121 318"></path>
<path id="" fill="none" stroke="#000000" stroke-width="2.0" stroke-opacity="1.0" stroke-linecap="round" stroke-linejoin="round"  filling="0" d="M207 239 C207 240 208 245 208 245 C207 247 205 247 203 248 C199 250 196 252 192 254 C190 255 183 262 181 259 C179 255 180 251 178 247 C177 246 179 243 178 242 C177 239 176 234 176 231 C176 230 177 226 176 225 C174 221 175 214 175 209 C175 207 174 207 174 205"></path>
<path id="" fill="none" stroke="#000000" stroke-width="2.0" stroke-opacity="1.0" stroke-linecap="round" stroke-linejoin="round"  filling="0" d="M202 53 C202 58 204 63 204 67"></path>
<path id="" fill="none" stroke="#000000" stroke-width="2.0" stroke-opacity="1.0" stroke-linecap="round" stroke-linejoin="round"  filling="0" d="M153 287 C154 288 153 289 153 290"></path>
<path id="" fill="none" stroke="#000000" stroke-width="2.0" stroke-opacity="1.0" stroke-linecap="round" stroke-linejoin="round"  filling="0" d="M95 337 C93 337 92 336 90 336"></path>
<path id="" fill="none" stroke="#000000" stroke-width="2.0" stroke-opacity="1.0" stroke-linecap="round" stroke-linejoin="round"  filling="0" d="M611 664 C607 664 605 669 600 669"></path>
<path id="" fill="none" stroke="#000000" stroke-width="2.0" stroke-opacity="1.0" stroke-linecap="round" stroke-linejoin="round"  filling="0" d="M331 604 C329 606 331 606 330 608 C328 612 327 617 325 621 C324 622 326 625 325 626 C323 631 323 646 325 651 C326 652 324 655 325 656 C328 661 326 668 329 673 C330 674 328 676 329 677 C331 681 331 687 333 691 C333 692 333 693 333 694 C335 697 334 701 336 704 C338 708 340 713 340 718"></path>
<path id="" fill="none" stroke="#000000" stroke-width="2.0" stroke-opacity="1.0" stroke-linecap="round" stroke-linejoin="round"  filling="0" d="M218 120 C218 123 214 127 213 130 C213 131 213 132 213 133 C209 141 207 150 203 158 C201 162 202 166 200 170 C199 172 201 174 199 176"></path>
<path id="" fill="none" stroke="#000000" stroke-width="2.0" stroke-opacity="1.0" stroke-linecap="round" stroke-linejoin="round"  filling="0" d="M331 421 C332 422 332 422 332 423"></path>
<path id="" fill="none" stroke="#000000" stroke-width="2.0" stroke-opacity="1.0" stroke-linecap="round" stroke-linejoin="round"  filling="0" d="M688 475 C691 478 690 484 693 487"></path>
<path id="" fill="none" stroke="#000000" stroke-width="2.0" stroke-opacity="1.0" stroke-linecap="round" stroke-linejoin="round"  filling="0" d="M288 309 C288 312 289 315 289 318"></path>
<path id="" fill="none" stroke="#000000" stroke-width="2.0" stroke-opacity="1.0" stroke-linecap="round" stroke-linejoin="round"  filling="0" d="M229 105 C225 109 223 115 219 119"></path>
<path id="" fill="none" stroke="#000000" stroke-width="2.0" stroke-opacity="1.0" stroke-linecap="round" stroke-linejoin="round"  filling="0" d="M76 193 C76 191 79 189 80 187 C82 182 87 178 90 173 C91 171 94 170 95 168 C95 167 95 166 96 165"></path>
<path id="" fill="none" stroke="#000000" stroke-width="2.0" stroke-opacity="1.0" stroke-linecap="round" stroke-linejoin="round"  filling="0" d="M125 232 C125 235 125 239 125 242"></path>
<path id="" fill="none" stroke="#000000" stroke-width="2.0" stroke-opacity="1.0" stroke-linecap="round" stroke-linejoin="round"  filling="0" d="M245 374 C245 383 244 392 244 401"></path>
<path id="" fill="none" stroke="#000000" stroke-width="2.0" stroke-opacity="1.0" stroke-linecap="round" stroke-linejoin="round"  filling="0" d="M413 600 C407 600 401 600 395 600"></path>
<path id="" fill="none" stroke="#000000" stroke-width="2.0" stroke-opacity="1.0" stroke-linecap="round" stroke-linejoin="round"  filling="0" d="M495 256 C495 253 494 251 494 249"></path>
<path id="" fill="none" stroke="#000000" stroke-width="2.0" stroke-opacity="1.0" stroke-linecap="round" stroke-linejoin="round"  filling="0" d="M300 280 C303 283 306 287 306 291"></path>
<path id="" fill="none" stroke="#000000" stroke-width="2.0" stroke-opacity="1.0" stroke-linecap="round" stroke-linejoin="round"  filling="0" d="M310 584 C310 587 312 588 314 589 C314 589 315 591 316 590 C317 589 318 583 318 581"></path>
<path id="" fill="none" stroke="#000000" stroke-width="2.0" stroke-opacity="1.0" stroke-linecap="round" stroke-linejoin="round"  filling="0" d="M278 361 C278 364 279 367 279 371"></path>
<path id="" fill="none" stroke="#000000" stroke-width="2.0" stroke-opacity="1.0" stroke-linecap="round" stroke-linejoin="round"  filling="0" d="M504 433 C501 433 499 430 497 429 C492 426 485 423 479 423"></path>
<path id="" fill="none" stroke="#000000" stroke-width="2.0" stroke-opacity="1.0" stroke-linecap="round" stroke-linejoin="round"  filling="0" d="M158 279 C157 280 154 285 154 287"></path>
<path id="" fill="none" stroke="#000000" stroke-width="2.0" stroke-opacity="1.0" stroke-linecap="round" stroke-linejoin="round"  filling="0" d="M461 236 C461 234 462 232 464 231 C465 231 467 231 467 231 C468 230 467 226 468 225 C469 223 473 218 475 217 C476 216 484 216 484 214 C484 214 483 213 483 213 C483 212 484 213 485 214"></path>
<path id="" fill="none" stroke="#000000" stroke-width="2.0" stroke-opacity="1.0" stroke-linecap="round" stroke-linejoin="round"  filling="0" d="M582 419 C584 421 589 427 589 430"></path>
<path id="" fill="none" stroke="#000000" stroke-width="2.0" stroke-opacity="1.0" stroke-linecap="round" stroke-linejoin="round"  filling="0" d="M61 283 C59 285 60 286 59 288 C58 290 54 292 52 294"></path>
<path id="" fill="none" stroke="#000000" stroke-width="2.0" stroke-opacity="1.0" stroke-linecap="round" stroke-linejoin="round"  filling="0" d="M125 228 C125 229 125 230 125 231"></path>
<path id="" fill="none" stroke="#000000" stroke-width="2.0" stroke-opacity="1.0" stroke-linecap="round" stroke-linejoin="round"  filling="0" d="M53 267 C53 265 54 263 55 261 C57 257 56 253 58 249 C59 247 61 244 59 242"></path>
<path id="" fill="none" stroke="#000000" stroke-width="2.0" stroke-opacity="1.0" stroke-linecap="round" stroke-linejoin="round"  filling="0" d="M241 353 C241 355 242 357 243 359 C244 360 242 362 243 363 C244 366 245 370 245 373"></path>
<path id="" fill="none" stroke="#000000" stroke-width="2.0" stroke-opacity="1.0" stroke-linecap="round" stroke-linejoin="round"  filling="0" d="M346 376 C344 374 345 371 345 369 C345 363 344 357 344 351"></path>
<path id="" fill="none" stroke="#000000" stroke-width="2.0" stroke-opacity="1.0" stroke-linecap="round" stroke-linejoin="round"  filling="0" d="M424 728 C427 731 435 727 439 729 C440 730 441 731 443 730 C445 729 446 728 447 727"></path>
<path id="" fill="none" stroke="#000000" stroke-width="2.0" stroke-opacity="1.0" stroke-linecap="round" stroke-linejoin="round"  filling="0" d="M596 703 C596 705 597 707 597 709"></path>
<path id="" fill="none" stroke="#000000" stroke-width="2.0" stroke-opacity="1.0" stroke-linecap="round" stroke-linejoin="round"  filling="0" d="M542 508 C543 509 543 509 544 510"></path>
<path id="" fill="none" stroke="#000000" stroke-width="2.0" stroke-opacity="1.0" stroke-linecap="round" stroke-linejoin="round"  filling="0" d="M301 426 C301 429 298 433 297 436 C296 438 296 441 295 443 C293 447 290 451 288 455 C287 456 286 457 285 458 C284 460 281 465 278 466 C276 467 272 468 270 470"></path>
<path id="" fill="none" stroke="#000000" stroke-width="2.0" stroke-opacity="1.0" stroke-linecap="round" stroke-linejoin="round"  filling="0" d="M597 676 C597 676 597 675 597 675"></path>
<path id="" fill="none" stroke="#000000" stroke-width="2.0" stroke-opacity="1.0" stroke-linecap="round" stroke-linejoin="round"  filling="0" d="M599 593 C598 594 594 597 593 597 C592 597 591 594 591 594"></path>
<path id="" fill="none" stroke="#000000" stroke-width="2.0" stroke-opacity="1.0" stroke-linecap="round" stroke-linejoin="round"  filling="0" d="M441 623 C439 621 438 620 435 620"></path>
<path id="" fill="none" stroke="#000000" stroke-width="2.0" stroke-opacity="1.0" stroke-linecap="round" stroke-linejoin="round"  filling="0" d="M100 344 C102 344 107 337 107 335"></path>
<path id="" fill="none" stroke="#000000" stroke-width="2.0" stroke-opacity="1.0" stroke-linecap="round" stroke-linejoin="round"  filling="0" d="M436 418 C438 420 441 423 444 423"></path>
<path id="" fill="none" stroke="#000000" stroke-width="2.0" stroke-opacity="1.0" stroke-linecap="round" stroke-linejoin="round"  filling="0" d="M94 330 C94 330 93 330 93 330"></path>
<path id="" fill="none" stroke="#000000" stroke-width="2.0" stroke-opacity="1.0" stroke-linecap="round" stroke-linejoin="round"  filling="0" d="M615 581 C618 578 623 575 625 571 C626 569 623 568 622 567 C620 564 618 560 615 557"></path>
<path id="" fill="none" stroke="#000000" stroke-width="2.0" stroke-opacity="1.0" stroke-linecap="round" stroke-linejoin="round"  filling="0" d="M277 358 C277 359 277 359 277 360"></path>
<path id="" fill="none" stroke="#000000" stroke-width="2.0" stroke-opacity="1.0" stroke-linecap="round" stroke-linejoin="round"  filling="0" d="M288 411 C294 411 289 418 288 420 C287 422 289 422 287 424"></path>
<path id="" fill="none" stroke="#000000" stroke-width="2.0" stroke-opacity="1.0" stroke-linecap="round" stroke-linejoin="round"  filling="0" d="M279 305 C278 305 277 304 276 304"></path>
<path id="" fill="none" stroke="#000000" stroke-width="2.0" stroke-opacity="1.0" stroke-linecap="round" stroke-linejoin="round"  filling="0" d="M178 360 C177 360 177 360 176 361"></path>
<path id="" fill="none" stroke="#000000" stroke-width="2.0" stroke-opacity="1.0" stroke-linecap="round" stroke-linejoin="round"  filling="0" d="M135 114 C134 114 134 114 133 114"></path>
<path id="" fill="none" stroke="#000000" stroke-width="2.0" stroke-opacity="1.0" stroke-linecap="round" stroke-linejoin="round"  filling="0" d="M415 600 C415 600 414 600 414 600"></path>
<path id="" fill="none" stroke="#000000" stroke-width="2.0" stroke-opacity="1.0" stroke-linecap="round" stroke-linejoin="round"  filling="0" d="M240 350 C241 351 241 351 241 352"></path>
<path id="" fill="none" stroke="#000000" stroke-width="2.0" stroke-opacity="1.0" stroke-linecap="round" stroke-linejoin="round"  filling="0" d="M138 113 C137 114 137 114 136 114"></path>
<path id="" fill="none" stroke="#000000" stroke-width="2.0" stroke-opacity="1.0" stroke-linecap="round" stroke-linejoin="round"  filling="0" d="M275 352 C277 354 275 355 277 357"></path>
<path id="" fill="none" stroke="#000000" stroke-width="2.0" stroke-opacity="1.0" stroke-linecap="round" stroke-linejoin="round"  filling="0" d="M339 431 C340 432 342 433 343 434"></path>
<path id="" fill="none" stroke="#000000" stroke-width="2.0" stroke-opacity="1.0" stroke-linecap="round" stroke-linejoin="round"  filling="0" d="M632 570 C634 572 632 574 630 575 C627 576 627 572 625 572"></path>
<path id="" fill="none" stroke="#000000" stroke-width="2.0" stroke-opacity="1.0" stroke-linecap="round" stroke-linejoin="round"  filling="0" d="M173 298 C168 303 163 307 158 312 C156 314 154 317 151 317"></path>
<path id="" fill="none" stroke="#000000" stroke-width="2.0" stroke-opacity="1.0" stroke-linecap="round" stroke-linejoin="round"  filling="0" d="M302 423 C301 424 301 424 301 425"></path>
<path id="" fill="none" stroke="#000000" stroke-width="2.0" stroke-opacity="1.0" stroke-linecap="round" stroke-linejoin="round"  filling="0" d="M303 415 C304 414 304 414 304 413"></path>
<path id="" fill="none" stroke="#000000" stroke-width="2.0" stroke-opacity="1.0" stroke-linecap="round" stroke-linejoin="round"  filling="0" d="M308 552 C308 543 308 535 308 526 C308 524 309 518 308 516 C307 513 306 508 306 505"></path>
<path id="" fill="none" stroke="#000000" stroke-width="2.0" stroke-opacity="1.0" stroke-linecap="round" stroke-linejoin="round"  filling="0" d="M426 381 C426 383 426 384 426 386"></path>
<path id="" fill="none" stroke="#000000" stroke-width="2.0" stroke-opacity="1.0" stroke-linecap="round" stroke-linejoin="round"  filling="0" d="M316 598 C316 599 316 599 316 600"></path>
<path id="" fill="none" stroke="#000000" stroke-width="2.0" stroke-opacity="1.0" stroke-linecap="round" stroke-linejoin="round"  filling="0" d="M309 574 C309 577 308 581 310 583"></path>
<path id="" fill="none" stroke="#000000" stroke-width="2.0" stroke-opacity="1.0" stroke-linecap="round" stroke-linejoin="round"  filling="0" d="M596 688 C596 691 599 697 597 700 C597 701 596 701 596 702"></path>
<path id="" fill="none" stroke="#000000" stroke-width="2.0" stroke-opacity="1.0" stroke-linecap="round" stroke-linejoin="round"  filling="0" d="M308 563 C308 566 308 570 308 573"></path>
<path id="" fill="none" stroke="#000000" stroke-width="2.0" stroke-opacity="1.0" stroke-linecap="round" stroke-linejoin="round"  filling="0" d="M273 431 C273 431 273 432 273 432"></path>
<path id="" fill="none" stroke="#000000" stroke-width="2.0" stroke-opacity="1.0" stroke-linecap="round" stroke-linejoin="round"  filling="0" d="M171 194 C170 195 170 195 169 196"></path>
<path id="" fill="none" stroke="#000000" stroke-width="2.0" stroke-opacity="1.0" stroke-linecap="round" stroke-linejoin="round"  filling="0" d="M107 279 C108 279 108 279 109 278"></path>
<path id="" fill="none" stroke="#000000" stroke-width="2.0" stroke-opacity="1.0" stroke-linecap="round" stroke-linejoin="round"  filling="0" d="M180 360 C180 360 179 360 179 360"></path>
<path id="" fill="none" stroke="#000000" stroke-width="2.0" stroke-opacity="1.0" stroke-linecap="round" stroke-linejoin="round"  filling="0" d="M238 340 C238 343 240 346 240 349"></path>
<path id="" fill="none" stroke="#000000" stroke-width="2.0" stroke-opacity="1.0" stroke-linecap="round" stroke-linejoin="round"  filling="0" d="M64 216 C62 218 64 218 63 220 C62 222 59 225 62 228"></path>
<path id="" fill="none" stroke="#000000" stroke-width="2.0" stroke-opacity="1.0" stroke-linecap="round" stroke-linejoin="round"  filling="0" d="M578 413 C578 411 575 409 574 408"></path>
<path id="" fill="none" stroke="#000000" stroke-width="2.0" stroke-opacity="1.0" stroke-linecap="round" stroke-linejoin="round"  filling="0" d="M126 225 C125 226 125 226 125 227"></path>
<path id="" fill="none" stroke="#000000" stroke-width="2.0" stroke-opacity="1.0" stroke-linecap="round" stroke-linejoin="round"  filling="0" d="M417 600 C417 600 416 600 416 600"></path>
<path id="" fill="none" stroke="#000000" stroke-width="2.0" stroke-opacity="1.0" stroke-linecap="round" stroke-linejoin="round"  filling="0" d="M183 359 C182 360 182 360 181 360"></path>
<path id="" fill="none" stroke="#000000" stroke-width="2.0" stroke-opacity="1.0" stroke-linecap="round" stroke-linejoin="round"  filling="0" d="M132 201 C134 199 134 198 134 195"></path>
<path id="" fill="none" stroke="#000000" stroke-width="2.0" stroke-opacity="1.0" stroke-linecap="round" stroke-linejoin="round"  filling="0" d="M229 103 C229 103 229 104 229 104"></path>
<path id="" fill="none" stroke="#000000" stroke-width="2.0" stroke-opacity="1.0" stroke-linecap="round" stroke-linejoin="round"  filling="0" d="M68 271 C65 274 64 279 61 282"></path>
<path id="" fill="none" stroke="#000000" stroke-width="2.0" stroke-opacity="1.0" stroke-linecap="round" stroke-linejoin="round"  filling="0" d="M611 584 C609 586 606 588 604 589 C602 590 602 592 600 592"></path>
<path id="" fill="none" stroke="#000000" stroke-width="2.0" stroke-opacity="1.0" stroke-linecap="round" stroke-linejoin="round"  filling="0" d="M101 318 C101 322 98 325 98 329 C98 330 98 332 97 332 C96 332 96 331 95 330"></path>
<path id="" fill="none" stroke="#000000" stroke-width="2.0" stroke-opacity="1.0" stroke-linecap="round" stroke-linejoin="round"  filling="0" d="M128 214 C128 209 132 206 132 202"></path>
<path id="" fill="none" stroke="#000000" stroke-width="2.0" stroke-opacity="1.0" stroke-linecap="round" stroke-linejoin="round"  filling="0" d="M187 101 C187 101 186 101 186 101"></path>
<path id="" fill="none" stroke="#000000" stroke-width="2.0" stroke-opacity="1.0" stroke-linecap="round" stroke-linejoin="round"  filling="0" d="M188 287 C188 288 188 288 188 289"></path>
<path id="" fill="none" stroke="#000000" stroke-width="2.0" stroke-opacity="1.0" stroke-linecap="round" stroke-linejoin="round"  filling="0" d="M419 600 C419 600 418 600 418 600"></path>
<path id="" fill="none" stroke="#000000" stroke-width="2.0" stroke-opacity="1.0" stroke-linecap="round" stroke-linejoin="round"  filling="0" d="M185 359 C185 359 184 359 184 359"></path>
<path id="" fill="none" stroke="#000000" stroke-width="2.0" stroke-opacity="1.0" stroke-linecap="round" stroke-linejoin="round"  filling="0" d="M597 685 C596 686 596 686 596 687"></path>
<path id="" fill="none" stroke="#000000" stroke-width="2.0" stroke-opacity="1.0" stroke-linecap="round" stroke-linejoin="round"  filling="0" d="M613 662 C616 662 617 660 620 660"></path>
<path id="" fill="none" stroke="#000000" stroke-width="2.0" stroke-opacity="1.0" stroke-linecap="round" stroke-linejoin="round"  filling="0" d="M274 349 C275 350 275 350 275 351"></path>
<path id="" fill="none" stroke="#000000" stroke-width="2.0" stroke-opacity="1.0" stroke-linecap="round" stroke-linejoin="round"  filling="0" d="M266 333 C269 336 269 339 271 342 C272 344 274 346 274 348"></path>
<path id="" fill="none" stroke="#000000" stroke-width="2.0" stroke-opacity="1.0" stroke-linecap="round" stroke-linejoin="round"  filling="0" d="M274 428 C274 429 274 429 273 430"></path>
<path id="" fill="none" stroke="#000000" stroke-width="2.0" stroke-opacity="1.0" stroke-linecap="round" stroke-linejoin="round"  filling="0" d="M285 413 C284 414 282 415 280 415"></path>
<path id="" fill="none" stroke="#000000" stroke-width="2.0" stroke-opacity="1.0" stroke-linecap="round" stroke-linejoin="round"  filling="0" d="M122 257 C122 254 128 251 128 248"></path>
<path id="" fill="none" stroke="#000000" stroke-width="2.0" stroke-opacity="1.0" stroke-linecap="round" stroke-linejoin="round"  filling="0" d="M291 408 C295 408 297 401 302 401"></path>
<path id="" fill="none" stroke="#000000" stroke-width="2.0" stroke-opacity="1.0" stroke-linecap="round" stroke-linejoin="round"  filling="0" d="M57 301 C56 300 56 300 55 300"></path>
<path id="" fill="none" stroke="#000000" stroke-width="2.0" stroke-opacity="1.0" stroke-linecap="round" stroke-linejoin="round"  filling="0" d="M316 592 C316 594 316 595 316 597"></path>
<path id="" fill="none" stroke="#000000" stroke-width="2.0" stroke-opacity="1.0" stroke-linecap="round" stroke-linejoin="round"  filling="0" d="M334 437 C334 437 334 438 334 438"></path>
<path id="" fill="none" stroke="#000000" stroke-width="2.0" stroke-opacity="1.0" stroke-linecap="round" stroke-linejoin="round"  filling="0" d="M289 304 C289 309 282 307 280 305"></path>
<path id="" fill="none" stroke="#000000" stroke-width="2.0" stroke-opacity="1.0" stroke-linecap="round" stroke-linejoin="round"  filling="0" d="M189 101 C189 101 188 101 188 101"></path>
<path id="" fill="none" stroke="#000000" stroke-width="2.0" stroke-opacity="1.0" stroke-linecap="round" stroke-linejoin="round"  filling="0" d="M291 300 C295 296 300 294 305 294"></path>
<path id="" fill="none" stroke="#000000" stroke-width="2.0" stroke-opacity="1.0" stroke-linecap="round" stroke-linejoin="round"  filling="0" d="M308 561 C308 561 308 562 308 562"></path>
<path id="" fill="none" stroke="#000000" stroke-width="2.0" stroke-opacity="1.0" stroke-linecap="round" stroke-linejoin="round"  filling="0" d="M421 600 C421 600 420 600 420 600"></path>
<path id="" fill="none" stroke="#000000" stroke-width="2.0" stroke-opacity="1.0" stroke-linecap="round" stroke-linejoin="round"  filling="0" d="M187 359 C187 359 186 359 186 359"></path>
<path id="" fill="none" stroke="#000000" stroke-width="2.0" stroke-opacity="1.0" stroke-linecap="round" stroke-linejoin="round"  filling="0" d="M434 417 C433 416 432 416 430 416"></path>
<path id="" fill="none" stroke="#000000" stroke-width="2.0" stroke-opacity="1.0" stroke-linecap="round" stroke-linejoin="round"  filling="0" d="M322 400 C322 398 322 396 322 394"></path>
<path id="" fill="none" stroke="#000000" stroke-width="2.0" stroke-opacity="1.0" stroke-linecap="round" stroke-linejoin="round"  filling="0" d="M510 437 C512 439 516 440 518 442"></path>
<path id="" fill="none" stroke="#000000" stroke-width="2.0" stroke-opacity="1.0" stroke-linecap="round" stroke-linejoin="round"  filling="0" d="M225 270 C225 272 228 274 230 276"></path>
<path id="" fill="none" stroke="#000000" stroke-width="2.0" stroke-opacity="1.0" stroke-linecap="round" stroke-linejoin="round"  filling="0" d="M333 434 C333 435 333 435 333 436"></path>
<path id="" fill="none" stroke="#000000" stroke-width="2.0" stroke-opacity="1.0" stroke-linecap="round" stroke-linejoin="round"  filling="0" d="M120 277 C120 277 121 276 121 276"></path>
<path id="" fill="none" stroke="#000000" stroke-width="2.0" stroke-opacity="1.0" stroke-linecap="round" stroke-linejoin="round"  filling="0" d="M46 301 C46 306 47 307 50 310"></path>
<path id="" fill="none" stroke="#000000" stroke-width="2.0" stroke-opacity="1.0" stroke-linecap="round" stroke-linejoin="round"  filling="0" d="M126 223 C126 223 126 224 126 224"></path>
<path id="" fill="none" stroke="#000000" stroke-width="2.0" stroke-opacity="1.0" stroke-linecap="round" stroke-linejoin="round"  filling="0" d="M242 86 C242 86 242 87 242 87"></path>
<path id="" fill="none" stroke="#000000" stroke-width="2.0" stroke-opacity="1.0" stroke-linecap="round" stroke-linejoin="round"  filling="0" d="M589 599 C588 600 588 600 587 600"></path>
<path id="" fill="none" stroke="#000000" stroke-width="2.0" stroke-opacity="1.0" stroke-linecap="round" stroke-linejoin="round"  filling="0" d="M238 338 C238 338 238 339 238 339"></path>
<path id="" fill="none" stroke="#000000" stroke-width="2.0" stroke-opacity="1.0" stroke-linecap="round" stroke-linejoin="round"  filling="0" d="M423 600 C423 600 422 600 422 600"></path>
<path id="" fill="none" stroke="#000000" stroke-width="2.0" stroke-opacity="1.0" stroke-linecap="round" stroke-linejoin="round"  filling="0" d="M426 375 C426 377 426 378 426 380"></path>
<path id="" fill="none" stroke="#000000" stroke-width="2.0" stroke-opacity="1.0" stroke-linecap="round" stroke-linejoin="round"  filling="0" d="M189 359 C189 359 188 359 188 359"></path>
<path id="" fill="none" stroke="#000000" stroke-width="2.0" stroke-opacity="1.0" stroke-linecap="round" stroke-linejoin="round"  filling="0" d="M362 722 C362 724 362 726 362 728"></path>
<path id="" fill="none" stroke="#000000" stroke-width="2.0" stroke-opacity="1.0" stroke-linecap="round" stroke-linejoin="round"  filling="0" d="M631 569 C629 567 627 569 626 570"></path>
<path id="" fill="none" stroke="#000000" stroke-width="2.0" stroke-opacity="1.0" stroke-linecap="round" stroke-linejoin="round"  filling="0" d="M276 413 C277 414 277 414 278 415"></path>
<path id="" fill="none" stroke="#000000" stroke-width="2.0" stroke-opacity="1.0" stroke-linecap="round" stroke-linejoin="round"  filling="0" d="M597 683 C597 683 597 684 597 684"></path>
<path id="" fill="none" stroke="#000000" stroke-width="2.0" stroke-opacity="1.0" stroke-linecap="round" stroke-linejoin="round"  filling="0" d="M223 268 C223 268 222 268 222 268"></path>
<path id="" fill="none" stroke="#000000" stroke-width="2.0" stroke-opacity="1.0" stroke-linecap="round" stroke-linejoin="round"  filling="0" d="M151 288 C149 288 145 292 144 293"></path>
<path id="" fill="none" stroke="#000000" stroke-width="2.0" stroke-opacity="1.0" stroke-linecap="round" stroke-linejoin="round"  filling="0" d="M298 277 C299 278 299 278 299 279"></path>
<path id="" fill="none" stroke="#000000" stroke-width="2.0" stroke-opacity="1.0" stroke-linecap="round" stroke-linejoin="round"  filling="0" d="M613 582 C613 582 612 583 612 583"></path>
<path id="" fill="none" stroke="#000000" stroke-width="2.0" stroke-opacity="1.0" stroke-linecap="round" stroke-linejoin="round"  filling="0" d="M495 259 C495 262 495 262 497 264"></path>
<path id="" fill="none" stroke="#000000" stroke-width="2.0" stroke-opacity="1.0" stroke-linecap="round" stroke-linejoin="round"  filling="0" d="M275 425 C274 426 274 426 274 427"></path>
<path id="" fill="none" stroke="#000000" stroke-width="2.0" stroke-opacity="1.0" stroke-linecap="round" stroke-linejoin="round"  filling="0" d="M71 202 C69 204 68 208 67 211 C66 212 65 213 65 215"></path>
<path id="" fill="none" stroke="#000000" stroke-width="2.0" stroke-opacity="1.0" stroke-linecap="round" stroke-linejoin="round"  filling="0" d="M427 372 C426 373 426 373 426 374"></path>
<path id="" fill="none" stroke="#000000" stroke-width="2.0" stroke-opacity="1.0" stroke-linecap="round" stroke-linejoin="round"  filling="0" d="M172 193 C173 192 174 192 175 191"></path>
<path id="" fill="none" stroke="#000000" stroke-width="2.0" stroke-opacity="1.0" stroke-linecap="round" stroke-linejoin="round"  filling="0" d="M46 299 C46 299 46 300 46 300"></path>
<path id="" fill="none" stroke="#000000" stroke-width="2.0" stroke-opacity="1.0" stroke-linecap="round" stroke-linejoin="round"  filling="0" d="M580 416 C580 415 580 415 579 414"></path>
<path id="" fill="none" stroke="#000000" stroke-width="2.0" stroke-opacity="1.0" stroke-linecap="round" stroke-linejoin="round"  filling="0" d="M540 505 C541 506 541 506 541 507"></path>
<path id="" fill="none" stroke="#000000" stroke-width="2.0" stroke-opacity="1.0" stroke-linecap="round" stroke-linejoin="round"  filling="0" d="M202 50 C202 51 202 51 202 52"></path>
<path id="" fill="none" stroke="#000000" stroke-width="2.0" stroke-opacity="1.0" stroke-linecap="round" stroke-linejoin="round"  filling="0" d="M275 423 C275 423 275 424 275 424"></path>
<path id="" fill="none" stroke="#000000" stroke-width="2.0" stroke-opacity="1.0" stroke-linecap="round" stroke-linejoin="round"  filling="0" d="M52 271 C53 270 53 270 53 268"></path>
<path id="" fill="none" stroke="#000000" stroke-width="2.0" stroke-opacity="1.0" stroke-linecap="round" stroke-linejoin="round"  filling="0" d="M71 266 C70 267 69 269 68 270"></path>
<path id="" fill="none" stroke="#000000" stroke-width="2.0" stroke-opacity="1.0" stroke-linecap="round" stroke-linejoin="round"  filling="0" d="M303 418 C303 420 302 420 302 422"></path>
<path id="" fill="none" stroke="#000000" stroke-width="2.0" stroke-opacity="1.0" stroke-linecap="round" stroke-linejoin="round"  filling="0" d="M308 555 C308 557 308 558 308 560"></path>
<path id="" fill="none" stroke="#000000" stroke-width="2.0" stroke-opacity="1.0" stroke-linecap="round" stroke-linejoin="round"  filling="0" d="M95 136 C95 136 96 137 96 137"></path>
<path id="" fill="none" stroke="#000000" stroke-width="2.0" stroke-opacity="1.0" stroke-linecap="round" stroke-linejoin="round"  filling="0" d="M72 199 C72 200 72 200 71 201"></path>
<path id="" fill="none" stroke="#000000" stroke-width="2.0" stroke-opacity="1.0" stroke-linecap="round" stroke-linejoin="round"  filling="0" d="M260 326 C259 325 258 325 258 323"></path>
<path id="" fill="none" stroke="#000000" stroke-width="2.0" stroke-opacity="1.0" stroke-linecap="round" stroke-linejoin="round"  filling="0" d="M495 257 C495 257 495 258 495 258"></path>
<path id="" fill="none" stroke="#000000" stroke-width="2.0" stroke-opacity="1.0" stroke-linecap="round" stroke-linejoin="round"  filling="0" d="M156 176 C156 176 155 177 155 177"></path>
<path id="" fill="none" stroke="#000000" stroke-width="2.0" stroke-opacity="1.0" stroke-linecap="round" stroke-linejoin="round"  filling="0" d="M175 201 C175 201 174 202 174 202"></path>
<path id="" fill="none" stroke="#000000" stroke-width="2.0" stroke-opacity="1.0" stroke-linecap="round" stroke-linejoin="round"  filling="0" d="M308 553 C308 553 308 554 308 554"></path>
<path id="" fill="none" stroke="#000000" stroke-width="2.0" stroke-opacity="1.0" stroke-linecap="round" stroke-linejoin="round"  filling="0" d="M179 290 C179 293 177 297 174 297"></path>
<path id="" fill="none" stroke="#000000" stroke-width="2.0" stroke-opacity="1.0" stroke-linecap="round" stroke-linejoin="round"  filling="0" d="M139 111 C139 111 139 110 139 110"></path>
<path id="" fill="none" stroke="#000000" stroke-width="2.0" stroke-opacity="1.0" stroke-linecap="round" stroke-linejoin="round"  filling="0" d="M592 598 C591 598 591 598 590 599"></path>
<path id="" fill="none" stroke="#000000" stroke-width="2.0" stroke-opacity="1.0" stroke-linecap="round" stroke-linejoin="round"  filling="0" d="M337 441 C337 441 336 440 336 440"></path>
<path id="" fill="none" stroke="#000000" stroke-width="2.0" stroke-opacity="1.0" stroke-linecap="round" stroke-linejoin="round"  filling="0" d="M52 274 C52 275 52 275 51 276"></path>
<path id="" fill="none" stroke="#000000" stroke-width="2.0" stroke-opacity="1.0" stroke-linecap="round" stroke-linejoin="round"  filling="0" d="M74 197 C74 196 75 195 75 194"></path>
<path id="" fill="none" stroke="#000000" stroke-width="2.0" stroke-opacity="1.0" stroke-linecap="round" stroke-linejoin="round"  filling="0" d="M480 211 C479 212 478 214 478 215"></path>
<path id="" fill="none" stroke="#000000" stroke-width="2.0" stroke-opacity="1.0" stroke-linecap="round" stroke-linejoin="round"  filling="0" d="M598 679 C597 680 597 680 597 682"></path>
<path id="" fill="none" stroke="#000000" stroke-width="2.0" stroke-opacity="1.0" stroke-linecap="round" stroke-linejoin="round"  filling="0" d="M265 331 C265 331 265 332 265 332"></path>
<path id="" fill="none" stroke="#000000" stroke-width="2.0" stroke-opacity="1.0" stroke-linecap="round" stroke-linejoin="round"  filling="0" d="M118 278 C118 278 119 277 119 277"></path>
<path id="" fill="none" stroke="#000000" stroke-width="2.0" stroke-opacity="1.0" stroke-linecap="round" stroke-linejoin="round"  filling="0" d="M126 220 C126 221 126 221 126 222"></path>
<path id="" fill="none" stroke="#000000" stroke-width="2.0" stroke-opacity="1.0" stroke-linecap="round" stroke-linejoin="round"  filling="0" d="M291 301 C290 302 290 302 289 303"></path>
<path id="" fill="none" stroke="#000000" stroke-width="2.0" stroke-opacity="1.0" stroke-linecap="round" stroke-linejoin="round"  filling="0" d="M262 328 C263 329 263 329 264 330"></path>
<path id="" fill="none" stroke="#000000" stroke-width="2.0" stroke-opacity="1.0" stroke-linecap="round" stroke-linejoin="round"  filling="0" d="M127 217 C126 218 126 218 126 219"></path>
<path id="" fill="none" stroke="#000000" stroke-width="2.0" stroke-opacity="1.0" stroke-linecap="round" stroke-linejoin="round"  filling="0" d="M324 401 C324 401 323 402 323 402"></path>
<path id="" fill="none" stroke="#000000" stroke-width="2.0" stroke-opacity="1.0" stroke-linecap="round" stroke-linejoin="round"  filling="0" d="M49 295 C48 296 46 296 46 298"></path>
<path id="" fill="none" stroke="#000000" stroke-width="2.0" stroke-opacity="1.0" stroke-linecap="round" stroke-linejoin="round"  filling="0" d="M287 412 C287 412 286 412 286 412"></path>
<path id="" fill="none" stroke="#000000" stroke-width="2.0" stroke-opacity="1.0" stroke-linecap="round" stroke-linejoin="round"  filling="0" d="M363 720 C363 720 363 721 363 721"></path>
<path id="" fill="none" stroke="#000000" stroke-width="2.0" stroke-opacity="1.0" stroke-linecap="round" stroke-linejoin="round"  filling="0" d="M460 237 C460 238 460 238 460 239"></path>
<path id="" fill="none" stroke="#000000" stroke-width="2.0" stroke-opacity="1.0" stroke-linecap="round" stroke-linejoin="round"  filling="0" d="M166 65 C166 65 165 65 165 65"></path>
<path id="" fill="none" stroke="#000000" stroke-width="2.0" stroke-opacity="1.0" stroke-linecap="round" stroke-linejoin="round"  filling="0" d="M99 192 C99 192 99 193 99 193"></path>
<path id="" fill="none" stroke="#000000" stroke-width="2.0" stroke-opacity="1.0" stroke-linecap="round" stroke-linejoin="round"  filling="0" d="M505 434 C506 435 508 436 509 436"></path>
<path id="" fill="none" stroke="#000000" stroke-width="2.0" stroke-opacity="1.0" stroke-linecap="round" stroke-linejoin="round"  filling="0" d="M331 602 C331 602 331 603 331 603"></path>
<path id="" fill="none" stroke="#000000" stroke-width="2.0" stroke-opacity="1.0" stroke-linecap="round" stroke-linejoin="round"  filling="0" d="M127 215 C127 215 127 216 127 216"></path>
<path id="" fill="none" stroke="#000000" stroke-width="2.0" stroke-opacity="1.0" stroke-linecap="round" stroke-linejoin="round"  filling="0" d="M168 65 C168 65 167 65 167 65"></path>
<path id="" fill="none" stroke="#000000" stroke-width="2.0" stroke-opacity="1.0" stroke-linecap="round" stroke-linejoin="round"  filling="0" d="M319 435 C319 435 319 436 319 436"></path>
<path id="" fill="none" stroke="#000000" stroke-width="2.0" stroke-opacity="1.0" stroke-linecap="round" stroke-linejoin="round"  filling="0" d="M427 599 C426 599 425 600 424 600"></path>
<path id="" fill="none" stroke="#000000" stroke-width="2.0" stroke-opacity="1.0" stroke-linecap="round" stroke-linejoin="round"  filling="0" d="M291 476 C291 476 291 477 291 477"></path>
<path id="" fill="none" stroke="#000000" stroke-width="2.0" stroke-opacity="1.0" stroke-linecap="round" stroke-linejoin="round"  filling="0" d="M429 599 C429 599 428 599 428 599"></path>
<path id="" fill="none" stroke="#000000" stroke-width="2.0" stroke-opacity="1.0" stroke-linecap="round" stroke-linejoin="round"  filling="0" d="M630 566 C630 566 630 567 630 567"></path>
<path id="" fill="none" stroke="#000000" stroke-width="2.0" stroke-opacity="1.0" stroke-linecap="round" stroke-linejoin="round"  filling="0" d="M482 212 C482 212 481 212 481 212"></path>
<path id="" fill="none" stroke="#000000" stroke-width="2.0" stroke-opacity="1.0" stroke-linecap="round" stroke-linejoin="round"  filling="0" d="M303 416 C303 416 303 417 303 417"></path>
<path id="" fill="none" stroke="#000000" stroke-width="2.0" stroke-opacity="1.0" stroke-linecap="round" stroke-linejoin="round"  filling="0" d="M427 370 C427 370 427 371 427 371"></path>
<path id="" fill="none" stroke="#000000" stroke-width="2.0" stroke-opacity="1.0" stroke-linecap="round" stroke-linejoin="round"  filling="0" d="M52 273 C52 273 52 272 52 272"></path>
<path id="" fill="none" stroke="#000000" stroke-width="2.0" stroke-opacity="1.0" stroke-linecap="round" stroke-linejoin="round"  filling="0" d="M581 417 C581 417 582 418 582 418"></path>
<path id="" fill="none" stroke="#000000" stroke-width="2.0" stroke-opacity="1.0" stroke-linecap="round" stroke-linejoin="round"  filling="0" d="M598 678 C598 678 598 677 598 677"></path>
<path id="" fill="none" stroke="#000000" stroke-width="2.0" stroke-opacity="1.0" stroke-linecap="round" stroke-linejoin="round"  filling="0" d="M290 410 C290 410 290 409 290 409"></path>
<path id="" fill="none" stroke="#000000" stroke-width="2.0" stroke-opacity="1.0" stroke-linecap="round" stroke-linejoin="round"  filling="0" d="M212 348 C212 348 211 349 211 349"></path>
<path id="" fill="none" stroke="#000000" stroke-width="2.0" stroke-opacity="1.0" stroke-linecap="round" stroke-linejoin="round"  filling="0" d="M505 53 C504 54 500 58 499 58 C498 58 495 57 493 58 C487 61 482 62 476 65 C474 66 472 65 470 66 C468 67 464 69 461 69 C456 69 450 72 445 72 C444 72 440 71 439 72 C438 72 438 74 437 74 C436 74 435 73 437 73"></path>
<path id="" fill="none" stroke="#000000" stroke-width="2.0" stroke-opacity="1.0" stroke-linecap="round" stroke-linejoin="round"  filling="0" d="M393 55 C396 58 403 55 407 57 C412 60 418 60 423 63 C425 64 431 70 429 72 C428 73 422 74 421 73"></path>
<path id="" fill="none" stroke="#000000" stroke-width="2.0" stroke-opacity="1.0" stroke-linecap="round" stroke-linejoin="round"  filling="0" d="M466 88 C468 86 473 83 476 83 C477 83 479 86 480 86 C484 88 491 89 494 95 C495 97 494 99 496 101 C506 111 513 122 519 134 C519 135 519 136 519 137 C521 142 523 147 525 152 C526 153 525 157 525 158 C525 161 526 167 527 169 C528 170 526 171 526 172"></path>
<path id="" fill="none" stroke="#000000" stroke-width="2.0" stroke-opacity="1.0" stroke-linecap="round" stroke-linejoin="round"  filling="0" d="M489 100 C491 100 493 101 495 101"></path>
<path id="" fill="none" stroke="#000000" stroke-width="2.0" stroke-opacity="1.0" stroke-linecap="round" stroke-linejoin="round"  filling="0" d="M468 117 C468 114 462 111 461 108 C456 99 448 92 443 83 C441 80 437 79 437 75"></path>
<path id="" fill="none" stroke="#000000" stroke-width="2.0" stroke-opacity="1.0" stroke-linecap="round" stroke-linejoin="round"  filling="0" d="M487 73 C485 73 477 80 477 82"></path>
<path id="" fill="none" stroke="#000000" stroke-width="2.0" stroke-opacity="1.0" stroke-linecap="round" stroke-linejoin="round"  filling="0" d="M492 68 C495 65 498 63 498 59"></path>
<path id="" fill="none" stroke="#000000" stroke-width="2.0" stroke-opacity="1.0" stroke-linecap="round" stroke-linejoin="round"  filling="0" d="M433 72 C432 72 431 72 430 72"></path>
<path id="" fill="none" stroke="#000000" stroke-width="2.0" stroke-opacity="1.0" stroke-linecap="round" stroke-linejoin="round"  filling="0" d="M490 70 C489 71 489 71 488 72"></path>
<path id="" fill="none" stroke="#000000" stroke-width="2.0" stroke-opacity="1.0" stroke-linecap="round" stroke-linejoin="round"  filling="0" d="M435 72 C435 72 434 72 434 72"></path>
<path id="" fill="none" stroke="#000000" stroke-width="2.0" stroke-opacity="1.0" stroke-linecap="round" stroke-linejoin="round"  filling="0" d="M284 57 C288 61 299 55 304 58 C308 60 313 57 318 57 C327 57 334 56 343 56 C347 56 352 55 355 57 C357 58 360 57 362 58 C365 59 370 57 373 58 C377 60 381 59 385 61 C391 64 397 67 403 70 C409 73 413 79 417 83 C424 90 434 98 438 106 C439 109 442 108 444 109 C446 110 448 113 450 115"></path>
<path id="" fill="none" stroke="#000000" stroke-width="2.0" stroke-opacity="1.0" stroke-linecap="round" stroke-linejoin="round"  filling="0" d="M260 90 C263 87 268 83 272 81 C276 79 280 74 284 72 C291 69 299 65 304 60"></path>
<path id="" fill="none" stroke="#000000" stroke-width="2.0" stroke-opacity="1.0" stroke-linecap="round" stroke-linejoin="round"  filling="0" d="M397 98 C399 100 399 105 401 106 C403 107 405 104 406 105 C407 105 408 107 407 108 C407 108 407 109 407 109 C407 110 404 112 403 111 C402 110 404 109 404 109 C404 108 403 109 402 109 C401 108 401 108 401 107"></path>
<path id="" fill="none" stroke="#000000" stroke-width="2.0" stroke-opacity="1.0" stroke-linecap="round" stroke-linejoin="round"  filling="0" d="M490 108 C496 114 497 126 501 134 C510 151 513 171 522 188 C522 189 522 190 522 191 C524 196 524 202 526 207 C527 210 526 213 527 216 C528 217 527 220 527 221 C527 226 527 231 525 235 C524 237 521 236 520 237 C520 237 520 240 520 241"></path>
<path id="" fill="none" stroke="#000000" stroke-width="2.0" stroke-opacity="1.0" stroke-linecap="round" stroke-linejoin="round"  filling="0" d="M480 168 C480 168 477 170 477 171 C477 173 481 175 482 176 C487 181 494 185 500 191 C507 198 510 204 514 212 C515 215 515 219 516 222 C518 226 519 231 519 236"></path>
<path id="" fill="none" stroke="#000000" stroke-width="2.0" stroke-opacity="1.0" stroke-linecap="round" stroke-linejoin="round"  filling="0" d="M453 197 C452 197 452 196 451 196 C450 196 449 197 449 196 C449 195 450 195 450 194 C450 193 449 191 449 190 C449 189 452 190 453 189 C456 183 464 178 469 175 C470 174 475 172 474 170 C473 168 471 167 469 166 C467 165 465 162 463 160 C460 157 455 154 453 150 C452 147 451 148 449 147 C448 147 448 145 447 145 C446 145 446 150 446 152 C446 157 446 161 446 166 C446 167 447 170 446 171 C445 174 443 173 441 172 C437 170 436 162 434 158 C428 146 422 135 416 123 C414 120 413 116 411 113 C410 111 410 109 408 109"></path>
<path id="" fill="none" stroke="#000000" stroke-width="2.0" stroke-opacity="1.0" stroke-linecap="round" stroke-linejoin="round"  filling="0" d="M444 206 C445 205 448 199 448 197"></path>
<path id="" fill="none" stroke="#000000" stroke-width="2.0" stroke-opacity="1.0" stroke-linecap="round" stroke-linejoin="round"  filling="0" d="M436 249 C438 247 437 243 437 240 C437 235 438 229 436 225 C435 222 436 218 435 215 C434 214 435 210 435 209 C435 207 434 204 433 202 C432 201 434 199 433 198 C431 194 432 190 430 186 C429 183 428 181 427 178 C427 177 427 176 427 175 C424 168 423 160 419 153 C418 152 419 149 418 148 C414 141 412 132 408 125 C406 121 403 116 403 112"></path>
<path id="" fill="none" stroke="#000000" stroke-width="2.0" stroke-opacity="1.0" stroke-linecap="round" stroke-linejoin="round"  filling="0" d="M442 120 C442 123 443 127 444 130 C445 132 444 137 445 139 C446 140 447 142 447 144"></path>
<path id="" fill="none" stroke="#000000" stroke-width="2.0" stroke-opacity="1.0" stroke-linecap="round" stroke-linejoin="round"  filling="0" d="M445 176 C445 181 448 185 448 189"></path>
<path id="" fill="none" stroke="#000000" stroke-width="2.0" stroke-opacity="1.0" stroke-linecap="round" stroke-linejoin="round"  filling="0" d="M440 111 C440 114 441 116 441 119"></path>
<path id="" fill="none" stroke="#000000" stroke-width="2.0" stroke-opacity="1.0" stroke-linecap="round" stroke-linejoin="round"  filling="0" d="M444 174 C444 174 445 175 445 175"></path>
<path id="" fill="none" stroke="#000000" stroke-width="2.0" stroke-opacity="1.0" stroke-linecap="round" stroke-linejoin="round"  filling="0" d="M440 109 C440 109 440 110 440 110"></path>
<path id="" fill="none" stroke="#000000" stroke-width="2.0" stroke-opacity="1.0" stroke-linecap="round" stroke-linejoin="round"  filling="0" d="M476 171 C476 171 475 171 475 171"></path>
<path id="" fill="none" stroke="#000000" stroke-width="2.0" stroke-opacity="1.0" stroke-linecap="round" stroke-linejoin="round"  filling="0" d="M338 146 C341 149 346 151 349 153 C355 156 358 162 364 165 C368 167 373 174 375 177 C376 180 381 181 382 184 C385 189 390 193 393 198 C393 199 393 200 393 201 C394 203 398 204 399 206 C401 209 403 213 405 216 C408 222 413 228 416 234 C417 236 420 238 420 240"></path>
<path id="" fill="none" stroke="#000000" stroke-width="2.0" stroke-opacity="1.0" stroke-linecap="round" stroke-linejoin="round"  filling="0" d="M349 181 C350 182 351 188 350 189 C350 189 349 189 348 189 C347 190 343 194 342 195 C339 201 335 205 332 211 C332 212 332 213 332 214 C330 217 329 220 328 223 C327 224 328 228 328 230 C328 234 326 238 328 242 C329 243 328 246 328 247 C328 251 328 255 328 259 C328 270 328 279 332 287 C333 288 332 291 333 292 C335 296 335 300 337 303 C338 306 341 308 341 311"></path>
<path id="" fill="none" stroke="#000000" stroke-width="2.0" stroke-opacity="1.0" stroke-linecap="round" stroke-linejoin="round"  filling="0" d="M367 201 C367 204 364 207 363 209 C362 211 364 213 364 214 C364 215 362 215 362 214"></path>
<path id="" fill="none" stroke="#000000" stroke-width="2.0" stroke-opacity="1.0" stroke-linecap="round" stroke-linejoin="round"  filling="0" d="M406 258 C404 258 401 257 399 256 C398 256 398 254 397 254 C397 254 397 255 397 255 C396 256 395 254 395 254 C394 254 394 254 393 254 C391 253 393 252 391 251 C389 250 386 252 384 252 C382 252 378 251 377 252 C370 255 361 257 356 262 C355 263 348 262 346 263 C343 265 340 266 337 268 C334 269 334 272 330 272"></path>
<path id="" fill="none" stroke="#000000" stroke-width="2.0" stroke-opacity="1.0" stroke-linecap="round" stroke-linejoin="round"  filling="0" d="M372 265 C374 267 378 266 380 266 C385 266 391 267 393 272 C397 280 398 286 394 294 C393 297 388 296 386 297 C382 299 374 298 370 296 C367 295 363 296 361 292 C357 284 357 272 357 263"></path>
<path id="" fill="none" stroke="#000000" stroke-width="2.0" stroke-opacity="1.0" stroke-linecap="round" stroke-linejoin="round"  filling="0" d="M325 278 C326 278 326 278 327 277"></path>
<path id="" fill="none" stroke="#000000" stroke-width="2.0" stroke-opacity="1.0" stroke-linecap="round" stroke-linejoin="round"  filling="0" d="M352 198 C352 206 353 212 353 220 C353 222 355 224 355 225 C354 227 353 231 352 232 C352 232 350 232 350 232 C348 234 353 233 351 235"></path>
<path id="" fill="none" stroke="#000000" stroke-width="2.0" stroke-opacity="1.0" stroke-linecap="round" stroke-linejoin="round"  filling="0" d="M403 247 C401 247 393 249 392 250"></path>
<path id="" fill="none" stroke="#000000" stroke-width="2.0" stroke-opacity="1.0" stroke-linecap="round" stroke-linejoin="round"  filling="0" d="M376 209 C372 209 369 214 365 214"></path>
<path id="" fill="none" stroke="#000000" stroke-width="2.0" stroke-opacity="1.0" stroke-linecap="round" stroke-linejoin="round"  filling="0" d="M389 239 C379 239 373 242 365 246 C361 248 360 253 363 256"></path>
<path id="" fill="none" stroke="#000000" stroke-width="2.0" stroke-opacity="1.0" stroke-linecap="round" stroke-linejoin="round"  filling="0" d="M398 239 C395 239 393 239 390 239"></path>
<path id="" fill="none" stroke="#000000" stroke-width="2.0" stroke-opacity="1.0" stroke-linecap="round" stroke-linejoin="round"  filling="0" d="M387 205 C384 205 379 207 377 209"></path>
<path id="" fill="none" stroke="#000000" stroke-width="2.0" stroke-opacity="1.0" stroke-linecap="round" stroke-linejoin="round"  filling="0" d="M406 246 C411 241 402 239 399 239"></path>
<path id="" fill="none" stroke="#000000" stroke-width="2.0" stroke-opacity="1.0" stroke-linecap="round" stroke-linejoin="round"  filling="0" d="M351 195 C351 196 351 196 351 197"></path>
<path id="" fill="none" stroke="#000000" stroke-width="2.0" stroke-opacity="1.0" stroke-linecap="round" stroke-linejoin="round"  filling="0" d="M358 221 C360 219 359 218 361 216"></path>
<path id="" fill="none" stroke="#000000" stroke-width="2.0" stroke-opacity="1.0" stroke-linecap="round" stroke-linejoin="round"  filling="0" d="M389 204 C389 204 388 204 388 204"></path>
<path id="" fill="none" stroke="#000000" stroke-width="2.0" stroke-opacity="1.0" stroke-linecap="round" stroke-linejoin="round"  filling="0" d="M392 203 C391 203 391 203 390 203"></path>
<path id="" fill="none" stroke="#000000" stroke-width="2.0" stroke-opacity="1.0" stroke-linecap="round" stroke-linejoin="round"  filling="0" d="M356 223 C356 223 355 223 355 223"></path>
<path id="" fill="none" stroke="#000000" stroke-width="2.0" stroke-opacity="1.0" stroke-linecap="round" stroke-linejoin="round"  filling="0" d="M351 193 C351 193 351 194 351 194"></path>
<path id="" fill="none" stroke="#000000" stroke-width="2.0" stroke-opacity="1.0" stroke-linecap="round" stroke-linejoin="round"  filling="0" d="M397 250 C397 251 397 252 397 253"></path>
<path id="" fill="none" stroke="#000000" stroke-width="2.0" stroke-opacity="1.0" stroke-linecap="round" stroke-linejoin="round"  filling="0" d="M405 247 C405 247 404 247 404 247"></path>
<path id="" fill="none" stroke="#000000" stroke-width="2.0" stroke-opacity="1.0" stroke-linecap="round" stroke-linejoin="round"  filling="0" d="M351 191 C351 191 350 190 350 190"></path>
<path id="" fill="none" stroke="#000000" stroke-width="2.0" stroke-opacity="1.0" stroke-linecap="round" stroke-linejoin="round"  filling="0" d="M214 158 C221 165 227 169 235 173 C240 175 246 176 251 178 C252 178 253 178 254 178 C257 180 268 182 271 179"></path>
<path id="" fill="none" stroke="#000000" stroke-width="2.0" stroke-opacity="1.0" stroke-linecap="round" stroke-linejoin="round"  filling="0" d="M445 261 C447 263 452 267 453 270 C454 272 456 275 458 276 C460 277 462 278 464 279 C465 279 466 279 467 279 C470 280 475 281 477 279"></path>
<path id="" fill="none" stroke="#000000" stroke-width="2.0" stroke-opacity="1.0" stroke-linecap="round" stroke-linejoin="round"  filling="0" d="M242 506 C227 521 218 539 209 557 C203 569 196 582 190 594 C186 603 177 610 173 619 C162 641 146 660 135 681 C131 690 122 697 118 706 C113 716 106 724 101 734 C97 743 92 754 85 761"></path>
<path id="" fill="none" stroke="#000000" stroke-width="2.0" stroke-opacity="1.0" stroke-linecap="round" stroke-linejoin="round"  filling="0" d="M527 556 C526 555 524 553 523 552 C521 551 517 552 516 550 C515 548 516 547 517 546 C517 545 516 544 517 544 C520 544 522 549 522 551"></path>
<path id="" fill="none" stroke="#000000" stroke-width="2.0" stroke-opacity="1.0" stroke-linecap="round" stroke-linejoin="round"  filling="0" d="M489 525 C492 528 496 529 498 532 C499 533 498 535 499 536 C501 540 507 544 511 546 C513 547 513 549 515 549"></path>
<path id="" fill="none" stroke="#000000" stroke-width="2.0" stroke-opacity="1.0" stroke-linecap="round" stroke-linejoin="round"  filling="0" d="M485 521 C486 522 487 523 488 524"></path>
<path id="" fill="none" stroke="#000000" stroke-width="2.0" stroke-opacity="1.0" stroke-linecap="round" stroke-linejoin="round"  filling="0" d="M506 534 C504 534 502 532 499 532"></path>
<path id="" fill="none" stroke="#000000" stroke-width="2.0" stroke-opacity="1.0" stroke-linecap="round" stroke-linejoin="round"  filling="0" d="M480 515 C481 514 481 513 482 513 C484 513 483 515 483 516 C483 517 485 517 484 518 C482 521 479 517 478 518"></path>
<path id="" fill="none" stroke="#000000" stroke-width="2.0" stroke-opacity="1.0" stroke-linecap="round" stroke-linejoin="round"  filling="0" d="M509 536 C511 538 514 541 516 543"></path>
<path id="" fill="none" stroke="#000000" stroke-width="2.0" stroke-opacity="1.0" stroke-linecap="round" stroke-linejoin="round"  filling="0" d="M507 535 C507 535 508 536 508 536"></path>
<path id="" fill="none" stroke="#000000" stroke-width="2.0" stroke-opacity="1.0" stroke-linecap="round" stroke-linejoin="round"  filling="0" d="M305 618 C300 623 294 628 288 631 C285 633 283 637 280 639 C276 641 273 645 270 648 C266 652 262 655 258 659 C253 664 245 670 242 676 C239 682 230 685 227 691 C223 699 214 704 210 712 C209 714 206 715 205 717 C202 724 194 728 191 735 C189 739 184 743 182 747 C179 752 176 757 172 761"></path>
<path id="" fill="none" stroke="#000000" stroke-width="2.0" stroke-opacity="1.0" stroke-linecap="round" stroke-linejoin="round"  filling="0" d="M537 745 C537 748 535 753 534 756 C533 758 535 758 533 760"></path>
</svg>