<svg xmlns="http://www.w3.org/2000/svg" viewBox="0 0 846 850" height="850.0px" width="846.0px">
<path id="" fill="none" stroke="#000000" stroke-width="2.0" stroke-opacity="1.0" stroke-linecap="round" stroke-linejoin="round"  filling="0" d="M537 63 C537 60 531 58 530 55 C528 52 524 48 521 46 C520 45 519 44 518 43 C514 41 511 39 507 37 C503 35 497 34 493 32 C490 31 487 31 484 30 C478 27 472 28 466 25 C465 25 464 25 463 25 C459 23 453 23 449 21 C448 21 447 21 446 21 C433 15 415 17 400 17 C393 17 387 17 381 20 C380 20 379 20 378 20 C363 27 350 36 335 43 C329 46 324 52 318 55 C316 56 316 58 314 59 C309 62 304 67 300 71 C295 76 286 82 283 89 C282 92 278 93 277 96 C276 98 273 99 272 101 C270 104 268 107 266 110 C263 115 258 119 255 124 C253 127 250 130 248 133 C240 149 223 160 215 176 C211 183 207 190 203 197 C203 198 203 199 203 200 C200 205 198 211 195 216 C195 217 195 218 195 219 C193 224 191 229 189 234 C189 235 189 236 189 237 C187 241 187 245 185 249 C184 250 186 252 185 253 C184 256 183 259 183 262 C183 263 184 267 183 268 C181 272 182 278 182 283 C182 287 180 296 182 299 C186 307 193 314 197 322 C199 326 204 330 206 334 C208 337 215 341 215 345"></path>
<path id="" fill="none" stroke="#000000" stroke-width="2.0" stroke-opacity="1.0" stroke-linecap="round" stroke-linejoin="round"  filling="0" d="M540 80 C538 80 537 81 536 82 C532 84 527 83 523 85 C520 87 514 84 511 86 C510 87 506 86 504 86 C498 86 493 86 487 86 C480 86 473 86 466 86 C462 86 459 86 456 87 C454 88 450 86 448 87 C445 88 442 89 439 90 C436 91 432 91 429 92 C425 94 422 95 418 97 C417 97 416 97 415 97 C409 100 404 103 398 106 C390 110 383 117 375 121 C373 122 373 124 371 125 C366 127 362 132 358 136 C356 138 354 141 352 142 C348 144 344 148 342 152 C340 157 333 160 331 165 C330 168 326 169 325 172 C321 180 314 186 310 194 C305 204 301 215 296 225 C296 226 296 227 296 228 C294 231 294 235 292 238 C291 240 292 243 291 245 C287 253 286 264 286 274 C286 276 285 282 286 284 C287 287 292 290 295 292 C297 293 297 295 299 296 C302 298 303 295 305 293 C306 292 307 293 307 292 C307 291 305 288 306 286 C307 284 309 284 310 282 C312 278 307 273 309 269 C310 267 311 265 312 263 C312 262 312 261 312 260 C313 258 314 257 315 256 C316 254 316 248 319 247 C320 246 322 249 324 248 C326 247 326 240 329 241 C332 243 331 248 330 250 C329 253 327 251 325 252 C324 252 322 256 322 257 C322 258 322 259 322 260 C319 267 322 282 311 282"></path>
<path id="" fill="none" stroke="#000000" stroke-width="2.0" stroke-opacity="1.0" stroke-linecap="round" stroke-linejoin="round"  filling="0" d="M600 94 C596 98 591 99 587 101 C585 102 585 104 583 105 C582 106 579 104 578 105 C577 106 580 106 580 107 C581 109 580 111 581 113 C582 115 584 117 585 119 C586 121 584 124 585 126 C587 131 586 137 588 141 C589 143 587 147 588 149 C589 152 590 158 590 161 C590 162 589 166 590 167 C592 170 589 176 591 179 C593 183 592 189 592 194 C592 203 593 214 593 224 C593 228 594 233 592 237 C591 239 593 243 592 245 C590 249 591 253 589 257 C588 259 589 262 588 264 C585 269 586 276 583 281 C582 283 583 287 580 288 C579 289 577 289 576 289 C575 289 576 288 576 287 C576 286 576 285 576 284 C576 279 577 275 577 270 C577 251 582 233 582 215"></path>
<path id="" fill="none" stroke="#000000" stroke-width="2.0" stroke-opacity="1.0" stroke-linecap="round" stroke-linejoin="round"  filling="0" d="M573 99 C575 101 576 102 578 104"></path>
<path id="" fill="none" stroke="#000000" stroke-width="2.0" stroke-opacity="1.0" stroke-linecap="round" stroke-linejoin="round"  filling="0" d="M519 150 C517 152 518 154 517 156 C514 162 515 169 512 175 C511 177 512 181 511 182 C510 183 509 181 508 181 C507 181 503 181 503 181 C502 180 504 175 504 174 C505 173 503 171 504 170 C506 167 507 161 507 157"></path>
<path id="" fill="none" stroke="#000000" stroke-width="2.0" stroke-opacity="1.0" stroke-linecap="round" stroke-linejoin="round"  filling="0" d="M555 161 C555 168 557 178 554 185 C552 188 556 195 554 198 C553 201 552 209 552 212 C552 215 551 221 552 224 C552 225 555 224 555 225 C555 226 553 228 553 229 C552 230 553 234 553 236 C553 239 552 245 551 248 C550 250 551 254 551 256 C551 260 551 270 549 274 C548 276 550 279 548 280 C544 282 540 279 539 276 C537 272 534 268 532 264 C531 263 533 260 532 259 C531 258 531 257 530 256 C529 255 531 253 530 252 C530 251 526 248 527 247 C528 246 532 244 533 244 C533 244 537 249 537 250 C537 251 532 252 531 252"></path>
<path id="" fill="none" stroke="#000000" stroke-width="2.0" stroke-opacity="1.0" stroke-linecap="round" stroke-linejoin="round"  filling="0" d="M600 166 C603 163 601 151 600 148 C599 146 601 144 600 142 C599 139 599 135 598 132 C595 126 595 119 592 113 C590 109 587 108 584 105"></path>
<path id="" fill="none" stroke="#000000" stroke-width="2.0" stroke-opacity="1.0" stroke-linecap="round" stroke-linejoin="round"  filling="0" d="M360 176 C356 180 353 185 351 190 C350 191 352 192 352 193 C352 194 350 193 350 194 C349 197 347 199 346 202 C345 204 339 210 339 205"></path>
<path id="" fill="none" stroke="#000000" stroke-width="2.0" stroke-opacity="1.0" stroke-linecap="round" stroke-linejoin="round"  filling="0" d="M388 177 C388 181 384 181 382 184 C380 187 380 191 378 194 C377 195 376 196 375 197 C374 200 371 206 371 209 C371 209 372 210 372 210 C372 211 370 211 370 212 C370 213 370 213 370 214 C369 215 368 216 367 217 C365 221 367 224 370 226 C371 226 371 228 372 227 C373 227 373 226 373 225 C375 222 370 223 367 223"></path>
<path id="" fill="none" stroke="#000000" stroke-width="2.0" stroke-opacity="1.0" stroke-linecap="round" stroke-linejoin="round"  filling="0" d="M401 181 C399 183 396 185 395 187 C394 188 395 190 394 191 C394 192 393 193 392 193 C390 193 388 191 386 194 C384 198 381 201 379 205 C378 206 380 207 378 208 C376 209 375 208 373 210"></path>
<path id="" fill="none" stroke="#000000" stroke-width="2.0" stroke-opacity="1.0" stroke-linecap="round" stroke-linejoin="round"  filling="0" d="M365 192 C363 194 364 197 363 199 C361 203 361 206 359 210 C359 211 359 212 359 213 C358 215 357 219 358 221 C358 222 361 223 361 224 C361 225 359 228 358 229 C357 231 357 235 356 237 C356 238 354 238 354 239 C353 240 355 242 354 243 C353 245 352 247 351 249 C350 250 352 252 351 253 C350 254 348 257 346 258 C345 259 342 257 341 258 C339 259 341 260 339 261 C338 261 337 261 336 261 C335 261 335 263 334 263 C333 263 332 262 332 263 C332 264 333 264 333 265 C332 266 331 267 332 269 C332 270 334 270 334 271 C335 272 333 274 334 275 C335 277 337 278 338 280 C339 282 337 290 337 288"></path>
<path id="" fill="none" stroke="#000000" stroke-width="2.0" stroke-opacity="1.0" stroke-linecap="round" stroke-linejoin="round"  filling="0" d="M527 202 C527 211 525 219 525 229 C525 234 527 240 525 244 C523 248 518 244 515 246 C513 247 511 251 507 249 C504 247 506 246 506 244 C506 243 504 244 504 243 C503 242 504 238 504 237 C504 232 504 226 504 221 C504 218 505 216 505 213 C505 212 504 208 505 208 C505 208 505 209 505 209"></path>
<path id="" fill="none" stroke="#000000" stroke-width="2.0" stroke-opacity="1.0" stroke-linecap="round" stroke-linejoin="round"  filling="0" d="M569 213 C569 228 567 242 567 257 C567 261 564 268 566 272 C567 273 568 274 569 275 C571 280 566 286 568 290 C570 293 573 292 575 290"></path>
<path id="" fill="none" stroke="#000000" stroke-width="2.0" stroke-opacity="1.0" stroke-linecap="round" stroke-linejoin="round"  filling="0" d="M557 224 C557 224 556 224 556 224"></path>
<path id="" fill="none" stroke="#000000" stroke-width="2.0" stroke-opacity="1.0" stroke-linecap="round" stroke-linejoin="round"  filling="0" d="M248 227 C248 232 247 238 247 242 C247 246 248 251 246 255 C244 258 247 264 245 267 C243 270 246 275 244 278 C243 279 244 283 244 284 C244 287 243 293 242 296 C242 297 242 303 242 304 C242 305 244 304 244 305 C244 306 242 311 241 312 C241 313 241 314 241 315 C239 319 239 324 237 328 C235 332 237 337 235 341 C232 347 231 354 228 360 C227 363 227 367 226 370 C224 374 227 379 225 383 C222 388 226 396 224 401 C223 403 223 404 223 406 C223 409 222 415 223 417 C224 419 227 416 229 416"></path>
<path id="" fill="none" stroke="#000000" stroke-width="2.0" stroke-opacity="1.0" stroke-linecap="round" stroke-linejoin="round"  filling="0" d="M386 250 C391 245 397 247 403 250 C405 251 403 252 404 253 C405 254 408 253 410 255 C413 258 414 259 416 263 C416 264 418 265 417 266 C417 267 415 267 414 267 C411 265 407 265 404 263 C403 262 401 262 400 261 C399 260 397 261 396 263 C396 264 396 265 396 266 C395 268 394 266 393 268 C392 269 394 272 393 273 C393 273 392 277 392 277 C392 277 391 277 391 277 C391 280 397 279 399 279 C405 279 409 277 414 274 C415 273 417 269 418 269 C419 269 420 270 418 270"></path>
<path id="" fill="none" stroke="#000000" stroke-width="2.0" stroke-opacity="1.0" stroke-linecap="round" stroke-linejoin="round"  filling="0" d="M422 255 C422 252 418 250 417 248 C413 239 400 239 391 239 C387 239 384 239 381 240 C379 241 376 240 374 241 C371 242 369 244 366 245 C366 245 364 247 363 246 C362 245 364 242 364 241 C365 238 367 236 368 233 C369 231 371 230 371 228"></path>
<path id="" fill="none" stroke="#000000" stroke-width="2.0" stroke-opacity="1.0" stroke-linecap="round" stroke-linejoin="round"  filling="0" d="M493 257 C496 254 495 246 495 241 C495 238 495 230 497 227 C498 224 497 220 498 217 C499 215 498 211 499 209 C500 207 498 202 499 201 C499 201 502 201 502 201 C506 201 510 201 512 205 C513 207 510 209 511 211 C512 214 511 218 512 221 C513 224 514 231 514 234 C514 236 516 242 515 243 C513 245 509 242 507 244"></path>
<path id="" fill="none" stroke="#000000" stroke-width="2.0" stroke-opacity="1.0" stroke-linecap="round" stroke-linejoin="round"  filling="0" d="M536 261 C535 261 534 260 533 260"></path>
<path id="" fill="none" stroke="#000000" stroke-width="2.0" stroke-opacity="1.0" stroke-linecap="round" stroke-linejoin="round"  filling="0" d="M446 278 C443 281 447 288 445 292 C443 296 444 301 442 305 C437 315 435 327 424 332 C420 334 414 333 409 333 C404 333 399 333 394 333 C393 333 389 334 388 333 C382 330 376 328 370 325 C367 324 363 318 362 316 C361 314 358 312 356 311 C353 309 349 303 348 300 C347 297 342 296 340 298 C339 299 340 301 341 301 C342 302 345 300 346 299"></path>
<path id="" fill="none" stroke="#000000" stroke-width="2.0" stroke-opacity="1.0" stroke-linecap="round" stroke-linejoin="round"  filling="0" d="M487 284 C491 284 498 281 501 283 C502 284 504 282 505 283 C507 284 510 284 512 285 C515 286 511 290 509 290"></path>
<path id="" fill="none" stroke="#000000" stroke-width="2.0" stroke-opacity="1.0" stroke-linecap="round" stroke-linejoin="round"  filling="0" d="M439 286 C441 286 442 287 444 287"></path>
<path id="" fill="none" stroke="#000000" stroke-width="2.0" stroke-opacity="1.0" stroke-linecap="round" stroke-linejoin="round"  filling="0" d="M323 292 C325 290 323 287 324 285 C325 282 325 280 326 277 C327 275 327 270 331 270"></path>
<path id="" fill="none" stroke="#000000" stroke-width="2.0" stroke-opacity="1.0" stroke-linecap="round" stroke-linejoin="round"  filling="0" d="M558 296 C561 293 562 285 562 281 C562 278 562 273 566 273"></path>
<path id="" fill="none" stroke="#000000" stroke-width="2.0" stroke-opacity="1.0" stroke-linecap="round" stroke-linejoin="round"  filling="0" d="M481 297 C480 298 479 301 477 302 C475 303 472 299 470 298 C464 295 458 293 452 290 C450 289 449 287 446 287"></path>
<path id="" fill="none" stroke="#000000" stroke-width="2.0" stroke-opacity="1.0" stroke-linecap="round" stroke-linejoin="round"  filling="0" d="M504 299 C503 300 500 305 503 306 C504 307 507 306 508 306 C512 306 516 307 519 307 C520 307 524 306 525 307 C526 308 523 314 523 315 C522 317 518 317 517 318 C510 321 500 323 493 320 C490 318 491 312 491 309 C491 308 491 305 491 305 C490 304 487 306 485 304"></path>
<path id="" fill="none" stroke="#000000" stroke-width="2.0" stroke-opacity="1.0" stroke-linecap="round" stroke-linejoin="round"  filling="0" d="M548 307 C549 306 550 302 548 301 C546 300 543 303 541 302 C539 301 536 300 534 299 C532 298 527 290 525 291 C520 293 525 302 525 306"></path>
<path id="" fill="none" stroke="#000000" stroke-width="2.0" stroke-opacity="1.0" stroke-linecap="round" stroke-linejoin="round"  filling="0" d="M324 331 C326 329 323 327 322 325 C321 323 322 319 318 319 C314 319 309 323 306 325 C301 327 298 332 293 334 C291 335 291 337 289 338 C283 341 278 346 273 351 C270 354 267 356 264 359 C263 360 262 360 261 361 C260 363 260 364 259 366 C258 367 256 369 256 370 C256 370 257 371 257 371 C257 375 254 379 252 382 C252 383 252 384 252 385 C245 398 241 413 234 426 C234 427 234 428 234 429 C233 431 231 433 230 436 C230 437 230 438 230 439 C229 441 227 443 226 445 C226 446 226 447 226 448 C223 454 220 459 217 465 C216 467 217 470 215 471 C212 472 208 470 210 467 C214 460 216 452 220 445 C221 444 220 441 221 440 C222 438 224 436 225 434 C226 431 228 429 229 426 C229 426 229 423 229 423 C230 423 230 425 231 425 C232 425 233 425 234 425"></path>
<path id="" fill="none" stroke="#000000" stroke-width="2.0" stroke-opacity="1.0" stroke-linecap="round" stroke-linejoin="round"  filling="0" d="M362 332 C355 325 350 318 346 310 C345 307 342 305 342 302"></path>
<path id="" fill="none" stroke="#000000" stroke-width="2.0" stroke-opacity="1.0" stroke-linecap="round" stroke-linejoin="round"  filling="0" d="M506 361 C503 364 505 365 505 368 C505 369 501 369 501 369 C500 369 499 371 499 372 C498 373 500 375 499 376 C496 382 492 390 492 397 C492 400 488 408 493 410 C495 411 497 408 498 407 C501 402 502 396 505 391 C505 390 509 385 509 385 C509 383 508 384 508 385"></path>
<path id="" fill="none" stroke="#000000" stroke-width="2.0" stroke-opacity="1.0" stroke-linecap="round" stroke-linejoin="round"  filling="0" d="M280 368 C285 363 291 361 297 358 C304 354 311 349 318 345 C319 345 320 345 321 345 C324 344 331 341 333 338 C333 337 333 335 333 334 C333 331 334 324 333 321 C332 318 324 318 322 320"></path>
<path id="" fill="none" stroke="#000000" stroke-width="2.0" stroke-opacity="1.0" stroke-linecap="round" stroke-linejoin="round"  filling="0" d="M488 379 C490 377 495 370 495 367 C495 366 490 364 489 364 C484 361 480 354 478 350 C474 342 474 330 474 320 C474 318 473 312 474 310 C475 307 476 306 476 303"></path>
<path id="" fill="none" stroke="#000000" stroke-width="2.0" stroke-opacity="1.0" stroke-linecap="round" stroke-linejoin="round"  filling="0" d="M531 380 C531 383 529 388 528 390 C527 391 529 393 528 394 C526 397 527 401 525 404 C525 405 525 412 526 412 C526 412 529 410 529 410 C533 408 534 401 538 397"></path>
<path id="" fill="none" stroke="#000000" stroke-width="2.0" stroke-opacity="1.0" stroke-linecap="round" stroke-linejoin="round"  filling="0" d="M479 386 C474 391 466 397 459 400 C457 401 457 404 455 405 C454 406 451 405 450 406 C447 407 445 410 442 411 C440 412 437 412 435 413 C432 414 426 413 423 413 C416 413 410 413 404 410 C401 409 397 409 394 408 C390 406 386 403 382 401 C380 400 378 397 377 396 C373 392 369 389 367 384 C366 383 365 382 364 381 C362 377 359 373 355 371 C354 370 352 372 352 373 C351 375 347 381 344 382 C335 387 326 394 318 402 C315 405 314 412 310 412"></path>
<path id="" fill="none" stroke="#000000" stroke-width="2.0" stroke-opacity="1.0" stroke-linecap="round" stroke-linejoin="round"  filling="0" d="M239 389 C241 387 244 383 245 380 C247 376 252 373 255 370"></path>
<path id="" fill="none" stroke="#000000" stroke-width="2.0" stroke-opacity="1.0" stroke-linecap="round" stroke-linejoin="round"  filling="0" d="M290 391 C294 391 298 382 302 380 C306 378 309 372 314 370 C317 369 319 366 322 365 C328 362 339 355 346 359 C349 360 353 359 355 363 C356 364 355 368 355 370"></path>
<path id="" fill="none" stroke="#000000" stroke-width="2.0" stroke-opacity="1.0" stroke-linecap="round" stroke-linejoin="round"  filling="0" d="M475 399 C475 402 476 408 477 411 C478 412 476 415 477 416 C478 418 480 418 481 420 C482 421 481 423 482 424 C483 426 481 431 485 431 C487 431 489 426 488 424 C487 423 485 422 484 421 C483 420 482 419 483 418 C486 412 493 418 493 411"></path>
<path id="" fill="none" stroke="#000000" stroke-width="2.0" stroke-opacity="1.0" stroke-linecap="round" stroke-linejoin="round"  filling="0" d="M511 404 C511 407 509 409 508 411 C506 415 505 421 503 425 C502 427 503 432 502 434 C501 437 500 441 500 444 C500 445 500 449 500 449 C498 451 498 454 497 457 C495 461 489 460 488 463 C486 467 492 470 493 472 C495 475 491 477 490 479 C489 481 490 482 490 483 C490 483 489 483 489 483 C488 483 487 485 487 486 C486 487 487 491 485 492 C481 494 476 486 474 484 C468 478 467 470 464 463 C463 461 464 459 463 457 C462 455 464 450 463 448 C462 446 457 442 455 443 C452 444 455 450 454 452 C452 457 455 464 453 468 C452 470 452 472 452 475 C452 477 453 482 452 484 C450 487 448 493 450 496 C450 497 452 497 452 498 C452 498 450 501 450 501 C448 505 451 511 449 515 C448 516 448 523 449 524 C449 525 451 524 451 525 C451 525 449 528 449 528 C449 529 449 530 449 531 C447 534 447 538 445 541 C444 543 445 546 444 548 C441 554 440 562 437 568 C436 569 438 571 437 572 C436 574 435 575 434 577 C433 579 434 581 433 583 C433 583 431 586 431 586 C431 586 432 586 432 586 C433 586 433 588 433 589 C430 595 431 601 428 607 C427 609 429 611 427 613 C426 614 422 614 421 615 C418 617 416 621 413 623 C409 625 404 631 402 635 C401 637 399 637 398 639 C396 644 391 647 389 652 C388 653 387 654 386 655 C385 657 378 666 375 664 C363 658 355 646 343 640 C340 638 337 636 333 634 C332 633 329 634 328 632 C327 631 327 629 327 628 C327 628 329 625 329 625 C331 621 327 613 332 611 C333 610 334 612 335 612 C337 613 339 611 341 614 C342 616 341 619 343 620 C350 623 355 630 362 633 C365 634 366 637 370 637"></path>
<path id="" fill="none" stroke="#000000" stroke-width="2.0" stroke-opacity="1.0" stroke-linecap="round" stroke-linejoin="round"  filling="0" d="M464 411 C464 413 466 417 467 419 C468 420 467 423 468 424 C470 429 474 433 476 438 C477 440 481 440 483 441 C484 441 485 441 485 442 C485 442 484 443 484 443 C483 444 484 447 484 448 C484 452 485 459 488 462"></path>
<path id="" fill="none" stroke="#000000" stroke-width="2.0" stroke-opacity="1.0" stroke-linecap="round" stroke-linejoin="round"  filling="0" d="M560 417 C560 412 561 406 559 402 C558 401 560 399 559 398 C558 396 556 394 555 392 C554 390 555 384 555 381 C555 375 554 369 554 364 C554 360 555 354 553 350 C552 347 553 340 553 337 C553 336 551 333 550 333 C549 333 546 336 546 337 C544 342 541 347 538 352 C537 355 532 359 529 360 C528 361 526 360 526 359"></path>
<path id="" fill="none" stroke="#000000" stroke-width="2.0" stroke-opacity="1.0" stroke-linecap="round" stroke-linejoin="round"  filling="0" d="M455 427 C455 430 454 430 453 433 C452 435 454 440 454 442"></path>
<path id="" fill="none" stroke="#000000" stroke-width="2.0" stroke-opacity="1.0" stroke-linecap="round" stroke-linejoin="round"  filling="0" d="M548 437 C551 434 548 430 550 427 C553 421 550 414 553 408 C555 404 551 399 555 395"></path>
<path id="" fill="none" stroke="#000000" stroke-width="2.0" stroke-opacity="1.0" stroke-linecap="round" stroke-linejoin="round"  filling="0" d="M212 442 C209 445 204 447 201 449 C197 451 195 455 191 457 C189 458 187 461 186 462 C182 466 177 471 174 476 C171 481 165 485 162 490 C156 503 144 512 138 525 C134 532 131 539 127 546 C127 547 127 548 127 549 C124 554 124 560 121 565 C120 568 119 573 117 575 C116 576 115 578 114 577 C110 575 113 572 112 570 C111 567 111 564 111 560 C111 558 111 553 110 551 C109 550 108 550 107 549 C106 548 107 544 107 543 C107 541 108 540 109 538 C111 535 111 531 113 527 C114 525 115 522 116 520 C116 519 116 518 116 517 C120 509 124 501 128 493 C130 489 134 486 136 482 C137 480 141 478 142 476 C145 471 154 462 159 459 C163 457 166 451 170 449 C181 444 189 434 200 429 C205 426 211 424 216 421 C218 420 221 420 223 418"></path>
<path id="" fill="none" stroke="#000000" stroke-width="2.0" stroke-opacity="1.0" stroke-linecap="round" stroke-linejoin="round"  filling="0" d="M491 446 C491 444 488 443 486 443"></path>
<path id="" fill="none" stroke="#000000" stroke-width="2.0" stroke-opacity="1.0" stroke-linecap="round" stroke-linejoin="round"  filling="0" d="M471 450 C468 450 467 449 464 449"></path>
<path id="" fill="none" stroke="#000000" stroke-width="2.0" stroke-opacity="1.0" stroke-linecap="round" stroke-linejoin="round"  filling="0" d="M525 463 C524 464 524 465 524 466 C522 469 520 472 518 475 C516 479 514 485 511 488 C510 489 507 497 504 495 C502 494 503 490 503 488 C503 483 504 479 504 474 C504 473 505 470 504 469 C502 466 500 469 497 469 C495 469 496 460 496 459"></path>
<path id="" fill="none" stroke="#000000" stroke-width="2.0" stroke-opacity="1.0" stroke-linecap="round" stroke-linejoin="round"  filling="0" d="M554 474 C554 476 556 476 557 478 C558 479 560 476 561 475 C563 473 567 463 570 470 C574 478 575 488 579 496 C580 498 580 502 581 504 C583 508 582 513 584 517 C585 518 583 520 584 521 C587 526 585 534 588 539 C589 542 585 543 585 544 C585 545 587 547 587 548 C588 549 586 551 587 552 C588 555 589 557 590 560 C591 562 589 565 590 567 C592 571 594 578 594 583 C594 584 596 587 595 588 C594 589 591 587 590 589 C589 592 590 596 589 599 C587 602 590 607 588 610 C585 617 587 630 587 638 C587 642 587 646 587 650 C587 651 586 654 587 655 C589 658 587 662 589 665 C590 667 588 669 589 671 C590 673 589 676 590 678 C593 685 592 694 595 701 C596 703 595 708 596 710 C598 714 597 719 599 723 C600 725 603 726 604 728 C605 730 603 733 604 735 C607 741 605 749 608 755 C610 759 606 766 608 770 C611 775 609 783 612 788 C613 790 611 793 612 795 C613 798 613 800 614 803 C615 805 613 807 614 809 C615 811 615 814 616 816 C617 818 615 820 616 822 C617 824 616 827 617 829 C620 834 620 841 620 847"></path>
<path id="" fill="none" stroke="#000000" stroke-width="2.0" stroke-opacity="1.0" stroke-linecap="round" stroke-linejoin="round"  filling="0" d="M495 487 C495 484 494 483 491 483"></path>
<path id="" fill="none" stroke="#000000" stroke-width="2.0" stroke-opacity="1.0" stroke-linecap="round" stroke-linejoin="round"  filling="0" d="M277 504 C279 506 280 512 280 515 C280 516 277 516 276 517 C274 522 272 527 270 531 C268 534 270 539 268 542 C267 545 267 549 266 552 C262 561 263 572 259 581 C258 582 260 584 259 585 C257 589 258 599 253 601 C249 603 250 592 250 590 C250 578 254 567 254 555"></path>
<path id="" fill="none" stroke="#000000" stroke-width="2.0" stroke-opacity="1.0" stroke-linecap="round" stroke-linejoin="round"  filling="0" d="M508 507 C508 509 507 509 506 510 C505 511 507 513 506 514 C504 518 505 522 503 526 C502 527 501 530 502 532 C503 533 505 533 506 532 C509 530 512 526 515 523 C525 513 535 502 546 491 C549 488 552 486 554 483 C554 482 556 480 557 481 C560 483 562 489 563 492 C568 502 571 514 576 524 C577 527 578 530 579 533 C580 534 579 537 581 538 C583 539 584 537 586 537"></path>
<path id="" fill="none" stroke="#000000" stroke-width="2.0" stroke-opacity="1.0" stroke-linecap="round" stroke-linejoin="round"  filling="0" d="M203 514 C206 511 204 503 206 499 C207 498 208 497 207 495 C206 493 200 495 202 490 C202 489 203 486 204 486 C206 485 209 487 210 485 C212 482 211 478 207 478 C206 478 205 484 204 485"></path>
<path id="" fill="none" stroke="#000000" stroke-width="2.0" stroke-opacity="1.0" stroke-linecap="round" stroke-linejoin="round"  filling="0" d="M487 514 C485 516 482 519 480 519 C479 519 480 518 480 517 C480 516 480 514 480 513 C482 510 480 505 482 502 C483 499 485 496 485 493"></path>
<path id="" fill="none" stroke="#000000" stroke-width="2.0" stroke-opacity="1.0" stroke-linecap="round" stroke-linejoin="round"  filling="0" d="M163 528 C163 543 164 562 170 575 C171 578 171 582 173 585 C174 587 176 586 177 587 C177 587 177 588 177 588 C180 588 179 579 180 577 C181 574 181 570 182 567 C186 559 185 549 189 541 C190 539 189 535 190 533 C194 526 193 516 197 509 C197 508 197 507 197 506 C198 503 199 500 200 497 C201 495 203 497 201 497"></path>
<path id="" fill="none" stroke="#000000" stroke-width="2.0" stroke-opacity="1.0" stroke-linecap="round" stroke-linejoin="round"  filling="0" d="M484 539 C481 539 482 537 481 535 C480 533 477 532 478 530 C479 529 481 525 481 525 C481 524 480 522 480 520"></path>
<path id="" fill="none" stroke="#000000" stroke-width="2.0" stroke-opacity="1.0" stroke-linecap="round" stroke-linejoin="round"  filling="0" d="M382 556 C380 558 376 557 373 557 C364 557 353 558 346 554 C344 553 337 548 335 549 C332 550 335 557 334 559 C330 567 334 576 334 584 C334 586 335 595 331 595 C331 595 330 594 330 594 C329 593 327 594 326 593 C322 591 324 582 324 578 C324 577 323 576 323 575"></path>
<path id="" fill="none" stroke="#000000" stroke-width="2.0" stroke-opacity="1.0" stroke-linecap="round" stroke-linejoin="round"  filling="0" d="M147 583 C147 599 152 612 159 625 C161 628 162 631 164 634 C165 636 170 637 168 642 C164 650 164 659 160 667 C159 670 159 673 158 676 C157 678 154 678 153 680 C150 686 150 695 147 701 C146 702 145 703 144 704 C142 708 146 712 146 715 C146 716 145 715 144 716 C143 717 142 719 141 720 C139 725 139 730 137 735 C136 738 138 743 138 745 C138 746 136 745 136 746 C135 748 135 751 134 753 C133 755 135 757 134 759 C132 763 133 769 131 773 C130 776 132 780 131 783 C129 787 125 788 123 791 C115 807 101 820 101 840"></path>
<path id="" fill="none" stroke="#000000" stroke-width="2.0" stroke-opacity="1.0" stroke-linecap="round" stroke-linejoin="round"  filling="0" d="M483 585 C482 586 479 586 478 587 C477 588 478 592 477 593 C475 598 472 603 470 608 C469 609 469 610 468 611 C468 611 468 612 468 612 C468 612 467 611 467 611 C465 611 461 613 462 616 C464 619 468 615 468 613"></path>
<path id="" fill="none" stroke="#000000" stroke-width="2.0" stroke-opacity="1.0" stroke-linecap="round" stroke-linejoin="round"  filling="0" d="M426 590 C427 589 428 587 430 587"></path>
<path id="" fill="none" stroke="#000000" stroke-width="2.0" stroke-opacity="1.0" stroke-linecap="round" stroke-linejoin="round"  filling="0" d="M180 604 C178 606 176 605 175 607 C174 608 176 611 175 612 C173 617 173 622 171 627 C169 630 171 633 168 636"></path>
<path id="" fill="none" stroke="#000000" stroke-width="2.0" stroke-opacity="1.0" stroke-linecap="round" stroke-linejoin="round"  filling="0" d="M98 620 C98 624 98 633 100 637 C101 640 99 645 100 648 C101 650 100 653 101 655 C103 660 103 665 105 670 C106 672 105 675 106 677 C108 681 108 684 110 688 C111 690 110 692 111 694 C113 699 117 703 119 708 C120 709 120 711 121 712 C123 713 126 712 127 710 C129 706 132 702 135 699 C135 699 137 696 138 696 C140 696 140 703 143 703"></path>
<path id="" fill="none" stroke="#000000" stroke-width="2.0" stroke-opacity="1.0" stroke-linecap="round" stroke-linejoin="round"  filling="0" d="M301 625 C301 628 304 634 302 637 C300 641 301 648 301 653 C301 654 302 658 301 659 C299 663 300 671 300 676 C300 688 300 701 300 713 C300 719 298 729 301 734 C302 737 301 741 302 744 C303 746 301 748 302 750 C304 753 302 758 304 761 C307 767 308 775 311 781 C312 783 316 790 315 793 C314 795 311 794 310 795 C309 795 307 800 306 801 C306 802 306 803 306 804 C304 808 304 811 302 815 C301 818 303 822 302 825 C300 830 301 838 301 843 C301 845 300 846 300 848"></path>
<path id="" fill="none" stroke="#000000" stroke-width="2.0" stroke-opacity="1.0" stroke-linecap="round" stroke-linejoin="round"  filling="0" d="M325 628 C325 628 326 628 326 628"></path>
<path id="" fill="none" stroke="#000000" stroke-width="2.0" stroke-opacity="1.0" stroke-linecap="round" stroke-linejoin="round"  filling="0" d="M438 647 C438 649 441 650 440 653 C438 657 438 660 436 664 C436 665 436 666 436 667 C435 669 433 672 432 674 C431 677 431 681 430 684 C429 686 431 688 430 690 C427 696 429 706 426 712 C425 714 427 716 426 718 C423 725 425 735 422 742 C421 744 423 747 422 749 C419 754 422 762 419 767 C418 770 419 774 418 777 C417 780 418 784 417 787 C416 790 418 795 417 798 C414 804 416 814 413 820 C411 823 414 829 412 832 C410 836 414 842 411 845"></path>
<path id="" fill="none" stroke="#000000" stroke-width="2.0" stroke-opacity="1.0" stroke-linecap="round" stroke-linejoin="round"  filling="0" d="M415 661 C416 660 417 661 418 661 C419 661 421 654 421 653 C422 651 426 649 426 646 C426 646 425 646 425 646 C425 646 425 643 425 642 C425 639 424 631 425 628 C427 624 427 619 427 614"></path>
<path id="" fill="none" stroke="#000000" stroke-width="2.0" stroke-opacity="1.0" stroke-linecap="round" stroke-linejoin="round"  filling="0" d="M330 671 C330 675 331 679 331 683 C331 685 329 686 329 688 C329 689 330 690 330 688"></path>
<path id="" fill="none" stroke="#000000" stroke-width="2.0" stroke-opacity="1.0" stroke-linecap="round" stroke-linejoin="round"  filling="0" d="M144 687 C141 690 138 691 138 695"></path>
<path id="" fill="none" stroke="#000000" stroke-width="2.0" stroke-opacity="1.0" stroke-linecap="round" stroke-linejoin="round"  filling="0" d="M437 688 C441 684 441 679 443 674 C448 663 450 651 455 640 C457 637 457 630 456 627 C455 626 457 625 455 624 C452 623 449 627 447 629 C443 633 437 640 432 642 C430 643 430 645 427 645"></path>
<path id="" fill="none" stroke="#000000" stroke-width="2.0" stroke-opacity="1.0" stroke-linecap="round" stroke-linejoin="round"  filling="0" d="M157 692 C159 690 157 690 158 688 C159 686 161 679 159 677"></path>
<path id="" fill="none" stroke="#000000" stroke-width="2.0" stroke-opacity="1.0" stroke-linecap="round" stroke-linejoin="round"  filling="0" d="M124 703 C126 701 124 700 123 698 C123 697 123 696 123 695 C122 692 121 690 120 687 C118 684 121 678 119 675 C118 673 117 668 117 665 C117 664 118 660 117 659 C115 654 115 646 115 640 C115 636 114 632 114 627 C114 625 113 623 115 622 C120 619 121 630 122 632 C123 633 121 635 122 636 C124 639 123 643 125 646 C126 647 124 649 125 650 C129 659 129 670 133 679 C134 681 135 691 138 691"></path>
<path id="" fill="none" stroke="#000000" stroke-width="2.0" stroke-opacity="1.0" stroke-linecap="round" stroke-linejoin="round"  filling="0" d="M157 709 C154 712 151 715 147 715"></path>
<path id="" fill="none" stroke="#000000" stroke-width="2.0" stroke-opacity="1.0" stroke-linecap="round" stroke-linejoin="round"  filling="0" d="M112 718 C109 721 106 722 103 724 C101 725 99 728 96 728 C96 728 96 725 96 725 C95 723 95 720 95 717 C95 705 95 694 95 682 C95 677 95 668 93 664 C91 661 94 655 92 652 C91 649 92 643 92 640 C92 634 91 628 91 622 C91 621 90 617 91 616 C92 614 92 614 92 612 C92 598 91 584 97 573 C101 566 100 556 106 550"></path>
<path id="" fill="none" stroke="#000000" stroke-width="2.0" stroke-opacity="1.0" stroke-linecap="round" stroke-linejoin="round"  filling="0" d="M254 726 C254 736 258 749 253 758 C253 759 253 760 253 761 C252 762 247 767 245 766 C244 765 243 758 243 757 C243 750 244 743 244 735 C244 733 243 728 244 726 C245 725 246 724 247 722 C249 719 247 711 247 707 C247 705 246 699 247 697 C248 695 249 690 248 688 C247 686 246 677 247 674 C250 667 248 653 248 645 C248 641 248 636 249 634 C251 631 248 625 250 622 C252 619 248 613 250 610 C251 608 252 604 252 602"></path>
<path id="" fill="none" stroke="#000000" stroke-width="2.0" stroke-opacity="1.0" stroke-linecap="round" stroke-linejoin="round"  filling="0" d="M96 737 C98 735 96 732 96 729"></path>
<path id="" fill="none" stroke="#000000" stroke-width="2.0" stroke-opacity="1.0" stroke-linecap="round" stroke-linejoin="round"  filling="0" d="M141 744 C140 744 140 744 139 744"></path>
<path id="" fill="none" stroke="#000000" stroke-width="2.0" stroke-opacity="1.0" stroke-linecap="round" stroke-linejoin="round"  filling="0" d="M125 745 C123 745 122 744 121 743 C121 743 120 743 120 743 C120 743 121 742 121 742 C121 741 115 739 117 736 C118 734 117 731 118 729 C120 724 123 719 123 713"></path>
<path id="" fill="none" stroke="#000000" stroke-width="2.0" stroke-opacity="1.0" stroke-linecap="round" stroke-linejoin="round"  filling="0" d="M381 778 C384 775 382 775 383 772 C384 770 385 769 386 768 C386 767 386 766 386 765 C389 760 389 754 392 749 C393 747 392 745 393 743 C398 733 400 720 405 710 C406 707 406 703 407 700 C408 698 409 697 410 696 C410 695 410 694 410 693 C412 689 412 686 414 682 C415 680 414 678 415 676 C417 672 418 667 418 662"></path>
<path id="" fill="none" stroke="#000000" stroke-width="2.0" stroke-opacity="1.0" stroke-linecap="round" stroke-linejoin="round"  filling="0" d="M136 847 C134 845 134 841 133 838 C128 828 129 816 129 804 C129 800 132 790 129 787"></path>
<path id="" fill="none" stroke="#000000" stroke-width="2.0" stroke-opacity="1.0" stroke-linecap="round" stroke-linejoin="round"  filling="0" d="M326 847 C328 845 326 844 327 842 C330 837 328 830 331 825 C332 823 332 814 332 817"></path>
<path id="" fill="none" stroke="#000000" stroke-width="2.0" stroke-opacity="1.0" stroke-linecap="round" stroke-linejoin="round"  filling="0" d="M91 848 C91 845 92 839 93 836 C94 833 90 833 91 830 C92 827 94 826 95 823 C96 822 95 820 96 818 C97 816 93 816 94 814 C96 810 97 806 99 802 C99 801 99 800 99 799 C102 793 106 787 109 781 C111 778 114 775 116 772 C118 768 111 768 110 765 C109 763 110 759 111 758 C113 753 116 748 120 744"></path>
<path id="" fill="none" stroke="#000000" stroke-width="2.0" stroke-opacity="1.0" stroke-linecap="round" stroke-linejoin="round"  filling="0" d="M226 848 C229 845 230 835 235 835 C239 835 236 847 236 848"></path>
<path id="" fill="none" stroke="#000000" stroke-width="2.0" stroke-opacity="1.0" stroke-linecap="round" stroke-linejoin="round"  filling="0" d="M248 848 C251 845 250 841 252 838 C256 829 258 821 258 810 C258 808 259 802 258 800 C256 797 256 790 256 787 C256 783 253 773 250 771 C249 770 247 766 245 767 C243 768 245 769 244 770 C242 774 243 780 243 785 C243 791 244 798 241 803 C240 806 242 811 241 814 C240 816 238 815 237 817 C236 819 238 824 237 826 C236 828 235 832 235 834"></path>
<path id="" fill="none" stroke="#000000" stroke-width="2.0" stroke-opacity="1.0" stroke-linecap="round" stroke-linejoin="round"  filling="0" d="M566 348 C566 350 566 351 567 353 C569 358 566 365 568 370 C570 373 567 378 569 381 C571 384 568 389 570 392 C571 393 570 397 570 399 C570 403 570 412 572 416 C573 419 572 425 572 428 C572 433 572 438 572 443 C572 444 573 448 572 449 C571 452 571 455 570 458 C569 460 567 463 567 466"></path>
<path id="" fill="none" stroke="#000000" stroke-width="2.0" stroke-opacity="1.0" stroke-linecap="round" stroke-linejoin="round"  filling="0" d="M517 339 C517 342 514 341 513 343 C511 347 506 351 504 355 C503 357 500 359 500 361 C500 362 503 361 504 362"></path>
<path id="" fill="none" stroke="#000000" stroke-width="2.0" stroke-opacity="1.0" stroke-linecap="round" stroke-linejoin="round"  filling="0" d="M381 171 C383 171 383 169 385 168 C388 166 391 164 394 162 C404 157 415 151 425 146 C426 146 427 146 428 146 C438 141 450 139 460 134 C461 133 463 135 464 134 C469 131 476 133 481 130 C483 129 486 131 488 130 C494 127 502 129 508 126 C509 125 512 127 513 126 C519 123 528 124 534 121 C535 120 537 122 538 121 C540 120 544 120 546 119 C552 116 559 114 565 111 C566 111 567 111 568 111 C571 110 574 107 577 107"></path>
<path id="" fill="none" stroke="#000000" stroke-width="2.0" stroke-opacity="1.0" stroke-linecap="round" stroke-linejoin="round"  filling="0" d="M343 264 C341 264 341 263 340 262"></path>
<path id="" fill="none" stroke="#000000" stroke-width="2.0" stroke-opacity="1.0" stroke-linecap="round" stroke-linejoin="round"  filling="0" d="M509 195 C509 196 510 200 509 201 C508 203 505 204 505 207"></path>
<path id="" fill="none" stroke="#000000" stroke-width="2.0" stroke-opacity="1.0" stroke-linecap="round" stroke-linejoin="round"  filling="0" d="M309 606 C309 609 310 612 311 615 C312 618 312 622 313 625 C315 628 313 633 315 637 C317 641 314 646 316 650 C317 653 317 655 318 658 C319 659 317 662 318 663 C319 664 321 664 321 665 C321 665 320 666 320 666 C319 667 320 670 320 671 C320 676 322 687 328 687"></path>
<path id="" fill="none" stroke="#000000" stroke-width="2.0" stroke-opacity="1.0" stroke-linecap="round" stroke-linejoin="round"  filling="0" d="M488 556 C485 553 481 552 477 550 C476 550 476 548 475 548 C474 548 474 550 473 551 C470 554 471 559 469 563 C468 565 465 565 464 567 C461 574 460 581 460 589 C460 591 459 595 460 597 C461 599 462 600 463 601 C464 602 462 602 462 603 C462 604 462 605 462 606 C461 609 460 611 462 613"></path>
<path id="" fill="none" stroke="#000000" stroke-width="2.0" stroke-opacity="1.0" stroke-linecap="round" stroke-linejoin="round"  filling="0" d="M209 488 C209 489 208 493 207 494"></path>
<path id="" fill="none" stroke="#000000" stroke-width="2.0" stroke-opacity="1.0" stroke-linecap="round" stroke-linejoin="round"  filling="0" d="M438 439 C438 442 435 447 434 449 C432 452 434 457 432 460 C428 469 432 481 441 485 C444 486 444 490 448 490"></path>
<path id="" fill="none" stroke="#000000" stroke-width="2.0" stroke-opacity="1.0" stroke-linecap="round" stroke-linejoin="round"  filling="0" d="M285 527 C285 525 283 518 281 516"></path>
<path id="" fill="none" stroke="#000000" stroke-width="2.0" stroke-opacity="1.0" stroke-linecap="round" stroke-linejoin="round"  filling="0" d="M523 364 C522 365 521 366 520 367 C520 367 519 367 519 367 C519 368 521 369 520 370 C517 376 514 381 510 385"></path>
<path id="" fill="none" stroke="#000000" stroke-width="2.0" stroke-opacity="1.0" stroke-linecap="round" stroke-linejoin="round"  filling="0" d="M567 321 C567 330 566 338 566 347"></path>
<path id="" fill="none" stroke="#000000" stroke-width="2.0" stroke-opacity="1.0" stroke-linecap="round" stroke-linejoin="round"  filling="0" d="M515 354 C515 358 515 360 513 363 C512 364 514 365 514 366 C514 368 508 368 506 368"></path>
<path id="" fill="none" stroke="#000000" stroke-width="2.0" stroke-opacity="1.0" stroke-linecap="round" stroke-linejoin="round"  filling="0" d="M212 476 C211 476 213 477 211 479"></path>
<path id="" fill="none" stroke="#000000" stroke-width="2.0" stroke-opacity="1.0" stroke-linecap="round" stroke-linejoin="round"  filling="0" d="M464 507 C464 506 464 506 464 505 C464 504 462 505 462 504 C462 504 464 503 463 502 C462 501 460 502 459 502 C457 501 456 498 453 498"></path>
<path id="" fill="none" stroke="#000000" stroke-width="2.0" stroke-opacity="1.0" stroke-linecap="round" stroke-linejoin="round"  filling="0" d="M116 619 C116 614 116 605 114 601 C113 600 114 596 114 595 C114 589 114 584 114 578"></path>
<path id="" fill="none" stroke="#000000" stroke-width="2.0" stroke-opacity="1.0" stroke-linecap="round" stroke-linejoin="round"  filling="0" d="M338 217 C336 219 333 223 332 226 C332 227 330 229 331 230 C332 231 334 229 334 229 C337 226 337 226 337 222"></path>
<path id="" fill="none" stroke="#000000" stroke-width="2.0" stroke-opacity="1.0" stroke-linecap="round" stroke-linejoin="round"  filling="0" d="M339 392 C342 392 352 386 355 392 C356 394 354 396 353 397 C352 400 351 403 350 406 C348 410 344 413 342 417 C341 419 342 422 341 424 C340 426 338 426 336 427 C335 428 332 433 331 434 C330 436 326 438 325 440 C323 443 320 446 318 449 C314 458 306 465 302 474 C299 481 294 486 291 493 C290 495 289 498 287 500 C285 502 283 507 280 507"></path>
<path id="" fill="none" stroke="#000000" stroke-width="2.0" stroke-opacity="1.0" stroke-linecap="round" stroke-linejoin="round"  filling="0" d="M334 730 C334 745 336 759 336 774 C336 778 338 787 336 790 C335 793 336 797 335 800 C334 802 335 806 334 808 C333 810 332 813 332 815"></path>
<path id="" fill="none" stroke="#000000" stroke-width="2.0" stroke-opacity="1.0" stroke-linecap="round" stroke-linejoin="round"  filling="0" d="M346 263 C345 264 345 265 344 264"></path>
<path id="" fill="none" stroke="#000000" stroke-width="2.0" stroke-opacity="1.0" stroke-linecap="round" stroke-linejoin="round"  filling="0" d="M596 590 C596 593 597 600 599 603 C600 606 600 610 601 613 C604 619 598 629 601 635 C603 638 600 644 602 647 C604 651 601 657 603 661 C605 665 604 670 604 674 C604 680 605 685 605 691 C605 699 605 707 605 715 C605 719 607 722 604 725"></path>
<path id="" fill="none" stroke="#000000" stroke-width="2.0" stroke-opacity="1.0" stroke-linecap="round" stroke-linejoin="round"  filling="0" d="M478 578 C474 582 478 582 478 586"></path>
<path id="" fill="none" stroke="#000000" stroke-width="2.0" stroke-opacity="1.0" stroke-linecap="round" stroke-linejoin="round"  filling="0" d="M121 767 C120 768 118 768 116 768"></path>
<path id="" fill="none" stroke="#000000" stroke-width="2.0" stroke-opacity="1.0" stroke-linecap="round" stroke-linejoin="round"  filling="0" d="M301 575 C301 577 302 580 303 582 C304 584 303 586 304 588 C306 593 308 600 308 605"></path>
<path id="" fill="none" stroke="#000000" stroke-width="2.0" stroke-opacity="1.0" stroke-linecap="round" stroke-linejoin="round"  filling="0" d="M481 566 C481 569 477 568 477 570 C477 571 480 572 480 573 C480 574 479 576 479 577"></path>
<path id="" fill="none" stroke="#000000" stroke-width="2.0" stroke-opacity="1.0" stroke-linecap="round" stroke-linejoin="round"  filling="0" d="M484 524 C483 524 483 524 482 524"></path>
<path id="" fill="none" stroke="#000000" stroke-width="2.0" stroke-opacity="1.0" stroke-linecap="round" stroke-linejoin="round"  filling="0" d="M548 286 C548 287 548 290 548 290 C546 292 540 296 544 300"></path>
<path id="" fill="none" stroke="#000000" stroke-width="2.0" stroke-opacity="1.0" stroke-linecap="round" stroke-linejoin="round"  filling="0" d="M425 271 C423 271 422 270 420 270"></path>
<path id="" fill="none" stroke="#000000" stroke-width="2.0" stroke-opacity="1.0" stroke-linecap="round" stroke-linejoin="round"  filling="0" d="M505 193 C503 193 501 192 500 193 C499 194 500 198 500 200"></path>
<path id="" fill="none" stroke="#000000" stroke-width="2.0" stroke-opacity="1.0" stroke-linecap="round" stroke-linejoin="round"  filling="0" d="M381 265 C381 267 384 273 381 274 C379 275 373 271 371 270 C366 267 364 263 362 258 C361 256 358 258 357 256 C356 253 360 248 362 246"></path>
<path id="" fill="none" stroke="#000000" stroke-width="2.0" stroke-opacity="1.0" stroke-linecap="round" stroke-linejoin="round"  filling="0" d="M502 186 C501 187 501 189 501 191"></path>
<path id="" fill="none" stroke="#000000" stroke-width="2.0" stroke-opacity="1.0" stroke-linecap="round" stroke-linejoin="round"  filling="0" d="M317 795 C317 798 319 800 320 802 C322 806 324 811 326 815 C326 816 329 817 330 817"></path>
<path id="" fill="none" stroke="#000000" stroke-width="2.0" stroke-opacity="1.0" stroke-linecap="round" stroke-linejoin="round"  filling="0" d="M382 257 C375 257 369 257 362 257"></path>
<path id="" fill="none" stroke="#000000" stroke-width="2.0" stroke-opacity="1.0" stroke-linecap="round" stroke-linejoin="round"  filling="0" d="M79 805 C79 808 81 811 82 814 C84 818 84 823 86 827 C87 829 89 829 90 830"></path>
<path id="" fill="none" stroke="#000000" stroke-width="2.0" stroke-opacity="1.0" stroke-linecap="round" stroke-linejoin="round"  filling="0" d="M208 474 C208 475 207 475 207 476 C207 476 210 476 210 476"></path>
<path id="" fill="none" stroke="#000000" stroke-width="2.0" stroke-opacity="1.0" stroke-linecap="round" stroke-linejoin="round"  filling="0" d="M336 498 C336 504 335 509 335 515 C335 519 336 524 334 528 C332 531 335 537 333 540 C332 541 334 541 334 542 C335 543 334 547 334 549"></path>
<path id="" fill="none" stroke="#000000" stroke-width="2.0" stroke-opacity="1.0" stroke-linecap="round" stroke-linejoin="round"  filling="0" d="M76 798 C76 795 74 792 73 789 C72 788 73 786 72 784 C70 781 72 771 73 768 C74 766 72 764 73 762 C74 760 74 758 75 756 C80 747 87 740 95 732"></path>
<path id="" fill="none" stroke="#000000" stroke-width="2.0" stroke-opacity="1.0" stroke-linecap="round" stroke-linejoin="round"  filling="0" d="M498 363 C498 364 497 366 497 367 C498 368 499 368 500 369"></path>
<path id="" fill="none" stroke="#000000" stroke-width="2.0" stroke-opacity="1.0" stroke-linecap="round" stroke-linejoin="round"  filling="0" d="M385 275 C383 275 383 275 382 274"></path>
<path id="" fill="none" stroke="#000000" stroke-width="2.0" stroke-opacity="1.0" stroke-linecap="round" stroke-linejoin="round"  filling="0" d="M331 604 C331 606 332 609 333 610"></path>
<path id="" fill="none" stroke="#000000" stroke-width="2.0" stroke-opacity="1.0" stroke-linecap="round" stroke-linejoin="round"  filling="0" d="M205 497 C204 497 204 497 203 497"></path>
<path id="" fill="none" stroke="#000000" stroke-width="2.0" stroke-opacity="1.0" stroke-linecap="round" stroke-linejoin="round"  filling="0" d="M501 534 C500 535 500 537 499 538 C498 540 495 542 494 544 C492 548 492 552 489 555"></path>
<path id="" fill="none" stroke="#000000" stroke-width="2.0" stroke-opacity="1.0" stroke-linecap="round" stroke-linejoin="round"  filling="0" d="M516 287 C515 287 515 287 514 287"></path>
<path id="" fill="none" stroke="#000000" stroke-width="2.0" stroke-opacity="1.0" stroke-linecap="round" stroke-linejoin="round"  filling="0" d="M332 705 C332 711 333 716 333 721 C333 723 332 727 334 729"></path>
<path id="" fill="none" stroke="#000000" stroke-width="2.0" stroke-opacity="1.0" stroke-linecap="round" stroke-linejoin="round"  filling="0" d="M340 276 C339 277 339 277 338 278"></path>
<path id="" fill="none" stroke="#000000" stroke-width="2.0" stroke-opacity="1.0" stroke-linecap="round" stroke-linejoin="round"  filling="0" d="M355 340 C362 347 345 351 345 357"></path>
<path id="" fill="none" stroke="#000000" stroke-width="2.0" stroke-opacity="1.0" stroke-linecap="round" stroke-linejoin="round"  filling="0" d="M176 603 C176 604 176 604 176 605"></path>
<path id="" fill="none" stroke="#000000" stroke-width="2.0" stroke-opacity="1.0" stroke-linecap="round" stroke-linejoin="round"  filling="0" d="M530 309 C529 309 527 309 526 309"></path>
<path id="" fill="none" stroke="#000000" stroke-width="2.0" stroke-opacity="1.0" stroke-linecap="round" stroke-linejoin="round"  filling="0" d="M549 323 C549 322 543 316 542 317 C539 318 538 322 535 323 C529 326 523 333 518 338"></path>
<path id="" fill="none" stroke="#000000" stroke-width="2.0" stroke-opacity="1.0" stroke-linecap="round" stroke-linejoin="round"  filling="0" d="M474 538 C474 541 480 539 481 538"></path>
<path id="" fill="none" stroke="#000000" stroke-width="2.0" stroke-opacity="1.0" stroke-linecap="round" stroke-linejoin="round"  filling="0" d="M361 188 C359 190 355 193 353 193"></path>
<path id="" fill="none" stroke="#000000" stroke-width="2.0" stroke-opacity="1.0" stroke-linecap="round" stroke-linejoin="round"  filling="0" d="M367 183 C365 183 363 186 362 187"></path>
<path id="" fill="none" stroke="#000000" stroke-width="2.0" stroke-opacity="1.0" stroke-linecap="round" stroke-linejoin="round"  filling="0" d="M539 292 C541 294 541 294 543 294"></path>
<path id="" fill="none" stroke="#000000" stroke-width="2.0" stroke-opacity="1.0" stroke-linecap="round" stroke-linejoin="round"  filling="0" d="M310 292 C309 292 309 292 308 292"></path>
<path id="" fill="none" stroke="#000000" stroke-width="2.0" stroke-opacity="1.0" stroke-linecap="round" stroke-linejoin="round"  filling="0" d="M439 436 C439 437 439 437 439 438"></path>
<path id="" fill="none" stroke="#000000" stroke-width="2.0" stroke-opacity="1.0" stroke-linecap="round" stroke-linejoin="round"  filling="0" d="M485 438 C485 440 485 440 484 441"></path>
<path id="" fill="none" stroke="#000000" stroke-width="2.0" stroke-opacity="1.0" stroke-linecap="round" stroke-linejoin="round"  filling="0" d="M329 238 C329 239 329 239 329 240"></path>
<path id="" fill="none" stroke="#000000" stroke-width="2.0" stroke-opacity="1.0" stroke-linecap="round" stroke-linejoin="round"  filling="0" d="M78 802 C78 803 78 803 78 804"></path>
<path id="" fill="none" stroke="#000000" stroke-width="2.0" stroke-opacity="1.0" stroke-linecap="round" stroke-linejoin="round"  filling="0" d="M499 509 C499 507 501 504 500 502 C499 500 497 502 496 501 C493 499 490 496 486 496"></path>
<path id="" fill="none" stroke="#000000" stroke-width="2.0" stroke-opacity="1.0" stroke-linecap="round" stroke-linejoin="round"  filling="0" d="M340 449 C340 457 340 463 337 469 C336 471 337 476 337 478 C337 485 336 490 336 497"></path>
<path id="" fill="none" stroke="#000000" stroke-width="2.0" stroke-opacity="1.0" stroke-linecap="round" stroke-linejoin="round"  filling="0" d="M330 601 C330 602 330 602 330 603"></path>
<path id="" fill="none" stroke="#000000" stroke-width="2.0" stroke-opacity="1.0" stroke-linecap="round" stroke-linejoin="round"  filling="0" d="M448 430 C449 431 451 432 452 433"></path>
<path id="" fill="none" stroke="#000000" stroke-width="2.0" stroke-opacity="1.0" stroke-linecap="round" stroke-linejoin="round"  filling="0" d="M177 591 C177 595 176 599 176 602"></path>
<path id="" fill="none" stroke="#000000" stroke-width="2.0" stroke-opacity="1.0" stroke-linecap="round" stroke-linejoin="round"  filling="0" d="M470 566 C470 571 471 576 476 571"></path>
<path id="" fill="none" stroke="#000000" stroke-width="2.0" stroke-opacity="1.0" stroke-linecap="round" stroke-linejoin="round"  filling="0" d="M473 584 C474 584 475 583 476 583"></path>
<path id="" fill="none" stroke="#000000" stroke-width="2.0" stroke-opacity="1.0" stroke-linecap="round" stroke-linejoin="round"  filling="0" d="M432 274 C436 274 439 279 444 279"></path>
<path id="" fill="none" stroke="#000000" stroke-width="2.0" stroke-opacity="1.0" stroke-linecap="round" stroke-linejoin="round"  filling="0" d="M507 193 C507 193 506 193 506 193"></path>
<path id="" fill="none" stroke="#000000" stroke-width="2.0" stroke-opacity="1.0" stroke-linecap="round" stroke-linejoin="round"  filling="0" d="M386 204 C386 206 383 208 382 210 C380 214 378 219 374 223"></path>
<path id="" fill="none" stroke="#000000" stroke-width="2.0" stroke-opacity="1.0" stroke-linecap="round" stroke-linejoin="round"  filling="0" d="M567 315 C567 317 567 318 567 320"></path>
<path id="" fill="none" stroke="#000000" stroke-width="2.0" stroke-opacity="1.0" stroke-linecap="round" stroke-linejoin="round"  filling="0" d="M510 375 C508 377 508 380 508 383"></path>
<path id="" fill="none" stroke="#000000" stroke-width="2.0" stroke-opacity="1.0" stroke-linecap="round" stroke-linejoin="round"  filling="0" d="M341 437 C341 434 342 428 340 426"></path>
<path id="" fill="none" stroke="#000000" stroke-width="2.0" stroke-opacity="1.0" stroke-linecap="round" stroke-linejoin="round"  filling="0" d="M510 192 C509 193 509 194 508 193"></path>
<path id="" fill="none" stroke="#000000" stroke-width="2.0" stroke-opacity="1.0" stroke-linecap="round" stroke-linejoin="round"  filling="0" d="M518 287 C520 289 520 287 522 288 C523 288 523 290 524 290 C526 291 527 290 528 289 C531 288 536 289 538 291"></path>
<path id="" fill="none" stroke="#000000" stroke-width="2.0" stroke-opacity="1.0" stroke-linecap="round" stroke-linejoin="round"  filling="0" d="M451 414 C451 413 454 407 455 406"></path>
<path id="" fill="none" stroke="#000000" stroke-width="2.0" stroke-opacity="1.0" stroke-linecap="round" stroke-linejoin="round"  filling="0" d="M516 351 C516 352 516 352 515 353"></path>
<path id="" fill="none" stroke="#000000" stroke-width="2.0" stroke-opacity="1.0" stroke-linecap="round" stroke-linejoin="round"  filling="0" d="M331 698 C331 695 330 692 330 690"></path>
<path id="" fill="none" stroke="#000000" stroke-width="2.0" stroke-opacity="1.0" stroke-linecap="round" stroke-linejoin="round"  filling="0" d="M317 314 C318 315 318 316 318 318"></path>
<path id="" fill="none" stroke="#000000" stroke-width="2.0" stroke-opacity="1.0" stroke-linecap="round" stroke-linejoin="round"  filling="0" d="M320 406 C318 408 318 408 316 408"></path>
<path id="" fill="none" stroke="#000000" stroke-width="2.0" stroke-opacity="1.0" stroke-linecap="round" stroke-linejoin="round"  filling="0" d="M122 764 C125 761 129 755 133 755"></path>
<path id="" fill="none" stroke="#000000" stroke-width="2.0" stroke-opacity="1.0" stroke-linecap="round" stroke-linejoin="round"  filling="0" d="M371 179 C370 180 369 181 368 182"></path>
<path id="" fill="none" stroke="#000000" stroke-width="2.0" stroke-opacity="1.0" stroke-linecap="round" stroke-linejoin="round"  filling="0" d="M482 563 C481 564 481 564 481 565"></path>
<path id="" fill="none" stroke="#000000" stroke-width="2.0" stroke-opacity="1.0" stroke-linecap="round" stroke-linejoin="round"  filling="0" d="M326 644 C326 648 326 655 324 658 C323 660 326 664 322 664"></path>
<path id="" fill="none" stroke="#000000" stroke-width="2.0" stroke-opacity="1.0" stroke-linecap="round" stroke-linejoin="round"  filling="0" d="M323 241 C321 241 320 244 320 246"></path>
<path id="" fill="none" stroke="#000000" stroke-width="2.0" stroke-opacity="1.0" stroke-linecap="round" stroke-linejoin="round"  filling="0" d="M327 636 C327 634 327 634 328 633"></path>
<path id="" fill="none" stroke="#000000" stroke-width="2.0" stroke-opacity="1.0" stroke-linecap="round" stroke-linejoin="round"  filling="0" d="M506 452 C508 450 503 449 501 449"></path>
<path id="" fill="none" stroke="#000000" stroke-width="2.0" stroke-opacity="1.0" stroke-linecap="round" stroke-linejoin="round"  filling="0" d="M382 262 C382 254 392 260 396 260"></path>
<path id="" fill="none" stroke="#000000" stroke-width="2.0" stroke-opacity="1.0" stroke-linecap="round" stroke-linejoin="round"  filling="0" d="M570 299 C568 301 570 303 569 305 C568 308 568 311 568 314"></path>
<path id="" fill="none" stroke="#000000" stroke-width="2.0" stroke-opacity="1.0" stroke-linecap="round" stroke-linejoin="round"  filling="0" d="M509 440 C507 442 505 446 505 449"></path>
<path id="" fill="none" stroke="#000000" stroke-width="2.0" stroke-opacity="1.0" stroke-linecap="round" stroke-linejoin="round"  filling="0" d="M385 201 C385 201 384 200 384 200"></path>
<path id="" fill="none" stroke="#000000" stroke-width="2.0" stroke-opacity="1.0" stroke-linecap="round" stroke-linejoin="round"  filling="0" d="M517 437 C518 436 519 434 520 432 C521 430 519 428 520 426 C522 422 523 416 526 413"></path>
<path id="" fill="none" stroke="#000000" stroke-width="2.0" stroke-opacity="1.0" stroke-linecap="round" stroke-linejoin="round"  filling="0" d="M533 310 C532 310 532 310 531 309"></path>
<path id="" fill="none" stroke="#000000" stroke-width="2.0" stroke-opacity="1.0" stroke-linecap="round" stroke-linejoin="round"  filling="0" d="M289 538 C286 535 288 531 285 528"></path>
<path id="" fill="none" stroke="#000000" stroke-width="2.0" stroke-opacity="1.0" stroke-linecap="round" stroke-linejoin="round"  filling="0" d="M313 293 C311 293 314 296 314 298 C314 303 317 308 317 313"></path>
<path id="" fill="none" stroke="#000000" stroke-width="2.0" stroke-opacity="1.0" stroke-linecap="round" stroke-linejoin="round"  filling="0" d="M300 572 C300 573 300 573 300 574"></path>
<path id="" fill="none" stroke="#000000" stroke-width="2.0" stroke-opacity="1.0" stroke-linecap="round" stroke-linejoin="round"  filling="0" d="M469 589 C470 588 471 586 472 585"></path>
<path id="" fill="none" stroke="#000000" stroke-width="2.0" stroke-opacity="1.0" stroke-linecap="round" stroke-linejoin="round"  filling="0" d="M343 273 C342 274 342 274 341 275"></path>
<path id="" fill="none" stroke="#000000" stroke-width="2.0" stroke-opacity="1.0" stroke-linecap="round" stroke-linejoin="round"  filling="0" d="M338 215 C338 215 338 216 338 216"></path>
<path id="" fill="none" stroke="#000000" stroke-width="2.0" stroke-opacity="1.0" stroke-linecap="round" stroke-linejoin="round"  filling="0" d="M454 523 C457 520 456 515 458 512 C459 510 462 507 462 505"></path>
<path id="" fill="none" stroke="#000000" stroke-width="2.0" stroke-opacity="1.0" stroke-linecap="round" stroke-linejoin="round"  filling="0" d="M346 261 C346 261 346 262 346 262"></path>
<path id="" fill="none" stroke="#000000" stroke-width="2.0" stroke-opacity="1.0" stroke-linecap="round" stroke-linejoin="round"  filling="0" d="M513 446 C511 448 510 449 508 451"></path>
<path id="" fill="none" stroke="#000000" stroke-width="2.0" stroke-opacity="1.0" stroke-linecap="round" stroke-linejoin="round"  filling="0" d="M338 592 C341 595 341 596 342 599 C343 601 341 603 342 605 C343 606 344 607 343 609 C342 610 341 611 340 612"></path>
<path id="" fill="none" stroke="#000000" stroke-width="2.0" stroke-opacity="1.0" stroke-linecap="round" stroke-linejoin="round"  filling="0" d="M515 442 C514 443 514 444 513 445"></path>
<path id="" fill="none" stroke="#000000" stroke-width="2.0" stroke-opacity="1.0" stroke-linecap="round" stroke-linejoin="round"  filling="0" d="M298 566 C298 567 299 570 300 571"></path>
<path id="" fill="none" stroke="#000000" stroke-width="2.0" stroke-opacity="1.0" stroke-linecap="round" stroke-linejoin="round"  filling="0" d="M390 197 C391 196 391 196 391 194"></path>
<path id="" fill="none" stroke="#000000" stroke-width="2.0" stroke-opacity="1.0" stroke-linecap="round" stroke-linejoin="round"  filling="0" d="M450 636 C450 633 453 633 455 631"></path>
<path id="" fill="none" stroke="#000000" stroke-width="2.0" stroke-opacity="1.0" stroke-linecap="round" stroke-linejoin="round"  filling="0" d="M511 372 C511 371 511 370 511 369"></path>
<path id="" fill="none" stroke="#000000" stroke-width="2.0" stroke-opacity="1.0" stroke-linecap="round" stroke-linejoin="round"  filling="0" d="M474 536 C474 533 475 534 477 532"></path>
<path id="" fill="none" stroke="#000000" stroke-width="2.0" stroke-opacity="1.0" stroke-linecap="round" stroke-linejoin="round"  filling="0" d="M364 223 C363 223 363 223 362 223"></path>
<path id="" fill="none" stroke="#000000" stroke-width="2.0" stroke-opacity="1.0" stroke-linecap="round" stroke-linejoin="round"  filling="0" d="M485 436 C485 436 485 437 485 437"></path>
<path id="" fill="none" stroke="#000000" stroke-width="2.0" stroke-opacity="1.0" stroke-linecap="round" stroke-linejoin="round"  filling="0" d="M297 563 C297 564 297 564 298 565"></path>
<path id="" fill="none" stroke="#000000" stroke-width="2.0" stroke-opacity="1.0" stroke-linecap="round" stroke-linejoin="round"  filling="0" d="M549 332 C549 329 549 327 549 324"></path>
<path id="" fill="none" stroke="#000000" stroke-width="2.0" stroke-opacity="1.0" stroke-linecap="round" stroke-linejoin="round"  filling="0" d="M496 470 C495 471 495 471 494 471"></path>
<path id="" fill="none" stroke="#000000" stroke-width="2.0" stroke-opacity="1.0" stroke-linecap="round" stroke-linejoin="round"  filling="0" d="M214 474 C214 475 214 475 213 476"></path>
<path id="" fill="none" stroke="#000000" stroke-width="2.0" stroke-opacity="1.0" stroke-linecap="round" stroke-linejoin="round"  filling="0" d="M330 599 C330 599 330 600 330 600"></path>
<path id="" fill="none" stroke="#000000" stroke-width="2.0" stroke-opacity="1.0" stroke-linecap="round" stroke-linejoin="round"  filling="0" d="M448 641 C448 640 449 638 450 637"></path>
<path id="" fill="none" stroke="#000000" stroke-width="2.0" stroke-opacity="1.0" stroke-linecap="round" stroke-linejoin="round"  filling="0" d="M499 305 C497 305 494 305 492 305"></path>
<path id="" fill="none" stroke="#000000" stroke-width="2.0" stroke-opacity="1.0" stroke-linecap="round" stroke-linejoin="round"  filling="0" d="M550 295 C550 297 549 299 549 301"></path>
<path id="" fill="none" stroke="#000000" stroke-width="2.0" stroke-opacity="1.0" stroke-linecap="round" stroke-linejoin="round"  filling="0" d="M510 190 C510 190 510 191 510 191"></path>
<path id="" fill="none" stroke="#000000" stroke-width="2.0" stroke-opacity="1.0" stroke-linecap="round" stroke-linejoin="round"  filling="0" d="M338 294 C337 293 337 292 337 290"></path>
<path id="" fill="none" stroke="#000000" stroke-width="2.0" stroke-opacity="1.0" stroke-linecap="round" stroke-linejoin="round"  filling="0" d="M518 345 C518 346 517 349 516 350"></path>
<path id="" fill="none" stroke="#000000" stroke-width="2.0" stroke-opacity="1.0" stroke-linecap="round" stroke-linejoin="round"  filling="0" d="M505 460 C505 462 504 464 504 466"></path>
<path id="" fill="none" stroke="#000000" stroke-width="2.0" stroke-opacity="1.0" stroke-linecap="round" stroke-linejoin="round"  filling="0" d="M344 270 C343 271 343 271 343 272"></path>
<path id="" fill="none" stroke="#000000" stroke-width="2.0" stroke-opacity="1.0" stroke-linecap="round" stroke-linejoin="round"  filling="0" d="M495 512 C496 511 497 511 498 510"></path>
<path id="" fill="none" stroke="#000000" stroke-width="2.0" stroke-opacity="1.0" stroke-linecap="round" stroke-linejoin="round"  filling="0" d="M445 425 C445 428 442 432 439 435"></path>
<path id="" fill="none" stroke="#000000" stroke-width="2.0" stroke-opacity="1.0" stroke-linecap="round" stroke-linejoin="round"  filling="0" d="M447 421 C447 419 449 416 450 415"></path>
<path id="" fill="none" stroke="#000000" stroke-width="2.0" stroke-opacity="1.0" stroke-linecap="round" stroke-linejoin="round"  filling="0" d="M332 397 C329 400 324 403 321 406"></path>
<path id="" fill="none" stroke="#000000" stroke-width="2.0" stroke-opacity="1.0" stroke-linecap="round" stroke-linejoin="round"  filling="0" d="M402 258 C402 258 401 259 401 259"></path>
<path id="" fill="none" stroke="#000000" stroke-width="2.0" stroke-opacity="1.0" stroke-linecap="round" stroke-linejoin="round"  filling="0" d="M340 443 C340 441 340 440 340 438"></path>
<path id="" fill="none" stroke="#000000" stroke-width="2.0" stroke-opacity="1.0" stroke-linecap="round" stroke-linejoin="round"  filling="0" d="M472 575 C472 575 472 574 472 574"></path>
<path id="" fill="none" stroke="#000000" stroke-width="2.0" stroke-opacity="1.0" stroke-linecap="round" stroke-linejoin="round"  filling="0" d="M134 729 C130 733 125 737 121 741"></path>
<path id="" fill="none" stroke="#000000" stroke-width="2.0" stroke-opacity="1.0" stroke-linecap="round" stroke-linejoin="round"  filling="0" d="M494 479 C494 480 494 481 494 482"></path>
<path id="" fill="none" stroke="#000000" stroke-width="2.0" stroke-opacity="1.0" stroke-linecap="round" stroke-linejoin="round"  filling="0" d="M569 294 C569 296 570 296 570 298"></path>
<path id="" fill="none" stroke="#000000" stroke-width="2.0" stroke-opacity="1.0" stroke-linecap="round" stroke-linejoin="round"  filling="0" d="M331 700 C331 702 332 702 332 704"></path>
<path id="" fill="none" stroke="#000000" stroke-width="2.0" stroke-opacity="1.0" stroke-linecap="round" stroke-linejoin="round"  filling="0" d="M457 624 C457 621 459 618 461 616"></path>
<path id="" fill="none" stroke="#000000" stroke-width="2.0" stroke-opacity="1.0" stroke-linecap="round" stroke-linejoin="round"  filling="0" d="M518 428 C514 428 511 437 509 439"></path>
<path id="" fill="none" stroke="#000000" stroke-width="2.0" stroke-opacity="1.0" stroke-linecap="round" stroke-linejoin="round"  filling="0" d="M100 813 C100 815 98 816 97 817"></path>
<path id="" fill="none" stroke="#000000" stroke-width="2.0" stroke-opacity="1.0" stroke-linecap="round" stroke-linejoin="round"  filling="0" d="M296 560 C296 561 296 561 297 562"></path>
<path id="" fill="none" stroke="#000000" stroke-width="2.0" stroke-opacity="1.0" stroke-linecap="round" stroke-linejoin="round"  filling="0" d="M540 313 C541 314 542 314 542 316"></path>
<path id="" fill="none" stroke="#000000" stroke-width="2.0" stroke-opacity="1.0" stroke-linecap="round" stroke-linejoin="round"  filling="0" d="M345 267 C344 268 344 268 344 269"></path>
<path id="" fill="none" stroke="#000000" stroke-width="2.0" stroke-opacity="1.0" stroke-linecap="round" stroke-linejoin="round"  filling="0" d="M294 554 C294 555 295 558 296 559"></path>
<path id="" fill="none" stroke="#000000" stroke-width="2.0" stroke-opacity="1.0" stroke-linecap="round" stroke-linejoin="round"  filling="0" d="M536 311 C535 311 535 311 534 310"></path>
<path id="" fill="none" stroke="#000000" stroke-width="2.0" stroke-opacity="1.0" stroke-linecap="round" stroke-linejoin="round"  filling="0" d="M331 260 C331 261 331 261 331 262"></path>
<path id="" fill="none" stroke="#000000" stroke-width="2.0" stroke-opacity="1.0" stroke-linecap="round" stroke-linejoin="round"  filling="0" d="M550 293 C550 293 550 294 550 294"></path>
<path id="" fill="none" stroke="#000000" stroke-width="2.0" stroke-opacity="1.0" stroke-linecap="round" stroke-linejoin="round"  filling="0" d="M293 551 C293 552 293 552 294 553"></path>
<path id="" fill="none" stroke="#000000" stroke-width="2.0" stroke-opacity="1.0" stroke-linecap="round" stroke-linejoin="round"  filling="0" d="M486 561 C485 561 484 562 483 562"></path>
<path id="" fill="none" stroke="#000000" stroke-width="2.0" stroke-opacity="1.0" stroke-linecap="round" stroke-linejoin="round"  filling="0" d="M327 239 C329 237 331 234 331 231"></path>
<path id="" fill="none" stroke="#000000" stroke-width="2.0" stroke-opacity="1.0" stroke-linecap="round" stroke-linejoin="round"  filling="0" d="M389 199 C389 201 387 201 387 203"></path>
<path id="" fill="none" stroke="#000000" stroke-width="2.0" stroke-opacity="1.0" stroke-linecap="round" stroke-linejoin="round"  filling="0" d="M487 564 C485 566 483 570 481 572"></path>
<path id="" fill="none" stroke="#000000" stroke-width="2.0" stroke-opacity="1.0" stroke-linecap="round" stroke-linejoin="round"  filling="0" d="M502 500 C502 500 501 501 501 501"></path>
<path id="" fill="none" stroke="#000000" stroke-width="2.0" stroke-opacity="1.0" stroke-linecap="round" stroke-linejoin="round"  filling="0" d="M98 811 C98 811 97 811 97 811"></path>
<path id="" fill="none" stroke="#000000" stroke-width="2.0" stroke-opacity="1.0" stroke-linecap="round" stroke-linejoin="round"  filling="0" d="M505 458 C505 458 505 459 505 459"></path>
<path id="" fill="none" stroke="#000000" stroke-width="2.0" stroke-opacity="1.0" stroke-linecap="round" stroke-linejoin="round"  filling="0" d="M392 187 C389 187 390 190 389 191"></path>
<path id="" fill="none" stroke="#000000" stroke-width="2.0" stroke-opacity="1.0" stroke-linecap="round" stroke-linejoin="round"  filling="0" d="M315 287 C315 289 314 290 314 292"></path>
<path id="" fill="none" stroke="#000000" stroke-width="2.0" stroke-opacity="1.0" stroke-linecap="round" stroke-linejoin="round"  filling="0" d="M324 251 C324 250 324 250 324 249"></path>
<path id="" fill="none" stroke="#000000" stroke-width="2.0" stroke-opacity="1.0" stroke-linecap="round" stroke-linejoin="round"  filling="0" d="M475 542 C475 544 475 545 475 547"></path>
<path id="" fill="none" stroke="#000000" stroke-width="2.0" stroke-opacity="1.0" stroke-linecap="round" stroke-linejoin="round"  filling="0" d="M426 271 C427 272 429 273 431 273"></path>
<path id="" fill="none" stroke="#000000" stroke-width="2.0" stroke-opacity="1.0" stroke-linecap="round" stroke-linejoin="round"  filling="0" d="M343 291 C342 290 340 289 339 288"></path>
<path id="" fill="none" stroke="#000000" stroke-width="2.0" stroke-opacity="1.0" stroke-linecap="round" stroke-linejoin="round"  filling="0" d="M446 644 C446 646 443 648 441 650"></path>
<path id="" fill="none" stroke="#000000" stroke-width="2.0" stroke-opacity="1.0" stroke-linecap="round" stroke-linejoin="round"  filling="0" d="M503 497 C502 498 502 498 502 499"></path>
<path id="" fill="none" stroke="#000000" stroke-width="2.0" stroke-opacity="1.0" stroke-linecap="round" stroke-linejoin="round"  filling="0" d="M506 455 C505 456 505 456 505 457"></path>
<path id="" fill="none" stroke="#000000" stroke-width="2.0" stroke-opacity="1.0" stroke-linecap="round" stroke-linejoin="round"  filling="0" d="M291 545 C291 546 292 549 293 550"></path>
<path id="" fill="none" stroke="#000000" stroke-width="2.0" stroke-opacity="1.0" stroke-linecap="round" stroke-linejoin="round"  filling="0" d="M466 593 C466 596 465 598 462 598"></path>
<path id="" fill="none" stroke="#000000" stroke-width="2.0" stroke-opacity="1.0" stroke-linecap="round" stroke-linejoin="round"  filling="0" d="M417 267 C417 267 418 268 418 268"></path>
<path id="" fill="none" stroke="#000000" stroke-width="2.0" stroke-opacity="1.0" stroke-linecap="round" stroke-linejoin="round"  filling="0" d="M329 254 C331 256 329 257 331 259"></path>
<path id="" fill="none" stroke="#000000" stroke-width="2.0" stroke-opacity="1.0" stroke-linecap="round" stroke-linejoin="round"  filling="0" d="M290 542 C290 543 290 543 291 544"></path>
<path id="" fill="none" stroke="#000000" stroke-width="2.0" stroke-opacity="1.0" stroke-linecap="round" stroke-linejoin="round"  filling="0" d="M492 516 C490 518 487 521 485 523"></path>
<path id="" fill="none" stroke="#000000" stroke-width="2.0" stroke-opacity="1.0" stroke-linecap="round" stroke-linejoin="round"  filling="0" d="M492 418 C492 421 491 422 489 424"></path>
<path id="" fill="none" stroke="#000000" stroke-width="2.0" stroke-opacity="1.0" stroke-linecap="round" stroke-linejoin="round"  filling="0" d="M315 285 C315 284 315 284 315 283"></path>
<path id="" fill="none" stroke="#000000" stroke-width="2.0" stroke-opacity="1.0" stroke-linecap="round" stroke-linejoin="round"  filling="0" d="M77 800 C77 800 77 801 77 801"></path>
<path id="" fill="none" stroke="#000000" stroke-width="2.0" stroke-opacity="1.0" stroke-linecap="round" stroke-linejoin="round"  filling="0" d="M326 641 C327 640 327 639 327 637"></path>
<path id="" fill="none" stroke="#000000" stroke-width="2.0" stroke-opacity="1.0" stroke-linecap="round" stroke-linejoin="round"  filling="0" d="M447 428 C447 428 446 428 446 428"></path>
<path id="" fill="none" stroke="#000000" stroke-width="2.0" stroke-opacity="1.0" stroke-linecap="round" stroke-linejoin="round"  filling="0" d="M351 339 C345 339 339 339 333 339"></path>
<path id="" fill="none" stroke="#000000" stroke-width="2.0" stroke-opacity="1.0" stroke-linecap="round" stroke-linejoin="round"  filling="0" d="M353 256 C354 257 355 257 357 257"></path>
<path id="" fill="none" stroke="#000000" stroke-width="2.0" stroke-opacity="1.0" stroke-linecap="round" stroke-linejoin="round"  filling="0" d="M387 276 C387 276 386 276 386 276"></path>
<path id="" fill="none" stroke="#000000" stroke-width="2.0" stroke-opacity="1.0" stroke-linecap="round" stroke-linejoin="round"  filling="0" d="M548 281 C548 282 548 284 548 285"></path>
<path id="" fill="none" stroke="#000000" stroke-width="2.0" stroke-opacity="1.0" stroke-linecap="round" stroke-linejoin="round"  filling="0" d="M502 181 C502 183 502 185 501 186"></path>
<path id="" fill="none" stroke="#000000" stroke-width="2.0" stroke-opacity="1.0" stroke-linecap="round" stroke-linejoin="round"  filling="0" d="M506 453 C506 453 506 454 506 454"></path>
<path id="" fill="none" stroke="#000000" stroke-width="2.0" stroke-opacity="1.0" stroke-linecap="round" stroke-linejoin="round"  filling="0" d="M500 305 C500 305 501 304 501 304"></path>
<path id="" fill="none" stroke="#000000" stroke-width="2.0" stroke-opacity="1.0" stroke-linecap="round" stroke-linejoin="round"  filling="0" d="M353 339 C353 339 352 339 352 339"></path>
<path id="" fill="none" stroke="#000000" stroke-width="2.0" stroke-opacity="1.0" stroke-linecap="round" stroke-linejoin="round"  filling="0" d="M485 433 C485 434 485 434 485 435"></path>
<path id="" fill="none" stroke="#000000" stroke-width="2.0" stroke-opacity="1.0" stroke-linecap="round" stroke-linejoin="round"  filling="0" d="M329 252 C329 252 329 253 329 253"></path>
<path id="" fill="none" stroke="#000000" stroke-width="2.0" stroke-opacity="1.0" stroke-linecap="round" stroke-linejoin="round"  filling="0" d="M121 766 C121 766 122 765 122 765"></path>
<path id="" fill="none" stroke="#000000" stroke-width="2.0" stroke-opacity="1.0" stroke-linecap="round" stroke-linejoin="round"  filling="0" d="M381 264 C381 264 381 263 381 263"></path>
<path id="" fill="none" stroke="#000000" stroke-width="2.0" stroke-opacity="1.0" stroke-linecap="round" stroke-linejoin="round"  filling="0" d="M539 313 C538 312 538 312 537 311"></path>
<path id="" fill="none" stroke="#000000" stroke-width="2.0" stroke-opacity="1.0" stroke-linecap="round" stroke-linejoin="round"  filling="0" d="M510 187 C510 188 510 188 510 189"></path>
<path id="" fill="none" stroke="#000000" stroke-width="2.0" stroke-opacity="1.0" stroke-linecap="round" stroke-linejoin="round"  filling="0" d="M468 591 C468 591 467 592 467 592"></path>
<path id="" fill="none" stroke="#000000" stroke-width="2.0" stroke-opacity="1.0" stroke-linecap="round" stroke-linejoin="round"  filling="0" d="M340 448 C340 447 340 445 340 444"></path>
<path id="" fill="none" stroke="#000000" stroke-width="2.0" stroke-opacity="1.0" stroke-linecap="round" stroke-linejoin="round"  filling="0" d="M380 172 C377 175 375 176 372 179"></path>
<path id="" fill="none" stroke="#000000" stroke-width="2.0" stroke-opacity="1.0" stroke-linecap="round" stroke-linejoin="round"  filling="0" d="M395 186 C394 186 394 186 393 186"></path>
<path id="" fill="none" stroke="#000000" stroke-width="2.0" stroke-opacity="1.0" stroke-linecap="round" stroke-linejoin="round"  filling="0" d="M336 591 C336 591 335 591 335 591"></path>
<path id="" fill="none" stroke="#000000" stroke-width="2.0" stroke-opacity="1.0" stroke-linecap="round" stroke-linejoin="round"  filling="0" d="M339 209 C339 211 338 212 338 214"></path>
<path id="" fill="none" stroke="#000000" stroke-width="2.0" stroke-opacity="1.0" stroke-linecap="round" stroke-linejoin="round"  filling="0" d="M342 295 C343 295 344 294 344 296"></path>
<path id="" fill="none" stroke="#000000" stroke-width="2.0" stroke-opacity="1.0" stroke-linecap="round" stroke-linejoin="round"  filling="0" d="M404 255 C403 256 403 256 402 257"></path>
<path id="" fill="none" stroke="#000000" stroke-width="2.0" stroke-opacity="1.0" stroke-linecap="round" stroke-linejoin="round"  filling="0" d="M582 542 C583 543 583 543 584 544"></path>
<path id="" fill="none" stroke="#000000" stroke-width="2.0" stroke-opacity="1.0" stroke-linecap="round" stroke-linejoin="round"  filling="0" d="M487 561 C487 562 487 562 487 563"></path>
<path id="" fill="none" stroke="#000000" stroke-width="2.0" stroke-opacity="1.0" stroke-linecap="round" stroke-linejoin="round"  filling="0" d="M493 477 C493 477 494 478 494 478"></path>
<path id="" fill="none" stroke="#000000" stroke-width="2.0" stroke-opacity="1.0" stroke-linecap="round" stroke-linejoin="round"  filling="0" d="M99 811 C99 811 100 812 100 812"></path>
<path id="" fill="none" stroke="#000000" stroke-width="2.0" stroke-opacity="1.0" stroke-linecap="round" stroke-linejoin="round"  filling="0" d="M381 209 C380 209 380 209 379 208"></path>
<path id="" fill="none" stroke="#000000" stroke-width="2.0" stroke-opacity="1.0" stroke-linecap="round" stroke-linejoin="round"  filling="0" d="M515 441 C516 440 516 439 517 438"></path>
<path id="" fill="none" stroke="#000000" stroke-width="2.0" stroke-opacity="1.0" stroke-linecap="round" stroke-linejoin="round"  filling="0" d="M475 579 C474 578 473 578 473 576"></path>
<path id="" fill="none" stroke="#000000" stroke-width="2.0" stroke-opacity="1.0" stroke-linecap="round" stroke-linejoin="round"  filling="0" d="M351 255 C351 255 352 256 352 256"></path>
<path id="" fill="none" stroke="#000000" stroke-width="2.0" stroke-opacity="1.0" stroke-linecap="round" stroke-linejoin="round"  filling="0" d="M201 495 C201 495 202 494 202 494"></path>
<path id="" fill="none" stroke="#000000" stroke-width="2.0" stroke-opacity="1.0" stroke-linecap="round" stroke-linejoin="round"  filling="0" d="M325 240 C325 240 324 240 324 240"></path>
<path id="" fill="none" stroke="#000000" stroke-width="2.0" stroke-opacity="1.0" stroke-linecap="round" stroke-linejoin="round"  filling="0" d="M510 185 C510 184 510 184 511 183"></path>
<path id="" fill="none" stroke="#000000" stroke-width="2.0" stroke-opacity="1.0" stroke-linecap="round" stroke-linejoin="round"  filling="0" d="M488 558 C487 559 487 559 487 560"></path>
<path id="" fill="none" stroke="#000000" stroke-width="2.0" stroke-opacity="1.0" stroke-linecap="round" stroke-linejoin="round"  filling="0" d="M209 471 C208 472 208 472 208 473"></path>
<path id="" fill="none" stroke="#000000" stroke-width="2.0" stroke-opacity="1.0" stroke-linecap="round" stroke-linejoin="round"  filling="0" d="M335 395 C334 396 334 396 333 396"></path>
<path id="" fill="none" stroke="#000000" stroke-width="2.0" stroke-opacity="1.0" stroke-linecap="round" stroke-linejoin="round"  filling="0" d="M518 344 C518 343 518 343 517 342"></path>
<path id="" fill="none" stroke="#000000" stroke-width="2.0" stroke-opacity="1.0" stroke-linecap="round" stroke-linejoin="round"  filling="0" d="M137 727 C136 728 136 728 135 728"></path>
<path id="" fill="none" stroke="#000000" stroke-width="2.0" stroke-opacity="1.0" stroke-linecap="round" stroke-linejoin="round"  filling="0" d="M343 292 C344 293 344 293 344 294"></path>
<path id="" fill="none" stroke="#000000" stroke-width="2.0" stroke-opacity="1.0" stroke-linecap="round" stroke-linejoin="round"  filling="0" d="M481 419 C481 419 482 419 482 419"></path>
<path id="" fill="none" stroke="#000000" stroke-width="2.0" stroke-opacity="1.0" stroke-linecap="round" stroke-linejoin="round"  filling="0" d="M524 246 C525 247 525 247 526 247"></path>
<path id="" fill="none" stroke="#000000" stroke-width="2.0" stroke-opacity="1.0" stroke-linecap="round" stroke-linejoin="round"  filling="0" d="M493 416 C493 416 493 417 493 417"></path>
<path id="" fill="none" stroke="#000000" stroke-width="2.0" stroke-opacity="1.0" stroke-linecap="round" stroke-linejoin="round"  filling="0" d="M453 524 C453 524 452 524 452 524"></path>
<path id="" fill="none" stroke="#000000" stroke-width="2.0" stroke-opacity="1.0" stroke-linecap="round" stroke-linejoin="round"  filling="0" d="M289 540 C289 540 290 541 290 541"></path>
<path id="" fill="none" stroke="#000000" stroke-width="2.0" stroke-opacity="1.0" stroke-linecap="round" stroke-linejoin="round"  filling="0" d="M525 362 C525 362 524 363 524 363"></path>
<path id="" fill="none" stroke="#000000" stroke-width="2.0" stroke-opacity="1.0" stroke-linecap="round" stroke-linejoin="round"  filling="0" d="M389 277 C389 277 388 277 388 277"></path>
<path id="" fill="none" stroke="#000000" stroke-width="2.0" stroke-opacity="1.0" stroke-linecap="round" stroke-linejoin="round"  filling="0" d="M326 642 C326 642 326 643 326 643"></path>
<path id="" fill="none" stroke="#000000" stroke-width="2.0" stroke-opacity="1.0" stroke-linecap="round" stroke-linejoin="round"  filling="0" d="M316 794 C316 794 315 794 315 794"></path>
<path id="" fill="none" stroke="#000000" stroke-width="2.0" stroke-opacity="1.0" stroke-linecap="round" stroke-linejoin="round"  filling="0" d="M331 596 C331 597 331 597 330 598"></path>
<path id="" fill="none" stroke="#000000" stroke-width="2.0" stroke-opacity="1.0" stroke-linecap="round" stroke-linejoin="round"  filling="0" d="M447 642 C447 642 447 643 447 643"></path>
<path id="" fill="none" stroke="#000000" stroke-width="2.0" stroke-opacity="1.0" stroke-linecap="round" stroke-linejoin="round"  filling="0" d="M346 259 C346 259 346 260 346 260"></path>
<path id="" fill="none" stroke="#000000" stroke-width="2.0" stroke-opacity="1.0" stroke-linecap="round" stroke-linejoin="round"  filling="0" d="M446 422 C446 423 446 423 445 424"></path>
<path id="" fill="none" stroke="#000000" stroke-width="2.0" stroke-opacity="1.0" stroke-linecap="round" stroke-linejoin="round"  filling="0" d="M337 393 C337 393 336 394 336 394"></path>
<path id="" fill="none" stroke="#000000" stroke-width="2.0" stroke-opacity="1.0" stroke-linecap="round" stroke-linejoin="round"  filling="0" d="M504 186 C504 186 503 186 503 186"></path>
<path id="" fill="none" stroke="#000000" stroke-width="2.0" stroke-opacity="1.0" stroke-linecap="round" stroke-linejoin="round"  filling="0" d="M501 209 C501 209 500 209 500 209"></path>
<path id="" fill="none" stroke="#000000" stroke-width="2.0" stroke-opacity="1.0" stroke-linecap="round" stroke-linejoin="round"  filling="0" d="M214 472 C214 472 214 473 214 473"></path>
<path id="" fill="none" stroke="#000000" stroke-width="2.0" stroke-opacity="1.0" stroke-linecap="round" stroke-linejoin="round"  filling="0" d="M207 482 C207 482 206 482 206 482"></path>
<path id="" fill="none" stroke="#000000" stroke-width="2.0" stroke-opacity="1.0" stroke-linecap="round" stroke-linejoin="round"  filling="0" d="M516 366 C516 366 515 366 515 366"></path>
<path id="" fill="none" stroke="#000000" stroke-width="2.0" stroke-opacity="1.0" stroke-linecap="round" stroke-linejoin="round"  filling="0" d="M116 620 C116 620 116 621 116 621"></path>
<path id="" fill="none" stroke="#000000" stroke-width="2.0" stroke-opacity="1.0" stroke-linecap="round" stroke-linejoin="round"  filling="0" d="M506 186 C506 186 505 186 505 186"></path>
<path id="" fill="none" stroke="#000000" stroke-width="2.0" stroke-opacity="1.0" stroke-linecap="round" stroke-linejoin="round"  filling="0" d="M503 209 C503 209 502 209 502 209"></path>
<path id="" fill="none" stroke="#000000" stroke-width="2.0" stroke-opacity="1.0" stroke-linecap="round" stroke-linejoin="round"  filling="0" d="M340 296 C339 296 339 296 338 295"></path>
<path id="" fill="none" stroke="#000000" stroke-width="2.0" stroke-opacity="1.0" stroke-linecap="round" stroke-linejoin="round"  filling="0" d="M209 482 C209 482 208 482 208 482"></path>
<path id="" fill="none" stroke="#000000" stroke-width="2.0" stroke-opacity="1.0" stroke-linecap="round" stroke-linejoin="round"  filling="0" d="M515 244 C515 244 515 245 515 245"></path>
<path id="" fill="none" stroke="#000000" stroke-width="2.0" stroke-opacity="1.0" stroke-linecap="round" stroke-linejoin="round"  filling="0" d="M518 366 C518 366 517 366 517 366"></path>
<path id="" fill="none" stroke="#000000" stroke-width="2.0" stroke-opacity="1.0" stroke-linecap="round" stroke-linejoin="round"  filling="0" d="M508 186 C508 186 507 186 507 186"></path>
<path id="" fill="none" stroke="#000000" stroke-width="2.0" stroke-opacity="1.0" stroke-linecap="round" stroke-linejoin="round"  filling="0" d="M581 540 C581 540 581 539 581 539"></path>
<path id="" fill="none" stroke="#000000" stroke-width="2.0" stroke-opacity="1.0" stroke-linecap="round" stroke-linejoin="round"  filling="0" d="M510 186 C510 186 509 186 509 186"></path>
<path id="" fill="none" stroke="#000000" stroke-width="2.0" stroke-opacity="1.0" stroke-linecap="round" stroke-linejoin="round"  filling="0" d="M482 568 C482 568 481 568 481 568"></path>
<path id="" fill="none" stroke="#000000" stroke-width="2.0" stroke-opacity="1.0" stroke-linecap="round" stroke-linejoin="round"  filling="0" d="M177 590 C177 590 177 589 177 589"></path>
<path id="" fill="none" stroke="#000000" stroke-width="2.0" stroke-opacity="1.0" stroke-linecap="round" stroke-linejoin="round"  filling="0" d="M510 374 C510 374 511 373 511 373"></path>
<path id="" fill="none" stroke="#000000" stroke-width="2.0" stroke-opacity="1.0" stroke-linecap="round" stroke-linejoin="round"  filling="0" d="M463 507 C463 507 462 507 462 507"></path>
<path id="" fill="none" stroke="#000000" stroke-width="2.0" stroke-opacity="1.0" stroke-linecap="round" stroke-linejoin="round"  filling="0" d="M495 513 C494 514 494 514 493 515"></path>
<path id="" fill="none" stroke="#000000" stroke-width="2.0" stroke-opacity="1.0" stroke-linecap="round" stroke-linejoin="round"  filling="0" d="M341 296 C341 296 340 297 340 297"></path>
<path id="" fill="none" stroke="#000000" stroke-width="2.0" stroke-opacity="1.0" stroke-linecap="round" stroke-linejoin="round"  filling="0" d="M549 291 C549 291 550 292 550 292"></path>
<path id="" fill="none" stroke="#000000" stroke-width="2.0" stroke-opacity="1.0" stroke-linecap="round" stroke-linejoin="round"  filling="0" d="M477 149 C477 154 476 157 476 162 C476 163 476 166 478 166 C479 166 479 164 480 163 C483 160 484 155 487 152"></path>
<path id="" fill="none" stroke="#000000" stroke-width="2.0" stroke-opacity="1.0" stroke-linecap="round" stroke-linejoin="round"  filling="0" d="M473 180 C475 178 476 176 478 179 C478 180 478 187 478 187 C478 187 477 187 477 187 C477 187 478 188 478 188 C479 189 478 193 478 194 C478 200 478 205 478 211 C478 213 477 219 478 221 C480 225 480 232 480 236 C480 240 481 245 483 249 C484 250 483 253 482 254 C480 255 478 253 477 252 C474 249 473 244 471 240 C468 235 469 228 469 222 C469 218 468 214 470 211 C472 207 469 202 471 198 C472 196 470 191 471 189 C471 188 473 188 473 187 C473 186 472 183 472 181"></path>
<path id="" fill="none" stroke="#000000" stroke-width="2.0" stroke-opacity="1.0" stroke-linecap="round" stroke-linejoin="round"  filling="0" d="M477 172 C477 174 476 174 476 176"></path>
<path id="" fill="none" stroke="#000000" stroke-width="2.0" stroke-opacity="1.0" stroke-linecap="round" stroke-linejoin="round"  filling="0" d="M477 168 C477 168 478 167 478 167"></path>
<path id="" fill="none" stroke="#000000" stroke-width="2.0" stroke-opacity="1.0" stroke-linecap="round" stroke-linejoin="round"  filling="0" d="M475 187 C475 187 474 187 474 187"></path>
<path id="" fill="none" stroke="#000000" stroke-width="2.0" stroke-opacity="1.0" stroke-linecap="round" stroke-linejoin="round"  filling="0" d="M477 170 C477 170 477 169 477 169"></path>
<path id="" fill="none" stroke="#000000" stroke-width="2.0" stroke-opacity="1.0" stroke-linecap="round" stroke-linejoin="round"  filling="0" d="M457 151 C452 156 446 163 443 169 C441 174 435 177 433 182 C432 184 429 186 428 189 C427 190 426 193 425 194 C424 195 423 193 422 193 C421 193 422 194 422 195 C422 196 421 196 421 197 C420 199 418 201 419 203 C421 206 425 205 427 206 C432 208 440 210 446 210 C448 210 455 209 456 210 C457 211 456 215 456 216 C456 221 456 225 456 230 C456 231 455 235 456 236 C458 240 456 245 458 248 C461 253 462 260 465 265 C466 267 470 270 472 272"></path>
<path id="" fill="none" stroke="#000000" stroke-width="2.0" stroke-opacity="1.0" stroke-linecap="round" stroke-linejoin="round"  filling="0" d="M429 153 C429 154 429 155 430 155 C431 155 440 152 437 157 C436 159 436 162 435 164 C432 170 430 175 427 181 C425 184 422 188 422 192"></path>
<path id="" fill="none" stroke="#000000" stroke-width="2.0" stroke-opacity="1.0" stroke-linecap="round" stroke-linejoin="round"  filling="0" d="M466 153 C466 155 465 156 464 157 C463 160 463 164 462 167 C461 170 462 174 461 177 C460 179 460 181 459 183 C458 185 460 187 459 189 C458 191 459 195 458 197 C457 200 456 206 456 209"></path>
<path id="" fill="none" stroke="#000000" stroke-width="2.0" stroke-opacity="1.0" stroke-linecap="round" stroke-linejoin="round"  filling="0" d="M397 211 C402 206 404 198 407 192 C411 184 416 178 420 170 C422 166 425 163 427 159 C428 158 429 158 429 156"></path>
<path id="" fill="none" stroke="#000000" stroke-width="2.0" stroke-opacity="1.0" stroke-linecap="round" stroke-linejoin="round"  filling="0" d="M405 224 C411 218 412 209 418 203"></path>
<path id="" fill="none" stroke="#000000" stroke-width="2.0" stroke-opacity="1.0" stroke-linecap="round" stroke-linejoin="round"  filling="0" d="M461 315 C462 316 462 317 462 318 C467 328 454 335 448 341"></path>
<path id="" fill="none" stroke="#000000" stroke-width="2.0" stroke-opacity="1.0" stroke-linecap="round" stroke-linejoin="round"  filling="0" d="M415 362 C417 364 419 364 421 365 C422 365 422 366 422 367 C424 371 420 371 417 371"></path>
<path id="" fill="none" stroke="#000000" stroke-width="2.0" stroke-opacity="1.0" stroke-linecap="round" stroke-linejoin="round"  filling="0" d="M436 368 C433 371 427 368 424 368"></path>
<path id="" fill="none" stroke="#000000" stroke-width="2.0" stroke-opacity="1.0" stroke-linecap="round" stroke-linejoin="round"  filling="0" d="M543 510 C542 511 542 511 541 512"></path>
<path id="" fill="none" stroke="#000000" stroke-width="2.0" stroke-opacity="1.0" stroke-linecap="round" stroke-linejoin="round"  filling="0" d="M507 538 C507 540 508 544 509 546 C510 547 508 549 509 550 C512 557 514 564 517 571 C519 575 519 579 523 583"></path>
<path id="" fill="none" stroke="#000000" stroke-width="2.0" stroke-opacity="1.0" stroke-linecap="round" stroke-linejoin="round"  filling="0" d="M431 549 C428 552 422 549 419 551 C415 553 410 553 406 555 C404 556 402 558 400 558"></path>
<path id="" fill="none" stroke="#000000" stroke-width="2.0" stroke-opacity="1.0" stroke-linecap="round" stroke-linejoin="round"  filling="0" d="M555 572 C555 575 555 583 557 586 C559 590 556 597 558 601 C559 604 560 609 560 612 C560 613 559 617 560 618 C561 621 560 625 561 628 C562 631 562 634 562 638 C562 643 563 648 563 653 C563 654 564 658 563 659 C562 662 563 666 562 669 C559 675 562 682 559 688 C558 691 559 695 558 698 C557 700 559 702 558 704 C555 710 557 719 554 725 C553 727 555 730 554 732 C551 738 553 746 550 752 C549 753 551 754 551 755 C552 757 551 761 550 762 C549 765 551 770 550 773 C548 777 551 782 549 786 C547 791 548 799 548 804 C548 807 548 816 546 819 C545 821 546 826 546 828 C546 835 545 842 545 848"></path>
<path id="" fill="none" stroke="#000000" stroke-width="2.0" stroke-opacity="1.0" stroke-linecap="round" stroke-linejoin="round"  filling="0" d="M130 609 C130 610 131 611 131 612 C131 615 130 621 131 624 C133 627 134 631 136 634 C139 639 146 643 150 647"></path>
<path id="" fill="none" stroke="#000000" stroke-width="2.0" stroke-opacity="1.0" stroke-linecap="round" stroke-linejoin="round"  filling="0" d="M398 778 C398 779 399 779 399 780 C399 781 398 785 397 786 C396 788 398 790 397 792 C396 794 396 797 395 799 C394 801 396 806 395 808 C392 813 394 822 394 828 C394 829 395 833 394 834 C393 837 392 845 392 848"></path>
<path id="" fill="none" stroke="#000000" stroke-width="2.0" stroke-opacity="1.0" stroke-linecap="round" stroke-linejoin="round"  filling="0" d="M120 813 C118 815 119 817 118 819 C116 824 114 829 112 834 C111 836 113 839 112 841 C111 843 110 846 110 848"></path>
<path id="" fill="none" stroke="#000000" stroke-width="2.0" stroke-opacity="1.0" stroke-linecap="round" stroke-linejoin="round"  filling="0" d="M382 832 C382 835 380 841 379 844 C378 846 380 846 378 848"></path>
<path id="" fill="none" stroke="#000000" stroke-width="2.0" stroke-opacity="1.0" stroke-linecap="round" stroke-linejoin="round"  filling="0" d="M366 837 C366 841 364 844 364 848"></path>
<path id="" fill="none" stroke="#000000" stroke-width="2.0" stroke-opacity="1.0" stroke-linecap="round" stroke-linejoin="round"  filling="0" d="M353 841 C353 844 352 846 352 848"></path>
<path id="" fill="none" stroke="#000000" stroke-width="2.0" stroke-opacity="1.0" stroke-linecap="round" stroke-linejoin="round"  filling="0" d="M352 846 C352 846 352 845 352 845"></path>
<path id="" fill="none" stroke="#000000" stroke-width="2.0" stroke-opacity="1.0" stroke-linecap="round" stroke-linejoin="round"  filling="0" d="M337 843 C337 844 339 845 338 846 C338 847 337 847 337 848"></path>
<path id="" fill="none" stroke="#000000" stroke-width="2.0" stroke-opacity="1.0" stroke-linecap="round" stroke-linejoin="round"  filling="0" d="M337 845 C337 845 337 846 337 846"></path>
</svg>