<svg xmlns="http://www.w3.org/2000/svg" viewBox="0 0 800 800" height="800.0px" width="800.0px">
<path id="" fill="none" stroke="#000000" stroke-width="2.0" stroke-opacity="1.0" stroke-linecap="round" stroke-linejoin="round"  filling="0" d="M316 9 C312 13 306 10 302 12 C300 13 297 14 295 15 C294 15 293 15 292 15 C285 18 280 23 273 26 C271 27 269 30 267 32 C261 38 255 45 251 52 C250 55 247 62 244 64 C242 65 237 63 235 62 C234 61 230 62 229 62 C225 62 221 61 217 61 C195 61 177 66 161 82"></path>
<path id="" fill="none" stroke="#000000" stroke-width="2.0" stroke-opacity="1.0" stroke-linecap="round" stroke-linejoin="round"  filling="0" d="M250 65 C248 65 246 65 245 64"></path>
<path id="" fill="none" stroke="#000000" stroke-width="2.0" stroke-opacity="1.0" stroke-linecap="round" stroke-linejoin="round"  filling="0" d="M257 76 C254 79 249 77 245 79 C242 80 239 80 237 80 C237 80 234 82 234 82 C230 84 223 83 219 85 C215 87 219 88 218 91 C217 93 211 99 209 100 C204 103 200 110 195 113 C191 115 190 118 187 121 C180 128 172 136 168 144 C163 154 160 164 155 174 C152 181 151 189 148 196 C147 197 149 199 148 200 C145 206 146 213 143 219 C142 221 143 226 142 228 C139 235 140 244 137 251 C136 252 138 255 137 256 C136 258 136 261 135 263 C134 264 136 267 135 268 C133 272 133 279 133 284 C133 286 131 289 132 290 C134 294 141 296 139 300 C138 301 137 301 136 302 C132 304 128 309 124 311 C121 312 120 316 117 317 C107 322 100 333 90 338 C87 339 86 343 83 344 C77 347 73 351 67 354 C66 355 63 358 63 359 C63 359 64 359 64 359 C65 360 64 361 65 361 C66 362 71 360 73 360 C76 360 81 359 83 358 C85 357 87 359 89 358 C93 356 97 357 101 355 C103 354 108 354 110 354 C111 354 113 354 113 355 C113 356 110 359 109 360 C104 365 99 368 94 373 C88 379 79 385 76 392 C74 396 69 398 67 402 C65 405 61 407 59 410 C56 415 51 420 48 425 C46 430 56 429 58 429 C63 429 73 429 78 427 C82 425 89 428 94 426 C95 425 98 426 99 426 C103 426 107 426 111 426 C119 426 125 425 133 425 C135 425 140 426 142 425 C143 425 145 423 146 423 C147 423 147 425 148 425 C150 426 160 426 162 424"></path>
<path id="" fill="none" stroke="#000000" stroke-width="2.0" stroke-opacity="1.0" stroke-linecap="round" stroke-linejoin="round"  filling="0" d="M167 112 C175 104 181 99 190 95 C192 94 196 94 198 93 C203 90 210 87 216 87"></path>
<path id="" fill="none" stroke="#000000" stroke-width="2.0" stroke-opacity="1.0" stroke-linecap="round" stroke-linejoin="round"  filling="0" d="M204 157 C201 160 198 164 196 168 C195 169 194 170 193 171 C190 176 186 181 183 186 C179 193 176 201 172 208 C168 215 167 224 163 231 C158 240 160 252 155 261 C154 264 155 269 154 272 C153 274 154 277 153 279 C152 281 151 286 151 289 C151 290 150 299 149 299 C147 299 143 298 140 298"></path>
<path id="" fill="none" stroke="#000000" stroke-width="2.0" stroke-opacity="1.0" stroke-linecap="round" stroke-linejoin="round"  filling="0" d="M148 304 C149 303 150 300 150 299"></path>
<path id="" fill="none" stroke="#000000" stroke-width="2.0" stroke-opacity="1.0" stroke-linecap="round" stroke-linejoin="round"  filling="0" d="M271 318 C268 318 262 315 259 317 C257 318 256 319 254 320 C252 321 249 320 247 321 C243 323 246 327 244 330 C242 334 243 340 243 344 C243 347 242 355 243 358 C249 369 260 373 270 378 C274 380 277 381 281 383 C283 384 285 386 288 386"></path>
<path id="" fill="none" stroke="#000000" stroke-width="2.0" stroke-opacity="1.0" stroke-linecap="round" stroke-linejoin="round"  filling="0" d="M121 351 C119 353 116 352 114 354"></path>
<path id="" fill="none" stroke="#000000" stroke-width="2.0" stroke-opacity="1.0" stroke-linecap="round" stroke-linejoin="round"  filling="0" d="M56 361 C58 361 60 360 62 360"></path>
<path id="" fill="none" stroke="#000000" stroke-width="2.0" stroke-opacity="1.0" stroke-linecap="round" stroke-linejoin="round"  filling="0" d="M279 368 C276 371 270 365 267 364 C260 361 256 357 253 350 C252 348 253 344 253 342 C253 335 254 328 254 321"></path>
<path id="" fill="none" stroke="#000000" stroke-width="2.0" stroke-opacity="1.0" stroke-linecap="round" stroke-linejoin="round"  filling="0" d="M248 398 C245 401 240 404 237 406 C233 408 231 412 227 414 C225 415 225 417 223 418 C217 421 213 427 207 430 C205 431 205 433 203 434 C199 436 195 441 191 443 C189 444 189 446 187 447 C183 449 178 448 174 450 C162 456 151 467 139 473 C137 474 135 477 133 478 C126 481 121 488 114 491 C111 492 109 495 106 496 C105 497 104 495 103 495 C103 495 103 496 103 496 C102 497 101 498 100 499 C96 503 92 506 88 510"></path>
<path id="" fill="none" stroke="#000000" stroke-width="2.0" stroke-opacity="1.0" stroke-linecap="round" stroke-linejoin="round"  filling="0" d="M191 411 C189 411 187 414 185 416 C182 419 178 422 175 425 C174 426 172 429 170 430 C167 432 164 433 161 435 C160 436 157 434 156 435 C153 437 149 438 146 440 C145 440 144 440 143 440 C130 447 116 452 103 459 C99 461 95 463 91 465 C89 466 88 469 86 469"></path>
<path id="" fill="none" stroke="#000000" stroke-width="2.0" stroke-opacity="1.0" stroke-linecap="round" stroke-linejoin="round"  filling="0" d="M178 454 C179 453 180 451 180 450"></path>
<path id="" fill="none" stroke="#000000" stroke-width="2.0" stroke-opacity="1.0" stroke-linecap="round" stroke-linejoin="round"  filling="0" d="M120 441 C118 443 114 446 112 447 C110 448 110 450 108 451 C105 452 101 456 101 459"></path>
<path id="" fill="none" stroke="#000000" stroke-width="2.0" stroke-opacity="1.0" stroke-linecap="round" stroke-linejoin="round"  filling="0" d="M216 369 C218 367 222 363 225 362 C228 360 231 356 234 354 C238 352 237 349 242 349"></path>
<path id="" fill="none" stroke="#000000" stroke-width="2.0" stroke-opacity="1.0" stroke-linecap="round" stroke-linejoin="round"  filling="0" d="M196 385 C202 379 209 376 215 370"></path>
<path id="" fill="none" stroke="#000000" stroke-width="2.0" stroke-opacity="1.0" stroke-linecap="round" stroke-linejoin="round"  filling="0" d="M150 418 C151 417 153 416 155 415 C157 414 157 411 159 410 C161 409 163 408 165 407 C167 406 169 402 171 401 C175 399 179 396 183 394 C186 392 191 386 195 386"></path>
<path id="" fill="none" stroke="#000000" stroke-width="2.0" stroke-opacity="1.0" stroke-linecap="round" stroke-linejoin="round"  filling="0" d="M135 428 C135 427 135 427 136 426"></path>
<path id="" fill="none" stroke="#000000" stroke-width="2.0" stroke-opacity="1.0" stroke-linecap="round" stroke-linejoin="round"  filling="0" d="M156 443 C143 456 129 468 117 480 C114 483 110 487 107 490 C106 491 104 492 104 494"></path>
<path id="" fill="none" stroke="#000000" stroke-width="2.0" stroke-opacity="1.0" stroke-linecap="round" stroke-linejoin="round"  filling="0" d="M241 71 C240 72 237 77 237 79"></path>
<path id="" fill="none" stroke="#000000" stroke-width="2.0" stroke-opacity="1.0" stroke-linecap="round" stroke-linejoin="round"  filling="0" d="M129 434 C127 434 122 439 121 440"></path>
<path id="" fill="none" stroke="#000000" stroke-width="2.0" stroke-opacity="1.0" stroke-linecap="round" stroke-linejoin="round"  filling="0" d="M135 429 C133 431 132 431 130 433"></path>
<path id="" fill="none" stroke="#000000" stroke-width="2.0" stroke-opacity="1.0" stroke-linecap="round" stroke-linejoin="round"  filling="0" d="M159 440 C159 438 160 438 160 436"></path>
<path id="" fill="none" stroke="#000000" stroke-width="2.0" stroke-opacity="1.0" stroke-linecap="round" stroke-linejoin="round"  filling="0" d="M146 422 C147 421 148 420 149 419"></path>
<path id="" fill="none" stroke="#000000" stroke-width="2.0" stroke-opacity="1.0" stroke-linecap="round" stroke-linejoin="round"  filling="0" d="M158 441 C158 441 157 442 157 442"></path>
<path id="" fill="none" stroke="#000000" stroke-width="2.0" stroke-opacity="1.0" stroke-linecap="round" stroke-linejoin="round"  filling="0" d="M243 66 C242 67 242 69 241 70"></path>
<path id="" fill="none" stroke="#000000" stroke-width="2.0" stroke-opacity="1.0" stroke-linecap="round" stroke-linejoin="round"  filling="0" d="M280 70 C282 68 282 70 284 69 C288 67 292 68 296 66 C310 59 328 59 345 59 C352 59 360 58 366 61 C368 62 370 60 372 61 C376 63 389 62 389 69 C389 70 385 71 384 71 C381 71 377 72 374 73 C373 73 372 73 371 73 C370 74 368 75 366 75"></path>
<path id="" fill="none" stroke="#000000" stroke-width="2.0" stroke-opacity="1.0" stroke-linecap="round" stroke-linejoin="round"  filling="0" d="M429 82 C425 82 423 79 421 77 C420 76 418 78 417 76 C416 75 416 73 415 72 C414 71 411 73 410 72 C405 69 396 69 390 69"></path>
<path id="" fill="none" stroke="#000000" stroke-width="2.0" stroke-opacity="1.0" stroke-linecap="round" stroke-linejoin="round"  filling="0" d="M516 111 C513 108 506 105 502 103 C497 100 493 96 488 94 C477 89 466 83 455 78 C452 77 449 76 446 75 C445 74 443 76 442 75 C438 73 434 74 430 72 C428 71 424 73 422 72 C420 71 418 70 416 72"></path>
<path id="" fill="none" stroke="#000000" stroke-width="2.0" stroke-opacity="1.0" stroke-linecap="round" stroke-linejoin="round"  filling="0" d="M421 75 C422 74 422 74 422 73"></path>
<path id="" fill="none" stroke="#000000" stroke-width="2.0" stroke-opacity="1.0" stroke-linecap="round" stroke-linejoin="round"  filling="0" d="M474 99 C476 99 480 101 482 102 C484 103 488 103 490 104 C492 105 494 108 496 109 C501 111 508 118 510 123 C513 130 523 134 526 141 C529 146 534 150 537 156 C542 167 551 176 556 187 C560 195 563 202 567 210 C568 212 572 216 570 218"></path>
<path id="" fill="none" stroke="#000000" stroke-width="2.0" stroke-opacity="1.0" stroke-linecap="round" stroke-linejoin="round"  filling="0" d="M317 100 C314 103 311 106 307 108 C301 111 296 120 292 124 C287 129 282 134 279 139 C277 144 270 147 268 152 C267 154 264 155 263 157 C260 163 253 168 250 174 C249 176 247 176 246 178 C242 187 232 193 228 202 C227 204 225 204 224 206 C224 206 222 210 222 210 C222 210 223 211 223 211 C223 212 220 213 220 214 C219 216 216 218 215 220 C211 229 201 235 197 244 C196 247 192 248 191 251 C187 258 181 264 178 271 C177 273 175 273 174 275 C173 278 171 280 170 283 C169 285 165 286 164 288 C163 291 161 294 159 296"></path>
<path id="" fill="none" stroke="#000000" stroke-width="2.0" stroke-opacity="1.0" stroke-linecap="round" stroke-linejoin="round"  filling="0" d="M304 142 C302 142 302 143 301 144 C297 146 294 149 290 151 C285 153 282 158 277 160 C273 162 272 167 268 169 C259 173 250 186 243 193 C238 198 235 202 230 207 C228 209 226 211 224 211"></path>
<path id="" fill="none" stroke="#000000" stroke-width="2.0" stroke-opacity="1.0" stroke-linecap="round" stroke-linejoin="round"  filling="0" d="M226 159 C226 162 222 164 221 167 C218 173 213 178 210 184 C202 200 193 217 185 233 C184 234 185 237 184 238 C181 243 179 248 176 253 C176 254 176 255 176 256 C173 263 170 269 167 276 C166 278 164 283 166 285"></path>
<path id="" fill="none" stroke="#000000" stroke-width="2.0" stroke-opacity="1.0" stroke-linecap="round" stroke-linejoin="round"  filling="0" d="M429 110 C426 113 424 117 422 121 C420 125 416 129 414 133 C410 140 407 147 403 154 C403 155 403 156 403 157 C396 170 392 185 385 198 C385 199 385 200 385 201 C382 207 381 212 378 218 C377 220 377 224 376 226 C372 235 370 245 366 254 C365 256 366 258 365 260 C361 268 360 278 356 286 C355 288 355 292 354 294 C350 301 350 310 346 317 C345 319 346 321 345 323 C342 328 342 335 339 340 C338 342 339 347 338 349 C336 353 335 362 335 367 C335 375 334 382 334 390 C334 392 333 399 337 397 C340 395 339 393 340 391 C343 385 343 379 346 373 C348 369 349 365 351 361 C351 360 351 359 351 358 C358 345 360 329 367 316 C368 314 369 311 370 308 C370 307 370 306 370 305 C374 297 376 290 380 282 C381 280 380 275 381 273 C382 272 383 271 384 270 C386 265 389 261 391 256 C393 252 395 249 397 245 C397 244 397 242 398 242 C398 242 399 243 399 243 C403 243 407 236 409 233 C413 225 419 219 423 211 C425 207 429 205 431 201 C433 197 438 195 440 191 C441 190 440 187 441 186 C444 180 450 176 453 170 C455 165 461 162 463 157 C465 153 469 148 472 145"></path>
<path id="" fill="none" stroke="#000000" stroke-width="2.0" stroke-opacity="1.0" stroke-linecap="round" stroke-linejoin="round"  filling="0" d="M470 172 C465 177 459 180 453 183 C448 185 447 190 441 190"></path>
<path id="" fill="none" stroke="#000000" stroke-width="2.0" stroke-opacity="1.0" stroke-linecap="round" stroke-linejoin="round"  filling="0" d="M438 183 C425 196 414 209 406 225 C404 230 398 235 398 241"></path>
<path id="" fill="none" stroke="#000000" stroke-width="2.0" stroke-opacity="1.0" stroke-linecap="round" stroke-linejoin="round"  filling="0" d="M332 434 C333 433 335 428 334 426 C334 425 332 425 333 424 C335 421 332 416 334 413 C336 410 336 402 336 398"></path>
<path id="" fill="none" stroke="#000000" stroke-width="2.0" stroke-opacity="1.0" stroke-linecap="round" stroke-linejoin="round"  filling="0" d="M353 124 C352 125 351 127 350 128 C349 129 347 129 347 130 C347 132 348 132 347 135 C345 139 341 142 339 146 C335 153 331 160 327 167 C325 171 323 174 321 177 C320 179 317 178 316 180 C314 184 312 187 310 191 C310 192 310 193 310 194 C308 197 307 201 305 204 C304 206 305 208 304 210 C303 211 301 214 301 215 C301 216 303 217 302 219 C300 224 300 229 298 234 C297 235 299 238 298 239 C297 241 297 244 296 246 C295 248 297 251 296 253 C295 256 296 259 295 262 C293 265 294 270 294 274 C294 281 291 290 294 297 C295 298 293 301 294 302 C295 305 296 307 297 310 C298 313 301 312 303 315 C304 317 303 321 302 323 C300 326 303 331 301 334 C299 338 302 345 300 349 C299 352 301 357 299 360 C298 362 300 363 299 364 C297 369 298 377 298 383 C298 385 297 389 298 391 C299 392 300 392 301 393 C302 394 303 396 305 398"></path>
<path id="" fill="none" stroke="#000000" stroke-width="2.0" stroke-opacity="1.0" stroke-linecap="round" stroke-linejoin="round"  filling="0" d="M288 161 C288 164 286 169 285 172 C284 173 286 175 285 176 C283 180 283 185 281 189 C280 190 282 192 281 193 C278 200 278 208 275 215 C274 216 276 218 275 219 C273 224 273 229 271 234 C270 235 272 237 271 238 C268 243 270 250 267 255 C266 256 268 259 267 260 C266 261 265 264 266 266 C267 268 269 266 270 268 C272 272 267 273 266 275 C264 279 264 284 262 288 C261 289 263 292 262 293 C261 296 259 303 259 302"></path>
<path id="" fill="none" stroke="#000000" stroke-width="2.0" stroke-opacity="1.0" stroke-linecap="round" stroke-linejoin="round"  filling="0" d="M349 161 C349 163 348 163 347 164 C345 168 342 173 340 177 C337 183 333 190 330 196 C330 197 330 198 330 199 C327 205 325 213 322 219 C321 221 322 223 321 225 C320 228 318 231 318 234 C318 235 317 240 319 240 C319 240 320 239 321 239"></path>
<path id="" fill="none" stroke="#000000" stroke-width="2.0" stroke-opacity="1.0" stroke-linecap="round" stroke-linejoin="round"  filling="0" d="M289 252 C286 255 283 257 280 259 C279 260 278 258 277 258 C276 258 277 259 276 260 C274 262 273 267 270 267"></path>
<path id="" fill="none" stroke="#000000" stroke-width="2.0" stroke-opacity="1.0" stroke-linecap="round" stroke-linejoin="round"  filling="0" d="M280 294 C276 298 267 302 261 302"></path>
<path id="" fill="none" stroke="#000000" stroke-width="2.0" stroke-opacity="1.0" stroke-linecap="round" stroke-linejoin="round"  filling="0" d="M161 314 C164 314 168 312 170 311 C171 311 172 311 173 311 C175 310 178 309 180 308 C181 308 182 308 183 308 C186 307 188 305 191 304 C192 304 193 304 194 304 C200 301 205 299 211 296 C212 296 213 296 214 296 C222 292 230 288 238 284 C244 281 251 277 257 274 C259 273 261 271 263 271 C264 271 265 274 265 274"></path>
<path id="" fill="none" stroke="#000000" stroke-width="2.0" stroke-opacity="1.0" stroke-linecap="round" stroke-linejoin="round"  filling="0" d="M140 327 C143 327 148 329 151 330 C152 331 154 329 155 330 C160 332 174 332 179 330 C180 330 185 330 186 330 C187 330 187 332 188 331 C201 324 217 322 230 315 C231 315 232 315 233 315 C240 312 246 309 253 306 C255 305 257 306 259 304"></path>
<path id="" fill="none" stroke="#000000" stroke-width="2.0" stroke-opacity="1.0" stroke-linecap="round" stroke-linejoin="round"  filling="0" d="M81 411 C83 411 85 408 87 407 C94 403 100 397 108 393 C114 390 120 386 126 383 C128 382 131 378 132 376 C133 374 135 373 137 372 C142 370 145 364 149 362 C154 360 156 353 161 351 C164 349 167 346 170 344 C176 341 181 337 186 332"></path>
<path id="" fill="none" stroke="#000000" stroke-width="2.0" stroke-opacity="1.0" stroke-linecap="round" stroke-linejoin="round"  filling="0" d="M291 445 C294 442 293 435 293 431 C293 422 295 413 295 404 C295 401 295 394 297 392"></path>
<path id="" fill="none" stroke="#000000" stroke-width="2.0" stroke-opacity="1.0" stroke-linecap="round" stroke-linejoin="round"  filling="0" d="M304 306 C306 304 304 301 305 299 C305 298 307 298 307 297 C308 296 306 293 307 292 C308 290 308 287 309 285 C310 284 308 281 309 280 C310 278 310 276 311 274 C312 273 310 270 311 269 C314 264 313 257 316 252 C318 249 316 244 319 241"></path>
<path id="" fill="none" stroke="#000000" stroke-width="2.0" stroke-opacity="1.0" stroke-linecap="round" stroke-linejoin="round"  filling="0" d="M322 161 C325 158 326 154 328 150 C330 147 332 144 334 141 C336 136 343 133 346 130"></path>
<path id="" fill="none" stroke="#000000" stroke-width="2.0" stroke-opacity="1.0" stroke-linecap="round" stroke-linejoin="round"  filling="0" d="M265 270 C265 268 266 267 265 267"></path>
<path id="" fill="none" stroke="#000000" stroke-width="2.0" stroke-opacity="1.0" stroke-linecap="round" stroke-linejoin="round"  filling="0" d="M320 166 C320 168 318 170 317 172 C316 174 316 177 316 179"></path>
<path id="" fill="none" stroke="#000000" stroke-width="2.0" stroke-opacity="1.0" stroke-linecap="round" stroke-linejoin="round"  filling="0" d="M288 234 C284 238 283 246 280 251 C279 253 277 255 277 257"></path>
<path id="" fill="none" stroke="#000000" stroke-width="2.0" stroke-opacity="1.0" stroke-linecap="round" stroke-linejoin="round"  filling="0" d="M290 230 C289 231 289 232 288 233"></path>
<path id="" fill="none" stroke="#000000" stroke-width="2.0" stroke-opacity="1.0" stroke-linecap="round" stroke-linejoin="round"  filling="0" d="M294 222 C294 224 291 228 290 229"></path>
<path id="" fill="none" stroke="#000000" stroke-width="2.0" stroke-opacity="1.0" stroke-linecap="round" stroke-linejoin="round"  filling="0" d="M304 309 C304 311 304 312 302 312"></path>
<path id="" fill="none" stroke="#000000" stroke-width="2.0" stroke-opacity="1.0" stroke-linecap="round" stroke-linejoin="round"  filling="0" d="M321 164 C321 164 321 165 321 165"></path>
<path id="" fill="none" stroke="#000000" stroke-width="2.0" stroke-opacity="1.0" stroke-linecap="round" stroke-linejoin="round"  filling="0" d="M296 218 C296 219 295 220 295 221"></path>
<path id="" fill="none" stroke="#000000" stroke-width="2.0" stroke-opacity="1.0" stroke-linecap="round" stroke-linejoin="round"  filling="0" d="M304 307 C304 307 304 308 304 308"></path>
<path id="" fill="none" stroke="#000000" stroke-width="2.0" stroke-opacity="1.0" stroke-linecap="round" stroke-linejoin="round"  filling="0" d="M298 216 C298 216 297 217 297 217"></path>
<path id="" fill="none" stroke="#000000" stroke-width="2.0" stroke-opacity="1.0" stroke-linecap="round" stroke-linejoin="round"  filling="0" d="M322 162 C322 162 322 163 322 163"></path>
<path id="" fill="none" stroke="#000000" stroke-width="2.0" stroke-opacity="1.0" stroke-linecap="round" stroke-linejoin="round"  filling="0" d="M300 216 C300 216 299 216 299 216"></path>
<path id="" fill="none" stroke="#000000" stroke-width="2.0" stroke-opacity="1.0" stroke-linecap="round" stroke-linejoin="round"  filling="0" d="M478 154 C478 159 480 165 482 169 C482 170 482 171 482 172 C484 176 485 181 487 185 C487 186 487 187 487 188 C489 193 490 198 492 203 C493 205 493 207 494 209 C495 212 502 213 500 218 C499 221 494 224 491 222 C481 217 471 212 460 212"></path>
<path id="" fill="none" stroke="#000000" stroke-width="2.0" stroke-opacity="1.0" stroke-linecap="round" stroke-linejoin="round"  filling="0" d="M499 203 C502 206 500 210 500 213"></path>
<path id="" fill="none" stroke="#000000" stroke-width="2.0" stroke-opacity="1.0" stroke-linecap="round" stroke-linejoin="round"  filling="0" d="M513 221 C513 223 514 226 515 228 C517 232 512 238 508 236 C506 235 507 234 506 232 C506 231 504 231 504 230 C503 229 505 227 504 226 C503 225 503 223 502 222 C501 221 503 219 500 219"></path>
<path id="" fill="none" stroke="#000000" stroke-width="2.0" stroke-opacity="1.0" stroke-linecap="round" stroke-linejoin="round"  filling="0" d="M494 291 C495 292 497 293 498 293 C500 292 499 288 500 286 C503 280 505 275 508 269 C510 265 512 269 514 270 C516 271 520 269 522 266 C523 264 520 258 519 257 C518 256 519 255 518 255 C517 255 517 257 516 257 C515 258 512 257 511 259 C510 260 511 264 511 266"></path>
<path id="" fill="none" stroke="#000000" stroke-width="2.0" stroke-opacity="1.0" stroke-linecap="round" stroke-linejoin="round"  filling="0" d="M543 308 C542 308 540 309 540 309 C539 309 538 307 538 306 C536 303 536 298 534 295 C531 290 530 284 527 279 C525 275 526 271 522 267"></path>
<path id="" fill="none" stroke="#000000" stroke-width="2.0" stroke-opacity="1.0" stroke-linecap="round" stroke-linejoin="round"  filling="0" d="M544 328 C546 326 543 319 540 319 C539 319 540 321 539 321 C538 321 537 321 537 322 C537 323 537 324 537 325 C536 327 533 328 532 326 C529 319 527 311 524 304 C523 303 521 299 519 300 C518 300 516 304 516 305 C516 306 518 308 518 309 C520 313 516 321 518 325 C519 327 520 333 518 334 C517 335 517 333 516 333 C515 332 512 334 511 333 C510 332 509 331 508 330 C506 329 500 327 499 324 C495 315 498 303 498 294"></path>
<path id="" fill="none" stroke="#000000" stroke-width="2.0" stroke-opacity="1.0" stroke-linecap="round" stroke-linejoin="round"  filling="0" d="M530 366 C528 364 527 364 525 367 C524 369 525 371 524 373 C523 375 521 378 520 380 C519 382 514 384 513 387 C512 389 511 395 508 396 C507 397 503 397 502 398 C502 398 502 400 502 401 C501 403 499 404 498 406 C498 407 498 408 498 409 C498 410 496 410 496 411 C496 411 497 411 497 411 C499 413 496 421 495 422 C494 425 490 421 488 423 C488 423 485 426 485 427 C482 432 483 440 480 445 C477 451 472 456 469 462 C468 463 467 464 466 465 C465 467 465 471 464 473 C463 475 461 477 460 480 C460 481 460 482 460 483 C456 491 455 500 451 508 C449 512 445 510 442 512 C438 514 434 514 429 514 C427 514 422 513 420 514 C418 515 416 517 414 516 C412 515 412 513 410 512 C409 512 408 512 407 512 C405 511 406 509 404 508 C401 507 397 507 394 506 C392 505 393 503 391 502 C389 501 384 502 382 502 C381 502 380 501 380 501 C379 501 379 503 378 504 C377 504 376 504 375 504 C371 506 368 507 364 509 C363 510 361 508 360 509 C358 510 358 512 356 512"></path>
<path id="" fill="none" stroke="#000000" stroke-width="2.0" stroke-opacity="1.0" stroke-linecap="round" stroke-linejoin="round"  filling="0" d="M269 392 C266 395 263 400 261 404 C260 407 256 409 255 412 C253 416 248 419 246 423 C246 424 247 424 247 425 C247 426 245 426 244 426 C242 427 238 430 236 429 C233 428 239 423 240 421 C242 417 247 413 249 409 C252 404 257 397 261 393"></path>
<path id="" fill="none" stroke="#000000" stroke-width="2.0" stroke-opacity="1.0" stroke-linecap="round" stroke-linejoin="round"  filling="0" d="M514 405 C516 403 515 400 516 398 C519 393 521 387 521 381"></path>
<path id="" fill="none" stroke="#000000" stroke-width="2.0" stroke-opacity="1.0" stroke-linecap="round" stroke-linejoin="round"  filling="0" d="M269 445 C266 448 262 447 259 449 C252 452 245 455 238 458 C237 459 232 463 230 461 C228 459 234 454 235 453 C239 446 245 440 249 433 C250 431 252 425 248 425"></path>
<path id="" fill="none" stroke="#000000" stroke-width="2.0" stroke-opacity="1.0" stroke-linecap="round" stroke-linejoin="round"  filling="0" d="M227 463 C228 463 228 463 229 462"></path>
<path id="" fill="none" stroke="#000000" stroke-width="2.0" stroke-opacity="1.0" stroke-linecap="round" stroke-linejoin="round"  filling="0" d="M336 467 C339 467 341 471 343 472 C349 475 353 481 359 484 C361 485 361 487 363 488 C365 489 369 491 370 493 C372 498 363 498 361 498 C361 498 358 498 358 498 C357 499 359 501 359 501 C360 502 361 507 361 508"></path>
<path id="" fill="none" stroke="#000000" stroke-width="2.0" stroke-opacity="1.0" stroke-linecap="round" stroke-linejoin="round"  filling="0" d="M310 482 C307 482 304 480 301 479 C299 478 295 478 293 477 C291 476 287 478 285 477 C279 474 272 477 266 474 C264 473 260 474 258 474 C255 474 254 474 252 473 C248 471 241 474 236 472 C235 471 232 472 231 472 C226 472 222 472 217 472 C216 472 213 473 212 472 C205 468 195 470 188 466 C186 465 183 467 181 466 C178 464 170 464 167 466 C160 469 151 477 147 484 C146 486 143 488 142 490 C141 493 137 494 136 497 C134 501 129 503 127 507 C126 509 123 511 121 513 C116 518 107 524 104 531 C103 533 101 533 100 535 C98 539 96 543 94 547 C92 551 92 556 90 560 C89 562 90 566 90 568 C90 572 89 577 89 581 C89 585 88 590 90 593 C91 594 89 597 90 598 C92 601 92 606 94 609 C96 613 100 616 102 620 C104 625 110 629 114 633 C115 634 117 637 118 637 C119 637 123 633 123 632 C126 626 132 622 136 618 C137 617 138 616 139 615 C140 614 139 613 140 613 C141 613 142 615 144 614 C147 613 149 612 152 611 C154 610 158 611 160 610 C161 610 163 610 163 610 C163 610 164 608 164 607"></path>
<path id="" fill="none" stroke="#000000" stroke-width="2.0" stroke-opacity="1.0" stroke-linecap="round" stroke-linejoin="round"  filling="0" d="M354 492 C354 494 356 496 356 498 C356 499 352 499 352 499 C350 500 347 501 344 501"></path>
<path id="" fill="none" stroke="#000000" stroke-width="2.0" stroke-opacity="1.0" stroke-linecap="round" stroke-linejoin="round"  filling="0" d="M403 498 C401 500 399 498 397 499 C395 500 394 500 392 502"></path>
<path id="" fill="none" stroke="#000000" stroke-width="2.0" stroke-opacity="1.0" stroke-linecap="round" stroke-linejoin="round"  filling="0" d="M380 512 C380 517 384 514 387 515 C389 516 389 520 390 522 C390 523 393 524 393 525 C393 525 392 525 392 525 C391 526 392 526 391 527"></path>
<path id="" fill="none" stroke="#000000" stroke-width="2.0" stroke-opacity="1.0" stroke-linecap="round" stroke-linejoin="round"  filling="0" d="M414 527 C412 527 412 525 410 524 C408 523 404 524 403 525 C401 526 396 525 394 525"></path>
<path id="" fill="none" stroke="#000000" stroke-width="2.0" stroke-opacity="1.0" stroke-linecap="round" stroke-linejoin="round"  filling="0" d="M445 529 C442 532 441 527 439 528 C435 530 430 527 426 525 C425 524 422 524 421 523 C420 521 420 519 418 517"></path>
<path id="" fill="none" stroke="#000000" stroke-width="2.0" stroke-opacity="1.0" stroke-linecap="round" stroke-linejoin="round"  filling="0" d="M244 623 C242 623 232 619 237 616 C239 615 243 616 245 616 C251 616 258 616 264 616 C266 616 270 615 272 616 C278 619 284 619 290 622 C294 624 299 626 303 628 C305 629 305 631 307 632 C308 633 311 631 312 632 C318 635 326 634 332 637 C333 637 334 637 335 637 C341 640 352 641 356 649 C359 654 362 659 365 664 C366 666 367 670 369 671 C371 672 377 676 378 673 C379 671 377 670 377 669"></path>
<path id="" fill="none" stroke="#000000" stroke-width="2.0" stroke-opacity="1.0" stroke-linecap="round" stroke-linejoin="round"  filling="0" d="M129 648 C126 645 123 643 120 640 C120 640 118 638 117 639 C115 641 114 645 113 647 C108 656 104 665 99 674 C93 686 88 697 82 709 C82 710 82 711 82 712 C80 716 79 719 77 723 C76 725 77 727 76 729 C74 732 72 743 74 747 C75 748 77 751 78 752 C79 753 81 752 82 753 C84 755 85 759 86 762 C88 766 89 772 91 776 C94 782 97 786 100 792 C101 795 102 799 106 799"></path>
<path id="" fill="none" stroke="#000000" stroke-width="2.0" stroke-opacity="1.0" stroke-linecap="round" stroke-linejoin="round"  filling="0" d="M335 660 C339 664 340 672 343 677 C349 689 356 700 362 712 C365 718 367 723 370 729 C371 732 374 736 377 738 C382 740 388 734 391 732 C401 727 410 720 420 715 C423 713 427 710 429 707 C429 706 431 706 431 705 C431 704 429 704 428 704 C426 704 422 703 420 702 C413 699 405 693 399 687 C397 685 393 682 393 679 C393 677 397 678 398 678 C401 678 407 681 410 678"></path>
<path id="" fill="none" stroke="#000000" stroke-width="2.0" stroke-opacity="1.0" stroke-linecap="round" stroke-linejoin="round"  filling="0" d="M480 661 C481 662 484 664 484 665 C485 666 483 669 484 670 C485 673 489 674 490 677 C492 681 494 686 496 690 C499 697 501 705 504 712 C505 714 505 718 506 720 C508 723 510 727 512 730 C512 731 512 732 512 733 C513 735 516 736 517 738 C518 740 518 743 519 745 C520 748 524 749 525 752 C529 759 534 765 538 772 C539 773 540 779 542 779 C543 779 544 778 544 777 C545 775 547 773 549 771 C552 768 556 763 560 761 C564 759 568 758 571 755"></path>
<path id="" fill="none" stroke="#000000" stroke-width="2.0" stroke-opacity="1.0" stroke-linecap="round" stroke-linejoin="round"  filling="0" d="M82 732 C82 733 84 734 83 735 C81 739 82 747 82 752"></path>
<path id="" fill="none" stroke="#000000" stroke-width="2.0" stroke-opacity="1.0" stroke-linecap="round" stroke-linejoin="round"  filling="0" d="M538 755 C538 753 535 751 534 750 C530 746 524 738 518 738"></path>
<path id="" fill="none" stroke="#000000" stroke-width="2.0" stroke-opacity="1.0" stroke-linecap="round" stroke-linejoin="round"  filling="0" d="M480 798 C477 798 477 795 476 793 C474 789 472 785 470 781 C469 778 469 775 468 772 C466 769 466 765 464 762 C463 760 464 758 463 756 C458 745 455 734 450 723 C448 720 448 715 446 712 C445 710 447 707 445 706 C443 705 440 707 439 707 C438 707 438 705 437 705 C436 704 433 705 432 705"></path>
<path id="" fill="none" stroke="#000000" stroke-width="2.0" stroke-opacity="1.0" stroke-linecap="round" stroke-linejoin="round"  filling="0" d="M552 798 C549 798 546 790 545 788 C545 787 543 784 542 784 C541 784 539 786 539 787 C538 788 538 789 537 790 C535 793 541 799 544 799"></path>
<path id="" fill="none" stroke="#000000" stroke-width="2.0" stroke-opacity="1.0" stroke-linecap="round" stroke-linejoin="round"  filling="0" d="M531 349 C530 350 528 353 527 353 C523 353 521 350 519 355 C518 356 517 357 518 359 C519 361 527 356 527 354"></path>
<path id="" fill="none" stroke="#000000" stroke-width="2.0" stroke-opacity="1.0" stroke-linecap="round" stroke-linejoin="round"  filling="0" d="M433 543 C426 543 419 540 413 537 C411 536 405 537 402 537 C392 537 380 536 375 526 C374 524 374 520 376 519 C378 518 380 518 380 516"></path>
<path id="" fill="none" stroke="#000000" stroke-width="2.0" stroke-opacity="1.0" stroke-linecap="round" stroke-linejoin="round"  filling="0" d="M194 610 C192 610 191 608 189 609 C185 611 178 610 173 610 C170 610 167 611 164 611"></path>
<path id="" fill="none" stroke="#000000" stroke-width="2.0" stroke-opacity="1.0" stroke-linecap="round" stroke-linejoin="round"  filling="0" d="M493 605 C493 607 494 609 495 611 C496 614 495 623 494 625 C493 627 495 630 494 632 C491 637 493 645 490 650 C488 653 489 664 484 664"></path>
<path id="" fill="none" stroke="#000000" stroke-width="2.0" stroke-opacity="1.0" stroke-linecap="round" stroke-linejoin="round"  filling="0" d="M489 597 C491 599 491 602 493 604"></path>
<path id="" fill="none" stroke="#000000" stroke-width="2.0" stroke-opacity="1.0" stroke-linecap="round" stroke-linejoin="round"  filling="0" d="M540 311 C540 313 540 316 540 318"></path>
<path id="" fill="none" stroke="#000000" stroke-width="2.0" stroke-opacity="1.0" stroke-linecap="round" stroke-linejoin="round"  filling="0" d="M476 579 C474 577 466 577 465 574 C463 570 464 566 462 562 C459 555 453 548 446 544 C445 543 443 545 442 544 C440 543 437 543 434 543"></path>
<path id="" fill="none" stroke="#000000" stroke-width="2.0" stroke-opacity="1.0" stroke-linecap="round" stroke-linejoin="round"  filling="0" d="M485 590 C487 592 487 594 489 596"></path>
<path id="" fill="none" stroke="#000000" stroke-width="2.0" stroke-opacity="1.0" stroke-linecap="round" stroke-linejoin="round"  filling="0" d="M191 461 C193 459 196 458 199 457 C203 455 207 452 211 450 C215 448 219 443 223 441 C226 439 235 434 235 429"></path>
<path id="" fill="none" stroke="#000000" stroke-width="2.0" stroke-opacity="1.0" stroke-linecap="round" stroke-linejoin="round"  filling="0" d="M217 613 C214 613 209 611 207 610 C204 609 198 610 195 610"></path>
<path id="" fill="none" stroke="#000000" stroke-width="2.0" stroke-opacity="1.0" stroke-linecap="round" stroke-linejoin="round"  filling="0" d="M391 679 C389 677 381 674 378 674"></path>
<path id="" fill="none" stroke="#000000" stroke-width="2.0" stroke-opacity="1.0" stroke-linecap="round" stroke-linejoin="round"  filling="0" d="M513 254 C510 254 509 256 511 258"></path>
<path id="" fill="none" stroke="#000000" stroke-width="2.0" stroke-opacity="1.0" stroke-linecap="round" stroke-linejoin="round"  filling="0" d="M226 615 C228 617 233 617 235 617"></path>
<path id="" fill="none" stroke="#000000" stroke-width="2.0" stroke-opacity="1.0" stroke-linecap="round" stroke-linejoin="round"  filling="0" d="M515 250 C518 250 518 253 518 254"></path>
<path id="" fill="none" stroke="#000000" stroke-width="2.0" stroke-opacity="1.0" stroke-linecap="round" stroke-linejoin="round"  filling="0" d="M523 345 C523 346 524 350 525 351"></path>
<path id="" fill="none" stroke="#000000" stroke-width="2.0" stroke-opacity="1.0" stroke-linecap="round" stroke-linejoin="round"  filling="0" d="M490 418 C490 419 489 421 488 422"></path>
<path id="" fill="none" stroke="#000000" stroke-width="2.0" stroke-opacity="1.0" stroke-linecap="round" stroke-linejoin="round"  filling="0" d="M482 586 C480 584 479 582 477 580"></path>
<path id="" fill="none" stroke="#000000" stroke-width="2.0" stroke-opacity="1.0" stroke-linecap="round" stroke-linejoin="round"  filling="0" d="M492 414 C491 415 491 416 490 417"></path>
<path id="" fill="none" stroke="#000000" stroke-width="2.0" stroke-opacity="1.0" stroke-linecap="round" stroke-linejoin="round"  filling="0" d="M516 273 C516 279 516 287 519 292 C520 294 518 297 520 299"></path>
<path id="" fill="none" stroke="#000000" stroke-width="2.0" stroke-opacity="1.0" stroke-linecap="round" stroke-linejoin="round"  filling="0" d="M471 688 C464 695 458 707 447 707"></path>
<path id="" fill="none" stroke="#000000" stroke-width="2.0" stroke-opacity="1.0" stroke-linecap="round" stroke-linejoin="round"  filling="0" d="M480 437 C475 437 477 432 478 429 C479 427 482 427 484 427"></path>
<path id="" fill="none" stroke="#000000" stroke-width="2.0" stroke-opacity="1.0" stroke-linecap="round" stroke-linejoin="round"  filling="0" d="M399 515 C396 515 390 513 388 515"></path>
<path id="" fill="none" stroke="#000000" stroke-width="2.0" stroke-opacity="1.0" stroke-linecap="round" stroke-linejoin="round"  filling="0" d="M515 253 C515 253 514 253 514 253"></path>
<path id="" fill="none" stroke="#000000" stroke-width="2.0" stroke-opacity="1.0" stroke-linecap="round" stroke-linejoin="round"  filling="0" d="M500 299 C499 299 499 299 498 299"></path>
<path id="" fill="none" stroke="#000000" stroke-width="2.0" stroke-opacity="1.0" stroke-linecap="round" stroke-linejoin="round"  filling="0" d="M511 248 C513 246 514 248 516 248 C517 248 516 246 516 245 C515 243 514 239 511 238 C507 236 507 244 507 246 C507 247 509 247 509 248 C509 249 508 249 508 250 C508 251 510 250 510 251 C510 252 509 253 510 254"></path>
<path id="" fill="none" stroke="#000000" stroke-width="2.0" stroke-opacity="1.0" stroke-linecap="round" stroke-linejoin="round"  filling="0" d="M402 515 C401 516 402 522 403 523"></path>
<path id="" fill="none" stroke="#000000" stroke-width="2.0" stroke-opacity="1.0" stroke-linecap="round" stroke-linejoin="round"  filling="0" d="M372 519 C366 519 367 513 364 510"></path>
<path id="" fill="none" stroke="#000000" stroke-width="2.0" stroke-opacity="1.0" stroke-linecap="round" stroke-linejoin="round"  filling="0" d="M531 347 C531 347 531 348 531 348"></path>
<path id="" fill="none" stroke="#000000" stroke-width="2.0" stroke-opacity="1.0" stroke-linecap="round" stroke-linejoin="round"  filling="0" d="M189 463 C189 464 189 464 188 465"></path>
<path id="" fill="none" stroke="#000000" stroke-width="2.0" stroke-opacity="1.0" stroke-linecap="round" stroke-linejoin="round"  filling="0" d="M505 389 C504 390 502 396 502 397"></path>
<path id="" fill="none" stroke="#000000" stroke-width="2.0" stroke-opacity="1.0" stroke-linecap="round" stroke-linejoin="round"  filling="0" d="M510 376 C510 378 509 379 508 380 C507 381 509 383 508 384 C507 385 506 387 505 388"></path>
<path id="" fill="none" stroke="#000000" stroke-width="2.0" stroke-opacity="1.0" stroke-linecap="round" stroke-linejoin="round"  filling="0" d="M479 677 C476 680 475 684 472 687"></path>
<path id="" fill="none" stroke="#000000" stroke-width="2.0" stroke-opacity="1.0" stroke-linecap="round" stroke-linejoin="round"  filling="0" d="M410 523 C412 521 411 518 413 516"></path>
<path id="" fill="none" stroke="#000000" stroke-width="2.0" stroke-opacity="1.0" stroke-linecap="round" stroke-linejoin="round"  filling="0" d="M532 341 C532 343 531 344 531 346"></path>
<path id="" fill="none" stroke="#000000" stroke-width="2.0" stroke-opacity="1.0" stroke-linecap="round" stroke-linejoin="round"  filling="0" d="M515 364 C515 366 514 366 513 367 C512 370 513 372 510 375"></path>
<path id="" fill="none" stroke="#000000" stroke-width="2.0" stroke-opacity="1.0" stroke-linecap="round" stroke-linejoin="round"  filling="0" d="M521 340 C521 342 522 342 522 344"></path>
<path id="" fill="none" stroke="#000000" stroke-width="2.0" stroke-opacity="1.0" stroke-linecap="round" stroke-linejoin="round"  filling="0" d="M502 299 C504 299 504 300 505 301 C508 303 511 305 515 305"></path>
<path id="" fill="none" stroke="#000000" stroke-width="2.0" stroke-opacity="1.0" stroke-linecap="round" stroke-linejoin="round"  filling="0" d="M404 514 C404 514 403 514 403 514"></path>
<path id="" fill="none" stroke="#000000" stroke-width="2.0" stroke-opacity="1.0" stroke-linecap="round" stroke-linejoin="round"  filling="0" d="M218 613 C219 614 223 615 225 615"></path>
<path id="" fill="none" stroke="#000000" stroke-width="2.0" stroke-opacity="1.0" stroke-linecap="round" stroke-linejoin="round"  filling="0" d="M534 329 C534 329 534 328 534 328"></path>
<path id="" fill="none" stroke="#000000" stroke-width="2.0" stroke-opacity="1.0" stroke-linecap="round" stroke-linejoin="round"  filling="0" d="M533 340 C533 337 534 334 534 330"></path>
<path id="" fill="none" stroke="#000000" stroke-width="2.0" stroke-opacity="1.0" stroke-linecap="round" stroke-linejoin="round"  filling="0" d="M438 525 C438 526 438 526 439 527"></path>
<path id="" fill="none" stroke="#000000" stroke-width="2.0" stroke-opacity="1.0" stroke-linecap="round" stroke-linejoin="round"  filling="0" d="M480 675 C480 675 480 676 480 676"></path>
<path id="" fill="none" stroke="#000000" stroke-width="2.0" stroke-opacity="1.0" stroke-linecap="round" stroke-linejoin="round"  filling="0" d="M434 520 C435 521 437 523 438 524"></path>
<path id="" fill="none" stroke="#000000" stroke-width="2.0" stroke-opacity="1.0" stroke-linecap="round" stroke-linejoin="round"  filling="0" d="M520 338 C520 338 520 339 520 339"></path>
<path id="" fill="none" stroke="#000000" stroke-width="2.0" stroke-opacity="1.0" stroke-linecap="round" stroke-linejoin="round"  filling="0" d="M372 495 C372 495 371 495 371 495"></path>
<path id="" fill="none" stroke="#000000" stroke-width="2.0" stroke-opacity="1.0" stroke-linecap="round" stroke-linejoin="round"  filling="0" d="M434 518 C433 517 433 517 433 515"></path>
<path id="" fill="none" stroke="#000000" stroke-width="2.0" stroke-opacity="1.0" stroke-linecap="round" stroke-linejoin="round"  filling="0" d="M519 336 C519 336 519 337 519 337"></path>
<path id="" fill="none" stroke="#000000" stroke-width="2.0" stroke-opacity="1.0" stroke-linecap="round" stroke-linejoin="round"  filling="0" d="M542 783 C542 782 542 781 542 780"></path>
<path id="" fill="none" stroke="#000000" stroke-width="2.0" stroke-opacity="1.0" stroke-linecap="round" stroke-linejoin="round"  filling="0" d="M482 672 C483 672 483 672 484 671"></path>
<path id="" fill="none" stroke="#000000" stroke-width="2.0" stroke-opacity="1.0" stroke-linecap="round" stroke-linejoin="round"  filling="0" d="M492 413 C493 412 494 412 495 411"></path>
<path id="" fill="none" stroke="#000000" stroke-width="2.0" stroke-opacity="1.0" stroke-linecap="round" stroke-linejoin="round"  filling="0" d="M481 674 C481 674 481 673 481 673"></path>
<path id="" fill="none" stroke="#000000" stroke-width="2.0" stroke-opacity="1.0" stroke-linecap="round" stroke-linejoin="round"  filling="0" d="M528 359 C528 360 528 362 528 363"></path>
<path id="" fill="none" stroke="#000000" stroke-width="2.0" stroke-opacity="1.0" stroke-linecap="round" stroke-linejoin="round"  filling="0" d="M516 363 C517 362 517 361 518 360"></path>
<path id="" fill="none" stroke="#000000" stroke-width="2.0" stroke-opacity="1.0" stroke-linecap="round" stroke-linejoin="round"  filling="0" d="M374 496 C374 496 373 496 373 496"></path>
<path id="" fill="none" stroke="#000000" stroke-width="2.0" stroke-opacity="1.0" stroke-linecap="round" stroke-linejoin="round"  filling="0" d="M406 512 C406 512 405 513 405 513"></path>
<path id="" fill="none" stroke="#000000" stroke-width="2.0" stroke-opacity="1.0" stroke-linecap="round" stroke-linejoin="round"  filling="0" d="M376 497 C376 497 375 496 375 496"></path>
<path id="" fill="none" stroke="#000000" stroke-width="2.0" stroke-opacity="1.0" stroke-linecap="round" stroke-linejoin="round"  filling="0" d="M378 499 C378 499 379 500 379 500"></path>
<path id="" fill="none" stroke="#000000" stroke-width="2.0" stroke-opacity="1.0" stroke-linecap="round" stroke-linejoin="round"  filling="0" d="M512 251 C512 251 511 251 511 251"></path>
<path id="" fill="none" stroke="#000000" stroke-width="2.0" stroke-opacity="1.0" stroke-linecap="round" stroke-linejoin="round"  filling="0" d="M484 589 C483 588 483 588 483 587"></path>
<path id="" fill="none" stroke="#000000" stroke-width="2.0" stroke-opacity="1.0" stroke-linecap="round" stroke-linejoin="round"  filling="0" d="M190 461 C190 461 189 462 189 462"></path>
<path id="" fill="none" stroke="#000000" stroke-width="2.0" stroke-opacity="1.0" stroke-linecap="round" stroke-linejoin="round"  filling="0" d="M514 250 C514 250 513 250 513 250"></path>
<path id="" fill="none" stroke="#000000" stroke-width="2.0" stroke-opacity="1.0" stroke-linecap="round" stroke-linejoin="round"  filling="0" d="M374 520 C374 520 373 520 373 520"></path>
<path id="" fill="none" stroke="#000000" stroke-width="2.0" stroke-opacity="1.0" stroke-linecap="round" stroke-linejoin="round"  filling="0" d="M496 423 C496 423 495 423 495 423"></path>
<path id="" fill="none" stroke="#000000" stroke-width="2.0" stroke-opacity="1.0" stroke-linecap="round" stroke-linejoin="round"  filling="0" d="M528 357 C528 357 528 358 528 358"></path>
<path id="" fill="none" stroke="#000000" stroke-width="2.0" stroke-opacity="1.0" stroke-linecap="round" stroke-linejoin="round"  filling="0" d="M531 166 C531 168 532 170 533 171 C533 172 533 173 533 174 C535 178 535 184 537 188 C538 190 538 198 534 194"></path>
<path id="" fill="none" stroke="#000000" stroke-width="2.0" stroke-opacity="1.0" stroke-linecap="round" stroke-linejoin="round"  filling="0" d="M557 279 C556 280 554 282 553 283 C552 284 553 288 553 289 C553 294 553 298 553 303 C553 313 553 322 553 332 C553 336 554 342 552 346 C551 347 553 347 553 348 C554 349 554 359 553 360 C553 361 552 361 552 362 C552 369 553 374 553 381 C553 383 554 386 552 388"></path>
<path id="" fill="none" stroke="#000000" stroke-width="2.0" stroke-opacity="1.0" stroke-linecap="round" stroke-linejoin="round"  filling="0" d="M569 332 C573 328 572 320 574 315 C574 314 574 313 574 312 C576 309 575 304 577 301 C578 300 576 297 577 296 C579 292 580 282 578 277 C577 275 579 273 578 271 C577 269 577 265 576 263 C571 254 568 244 563 235 C561 231 559 227 557 223 C556 221 553 219 552 217 C550 214 546 209 542 209 C542 209 542 215 542 216 C542 218 543 222 544 224 C545 225 543 228 544 229 C545 231 545 234 546 236 C547 238 545 240 546 242 C549 247 546 254 549 259 C551 262 548 267 550 270 C552 274 548 278 552 282"></path>
<path id="" fill="none" stroke="#000000" stroke-width="2.0" stroke-opacity="1.0" stroke-linecap="round" stroke-linejoin="round"  filling="0" d="M540 203 C540 205 541 207 542 208"></path>
<path id="" fill="none" stroke="#000000" stroke-width="2.0" stroke-opacity="1.0" stroke-linecap="round" stroke-linejoin="round"  filling="0" d="M538 199 C538 201 539 201 540 202"></path>
<path id="" fill="none" stroke="#000000" stroke-width="2.0" stroke-opacity="1.0" stroke-linecap="round" stroke-linejoin="round"  filling="0" d="M537 196 C537 197 537 197 538 198"></path>
<path id="" fill="none" stroke="#000000" stroke-width="2.0" stroke-opacity="1.0" stroke-linecap="round" stroke-linejoin="round"  filling="0" d="M371 175 C368 178 366 185 364 189 C358 200 353 211 347 222 C347 223 347 224 347 225 C343 232 342 240 338 247 C336 251 336 256 334 260 C333 263 333 267 332 270 C328 278 328 288 324 296 C323 298 324 302 323 304 C320 309 321 316 318 321 C317 322 319 324 318 325 C314 334 315 345 311 354 C309 357 312 363 310 366 C309 369 307 379 309 382 C310 383 311 385 311 387"></path>
<path id="" fill="none" stroke="#000000" stroke-width="2.0" stroke-opacity="1.0" stroke-linecap="round" stroke-linejoin="round"  filling="0" d="M443 223 C445 225 450 228 451 230 C452 232 454 237 455 238 C455 238 459 238 460 238 C462 238 466 238 468 239 C468 239 471 241 471 241 C471 241 472 240 472 240 C475 240 480 243 482 241"></path>
<path id="" fill="none" stroke="#000000" stroke-width="2.0" stroke-opacity="1.0" stroke-linecap="round" stroke-linejoin="round"  filling="0" d="M435 235 C436 236 438 239 440 240 C444 242 450 239 454 239"></path>
<path id="" fill="none" stroke="#000000" stroke-width="2.0" stroke-opacity="1.0" stroke-linecap="round" stroke-linejoin="round"  filling="0" d="M431 242 C432 242 438 241 439 240"></path>
<path id="" fill="none" stroke="#000000" stroke-width="2.0" stroke-opacity="1.0" stroke-linecap="round" stroke-linejoin="round"  filling="0" d="M490 259 C487 259 486 256 484 255 C479 253 471 248 471 242"></path>
<path id="" fill="none" stroke="#000000" stroke-width="2.0" stroke-opacity="1.0" stroke-linecap="round" stroke-linejoin="round"  filling="0" d="M486 271 C484 271 482 273 480 272 C478 271 476 269 473 270 C471 271 469 270 467 271 C466 271 467 273 466 273 C464 273 461 272 459 273 C456 274 454 275 451 276 C450 276 449 276 448 276 C446 277 445 278 444 279 C441 280 438 281 435 282 C431 284 427 284 424 286 C422 287 419 290 417 288"></path>
<path id="" fill="none" stroke="#000000" stroke-width="2.0" stroke-opacity="1.0" stroke-linecap="round" stroke-linejoin="round"  filling="0" d="M425 294 C425 304 425 321 435 326 C438 328 442 328 445 330 C448 331 449 329 452 332"></path>
<path id="" fill="none" stroke="#000000" stroke-width="2.0" stroke-opacity="1.0" stroke-linecap="round" stroke-linejoin="round"  filling="0" d="M412 296 C414 294 416 292 418 290"></path>
<path id="" fill="none" stroke="#000000" stroke-width="2.0" stroke-opacity="1.0" stroke-linecap="round" stroke-linejoin="round"  filling="0" d="M471 302 C469 304 470 306 469 308 C466 314 458 328 450 328 C449 328 449 326 449 325 C449 321 449 317 449 313 C449 303 454 298 458 290 C459 288 462 282 464 282 C465 282 468 286 468 287 C470 291 471 296 471 301"></path>
<path id="" fill="none" stroke="#000000" stroke-width="2.0" stroke-opacity="1.0" stroke-linecap="round" stroke-linejoin="round"  filling="0" d="M462 277 C462 279 463 278 464 279 C466 281 466 276 466 274"></path>
<path id="" fill="none" stroke="#000000" stroke-width="2.0" stroke-opacity="1.0" stroke-linecap="round" stroke-linejoin="round"  filling="0" d="M462 275 C462 275 462 274 462 274"></path>
<path id="" fill="none" stroke="#000000" stroke-width="2.0" stroke-opacity="1.0" stroke-linecap="round" stroke-linejoin="round"  filling="0" d="M223 344 C220 347 216 347 212 349 C206 352 201 356 195 359 C188 363 181 369 174 373 C173 374 172 375 171 376 C160 382 149 391 140 400"></path>
<path id="" fill="none" stroke="#000000" stroke-width="2.0" stroke-opacity="1.0" stroke-linecap="round" stroke-linejoin="round"  filling="0" d="M480 404 C478 406 471 403 468 403 C454 403 439 400 428 394 C424 392 415 382 412 389 C411 390 412 394 412 395 C412 402 412 406 415 411 C416 413 417 418 420 419 C422 420 425 422 427 423 C429 424 433 423 435 424 C441 427 455 426 460 423 C461 422 463 424 464 423 C469 421 475 421 479 417"></path>
<path id="" fill="none" stroke="#000000" stroke-width="2.0" stroke-opacity="1.0" stroke-linecap="round" stroke-linejoin="round"  filling="0" d="M692 543 C687 538 682 533 676 530 C672 528 668 528 663 528 C660 528 654 527 652 528 C650 529 647 530 645 531 C642 533 639 536 636 539 C628 547 622 556 617 566 C616 568 607 566 605 565 C604 565 600 566 600 564 C600 562 603 558 605 558"></path>
<path id="" fill="none" stroke="#000000" stroke-width="2.0" stroke-opacity="1.0" stroke-linecap="round" stroke-linejoin="round"  filling="0" d="M614 573 C615 572 614 570 616 569 C618 568 621 569 622 570 C624 571 627 571 629 572 C631 573 633 575 635 576 C637 577 639 577 640 579 C641 581 637 584 636 584"></path>
<path id="" fill="none" stroke="#000000" stroke-width="2.0" stroke-opacity="1.0" stroke-linecap="round" stroke-linejoin="round"  filling="0" d="M597 598 C599 600 599 601 600 603 C601 606 604 605 606 607 C607 608 607 609 607 610 C608 612 600 618 605 620 C606 621 607 619 608 619 C609 619 612 620 612 618 C612 617 608 613 607 613"></path>
<path id="" fill="none" stroke="#000000" stroke-width="2.0" stroke-opacity="1.0" stroke-linecap="round" stroke-linejoin="round"  filling="0" d="M610 600 C610 601 608 605 607 606"></path>
<path id="" fill="none" stroke="#000000" stroke-width="2.0" stroke-opacity="1.0" stroke-linecap="round" stroke-linejoin="round"  filling="0" d="M573 604 C572 605 570 606 570 606 C570 606 570 609 570 610 C570 611 570 618 569 619 C568 621 570 624 569 627 C566 632 568 641 568 647 C568 650 568 653 569 655 C570 657 568 661 569 663 C570 665 573 665 574 667 C576 671 578 675 580 679 C581 681 584 683 584 685"></path>
<path id="" fill="none" stroke="#000000" stroke-width="2.0" stroke-opacity="1.0" stroke-linecap="round" stroke-linejoin="round"  filling="0" d="M624 608 C620 612 619 619 612 619"></path>
<path id="" fill="none" stroke="#000000" stroke-width="2.0" stroke-opacity="1.0" stroke-linecap="round" stroke-linejoin="round"  filling="0" d="M730 609 C730 611 731 615 732 617 C733 620 732 623 733 626 C734 629 731 631 731 633 C731 636 734 642 730 644 C725 647 716 641 711 644 C709 645 703 646 700 646 C699 646 695 645 694 646 C691 647 685 648 682 648 C680 648 676 647 675 648 C672 649 669 649 666 650 C662 652 659 653 655 655 C653 656 650 660 649 662 C648 664 647 662 646 663 C645 664 647 667 646 668 C646 669 643 670 643 671 C643 672 645 675 645 676 C646 678 645 681 646 683 C647 685 646 689 647 691 C650 698 661 701 668 701"></path>
<path id="" fill="none" stroke="#000000" stroke-width="2.0" stroke-opacity="1.0" stroke-linecap="round" stroke-linejoin="round"  filling="0" d="M584 711 C584 714 583 719 582 721 C581 723 582 726 581 728 C580 729 582 732 581 733 C580 734 579 735 578 736 C576 739 580 745 581 747 C581 748 581 749 581 750 C583 753 588 758 591 759 C595 761 597 765 601 767 C609 771 619 771 629 771 C638 771 647 768 654 764 C662 760 671 756 679 752 C688 748 695 740 704 736 C706 735 709 735 711 734 C713 733 711 730 713 729 C714 729 715 730 715 729 C715 727 714 724 715 721 C717 716 720 712 722 707 C725 700 729 693 732 686 C734 682 733 678 735 674 C736 672 734 669 735 667 C738 661 736 652 733 647 C732 645 734 645 732 643"></path>
<path id="" fill="none" stroke="#000000" stroke-width="2.0" stroke-opacity="1.0" stroke-linecap="round" stroke-linejoin="round"  filling="0" d="M726 723 C722 723 720 728 716 728"></path>
<path id="" fill="none" stroke="#000000" stroke-width="2.0" stroke-opacity="1.0" stroke-linecap="round" stroke-linejoin="round"  filling="0" d="M708 742 C709 741 710 734 712 734 C713 734 713 736 714 736 C718 738 720 740 720 745 C720 755 719 764 715 773 C714 775 716 779 716 781 C716 782 715 781 714 781 C713 781 712 782 712 783 C710 786 710 790 708 793 C707 795 708 798 705 798"></path>
<path id="" fill="none" stroke="#000000" stroke-width="2.0" stroke-opacity="1.0" stroke-linecap="round" stroke-linejoin="round"  filling="0" d="M711 771 C712 772 713 772 714 773"></path>
<path id="" fill="none" stroke="#000000" stroke-width="2.0" stroke-opacity="1.0" stroke-linecap="round" stroke-linejoin="round"  filling="0" d="M574 798 C574 795 575 787 576 784 C578 780 575 775 577 771 C578 768 577 765 578 762 C579 759 577 751 581 751"></path>
<path id="" fill="none" stroke="#000000" stroke-width="2.0" stroke-opacity="1.0" stroke-linecap="round" stroke-linejoin="round"  filling="0" d="M729 799 C727 799 726 797 725 795 C723 790 721 785 717 781"></path>
<path id="" fill="none" stroke="#000000" stroke-width="2.0" stroke-opacity="1.0" stroke-linecap="round" stroke-linejoin="round"  filling="0" d="M642 608 C646 604 649 595 646 589 C646 588 646 587 646 586 C645 585 641 581 641 580 C641 578 647 575 648 574 C657 570 664 564 673 560 C677 558 681 558 685 556 C686 556 687 556 688 556 C690 555 695 554 697 555 C700 557 703 561 704 564 C706 568 708 570 710 574 C712 577 712 582 714 585 C716 589 717 594 719 598 C721 601 723 603 721 606 C721 607 717 611 716 610 C714 609 710 604 709 602 C708 600 708 598 706 597 C700 594 688 596 682 599 C674 603 668 608 660 612 C658 613 656 617 654 618 C651 619 646 625 644 628 C642 631 641 635 639 638 C639 639 640 641 639 642 C638 643 637 641 637 641 C634 640 632 637 629 636 C626 635 624 632 621 631 C619 630 616 631 615 628 C614 627 614 621 614 620"></path>
<path id="" fill="none" stroke="#000000" stroke-width="2.0" stroke-opacity="1.0" stroke-linecap="round" stroke-linejoin="round"  filling="0" d="M581 572 C579 574 574 577 573 580 C569 587 569 597 569 605"></path>
<path id="" fill="none" stroke="#000000" stroke-width="2.0" stroke-opacity="1.0" stroke-linecap="round" stroke-linejoin="round"  filling="0" d="M568 682 C568 684 569 684 569 686 C569 691 568 699 570 703 C571 705 569 709 570 711 C572 714 571 719 573 722 C575 726 572 735 578 735"></path>
<path id="" fill="none" stroke="#000000" stroke-width="2.0" stroke-opacity="1.0" stroke-linecap="round" stroke-linejoin="round"  filling="0" d="M630 661 C631 662 633 662 634 663 C637 664 639 670 642 670"></path>
<path id="" fill="none" stroke="#000000" stroke-width="2.0" stroke-opacity="1.0" stroke-linecap="round" stroke-linejoin="round"  filling="0" d="M643 660 C643 658 641 655 640 653 C639 651 639 645 639 643"></path>
<path id="" fill="none" stroke="#000000" stroke-width="2.0" stroke-opacity="1.0" stroke-linecap="round" stroke-linejoin="round"  filling="0" d="M614 636 C613 637 612 636 611 637 C610 638 613 642 614 642 C616 643 614 644 616 645 C617 646 619 645 620 645 C621 645 620 646 620 647 C621 648 622 649 622 650 C623 652 625 654 626 656 C627 658 629 658 629 660"></path>
<path id="" fill="none" stroke="#000000" stroke-width="2.0" stroke-opacity="1.0" stroke-linecap="round" stroke-linejoin="round"  filling="0" d="M620 642 C620 643 620 643 620 644"></path>
<path id="" fill="none" stroke="#000000" stroke-width="2.0" stroke-opacity="1.0" stroke-linecap="round" stroke-linejoin="round"  filling="0" d="M616 634 C616 636 619 638 619 640 C619 641 617 640 616 641"></path>
<path id="" fill="none" stroke="#000000" stroke-width="2.0" stroke-opacity="1.0" stroke-linecap="round" stroke-linejoin="round"  filling="0" d="M568 666 C568 671 568 676 568 681"></path>
<path id="" fill="none" stroke="#000000" stroke-width="2.0" stroke-opacity="1.0" stroke-linecap="round" stroke-linejoin="round"  filling="0" d="M633 614 C628 614 624 617 619 617"></path>
<path id="" fill="none" stroke="#000000" stroke-width="2.0" stroke-opacity="1.0" stroke-linecap="round" stroke-linejoin="round"  filling="0" d="M612 629 C611 629 610 631 608 630 C605 629 605 624 605 621"></path>
<path id="" fill="none" stroke="#000000" stroke-width="2.0" stroke-opacity="1.0" stroke-linecap="round" stroke-linejoin="round"  filling="0" d="M592 566 C591 566 589 565 588 565 C587 565 587 567 586 568 C585 569 583 570 582 571"></path>
<path id="" fill="none" stroke="#000000" stroke-width="2.0" stroke-opacity="1.0" stroke-linecap="round" stroke-linejoin="round"  filling="0" d="M594 565 C594 565 593 566 593 566"></path>
<path id="" fill="none" stroke="#000000" stroke-width="2.0" stroke-opacity="1.0" stroke-linecap="round" stroke-linejoin="round"  filling="0" d="M644 661 C644 661 645 662 645 662"></path>
<path id="" fill="none" stroke="#000000" stroke-width="2.0" stroke-opacity="1.0" stroke-linecap="round" stroke-linejoin="round"  filling="0" d="M595 565 C597 565 597 564 599 564"></path>
<path id="" fill="none" stroke="#000000" stroke-width="2.0" stroke-opacity="1.0" stroke-linecap="round" stroke-linejoin="round"  filling="0" d="M639 610 C637 612 636 611 634 613"></path>
<path id="" fill="none" stroke="#000000" stroke-width="2.0" stroke-opacity="1.0" stroke-linecap="round" stroke-linejoin="round"  filling="0" d="M569 664 C569 664 568 665 568 665"></path>
<path id="" fill="none" stroke="#000000" stroke-width="2.0" stroke-opacity="1.0" stroke-linecap="round" stroke-linejoin="round"  filling="0" d="M616 632 C616 635 608 636 608 631"></path>
<path id="" fill="none" stroke="#000000" stroke-width="2.0" stroke-opacity="1.0" stroke-linecap="round" stroke-linejoin="round"  filling="0" d="M727 629 C725 627 724 624 723 622 C721 618 717 616 717 611"></path>
<path id="" fill="none" stroke="#000000" stroke-width="2.0" stroke-opacity="1.0" stroke-linecap="round" stroke-linejoin="round"  filling="0" d="M729 630 C729 630 728 630 728 630"></path>
<path id="" fill="none" stroke="#000000" stroke-width="2.0" stroke-opacity="1.0" stroke-linecap="round" stroke-linejoin="round"  filling="0" d="M614 628 C614 628 613 629 613 629"></path>
<path id="" fill="none" stroke="#000000" stroke-width="2.0" stroke-opacity="1.0" stroke-linecap="round" stroke-linejoin="round"  filling="0" d="M641 608 C641 608 640 609 640 609"></path>
<path id="" fill="none" stroke="#000000" stroke-width="2.0" stroke-opacity="1.0" stroke-linecap="round" stroke-linejoin="round"  filling="0" d="M280 643 C278 645 275 644 273 644 C270 644 262 645 259 644 C257 643 252 642 250 643 C243 646 234 643 227 646 C226 647 223 645 222 646 C219 648 214 647 211 649 C210 650 208 648 207 649 C203 651 199 650 195 652 C186 656 176 658 167 662 C166 662 165 662 164 662 C155 667 145 670 136 675 C133 677 131 681 128 683 C127 683 124 686 124 686 C122 686 120 682 118 686 C118 687 118 688 118 689 C115 694 116 701 113 706 C112 709 113 713 112 716 C110 720 114 726 110 730"></path>
<path id="" fill="none" stroke="#000000" stroke-width="2.0" stroke-opacity="1.0" stroke-linecap="round" stroke-linejoin="round"  filling="0" d="M147 654 C145 656 142 658 140 659 C138 660 137 663 135 664 C133 665 128 668 127 671 C126 673 124 674 123 676 C122 678 122 681 120 683"></path>
<path id="" fill="none" stroke="#000000" stroke-width="2.0" stroke-opacity="1.0" stroke-linecap="round" stroke-linejoin="round"  filling="0" d="M318 649 C318 652 321 655 322 657 C326 665 332 673 336 682 C344 697 349 713 357 728 C358 729 357 732 358 733 C363 744 366 755 371 766 C375 774 378 784 382 792 C383 794 384 799 387 799"></path>
<path id="" fill="none" stroke="#000000" stroke-width="2.0" stroke-opacity="1.0" stroke-linecap="round" stroke-linejoin="round"  filling="0" d="M266 675 C266 677 267 680 268 682 C270 685 268 690 270 693 C271 694 270 698 270 699 C270 704 271 712 269 717 C267 721 270 728 268 732 C266 735 268 740 266 743 C265 746 265 750 264 753 C261 759 261 766 258 772 C258 773 258 774 258 775 C255 781 253 787 250 793 C249 795 249 798 246 798"></path>
<path id="" fill="none" stroke="#000000" stroke-width="2.0" stroke-opacity="1.0" stroke-linecap="round" stroke-linejoin="round"  filling="0" d="M662 689 C665 689 669 691 672 692 C673 693 675 691 676 692 C681 694 687 694 692 697 C695 698 697 705 694 707 C693 707 692 707 691 707 C687 709 679 708 674 708 C673 708 669 707 668 708 C662 711 652 709 646 712 C645 713 642 711 641 712 C637 714 633 714 629 716 C617 722 610 736 610 748"></path>
<path id="" fill="none" stroke="#000000" stroke-width="2.0" stroke-opacity="1.0" stroke-linecap="round" stroke-linejoin="round"  filling="0" d="M699 708 C698 707 697 707 696 706"></path>
<path id="" fill="none" stroke="#000000" stroke-width="2.0" stroke-opacity="1.0" stroke-linecap="round" stroke-linejoin="round"  filling="0" d="M466 702 C469 705 467 710 469 714 C470 717 469 721 470 724 C472 729 471 737 471 742 C471 745 472 753 470 755"></path>
<path id="" fill="none" stroke="#000000" stroke-width="2.0" stroke-opacity="1.0" stroke-linecap="round" stroke-linejoin="round"  filling="0" d="M435 719 C432 722 433 729 431 733 C430 734 432 737 431 738 C430 741 430 745 429 748 C424 758 425 770 420 780 C419 781 421 783 420 784 C418 788 419 794 416 797"></path>
<path id="" fill="none" stroke="#000000" stroke-width="2.0" stroke-opacity="1.0" stroke-linecap="round" stroke-linejoin="round"  filling="0" d="M338 724 C332 730 328 738 324 745 C324 746 324 747 324 748 C323 751 320 753 319 756 C318 758 318 760 317 762 C316 763 318 766 317 767 C316 768 310 767 309 767 C306 767 304 768 302 768 C301 768 297 767 296 768 C295 769 291 770 290 770 C289 770 289 768 288 768 C284 768 286 777 288 772 C288 771 288 771 289 770"></path>
<path id="" fill="none" stroke="#000000" stroke-width="2.0" stroke-opacity="1.0" stroke-linecap="round" stroke-linejoin="round"  filling="0" d="M278 798 C284 792 288 781 288 773"></path>
<path id="" fill="none" stroke="#000000" stroke-width="2.0" stroke-opacity="1.0" stroke-linecap="round" stroke-linejoin="round"  filling="0" d="M303 798 C303 796 304 794 305 793 C306 791 307 788 308 785 C308 784 308 783 308 782 C309 780 311 777 312 775 C313 773 312 770 314 768"></path>
<path id="" fill="none" stroke="#000000" stroke-width="2.0" stroke-opacity="1.0" stroke-linecap="round" stroke-linejoin="round"  filling="0" d="M321 798 C326 793 330 789 333 783 C334 782 333 779 334 778 C335 776 336 769 333 768 C329 766 323 767 318 767"></path>
<path id="" fill="none" stroke="#000000" stroke-width="2.0" stroke-opacity="1.0" stroke-linecap="round" stroke-linejoin="round"  filling="0" d="M287 768 C287 768 288 767 288 767"></path>
<path id="" fill="none" stroke="#000000" stroke-width="2.0" stroke-opacity="1.0" stroke-linecap="round" stroke-linejoin="round"  filling="0" d="M239 748 C239 749 239 755 237 755 C235 755 229 754 227 753 C225 752 221 753 219 753 C211 753 204 753 197 756 C195 757 196 760 195 762 C191 770 195 782 195 790 C195 793 197 799 200 799"></path>
<path id="" fill="none" stroke="#000000" stroke-width="2.0" stroke-opacity="1.0" stroke-linecap="round" stroke-linejoin="round"  filling="0" d="M236 798 C236 797 237 797 237 796 C238 793 237 787 237 784 C237 774 238 765 238 755"></path>
</svg>