<svg xmlns="http://www.w3.org/2000/svg" viewBox="0 0 878 1076" height="1076.0px" width="878.0px">
<path id="" fill="none" stroke="#000000" stroke-width="2.0" stroke-opacity="1.0" stroke-linecap="round" stroke-linejoin="round"  filling="0" d="M473 84 C473 87 476 87 477 90 C479 93 478 97 480 100 C481 102 483 104 484 106 C484 107 484 108 484 109 C486 112 487 117 487 120 C487 123 486 129 487 131 C488 133 489 136 489 139 C489 142 490 148 489 151 C489 152 487 153 488 154 C489 155 490 159 489 161 C489 162 487 162 488 163 C489 165 490 171 489 173 C487 177 487 183 485 187 C480 196 477 206 472 215 C471 217 466 224 464 225 C462 226 454 224 454 228"></path>
<path id="" fill="none" stroke="#000000" stroke-width="2.0" stroke-opacity="1.0" stroke-linecap="round" stroke-linejoin="round"  filling="0" d="M272 154 C274 156 276 153 278 152 C284 149 291 146 297 143 C298 142 304 136 303 135 C301 133 293 137 291 137 C286 137 283 139 279 141 C274 144 268 145 263 148 C262 149 259 148 258 149 C255 151 252 153 249 155 C236 161 224 168 211 174 C205 177 201 185 195 188 C189 191 183 199 180 204 C179 206 177 206 176 207 C171 212 163 217 160 223 C159 224 157 225 156 226 C151 231 147 233 142 238 C135 245 131 254 127 262 C126 264 123 266 122 268 C120 273 119 278 117 283 C114 288 112 293 109 298 C107 301 109 307 107 310 C105 315 103 320 100 325 C98 328 99 333 97 336 C95 339 93 342 91 345 C91 346 91 347 91 348 C90 351 89 354 88 356 C85 362 82 367 79 373 C78 375 76 376 75 378 C74 381 72 383 71 386 C71 387 71 388 71 389 C68 395 65 399 62 405 C60 409 61 414 59 418 C55 427 52 435 48 444 C47 446 48 451 47 453 C46 455 45 458 44 460 C43 462 45 464 46 465 C47 466 45 468 46 469 C47 471 48 473 49 475 C51 478 47 485 49 488 C52 494 51 503 51 510 C51 518 51 525 51 533 C51 535 49 539 50 540 C54 548 53 558 53 567 C53 573 53 580 53 586 C53 588 51 591 52 592 C55 598 60 605 63 611 C64 613 66 614 68 613 C72 611 71 603 73 600 C74 599 72 597 73 596 C74 593 74 590 75 587 C78 581 79 576 85 570"></path>
<path id="" fill="none" stroke="#000000" stroke-width="2.0" stroke-opacity="1.0" stroke-linecap="round" stroke-linejoin="round"  filling="0" d="M481 168 C474 168 468 167 461 167 C460 167 455 166 455 166 C451 168 446 169 442 169 C441 169 435 168 435 168 C427 172 418 169 410 173 C408 174 407 171 406 172 C400 175 392 175 385 178 C383 179 379 178 377 179 C368 184 358 185 349 190 C347 191 344 192 341 193 C340 193 339 193 338 193 C334 195 331 197 327 199 C325 200 323 199 321 200 C315 203 310 205 304 208 C303 208 302 208 301 208 C293 212 286 217 278 221 C276 222 269 229 268 231 C268 232 268 233 267 233 C262 235 258 238 254 242 C253 243 250 241 249 241 C245 241 238 239 234 241 C228 244 222 246 216 249 C213 250 209 250 206 252 C203 253 201 256 198 257 C194 259 192 262 188 264 C187 264 187 266 186 266 C185 266 184 263 183 263 C181 262 179 262 177 261 C174 260 167 261 164 261 C161 261 154 260 151 261 C147 263 143 265 139 267 C136 269 133 270 131 274 C129 277 125 280 123 283 C122 285 123 287 122 289 C120 292 120 296 118 299 C117 300 119 300 119 301 C120 303 119 308 119 310 C119 311 120 315 119 316 C119 317 117 318 118 319 C121 324 122 330 125 335 C126 337 128 337 129 338 C133 340 136 346 138 349 C139 351 143 353 143 355 C143 356 141 355 141 356 C140 358 139 361 138 364 C137 366 138 368 137 370 C134 377 134 385 131 392 C130 393 132 396 131 397 C129 402 130 408 128 413 C127 414 129 417 128 418 C125 423 126 430 123 435 C121 439 124 446 122 450 C120 454 119 458 117 462 C115 466 118 471 116 475 C112 484 111 495 107 504 C106 505 107 509 107 511 C107 513 106 516 105 518 C104 520 106 522 105 524 C102 529 103 536 103 543 C103 545 101 546 102 548 C103 550 104 551 105 553 C106 555 105 558 104 559 C103 561 104 565 104 567 C104 568 105 568 105 569 C106 572 104 577 105 580 C105 581 107 581 107 582 C108 583 106 584 106 585 C105 587 105 594 105 597 C105 607 107 621 103 629 C102 630 103 634 103 636 C103 642 104 649 101 654 C100 655 101 658 101 659 C101 664 101 668 101 673 C101 674 102 677 101 678 C100 681 98 679 96 680 C94 681 92 685 91 687 C90 688 89 689 88 690 C83 700 79 712 74 722 C73 724 74 727 73 729 C73 730 74 732 73 733 C72 734 70 734 69 735 C66 742 62 748 59 755 C59 756 59 757 59 758 C57 763 54 767 52 772 C52 773 52 774 52 775 C50 779 49 783 47 787 C46 788 48 790 47 791 C45 795 45 799 43 803 C43 804 43 805 43 806 C41 811 40 817 38 822 C37 824 35 823 34 825 C33 828 35 833 34 836 C33 837 32 838 31 839 C29 843 31 849 28 852"></path>
<path id="" fill="none" stroke="#000000" stroke-width="2.0" stroke-opacity="1.0" stroke-linecap="round" stroke-linejoin="round"  filling="0" d="M472 170 C472 170 472 169 472 169"></path>
<path id="" fill="none" stroke="#000000" stroke-width="2.0" stroke-opacity="1.0" stroke-linecap="round" stroke-linejoin="round"  filling="0" d="M468 255 C470 255 472 252 474 251 C481 247 488 240 491 233 C492 231 494 228 495 226 C496 223 499 225 497 225"></path>
<path id="" fill="none" stroke="#000000" stroke-width="2.0" stroke-opacity="1.0" stroke-linecap="round" stroke-linejoin="round"  filling="0" d="M185 268 C185 268 186 267 186 267"></path>
<path id="" fill="none" stroke="#000000" stroke-width="2.0" stroke-opacity="1.0" stroke-linecap="round" stroke-linejoin="round"  filling="0" d="M208 391 C207 391 202 388 201 387 C201 386 202 385 201 385 C201 385 200 386 200 386 C198 386 196 384 194 383 C193 383 192 383 191 383 C187 381 181 380 177 378 C174 377 171 376 169 375 C169 375 167 373 166 374 C166 374 166 375 166 376 C165 377 162 380 161 381 C156 384 150 391 147 396 C141 407 141 421 135 432 C134 434 135 438 134 440 C132 444 131 449 129 453 C128 456 128 460 127 463 C126 465 128 469 127 471 C126 473 126 476 125 478 C124 480 126 482 125 484 C124 486 125 488 124 490 C122 495 121 500 119 504 C117 508 119 513 117 517 C114 522 114 528 111 533 C110 534 112 537 111 538 C109 543 110 548 106 552"></path>
<path id="" fill="none" stroke="#000000" stroke-width="2.0" stroke-opacity="1.0" stroke-linecap="round" stroke-linejoin="round"  filling="0" d="M198 394 C200 392 198 387 200 387"></path>
<path id="" fill="none" stroke="#000000" stroke-width="2.0" stroke-opacity="1.0" stroke-linecap="round" stroke-linejoin="round"  filling="0" d="M352 401 C352 405 352 410 350 413 C349 415 350 418 349 420 C348 422 350 426 349 428 C347 432 348 437 346 441 C345 442 347 445 346 446 C345 448 343 450 342 452 C340 455 342 464 342 468 C342 469 341 472 342 473 C343 475 344 479 343 481 C342 483 341 484 340 486 C339 488 340 490 339 492 C339 493 340 495 340 496 C340 499 339 503 338 505 C337 506 339 506 339 507 C340 508 340 515 339 516 C339 517 337 522 337 523 C338 524 339 525 338 527 C336 532 337 536 337 542 C337 549 335 557 338 563 C339 564 336 565 337 567 C339 570 338 574 340 577 C341 578 339 581 340 582 C342 586 343 591 345 596 C346 597 345 600 346 601 C351 611 355 622 360 632 C363 637 365 644 371 647 C373 648 375 645 374 643 C373 640 372 638 371 635 C371 634 371 633 371 632 C366 622 366 609 361 599 C360 597 360 593 359 591 C359 590 359 589 359 588 C356 582 358 575 355 569 C354 567 357 566 356 564 C353 558 355 549 355 541 C355 536 355 530 355 525 C355 524 354 520 354 520 C355 517 356 513 356 510 C356 509 355 507 355 506 C358 501 357 494 357 488 C357 481 355 468 358 462 C359 461 357 458 358 457 C360 454 359 451 362 448"></path>
<path id="" fill="none" stroke="#000000" stroke-width="2.0" stroke-opacity="1.0" stroke-linecap="round" stroke-linejoin="round"  filling="0" d="M219 402 C222 399 219 393 218 390 C217 388 219 387 219 386 C219 382 220 378 218 375 C217 374 219 373 219 372 C219 370 222 364 220 362 C219 361 214 365 214 366 C211 372 202 377 202 384"></path>
<path id="" fill="none" stroke="#000000" stroke-width="2.0" stroke-opacity="1.0" stroke-linecap="round" stroke-linejoin="round"  filling="0" d="M325 417 C325 419 326 423 327 425 C328 427 327 433 327 436 C327 441 327 448 325 452 C324 454 326 456 325 458 C323 461 324 465 322 468 C321 469 323 472 322 473 C320 476 321 480 319 483 C318 484 320 486 319 487 C317 490 318 495 316 498 C315 500 316 505 315 507 C312 513 313 521 310 527 C308 530 306 532 303 533 C302 534 301 532 300 534 C299 536 300 542 301 544 C302 546 301 550 301 552 C301 553 299 553 299 554 C297 557 299 565 299 569 C299 571 301 573 300 575 C299 577 300 579 299 580 C298 582 295 582 294 584 C291 589 287 593 284 598 C281 603 276 608 273 613 C272 614 273 616 272 617 C270 620 266 622 265 625 C263 628 259 630 257 633 C255 636 248 645 244 645 C243 645 243 644 243 643 C244 640 245 637 246 635 C251 625 256 614 261 604 C261 603 261 602 261 601 C266 590 269 579 274 568 C274 567 274 566 274 565 C276 561 276 557 278 553 C279 552 277 550 278 549 C281 544 279 536 283 532"></path>
<path id="" fill="none" stroke="#000000" stroke-width="2.0" stroke-opacity="1.0" stroke-linecap="round" stroke-linejoin="round"  filling="0" d="M718 424 C718 426 719 428 720 430 C722 434 721 438 723 442 C724 444 723 447 724 449 C728 457 727 468 731 476 C732 477 730 480 731 481 C735 489 731 498 735 506 C736 508 735 513 735 515 C735 522 735 530 735 537 C735 550 735 564 735 577 C735 581 737 589 735 592 C731 600 734 610 730 618 C729 619 732 620 731 622 C731 623 728 625 728 626 C728 627 730 627 730 628 C730 629 730 629 730 630 C732 635 741 632 745 632"></path>
<path id="" fill="none" stroke="#000000" stroke-width="2.0" stroke-opacity="1.0" stroke-linecap="round" stroke-linejoin="round"  filling="0" d="M336 433 C338 435 337 442 339 445 C340 447 337 451 341 451"></path>
<path id="" fill="none" stroke="#000000" stroke-width="2.0" stroke-opacity="1.0" stroke-linecap="round" stroke-linejoin="round"  filling="0" d="M672 451 C672 458 673 467 673 475 C673 479 674 483 672 486 C671 487 672 491 672 493 C672 497 672 501 670 505 C669 506 672 511 671 513 C667 520 671 530 667 538 C666 539 668 539 668 540 C669 541 669 548 669 549 C669 550 667 549 667 550 C666 552 667 556 666 558 C665 560 667 562 666 564 C666 565 664 565 665 566 C665 567 667 567 666 568 C664 573 664 578 662 583 C661 584 663 586 662 587 C659 592 659 598 656 603 C656 604 656 605 656 606 C653 612 650 617 647 623 C645 628 640 631 638 636 C637 638 634 639 634 641 C634 641 635 642 635 642 C635 644 626 644 625 645 C623 646 621 643 619 644 C615 646 612 645 609 646 C608 647 606 645 605 646 C603 647 602 648 601 649 C598 651 592 647 589 649 C584 652 577 651 572 654 C570 655 568 654 566 655 C565 655 564 655 564 656 C564 657 566 665 561 662 C557 660 562 657 563 656"></path>
<path id="" fill="none" stroke="#000000" stroke-width="2.0" stroke-opacity="1.0" stroke-linecap="round" stroke-linejoin="round"  filling="0" d="M302 475 C302 481 303 489 303 496 C303 498 304 502 303 504 C303 505 301 505 301 506 C300 507 301 511 301 513 C301 519 301 526 301 532"></path>
<path id="" fill="none" stroke="#000000" stroke-width="2.0" stroke-opacity="1.0" stroke-linecap="round" stroke-linejoin="round"  filling="0" d="M816 475 C818 477 816 477 817 479 C819 482 820 485 822 488 C823 491 827 490 828 492 C829 494 828 497 829 499 C830 501 832 503 833 505 C835 508 835 513 837 516 C841 524 846 530 850 538 C852 543 855 547 857 552 C858 553 858 555 859 556 C861 557 865 554 866 552 C868 547 872 540 872 534 C872 530 873 523 875 520 C876 518 875 514 875 512 C875 504 876 494 873 487 C872 486 874 485 874 484 C874 483 873 479 872 478 C871 477 873 474 873 472 C873 466 873 460 873 454 C873 448 870 441 868 436 C867 435 869 433 868 432 C866 429 867 425 867 422 C867 421 865 418 865 417 C864 416 866 414 865 413 C863 409 863 405 861 401 C860 400 862 397 861 396 C857 389 860 379 856 372 C855 370 857 368 856 366 C854 362 854 358 852 354 C851 353 853 349 853 347 C853 344 851 339 850 337 C849 335 852 334 851 332 C850 329 849 327 848 324 C847 323 849 321 848 320 C844 312 841 304 837 296 C832 287 823 280 819 271 C818 269 815 267 814 265 C812 261 808 259 806 255 C805 253 802 251 800 250 C798 249 796 245 795 243 C792 237 785 234 782 228 C780 225 776 222 773 219 C768 214 763 210 759 206 C755 202 752 198 747 195 C743 193 738 186 735 183 C728 176 722 169 714 165 C711 163 708 160 705 158 C694 153 683 148 673 143 C672 142 670 144 669 143 C665 141 660 140 656 138 C654 137 652 139 650 138 C649 137 647 137 646 136 C644 135 643 137 642 137 C637 137 632 137 627 137 C626 137 621 136 621 136 C614 140 604 138 597 142 C593 144 588 143 584 145 C583 146 581 144 580 145 C576 147 572 149 568 151 C565 152 564 149 562 148 C556 145 549 141 543 138 C542 138 541 138 540 138 C536 136 530 132 525 132 C525 132 525 135 525 135 C524 136 522 137 521 136 C519 135 519 132 518 131 C516 129 512 130 510 129 C509 129 509 127 508 127 C507 126 505 127 503 126 C502 125 499 127 498 126 C495 125 494 121 491 120 C490 119 488 119 487 118"></path>
<path id="" fill="none" stroke="#000000" stroke-width="2.0" stroke-opacity="1.0" stroke-linecap="round" stroke-linejoin="round"  filling="0" d="M349 495 C351 493 348 487 347 485 C346 483 344 483 343 482"></path>
<path id="" fill="none" stroke="#000000" stroke-width="2.0" stroke-opacity="1.0" stroke-linecap="round" stroke-linejoin="round"  filling="0" d="M407 496 C407 498 405 500 406 502 C407 504 406 508 407 510 C409 515 409 520 411 525 C412 526 410 529 411 530 C412 533 412 537 413 540 C415 544 415 548 417 551 C417 552 420 554 420 555 C420 557 418 561 419 564 C422 569 422 575 424 580 C425 581 423 584 424 585 C426 589 425 593 427 597 C429 600 426 606 428 609 C429 611 428 615 429 617 C432 623 433 638 430 644 C429 646 430 651 429 653 C429 654 427 658 426 658 C423 659 419 658 416 660 C414 661 411 659 409 660 C406 661 403 660 400 661 C397 663 395 663 391 663 C390 663 386 662 385 663 C384 664 383 665 382 666 C381 667 379 666 377 667 C374 668 371 666 369 667 C368 668 365 666 364 667 C362 668 358 669 355 669 C354 669 350 669 350 670 C350 673 355 675 357 676 C359 677 359 679 361 680 C365 682 371 689 373 693 C376 699 379 706 382 712 C383 714 383 717 384 719 C386 723 383 731 381 734 C381 735 381 736 381 737 C380 739 378 742 377 744 C375 747 371 749 369 753 C363 765 348 773 337 779 C335 780 331 779 329 780 C322 784 306 779 302 772 C300 769 298 766 296 762 C293 757 292 750 289 745 C285 736 284 726 280 717 C277 712 279 705 276 700 C275 698 277 696 276 694 C275 692 274 685 275 683 C276 680 275 676 278 675 C279 675 280 675 281 675 C283 674 287 673 289 673 C290 673 294 674 295 673 C298 672 300 672 302 672 C303 672 308 671 309 670 C310 669 310 671 311 671 C313 672 319 671 321 671 C327 671 332 671 337 669 C338 668 340 670 341 669 C343 668 342 666 342 665"></path>
<path id="" fill="none" stroke="#000000" stroke-width="2.0" stroke-opacity="1.0" stroke-linecap="round" stroke-linejoin="round"  filling="0" d="M544 498 C544 506 545 515 545 523 C545 527 546 531 544 534 C542 538 545 544 543 548 C542 550 544 552 543 554 C541 558 542 563 540 567 C540 568 541 568 541 569 C541 570 540 574 539 575 C538 578 538 582 537 585 C536 587 537 592 536 594 C533 600 532 608 529 614 C528 616 529 618 528 620 C525 626 523 631 520 637 C518 642 514 646 511 651 C507 659 501 666 497 674 C496 677 492 679 491 682 C489 685 486 690 482 690 C482 690 482 685 482 685 C482 681 483 674 485 671 C486 670 484 664 483 663 C482 661 484 659 483 657 C481 652 481 647 479 642 C475 633 471 624 467 615 C463 608 458 602 454 595 C453 594 452 593 451 592 C449 588 445 584 443 580 C442 578 440 578 439 576 C435 568 427 561 421 555"></path>
<path id="" fill="none" stroke="#000000" stroke-width="2.0" stroke-opacity="1.0" stroke-linecap="round" stroke-linejoin="round"  filling="0" d="M196 522 C196 525 195 532 194 535 C193 538 194 542 193 545 C192 546 193 550 193 552 C193 558 193 563 193 569 C193 573 191 582 193 585 C194 587 193 590 194 592 C197 597 195 605 198 610 C199 611 197 613 198 614 C200 617 199 621 201 624 C203 628 203 631 205 635 C206 636 204 638 205 639 C207 643 206 647 208 651 C212 659 213 670 217 678 C218 681 224 679 226 680 C227 681 229 679 230 681 C231 682 229 685 230 686 C233 692 234 699 237 705 C239 708 242 711 244 714 C246 717 248 720 250 723 C251 726 252 728 253 731 C254 734 258 738 258 741"></path>
<path id="" fill="none" stroke="#000000" stroke-width="2.0" stroke-opacity="1.0" stroke-linecap="round" stroke-linejoin="round"  filling="0" d="M372 576 C369 576 368 582 369 584 C372 589 375 594 378 599 C381 604 386 608 389 613 C394 622 401 631 409 639 C411 641 413 645 416 647 C420 649 423 652 426 655"></path>
<path id="" fill="none" stroke="#000000" stroke-width="2.0" stroke-opacity="1.0" stroke-linecap="round" stroke-linejoin="round"  filling="0" d="M99 584 C101 584 103 581 104 580"></path>
<path id="" fill="none" stroke="#000000" stroke-width="2.0" stroke-opacity="1.0" stroke-linecap="round" stroke-linejoin="round"  filling="0" d="M832 605 C834 607 832 608 833 610 C836 616 833 625 833 632 C833 634 832 638 833 639 C833 639 834 640 834 640 C834 641 831 640 831 641 C831 642 831 644 831 645 C831 653 831 662 831 670 C831 677 830 685 830 691 C830 699 831 705 828 712 C828 713 829 713 829 714 C829 717 827 722 826 725 C825 726 828 730 827 732 C825 736 825 742 823 746 C823 747 823 748 823 749 C822 751 821 752 820 754 C819 757 819 761 818 764 C817 767 817 771 816 774 C815 775 818 776 817 778 C815 782 815 786 813 790 C812 791 814 794 813 795 C813 796 811 795 811 796 C811 797 812 797 812 798 C812 799 809 800 809 801 C809 804 811 806 808 809 C807 810 807 811 806 811 C805 811 805 809 804 809 C804 809 803 810 803 810 C801 810 797 806 795 804 C793 802 791 799 789 799"></path>
<path id="" fill="none" stroke="#000000" stroke-width="2.0" stroke-opacity="1.0" stroke-linecap="round" stroke-linejoin="round"  filling="0" d="M623 648 C623 648 624 647 624 647"></path>
<path id="" fill="none" stroke="#000000" stroke-width="2.0" stroke-opacity="1.0" stroke-linecap="round" stroke-linejoin="round"  filling="0" d="M330 650 C328 652 324 652 323 649 C321 645 320 640 318 636 C317 634 314 633 313 631 C308 621 308 607 303 597 C302 595 303 593 302 591 C302 590 300 590 300 589 C299 586 301 583 299 581"></path>
<path id="" fill="none" stroke="#000000" stroke-width="2.0" stroke-opacity="1.0" stroke-linecap="round" stroke-linejoin="round"  filling="0" d="M434 657 C433 658 434 658 433 659 C431 661 427 657 426 659 C425 660 427 663 426 664 C424 668 423 673 420 676"></path>
<path id="" fill="none" stroke="#000000" stroke-width="2.0" stroke-opacity="1.0" stroke-linecap="round" stroke-linejoin="round"  filling="0" d="M224 664 C226 662 228 659 231 657 C232 656 234 657 235 656 C239 654 240 648 243 645"></path>
<path id="" fill="none" stroke="#000000" stroke-width="2.0" stroke-opacity="1.0" stroke-linecap="round" stroke-linejoin="round"  filling="0" d="M235 669 C233 671 233 669 231 670 C230 671 226 677 226 678"></path>
<path id="" fill="none" stroke="#000000" stroke-width="2.0" stroke-opacity="1.0" stroke-linecap="round" stroke-linejoin="round"  filling="0" d="M449 669 C443 669 438 665 433 660"></path>
<path id="" fill="none" stroke="#000000" stroke-width="2.0" stroke-opacity="1.0" stroke-linecap="round" stroke-linejoin="round"  filling="0" d="M804 695 C804 697 805 701 806 703 C807 705 805 708 805 710 C805 710 808 710 808 710 C809 710 811 711 811 712 C813 715 812 720 814 723 C815 725 814 731 813 733 C812 735 814 737 813 739 C812 741 812 743 811 745 C810 747 812 749 811 751 C809 755 809 759 809 763 C809 764 807 765 808 766 C809 768 810 777 809 780 C807 785 807 791 807 795 C807 796 805 798 805 799 C805 800 806 800 806 801 C806 803 804 806 804 808"></path>
<path id="" fill="none" stroke="#000000" stroke-width="2.0" stroke-opacity="1.0" stroke-linecap="round" stroke-linejoin="round"  filling="0" d="M424 726 C428 726 432 724 435 722 C439 720 444 719 448 717 C451 716 453 718 456 717 C458 716 458 713 459 712 C461 710 465 708 467 707 C470 705 472 700 476 700 C479 700 475 706 474 707 C470 711 463 717 457 717"></path>
<path id="" fill="none" stroke="#000000" stroke-width="2.0" stroke-opacity="1.0" stroke-linecap="round" stroke-linejoin="round"  filling="0" d="M766 733 C763 736 759 742 757 746 C754 752 745 756 742 762 C741 765 737 767 736 770 C735 771 733 771 733 772 C733 772 734 773 734 773 C734 776 730 780 729 783 C728 785 725 786 724 788 C723 789 723 790 722 791 C718 793 717 790 716 787 C716 786 717 785 715 785 C712 785 710 789 708 790 C704 792 699 796 695 798 C693 799 691 802 689 803 C686 804 684 806 681 807 C675 810 667 809 661 812 C659 813 657 814 655 815 C654 815 653 815 652 815 C651 815 651 817 650 816 C646 814 653 809 654 807 C656 802 660 799 664 795 C665 794 667 791 668 792 C670 793 669 795 671 797"></path>
<path id="" fill="none" stroke="#000000" stroke-width="2.0" stroke-opacity="1.0" stroke-linecap="round" stroke-linejoin="round"  filling="0" d="M176 734 C182 734 185 730 190 727 C196 724 204 716 207 710 C208 708 211 706 212 704 C213 701 216 699 217 696 C218 694 218 692 220 691 C225 689 225 696 227 698 C228 699 227 700 228 700 C230 700 231 698 233 698"></path>
<path id="" fill="none" stroke="#000000" stroke-width="2.0" stroke-opacity="1.0" stroke-linecap="round" stroke-linejoin="round"  filling="0" d="M855 737 C859 733 855 726 857 721 C858 720 859 719 860 718 C860 717 860 716 860 715 C862 711 861 704 861 699 C861 697 862 692 861 690 C861 689 859 689 860 688 C861 686 861 685 862 683 C863 681 861 679 862 677 C866 669 865 659 865 649 C865 645 866 640 864 637 C864 636 866 631 866 630 C867 629 865 628 865 627 C864 625 866 620 865 618 C862 612 863 603 863 596 C863 594 864 590 863 588 C862 586 862 585 861 583 C860 582 862 579 861 578 C858 571 859 565 859 557"></path>
<path id="" fill="none" stroke="#000000" stroke-width="2.0" stroke-opacity="1.0" stroke-linecap="round" stroke-linejoin="round"  filling="0" d="M209 766 C221 778 233 787 247 794 C249 795 253 800 254 802 C254 803 254 804 254 805 C257 811 260 816 263 822 C268 832 278 841 283 851 C285 855 290 859 292 863 C295 869 303 873 306 879 C308 883 313 884 315 888 C319 896 329 904 337 908 C339 909 346 913 345 916 C344 917 336 918 335 917 C332 915 327 915 324 913 C318 910 313 907 307 904 C303 902 299 899 295 897 C294 896 292 898 291 897 C290 896 286 892 285 891 C284 890 284 888 283 887 C277 884 271 881 265 878 C260 876 257 870 252 868 C245 865 242 855 235 852 C232 851 230 847 227 845 C223 843 221 838 217 836 C213 834 208 829 205 826"></path>
<path id="" fill="none" stroke="#000000" stroke-width="2.0" stroke-opacity="1.0" stroke-linecap="round" stroke-linejoin="round"  filling="0" d="M664 773 C666 775 667 781 667 784 C667 785 668 788 668 788 C668 788 671 786 671 786 C675 784 679 779 683 777 C684 777 684 775 685 775 C690 775 694 785 697 788"></path>
<path id="" fill="none" stroke="#000000" stroke-width="2.0" stroke-opacity="1.0" stroke-linecap="round" stroke-linejoin="round"  filling="0" d="M716 773 C716 777 715 781 715 784"></path>
<path id="" fill="none" stroke="#000000" stroke-width="2.0" stroke-opacity="1.0" stroke-linecap="round" stroke-linejoin="round"  filling="0" d="M682 781 C683 780 683 780 683 778"></path>
<path id="" fill="none" stroke="#000000" stroke-width="2.0" stroke-opacity="1.0" stroke-linecap="round" stroke-linejoin="round"  filling="0" d="M877 801 C877 805 873 808 871 812 C869 816 865 821 863 825 C862 828 858 829 857 832 C851 843 840 852 834 864 C832 868 826 871 824 875 C822 880 816 883 814 888 C813 890 812 892 810 893 C809 894 807 893 806 894 C804 896 803 901 802 904 C799 909 796 916 792 920"></path>
<path id="" fill="none" stroke="#000000" stroke-width="2.0" stroke-opacity="1.0" stroke-linecap="round" stroke-linejoin="round"  filling="0" d="M117 804 C119 802 117 799 116 797 C115 795 117 793 116 791 C114 787 115 782 113 778 C112 777 114 775 113 774 C111 770 111 767 109 763 C109 762 109 761 109 760 C106 755 106 749 103 744 C102 742 104 738 103 736 C100 731 101 724 101 717 C101 705 101 692 101 680"></path>
<path id="" fill="none" stroke="#000000" stroke-width="2.0" stroke-opacity="1.0" stroke-linecap="round" stroke-linejoin="round"  filling="0" d="M311 805 C314 808 316 815 316 819 C316 820 316 824 316 824 C316 824 310 824 310 824 C307 823 305 820 302 819 C300 818 296 819 294 818 C289 815 283 814 278 811 C271 808 262 801 254 801"></path>
<path id="" fill="none" stroke="#000000" stroke-width="2.0" stroke-opacity="1.0" stroke-linecap="round" stroke-linejoin="round"  filling="0" d="M324 825 C322 827 319 826 317 824"></path>
<path id="" fill="none" stroke="#000000" stroke-width="2.0" stroke-opacity="1.0" stroke-linecap="round" stroke-linejoin="round"  filling="0" d="M802 832 C803 831 804 830 805 829 C806 828 804 826 804 825 C804 822 805 818 806 816 C807 815 805 813 806 812"></path>
<path id="" fill="none" stroke="#000000" stroke-width="2.0" stroke-opacity="1.0" stroke-linecap="round" stroke-linejoin="round"  filling="0" d="M39 842 C39 840 36 837 34 837"></path>
<path id="" fill="none" stroke="#000000" stroke-width="2.0" stroke-opacity="1.0" stroke-linecap="round" stroke-linejoin="round"  filling="0" d="M324 845 C324 843 321 840 319 838 C316 835 311 829 311 825"></path>
<path id="" fill="none" stroke="#000000" stroke-width="2.0" stroke-opacity="1.0" stroke-linecap="round" stroke-linejoin="round"  filling="0" d="M121 856 C122 857 124 857 125 859 C127 863 127 869 129 873 C129 874 129 875 129 876 C130 877 133 879 133 880 C133 881 131 884 132 886 C135 892 134 901 137 907 C138 909 136 911 137 913 C139 916 138 921 140 924 C141 926 139 929 139 931 C139 933 142 936 143 938 C144 939 142 939 142 940 C142 941 143 945 143 946 C144 948 144 952 145 954 C147 958 148 962 148 966"></path>
<path id="" fill="none" stroke="#000000" stroke-width="2.0" stroke-opacity="1.0" stroke-linecap="round" stroke-linejoin="round"  filling="0" d="M649 878 C657 878 662 872 665 866 C667 863 670 860 672 857 C673 856 674 855 675 854 C677 850 681 845 683 841 C684 838 688 837 689 834 C693 827 699 820 703 813 C704 811 707 810 708 808 C710 803 716 797 720 793"></path>
<path id="" fill="none" stroke="#000000" stroke-width="2.0" stroke-opacity="1.0" stroke-linecap="round" stroke-linejoin="round"  filling="0" d="M296 885 C292 885 288 884 285 887"></path>
<path id="" fill="none" stroke="#000000" stroke-width="2.0" stroke-opacity="1.0" stroke-linecap="round" stroke-linejoin="round"  filling="0" d="M194 905 C192 907 193 913 193 916 C193 923 192 931 195 937 C196 939 195 942 196 944 C197 946 195 948 196 950 C197 952 200 963 198 964 C196 965 193 962 192 961 C188 957 183 952 180 947 C178 942 172 938 170 933 C169 931 167 931 166 929 C163 923 157 917 154 911 C152 908 151 904 148 901 C145 898 142 893 140 889 C140 888 139 887 138 886 C138 886 138 885 138 885 C137 885 136 887 134 887"></path>
<path id="" fill="none" stroke="#000000" stroke-width="2.0" stroke-opacity="1.0" stroke-linecap="round" stroke-linejoin="round"  filling="0" d="M732 924 C732 926 731 927 730 928 C729 929 731 931 730 932 C728 935 728 938 726 941 C725 942 723 942 722 943 C720 944 718 947 717 948 C710 955 702 962 698 971 C695 977 692 984 689 991 C688 994 688 997 686 999"></path>
<path id="" fill="none" stroke="#000000" stroke-width="2.0" stroke-opacity="1.0" stroke-linecap="round" stroke-linejoin="round"  filling="0" d="M377 927 C374 930 372 924 369 923 C365 921 360 922 356 920 C353 918 349 917 345 917"></path>
<path id="" fill="none" stroke="#000000" stroke-width="2.0" stroke-opacity="1.0" stroke-linecap="round" stroke-linejoin="round"  filling="0" d="M204 981 C206 979 205 976 205 978"></path>
<path id="" fill="none" stroke="#000000" stroke-width="2.0" stroke-opacity="1.0" stroke-linecap="round" stroke-linejoin="round"  filling="0" d="M547 982 C546 983 544 984 542 985 C540 986 537 984 535 985 C531 987 524 988 520 986 C519 986 517 984 517 983 C517 983 517 982 517 982 C510 982 502 986 495 983 C491 981 485 986 483 984"></path>
<path id="" fill="none" stroke="#000000" stroke-width="2.0" stroke-opacity="1.0" stroke-linecap="round" stroke-linejoin="round"  filling="0" d="M217 984 C214 984 209 980 207 978"></path>
<path id="" fill="none" stroke="#000000" stroke-width="2.0" stroke-opacity="1.0" stroke-linecap="round" stroke-linejoin="round"  filling="0" d="M717 1001 C717 1003 718 1004 719 1006 C720 1007 718 1009 720 1010 C721 1011 721 1009 722 1009 C724 1008 728 1003 729 1000 C733 993 734 985 738 978 C738 977 738 976 738 975 C738 974 740 974 739 973 C739 972 737 972 738 971 C739 968 741 965 742 962 C743 961 744 960 745 959 C748 953 755 947 758 941 C759 939 761 939 762 937 C772 918 789 901 799 882 C800 879 803 876 805 874 C806 873 808 872 809 871 C810 869 809 866 810 864 C812 860 812 847 810 843 C809 841 810 839 809 837 C808 835 810 829 806 829"></path>
<path id="" fill="none" stroke="#000000" stroke-width="2.0" stroke-opacity="1.0" stroke-linecap="round" stroke-linejoin="round"  filling="0" d="M29 729 C27 731 30 732 29 734 C28 736 28 740 27 742 C26 745 27 754 27 758 C27 773 25 790 31 803 C33 808 29 815 31 819 C32 821 30 824 34 824"></path>
<path id="" fill="none" stroke="#000000" stroke-width="2.0" stroke-opacity="1.0" stroke-linecap="round" stroke-linejoin="round"  filling="0" d="M340 123 C342 121 345 122 347 121 C351 119 356 118 360 116 C362 115 366 116 368 115 C370 114 373 114 375 113 C376 113 376 111 377 112 C378 113 382 114 384 113 C390 110 395 111 402 111 C411 111 421 111 430 111 C435 111 440 111 445 111 C447 111 448 109 450 110 C452 111 454 112 456 113 C457 114 459 112 460 113 C467 117 476 118 485 118"></path>
<path id="" fill="none" stroke="#000000" stroke-width="2.0" stroke-opacity="1.0" stroke-linecap="round" stroke-linejoin="round"  filling="0" d="M499 213 C499 215 498 216 497 217 C496 218 497 222 497 223"></path>
<path id="" fill="none" stroke="#000000" stroke-width="2.0" stroke-opacity="1.0" stroke-linecap="round" stroke-linejoin="round"  filling="0" d="M723 685 C723 686 722 690 722 690 C724 693 724 699 722 702 C721 703 723 706 722 707 C721 710 720 713 719 716 C718 719 718 722 717 725 C715 729 712 733 710 737 C708 741 703 744 701 748 C698 753 695 759 692 764 C690 768 685 770 685 774"></path>
<path id="" fill="none" stroke="#000000" stroke-width="2.0" stroke-opacity="1.0" stroke-linecap="round" stroke-linejoin="round"  filling="0" d="M509 225 C506 225 502 225 499 225"></path>
<path id="" fill="none" stroke="#000000" stroke-width="2.0" stroke-opacity="1.0" stroke-linecap="round" stroke-linejoin="round"  filling="0" d="M33 709 C33 715 29 722 29 728"></path>
<path id="" fill="none" stroke="#000000" stroke-width="2.0" stroke-opacity="1.0" stroke-linecap="round" stroke-linejoin="round"  filling="0" d="M518 227 C516 227 512 227 510 225"></path>
<path id="" fill="none" stroke="#000000" stroke-width="2.0" stroke-opacity="1.0" stroke-linecap="round" stroke-linejoin="round"  filling="0" d="M612 727 C609 724 607 717 605 713 C601 706 599 698 595 691 C594 688 595 684 594 681 C591 676 593 667 595 662 C597 658 595 653 598 650"></path>
<path id="" fill="none" stroke="#000000" stroke-width="2.0" stroke-opacity="1.0" stroke-linecap="round" stroke-linejoin="round"  filling="0" d="M728 639 C728 641 727 644 726 646 C725 648 727 651 726 653 C725 655 725 656 724 658 C724 658 725 664 725 665 C725 668 726 674 725 676 C724 678 723 682 723 684"></path>
<path id="" fill="none" stroke="#000000" stroke-width="2.0" stroke-opacity="1.0" stroke-linecap="round" stroke-linejoin="round"  filling="0" d="M502 201 C502 205 499 209 499 212"></path>
<path id="" fill="none" stroke="#000000" stroke-width="2.0" stroke-opacity="1.0" stroke-linecap="round" stroke-linejoin="round"  filling="0" d="M569 238 C573 238 577 239 580 241 C581 241 582 241 583 241 C587 243 591 243 595 245 C596 246 599 244 600 245 C605 247 610 247 615 249 C616 250 619 248 620 249 C623 250 626 250 629 251 C631 252 633 250 635 251 C639 253 645 253 649 255 C650 256 652 254 653 255 C659 258 665 260 671 263 C673 264 677 264 679 265 C687 269 694 273 702 277 C706 279 710 284 714 286 C719 288 720 296 724 298 C730 301 734 309 737 314 C739 319 745 321 747 326 C751 334 755 342 759 350 C762 356 768 359 771 365 C775 372 779 379 783 386 C784 388 788 390 789 392 C792 398 797 404 800 411 C801 413 803 413 804 415 C807 421 812 427 815 434 C817 439 819 444 821 449 C822 451 825 452 826 454 C827 457 826 461 827 464 C828 466 829 467 830 469 C831 471 830 474 829 475 C828 477 829 482 829 484 C829 487 831 489 829 491"></path>
<path id="" fill="none" stroke="#000000" stroke-width="2.0" stroke-opacity="1.0" stroke-linecap="round" stroke-linejoin="round"  filling="0" d="M616 939 C619 939 620 937 622 936 C626 934 632 932 636 930 C638 929 639 927 641 926 C650 922 658 916 667 912 C673 909 678 901 684 898 C690 895 699 888 702 882 C704 879 707 876 709 873 C712 868 714 862 717 857 C718 855 722 849 719 848 C718 847 717 849 716 849 C712 851 709 853 705 855 C699 858 694 861 688 864 C685 865 682 866 679 867 C673 870 668 874 661 874"></path>
<path id="" fill="none" stroke="#000000" stroke-width="2.0" stroke-opacity="1.0" stroke-linecap="round" stroke-linejoin="round"  filling="0" d="M526 139 C534 147 545 148 554 153 C557 154 565 157 565 152"></path>
<path id="" fill="none" stroke="#000000" stroke-width="2.0" stroke-opacity="1.0" stroke-linecap="round" stroke-linejoin="round"  filling="0" d="M234 661 C234 663 232 668 231 669"></path>
<path id="" fill="none" stroke="#000000" stroke-width="2.0" stroke-opacity="1.0" stroke-linecap="round" stroke-linejoin="round"  filling="0" d="M819 382 C820 383 822 388 821 389 C821 390 819 391 820 392 C821 394 821 395 822 397 C823 399 821 401 822 403 C824 406 823 410 825 413 C826 415 824 420 825 422 C827 426 827 429 827 434 C827 438 827 443 827 447 C827 449 828 451 825 451"></path>
<path id="" fill="none" stroke="#000000" stroke-width="2.0" stroke-opacity="1.0" stroke-linecap="round" stroke-linejoin="round"  filling="0" d="M51 663 C48 666 47 671 45 675 C44 677 45 680 44 682 C41 688 38 694 35 700 C34 702 35 706 33 708"></path>
<path id="" fill="none" stroke="#000000" stroke-width="2.0" stroke-opacity="1.0" stroke-linecap="round" stroke-linejoin="round"  filling="0" d="M693 226 C690 226 686 223 684 222 C678 219 670 218 663 215 C655 211 646 211 638 207 C628 202 619 198 609 193 C605 191 599 191 595 189 C589 186 582 185 576 182 C575 181 574 183 573 183 C567 183 561 180 555 180 C552 180 548 179 546 178 C545 177 542 179 541 178 C539 177 537 177 535 176 C534 175 531 177 530 176 C525 174 517 175 511 175 C509 175 506 174 505 174 C504 174 505 177 505 178 C505 180 505 183 505 185 C505 190 502 195 502 200"></path>
<path id="" fill="none" stroke="#000000" stroke-width="2.0" stroke-opacity="1.0" stroke-linecap="round" stroke-linejoin="round"  filling="0" d="M698 229 C701 229 705 233 707 234 C714 238 721 243 728 247 C732 249 733 254 737 256 C740 258 743 261 745 264 C746 266 748 265 749 267 C750 269 752 272 753 274 C755 279 761 282 763 286 C767 294 774 300 778 308 C780 312 784 314 786 317 C790 325 796 333 800 342 C801 345 805 346 806 349 C810 356 814 363 818 370 C819 372 819 375 818 377 C817 379 819 380 819 381"></path>
<path id="" fill="none" stroke="#000000" stroke-width="2.0" stroke-opacity="1.0" stroke-linecap="round" stroke-linejoin="round"  filling="0" d="M282 610 C280 612 278 615 276 616 C275 616 274 616 273 617"></path>
<path id="" fill="none" stroke="#000000" stroke-width="2.0" stroke-opacity="1.0" stroke-linecap="round" stroke-linejoin="round"  filling="0" d="M699 696 C699 702 701 707 698 713 C698 714 698 715 698 716 C690 732 676 743 660 751 C659 752 656 750 655 751 C642 757 625 748 619 736 C618 734 613 731 613 728"></path>
<path id="" fill="none" stroke="#000000" stroke-width="2.0" stroke-opacity="1.0" stroke-linecap="round" stroke-linejoin="round"  filling="0" d="M293 267 C288 267 284 269 280 271 C278 272 276 270 275 272 C274 274 276 278 275 280 C273 285 273 290 271 295 C267 303 262 310 258 318 C256 322 252 325 250 329 C248 334 240 336 238 341 C237 343 234 349 231 350 C227 352 221 356 221 361"></path>
<path id="" fill="none" stroke="#000000" stroke-width="2.0" stroke-opacity="1.0" stroke-linecap="round" stroke-linejoin="round"  filling="0" d="M655 641 C648 641 643 642 636 642"></path>
<path id="" fill="none" stroke="#000000" stroke-width="2.0" stroke-opacity="1.0" stroke-linecap="round" stroke-linejoin="round"  filling="0" d="M532 230 C529 230 521 229 519 227"></path>
<path id="" fill="none" stroke="#000000" stroke-width="2.0" stroke-opacity="1.0" stroke-linecap="round" stroke-linejoin="round"  filling="0" d="M250 679 C243 679 238 681 231 681"></path>
<path id="" fill="none" stroke="#000000" stroke-width="2.0" stroke-opacity="1.0" stroke-linecap="round" stroke-linejoin="round"  filling="0" d="M318 623 C318 617 317 609 314 604 C313 603 315 601 314 600 C312 596 312 592 310 588 C309 587 311 585 310 584 C308 580 308 575 306 571 C304 568 308 554 302 554"></path>
<path id="" fill="none" stroke="#000000" stroke-width="2.0" stroke-opacity="1.0" stroke-linecap="round" stroke-linejoin="round"  filling="0" d="M76 817 C76 821 77 828 79 832 C80 834 79 839 80 841 C83 848 84 856 87 862 C88 864 89 866 90 868 C91 870 93 870 94 872 C101 887 112 900 119 915 C121 919 126 922 129 925 C130 926 132 928 133 929 C135 930 137 930 138 931"></path>
<path id="" fill="none" stroke="#000000" stroke-width="2.0" stroke-opacity="1.0" stroke-linecap="round" stroke-linejoin="round"  filling="0" d="M425 959 C428 962 436 962 440 964 C450 969 461 971 471 976 C477 979 482 977 487 982"></path>
<path id="" fill="none" stroke="#000000" stroke-width="2.0" stroke-opacity="1.0" stroke-linecap="round" stroke-linejoin="round"  filling="0" d="M261 762 C261 764 262 764 263 765 C265 769 271 772 273 777 C278 786 287 794 292 803 C295 809 301 811 301 818"></path>
<path id="" fill="none" stroke="#000000" stroke-width="2.0" stroke-opacity="1.0" stroke-linecap="round" stroke-linejoin="round"  filling="0" d="M729 774 C730 773 731 773 732 772"></path>
<path id="" fill="none" stroke="#000000" stroke-width="2.0" stroke-opacity="1.0" stroke-linecap="round" stroke-linejoin="round"  filling="0" d="M320 259 C322 257 325 257 328 256 C336 252 344 252 352 248 C354 247 359 248 361 247 C370 242 381 246 390 241 C392 240 396 241 398 240 C402 238 407 237 412 235 C413 235 414 235 415 235 C417 234 415 233 417 232 C421 230 424 229 428 227 C429 226 431 228 432 227 C438 224 447 225 454 225"></path>
<path id="" fill="none" stroke="#000000" stroke-width="2.0" stroke-opacity="1.0" stroke-linecap="round" stroke-linejoin="round"  filling="0" d="M850 695 C850 701 854 707 854 713 C854 716 853 718 856 721"></path>
<path id="" fill="none" stroke="#000000" stroke-width="2.0" stroke-opacity="1.0" stroke-linecap="round" stroke-linejoin="round"  filling="0" d="M200 969 C199 968 199 966 198 965"></path>
<path id="" fill="none" stroke="#000000" stroke-width="2.0" stroke-opacity="1.0" stroke-linecap="round" stroke-linejoin="round"  filling="0" d="M372 944 C370 944 368 943 367 942 C366 942 365 942 364 942 C360 940 357 939 353 937 C351 936 348 936 346 935 C333 929 322 920 309 914 C303 911 292 907 292 898"></path>
<path id="" fill="none" stroke="#000000" stroke-width="2.0" stroke-opacity="1.0" stroke-linecap="round" stroke-linejoin="round"  filling="0" d="M383 948 C381 948 375 946 373 944"></path>
<path id="" fill="none" stroke="#000000" stroke-width="2.0" stroke-opacity="1.0" stroke-linecap="round" stroke-linejoin="round"  filling="0" d="M756 815 C751 820 746 825 741 830 C739 832 736 836 734 837 C728 840 725 843 720 848"></path>
<path id="" fill="none" stroke="#000000" stroke-width="2.0" stroke-opacity="1.0" stroke-linecap="round" stroke-linejoin="round"  filling="0" d="M270 677 C265 677 260 677 256 679 C254 680 253 677 251 679"></path>
<path id="" fill="none" stroke="#000000" stroke-width="2.0" stroke-opacity="1.0" stroke-linecap="round" stroke-linejoin="round"  filling="0" d="M582 953 C584 953 587 951 589 950 C591 949 593 950 595 949 C598 947 602 947 605 945 C608 944 612 940 615 940"></path>
<path id="" fill="none" stroke="#000000" stroke-width="2.0" stroke-opacity="1.0" stroke-linecap="round" stroke-linejoin="round"  filling="0" d="M805 726 C805 735 807 746 803 753 C802 755 803 758 802 760 C800 764 799 767 797 771 C795 775 792 777 790 781 C789 782 788 782 787 783 C784 784 781 788 779 790 C772 797 764 807 757 814"></path>
<path id="" fill="none" stroke="#000000" stroke-width="2.0" stroke-opacity="1.0" stroke-linecap="round" stroke-linejoin="round"  filling="0" d="M286 605 C285 606 284 608 283 609"></path>
<path id="" fill="none" stroke="#000000" stroke-width="2.0" stroke-opacity="1.0" stroke-linecap="round" stroke-linejoin="round"  filling="0" d="M63 630 C61 632 62 635 61 638 C58 643 59 650 56 655 C55 657 52 659 52 662"></path>
<path id="" fill="none" stroke="#000000" stroke-width="2.0" stroke-opacity="1.0" stroke-linecap="round" stroke-linejoin="round"  filling="0" d="M839 657 C839 665 843 672 846 679 C847 681 846 683 847 685 C848 687 850 691 850 694"></path>
<path id="" fill="none" stroke="#000000" stroke-width="2.0" stroke-opacity="1.0" stroke-linecap="round" stroke-linejoin="round"  filling="0" d="M75 803 C75 786 75 768 75 751 C75 747 77 736 74 733"></path>
<path id="" fill="none" stroke="#000000" stroke-width="2.0" stroke-opacity="1.0" stroke-linecap="round" stroke-linejoin="round"  filling="0" d="M557 235 C549 235 541 230 533 230"></path>
<path id="" fill="none" stroke="#000000" stroke-width="2.0" stroke-opacity="1.0" stroke-linecap="round" stroke-linejoin="round"  filling="0" d="M254 753 C257 756 258 759 260 761"></path>
<path id="" fill="none" stroke="#000000" stroke-width="2.0" stroke-opacity="1.0" stroke-linecap="round" stroke-linejoin="round"  filling="0" d="M66 618 C66 617 66 615 66 614"></path>
<path id="" fill="none" stroke="#000000" stroke-width="2.0" stroke-opacity="1.0" stroke-linecap="round" stroke-linejoin="round"  filling="0" d="M238 727 C241 730 242 735 244 738 C246 743 250 748 254 752"></path>
<path id="" fill="none" stroke="#000000" stroke-width="2.0" stroke-opacity="1.0" stroke-linecap="round" stroke-linejoin="round"  filling="0" d="M323 128 C321 128 321 129 319 130 C317 131 314 132 311 133 C310 133 309 133 308 133 C307 134 306 135 304 135"></path>
<path id="" fill="none" stroke="#000000" stroke-width="2.0" stroke-opacity="1.0" stroke-linecap="round" stroke-linejoin="round"  filling="0" d="M719 971 C719 979 719 988 716 994 C716 995 717 995 717 996 C717 997 716 999 717 1000"></path>
<path id="" fill="none" stroke="#000000" stroke-width="2.0" stroke-opacity="1.0" stroke-linecap="round" stroke-linejoin="round"  filling="0" d="M503 149 C503 153 503 158 503 162 C503 163 502 166 503 167 C504 169 505 171 505 173"></path>
<path id="" fill="none" stroke="#000000" stroke-width="2.0" stroke-opacity="1.0" stroke-linecap="round" stroke-linejoin="round"  filling="0" d="M722 959 C722 953 726 948 726 942"></path>
<path id="" fill="none" stroke="#000000" stroke-width="2.0" stroke-opacity="1.0" stroke-linecap="round" stroke-linejoin="round"  filling="0" d="M75 814 C75 815 75 815 76 816"></path>
<path id="" fill="none" stroke="#000000" stroke-width="2.0" stroke-opacity="1.0" stroke-linecap="round" stroke-linejoin="round"  filling="0" d="M272 262 C273 263 275 269 275 271"></path>
<path id="" fill="none" stroke="#000000" stroke-width="2.0" stroke-opacity="1.0" stroke-linecap="round" stroke-linejoin="round"  filling="0" d="M697 686 C697 689 699 692 699 695"></path>
<path id="" fill="none" stroke="#000000" stroke-width="2.0" stroke-opacity="1.0" stroke-linecap="round" stroke-linejoin="round"  filling="0" d="M806 891 C806 886 810 881 810 876 C810 874 812 873 810 871"></path>
<path id="" fill="none" stroke="#000000" stroke-width="2.0" stroke-opacity="1.0" stroke-linecap="round" stroke-linejoin="round"  filling="0" d="M398 952 C403 952 408 954 412 956 C413 957 415 955 416 956 C418 957 422 959 424 959"></path>
<path id="" fill="none" stroke="#000000" stroke-width="2.0" stroke-opacity="1.0" stroke-linecap="round" stroke-linejoin="round"  filling="0" d="M706 601 C708 603 709 605 710 608 C712 612 717 617 720 620 C722 622 724 625 727 625"></path>
<path id="" fill="none" stroke="#000000" stroke-width="2.0" stroke-opacity="1.0" stroke-linecap="round" stroke-linejoin="round"  filling="0" d="M835 483 C835 486 833 486 831 488"></path>
<path id="" fill="none" stroke="#000000" stroke-width="2.0" stroke-opacity="1.0" stroke-linecap="round" stroke-linejoin="round"  filling="0" d="M838 654 C838 655 838 655 838 656"></path>
<path id="" fill="none" stroke="#000000" stroke-width="2.0" stroke-opacity="1.0" stroke-linecap="round" stroke-linejoin="round"  filling="0" d="M717 635 C714 638 709 637 705 639 C703 640 701 638 699 639 C697 640 695 640 693 641 C691 642 689 640 687 641 C685 642 681 643 679 643 C678 643 673 644 673 644 C668 641 662 641 656 641"></path>
<path id="" fill="none" stroke="#000000" stroke-width="2.0" stroke-opacity="1.0" stroke-linecap="round" stroke-linejoin="round"  filling="0" d="M502 146 C502 140 498 133 498 127"></path>
<path id="" fill="none" stroke="#000000" stroke-width="2.0" stroke-opacity="1.0" stroke-linecap="round" stroke-linejoin="round"  filling="0" d="M385 948 C387 950 388 948 390 949 C392 950 395 951 397 951"></path>
<path id="" fill="none" stroke="#000000" stroke-width="2.0" stroke-opacity="1.0" stroke-linecap="round" stroke-linejoin="round"  filling="0" d="M235 658 C235 659 235 659 235 660"></path>
<path id="" fill="none" stroke="#000000" stroke-width="2.0" stroke-opacity="1.0" stroke-linecap="round" stroke-linejoin="round"  filling="0" d="M559 235 C561 237 566 237 568 237"></path>
<path id="" fill="none" stroke="#000000" stroke-width="2.0" stroke-opacity="1.0" stroke-linecap="round" stroke-linejoin="round"  filling="0" d="M325 128 C328 125 335 123 339 123"></path>
<path id="" fill="none" stroke="#000000" stroke-width="2.0" stroke-opacity="1.0" stroke-linecap="round" stroke-linejoin="round"  filling="0" d="M718 781 C718 781 717 781 717 781"></path>
<path id="" fill="none" stroke="#000000" stroke-width="2.0" stroke-opacity="1.0" stroke-linecap="round" stroke-linejoin="round"  filling="0" d="M259 247 C263 247 272 257 272 261"></path>
<path id="" fill="none" stroke="#000000" stroke-width="2.0" stroke-opacity="1.0" stroke-linecap="round" stroke-linejoin="round"  filling="0" d="M805 720 C805 722 805 723 805 725"></path>
<path id="" fill="none" stroke="#000000" stroke-width="2.0" stroke-opacity="1.0" stroke-linecap="round" stroke-linejoin="round"  filling="0" d="M222 684 C222 686 222 688 222 690"></path>
<path id="" fill="none" stroke="#000000" stroke-width="2.0" stroke-opacity="1.0" stroke-linecap="round" stroke-linejoin="round"  filling="0" d="M577 955 C575 955 573 956 572 957 C568 959 563 961 558 963 C557 963 556 963 555 963 C546 968 537 972 528 976 C525 978 521 978 518 981"></path>
<path id="" fill="none" stroke="#000000" stroke-width="2.0" stroke-opacity="1.0" stroke-linecap="round" stroke-linejoin="round"  filling="0" d="M834 476 C836 478 835 480 835 482"></path>
<path id="" fill="none" stroke="#000000" stroke-width="2.0" stroke-opacity="1.0" stroke-linecap="round" stroke-linejoin="round"  filling="0" d="M719 635 C719 635 718 635 718 635"></path>
<path id="" fill="none" stroke="#000000" stroke-width="2.0" stroke-opacity="1.0" stroke-linecap="round" stroke-linejoin="round"  filling="0" d="M720 968 C720 969 720 969 719 970"></path>
<path id="" fill="none" stroke="#000000" stroke-width="2.0" stroke-opacity="1.0" stroke-linecap="round" stroke-linejoin="round"  filling="0" d="M319 627 C319 626 319 625 319 624"></path>
<path id="" fill="none" stroke="#000000" stroke-width="2.0" stroke-opacity="1.0" stroke-linecap="round" stroke-linejoin="round"  filling="0" d="M674 551 C680 557 685 565 689 572 C692 578 697 582 700 588 C702 592 703 597 706 600"></path>
<path id="" fill="none" stroke="#000000" stroke-width="2.0" stroke-opacity="1.0" stroke-linecap="round" stroke-linejoin="round"  filling="0" d="M274 677 C273 677 272 676 271 676"></path>
<path id="" fill="none" stroke="#000000" stroke-width="2.0" stroke-opacity="1.0" stroke-linecap="round" stroke-linejoin="round"  filling="0" d="M838 648 C838 650 839 651 839 653"></path>
<path id="" fill="none" stroke="#000000" stroke-width="2.0" stroke-opacity="1.0" stroke-linecap="round" stroke-linejoin="round"  filling="0" d="M728 633 C729 634 729 637 728 638"></path>
<path id="" fill="none" stroke="#000000" stroke-width="2.0" stroke-opacity="1.0" stroke-linecap="round" stroke-linejoin="round"  filling="0" d="M726 776 C724 778 721 779 719 781"></path>
<path id="" fill="none" stroke="#000000" stroke-width="2.0" stroke-opacity="1.0" stroke-linecap="round" stroke-linejoin="round"  filling="0" d="M292 598 C295 595 295 590 300 590"></path>
<path id="" fill="none" stroke="#000000" stroke-width="2.0" stroke-opacity="1.0" stroke-linecap="round" stroke-linejoin="round"  filling="0" d="M63 628 C63 628 63 629 63 629"></path>
<path id="" fill="none" stroke="#000000" stroke-width="2.0" stroke-opacity="1.0" stroke-linecap="round" stroke-linejoin="round"  filling="0" d="M579 955 C580 954 580 954 581 954"></path>
<path id="" fill="none" stroke="#000000" stroke-width="2.0" stroke-opacity="1.0" stroke-linecap="round" stroke-linejoin="round"  filling="0" d="M289 602 C288 603 288 603 287 604"></path>
<path id="" fill="none" stroke="#000000" stroke-width="2.0" stroke-opacity="1.0" stroke-linecap="round" stroke-linejoin="round"  filling="0" d="M480 695 C480 697 478 699 477 700"></path>
<path id="" fill="none" stroke="#000000" stroke-width="2.0" stroke-opacity="1.0" stroke-linecap="round" stroke-linejoin="round"  filling="0" d="M257 245 C255 245 254 245 254 243"></path>
<path id="" fill="none" stroke="#000000" stroke-width="2.0" stroke-opacity="1.0" stroke-linecap="round" stroke-linejoin="round"  filling="0" d="M75 812 C75 812 75 813 75 813"></path>
<path id="" fill="none" stroke="#000000" stroke-width="2.0" stroke-opacity="1.0" stroke-linecap="round" stroke-linejoin="round"  filling="0" d="M319 631 C319 632 319 634 319 635"></path>
<path id="" fill="none" stroke="#000000" stroke-width="2.0" stroke-opacity="1.0" stroke-linecap="round" stroke-linejoin="round"  filling="0" d="M695 680 C695 681 696 684 697 685"></path>
<path id="" fill="none" stroke="#000000" stroke-width="2.0" stroke-opacity="1.0" stroke-linecap="round" stroke-linejoin="round"  filling="0" d="M314 260 C316 260 317 259 319 259"></path>
<path id="" fill="none" stroke="#000000" stroke-width="2.0" stroke-opacity="1.0" stroke-linecap="round" stroke-linejoin="round"  filling="0" d="M694 677 C691 674 690 669 688 665 C686 662 684 659 682 656 C680 652 674 649 674 645"></path>
<path id="" fill="none" stroke="#000000" stroke-width="2.0" stroke-opacity="1.0" stroke-linecap="round" stroke-linejoin="round"  filling="0" d="M307 262 C309 262 311 261 313 261"></path>
<path id="" fill="none" stroke="#000000" stroke-width="2.0" stroke-opacity="1.0" stroke-linecap="round" stroke-linejoin="round"  filling="0" d="M383 659 C379 655 377 652 373 648"></path>
<path id="" fill="none" stroke="#000000" stroke-width="2.0" stroke-opacity="1.0" stroke-linecap="round" stroke-linejoin="round"  filling="0" d="M222 682 C222 682 222 683 222 683"></path>
<path id="" fill="none" stroke="#000000" stroke-width="2.0" stroke-opacity="1.0" stroke-linecap="round" stroke-linejoin="round"  filling="0" d="M64 625 C64 626 64 626 63 627"></path>
<path id="" fill="none" stroke="#000000" stroke-width="2.0" stroke-opacity="1.0" stroke-linecap="round" stroke-linejoin="round"  filling="0" d="M837 645 C837 646 837 646 838 647"></path>
<path id="" fill="none" stroke="#000000" stroke-width="2.0" stroke-opacity="1.0" stroke-linecap="round" stroke-linejoin="round"  filling="0" d="M720 966 C720 966 720 967 720 967"></path>
<path id="" fill="none" stroke="#000000" stroke-width="2.0" stroke-opacity="1.0" stroke-linecap="round" stroke-linejoin="round"  filling="0" d="M158 367 C161 370 164 371 166 373"></path>
<path id="" fill="none" stroke="#000000" stroke-width="2.0" stroke-opacity="1.0" stroke-linecap="round" stroke-linejoin="round"  filling="0" d="M299 265 C297 265 296 266 294 266"></path>
<path id="" fill="none" stroke="#000000" stroke-width="2.0" stroke-opacity="1.0" stroke-linecap="round" stroke-linejoin="round"  filling="0" d="M805 714 C805 716 805 717 805 719"></path>
<path id="" fill="none" stroke="#000000" stroke-width="2.0" stroke-opacity="1.0" stroke-linecap="round" stroke-linejoin="round"  filling="0" d="M136 882 C137 883 137 883 138 884"></path>
<path id="" fill="none" stroke="#000000" stroke-width="2.0" stroke-opacity="1.0" stroke-linecap="round" stroke-linejoin="round"  filling="0" d="M668 790 C668 790 668 789 668 789"></path>
<path id="" fill="none" stroke="#000000" stroke-width="2.0" stroke-opacity="1.0" stroke-linecap="round" stroke-linejoin="round"  filling="0" d="M65 622 C65 623 65 623 65 624"></path>
<path id="" fill="none" stroke="#000000" stroke-width="2.0" stroke-opacity="1.0" stroke-linecap="round" stroke-linejoin="round"  filling="0" d="M156 365 C153 365 154 362 152 361 C150 360 146 357 144 355"></path>
<path id="" fill="none" stroke="#000000" stroke-width="2.0" stroke-opacity="1.0" stroke-linecap="round" stroke-linejoin="round"  filling="0" d="M75 806 C75 808 74 809 74 811"></path>
<path id="" fill="none" stroke="#000000" stroke-width="2.0" stroke-opacity="1.0" stroke-linecap="round" stroke-linejoin="round"  filling="0" d="M230 707 C235 712 233 721 238 726"></path>
<path id="" fill="none" stroke="#000000" stroke-width="2.0" stroke-opacity="1.0" stroke-linecap="round" stroke-linejoin="round"  filling="0" d="M695 227 C695 227 694 227 694 227"></path>
<path id="" fill="none" stroke="#000000" stroke-width="2.0" stroke-opacity="1.0" stroke-linecap="round" stroke-linejoin="round"  filling="0" d="M229 704 C230 705 230 705 230 706"></path>
<path id="" fill="none" stroke="#000000" stroke-width="2.0" stroke-opacity="1.0" stroke-linecap="round" stroke-linejoin="round"  filling="0" d="M203 973 C204 974 204 974 204 976"></path>
<path id="" fill="none" stroke="#000000" stroke-width="2.0" stroke-opacity="1.0" stroke-linecap="round" stroke-linejoin="round"  filling="0" d="M201 971 C201 971 201 970 201 970"></path>
<path id="" fill="none" stroke="#000000" stroke-width="2.0" stroke-opacity="1.0" stroke-linecap="round" stroke-linejoin="round"  filling="0" d="M671 549 C671 549 670 549 670 549"></path>
<path id="" fill="none" stroke="#000000" stroke-width="2.0" stroke-opacity="1.0" stroke-linecap="round" stroke-linejoin="round"  filling="0" d="M480 692 C480 692 481 691 481 691"></path>
<path id="" fill="none" stroke="#000000" stroke-width="2.0" stroke-opacity="1.0" stroke-linecap="round" stroke-linejoin="round"  filling="0" d="M523 131 C523 131 524 131 524 131"></path>
<path id="" fill="none" stroke="#000000" stroke-width="2.0" stroke-opacity="1.0" stroke-linecap="round" stroke-linejoin="round"  filling="0" d="M837 642 C837 643 837 643 837 644"></path>
<path id="" fill="none" stroke="#000000" stroke-width="2.0" stroke-opacity="1.0" stroke-linecap="round" stroke-linejoin="round"  filling="0" d="M349 670 C347 668 345 670 343 668"></path>
<path id="" fill="none" stroke="#000000" stroke-width="2.0" stroke-opacity="1.0" stroke-linecap="round" stroke-linejoin="round"  filling="0" d="M290 600 C290 600 290 601 290 601"></path>
<path id="" fill="none" stroke="#000000" stroke-width="2.0" stroke-opacity="1.0" stroke-linecap="round" stroke-linejoin="round"  filling="0" d="M302 571 C303 571 304 571 305 571"></path>
<path id="" fill="none" stroke="#000000" stroke-width="2.0" stroke-opacity="1.0" stroke-linecap="round" stroke-linejoin="round"  filling="0" d="M730 632 C730 632 729 633 729 633"></path>
<path id="" fill="none" stroke="#000000" stroke-width="2.0" stroke-opacity="1.0" stroke-linecap="round" stroke-linejoin="round"  filling="0" d="M384 661 C384 661 384 662 384 662"></path>
<path id="" fill="none" stroke="#000000" stroke-width="2.0" stroke-opacity="1.0" stroke-linecap="round" stroke-linejoin="round"  filling="0" d="M835 640 C835 640 836 641 836 641"></path>
<path id="" fill="none" stroke="#000000" stroke-width="2.0" stroke-opacity="1.0" stroke-linecap="round" stroke-linejoin="round"  filling="0" d="M723 634 C722 634 721 635 720 635"></path>
<path id="" fill="none" stroke="#000000" stroke-width="2.0" stroke-opacity="1.0" stroke-linecap="round" stroke-linejoin="round"  filling="0" d="M728 775 C728 775 727 775 727 775"></path>
<path id="" fill="none" stroke="#000000" stroke-width="2.0" stroke-opacity="1.0" stroke-linecap="round" stroke-linejoin="round"  filling="0" d="M725 634 C725 634 724 634 724 634"></path>
<path id="" fill="none" stroke="#000000" stroke-width="2.0" stroke-opacity="1.0" stroke-linecap="round" stroke-linejoin="round"  filling="0" d="M521 130 C520 130 520 130 519 131"></path>
<path id="" fill="none" stroke="#000000" stroke-width="2.0" stroke-opacity="1.0" stroke-linecap="round" stroke-linejoin="round"  filling="0" d="M721 960 C721 962 720 963 720 965"></path>
<path id="" fill="none" stroke="#000000" stroke-width="2.0" stroke-opacity="1.0" stroke-linecap="round" stroke-linejoin="round"  filling="0" d="M66 620 C66 620 66 621 66 621"></path>
<path id="" fill="none" stroke="#000000" stroke-width="2.0" stroke-opacity="1.0" stroke-linecap="round" stroke-linejoin="round"  filling="0" d="M697 228 C697 228 696 228 696 228"></path>
<path id="" fill="none" stroke="#000000" stroke-width="2.0" stroke-opacity="1.0" stroke-linecap="round" stroke-linejoin="round"  filling="0" d="M319 629 C319 629 319 630 319 630"></path>
<path id="" fill="none" stroke="#000000" stroke-width="2.0" stroke-opacity="1.0" stroke-linecap="round" stroke-linejoin="round"  filling="0" d="M301 264 C303 264 304 263 306 263"></path>
<path id="" fill="none" stroke="#000000" stroke-width="2.0" stroke-opacity="1.0" stroke-linecap="round" stroke-linejoin="round"  filling="0" d="M502 148 C502 148 502 147 502 147"></path>
<path id="" fill="none" stroke="#000000" stroke-width="2.0" stroke-opacity="1.0" stroke-linecap="round" stroke-linejoin="round"  filling="0" d="M673 550 C673 550 672 550 672 550"></path>
<path id="" fill="none" stroke="#000000" stroke-width="2.0" stroke-opacity="1.0" stroke-linecap="round" stroke-linejoin="round"  filling="0" d="M805 712 C805 712 805 713 805 713"></path>
<path id="" fill="none" stroke="#000000" stroke-width="2.0" stroke-opacity="1.0" stroke-linecap="round" stroke-linejoin="round"  filling="0" d="M807 801 C807 801 808 801 808 801"></path>
<path id="" fill="none" stroke="#000000" stroke-width="2.0" stroke-opacity="1.0" stroke-linecap="round" stroke-linejoin="round"  filling="0" d="M809 790 C810 790 811 790 812 790"></path>
<path id="" fill="none" stroke="#000000" stroke-width="2.0" stroke-opacity="1.0" stroke-linecap="round" stroke-linejoin="round"  filling="0" d="M806 892 C806 892 806 893 806 893"></path>
<path id="" fill="none" stroke="#000000" stroke-width="2.0" stroke-opacity="1.0" stroke-linecap="round" stroke-linejoin="round"  filling="0" d="M228 701 C228 702 228 702 229 703"></path>
<path id="" fill="none" stroke="#000000" stroke-width="2.0" stroke-opacity="1.0" stroke-linecap="round" stroke-linejoin="round"  filling="0" d="M726 634 C726 634 727 633 727 633"></path>
<path id="" fill="none" stroke="#000000" stroke-width="2.0" stroke-opacity="1.0" stroke-linecap="round" stroke-linejoin="round"  filling="0" d="M75 804 C75 804 75 805 75 805"></path>
<path id="" fill="none" stroke="#000000" stroke-width="2.0" stroke-opacity="1.0" stroke-linecap="round" stroke-linejoin="round"  filling="0" d="M809 795 C809 795 808 795 808 795"></path>
<path id="" fill="none" stroke="#000000" stroke-width="2.0" stroke-opacity="1.0" stroke-linecap="round" stroke-linejoin="round"  filling="0" d="M832 475 C832 475 833 476 833 476"></path>
<path id="" fill="none" stroke="#000000" stroke-width="2.0" stroke-opacity="1.0" stroke-linecap="round" stroke-linejoin="round"  filling="0" d="M480 694 C480 694 480 693 480 693"></path>
<path id="" fill="none" stroke="#000000" stroke-width="2.0" stroke-opacity="1.0" stroke-linecap="round" stroke-linejoin="round"  filling="0" d="M695 679 C695 679 694 678 694 678"></path>
<path id="" fill="none" stroke="#000000" stroke-width="2.0" stroke-opacity="1.0" stroke-linecap="round" stroke-linejoin="round"  filling="0" d="M134 881 C134 881 135 882 135 882"></path>
<path id="" fill="none" stroke="#000000" stroke-width="2.0" stroke-opacity="1.0" stroke-linecap="round" stroke-linejoin="round"  filling="0" d="M524 137 C524 137 525 138 525 138"></path>
<path id="" fill="none" stroke="#000000" stroke-width="2.0" stroke-opacity="1.0" stroke-linecap="round" stroke-linejoin="round"  filling="0" d="M638 429 C638 434 638 441 640 445 C641 447 640 451 641 453 C642 455 641 459 642 461 C644 464 641 469 643 472 C644 474 642 476 643 478 C644 480 644 483 644 486 C644 487 642 488 643 490 C644 492 645 495 645 497 C645 506 645 515 645 524 C645 525 645 527 645 528 C644 529 642 530 643 532 C645 535 644 539 646 542 C647 544 648 542 649 543 C651 544 653 547 655 548 C657 549 658 552 660 550"></path>
<path id="" fill="none" stroke="#000000" stroke-width="2.0" stroke-opacity="1.0" stroke-linecap="round" stroke-linejoin="round"  filling="0" d="M554 439 C556 441 556 443 557 445 C560 452 563 458 566 465 C567 466 565 468 566 469 C568 474 568 479 570 484 C571 487 568 489 569 491 C571 496 571 501 571 507 C571 516 571 524 571 533 C571 541 572 551 569 557 C568 558 570 558 570 559 C570 560 570 565 570 566 C566 575 570 585 566 593 C565 595 569 596 568 598 C567 600 563 607 565 610 C566 612 568 611 569 610 C573 608 577 604 580 601 C584 597 591 590 597 587 C602 584 605 578 610 575 C615 573 622 567 622 561"></path>
<path id="" fill="none" stroke="#000000" stroke-width="2.0" stroke-opacity="1.0" stroke-linecap="round" stroke-linejoin="round"  filling="0" d="M629 628 C635 628 635 618 637 615 C638 613 636 611 637 609 C640 604 638 596 641 591 C642 589 640 587 641 585 C643 581 642 575 644 571 C645 569 642 568 643 567 C646 561 645 551 645 543"></path>
<path id="" fill="none" stroke="#000000" stroke-width="2.0" stroke-opacity="1.0" stroke-linecap="round" stroke-linejoin="round"  filling="0" d="M528 645 C532 641 536 639 540 635 C544 631 551 625 556 622 C557 622 559 619 560 620 C561 621 559 624 559 625 C558 628 557 631 556 634 C555 635 554 636 553 637 C551 641 548 646 546 650 C545 653 541 653 540 655 C536 663 525 672 516 672"></path>
<path id="" fill="none" stroke="#000000" stroke-width="2.0" stroke-opacity="1.0" stroke-linecap="round" stroke-linejoin="round"  filling="0" d="M605 439 C605 441 604 445 605 446 C606 448 608 447 609 449 C610 450 609 452 610 453 C610 454 610 455 610 456 C612 460 612 465 614 469 C618 477 621 485 625 493 C628 498 628 505 631 510 C633 514 635 519 637 524 C638 526 639 529 642 529"></path>
<path id="" fill="none" stroke="#000000" stroke-width="2.0" stroke-opacity="1.0" stroke-linecap="round" stroke-linejoin="round"  filling="0" d="M596 518 C599 515 596 510 598 507 C599 505 600 502 600 500 C600 499 599 497 599 496 C603 489 599 481 602 474 C604 470 601 464 603 460 C605 456 601 449 604 446"></path>
<path id="" fill="none" stroke="#000000" stroke-width="2.0" stroke-opacity="1.0" stroke-linecap="round" stroke-linejoin="round"  filling="0" d="M605 401 C605 407 604 413 604 418 C604 420 605 426 604 428 C603 430 602 436 604 438"></path>
<path id="" fill="none" stroke="#000000" stroke-width="2.0" stroke-opacity="1.0" stroke-linecap="round" stroke-linejoin="round"  filling="0" d="M581 572 C581 574 579 577 578 578 C576 582 575 588 573 592 C572 593 570 595 569 595"></path>
<path id="" fill="none" stroke="#000000" stroke-width="2.0" stroke-opacity="1.0" stroke-linecap="round" stroke-linejoin="round"  filling="0" d="M590 545 C588 547 590 547 589 549 C587 553 586 558 584 562 C584 563 584 564 584 565 C583 567 581 568 581 571"></path>
<path id="" fill="none" stroke="#000000" stroke-width="2.0" stroke-opacity="1.0" stroke-linecap="round" stroke-linejoin="round"  filling="0" d="M595 526 C593 528 595 528 594 530 C592 534 590 540 590 544"></path>
<path id="" fill="none" stroke="#000000" stroke-width="2.0" stroke-opacity="1.0" stroke-linecap="round" stroke-linejoin="round"  filling="0" d="M605 393 C605 395 605 398 605 400"></path>
<path id="" fill="none" stroke="#000000" stroke-width="2.0" stroke-opacity="1.0" stroke-linecap="round" stroke-linejoin="round"  filling="0" d="M564 614 C563 615 561 617 561 619"></path>
<path id="" fill="none" stroke="#000000" stroke-width="2.0" stroke-opacity="1.0" stroke-linecap="round" stroke-linejoin="round"  filling="0" d="M596 521 C596 523 595 523 595 525"></path>
<path id="" fill="none" stroke="#000000" stroke-width="2.0" stroke-opacity="1.0" stroke-linecap="round" stroke-linejoin="round"  filling="0" d="M604 384 C604 387 605 389 605 392"></path>
<path id="" fill="none" stroke="#000000" stroke-width="2.0" stroke-opacity="1.0" stroke-linecap="round" stroke-linejoin="round"  filling="0" d="M605 380 C605 380 604 383 604 383 C605 383 604 381 604 381"></path>
<path id="" fill="none" stroke="#000000" stroke-width="2.0" stroke-opacity="1.0" stroke-linecap="round" stroke-linejoin="round"  filling="0" d="M564 612 C564 612 564 611 564 611"></path>
<path id="" fill="none" stroke="#000000" stroke-width="2.0" stroke-opacity="1.0" stroke-linecap="round" stroke-linejoin="round"  filling="0" d="M596 519 C596 519 596 520 596 520"></path>
<path id="" fill="none" stroke="#000000" stroke-width="2.0" stroke-opacity="1.0" stroke-linecap="round" stroke-linejoin="round"  filling="0" d="M716 455 C719 458 718 463 720 466 C721 469 723 471 723 474 C723 476 725 478 723 480"></path>
<path id="" fill="none" stroke="#000000" stroke-width="2.0" stroke-opacity="1.0" stroke-linecap="round" stroke-linejoin="round"  filling="0" d="M122 643 C122 653 118 668 123 677 C124 679 123 681 124 683 C125 685 123 687 124 689 C126 693 125 697 127 701 C128 703 126 706 127 708 C129 712 128 717 130 721 C131 722 129 724 130 725 C131 727 134 727 135 729 C140 740 146 751 151 762 C152 764 157 764 158 767 C162 774 165 782 169 789 C171 793 174 794 177 796 C179 797 182 803 183 805 C186 811 187 818 190 824 C191 826 190 828 191 830 C192 833 195 834 196 837 C197 839 195 841 196 843 C199 849 201 856 204 862 C209 872 215 881 220 891 C221 894 231 901 228 904"></path>
<path id="" fill="none" stroke="#000000" stroke-width="2.0" stroke-opacity="1.0" stroke-linecap="round" stroke-linejoin="round"  filling="0" d="M153 721 C153 727 153 732 153 738 C153 739 152 743 153 744 C156 749 155 756 158 761 C159 763 157 764 157 765"></path>
<path id="" fill="none" stroke="#000000" stroke-width="2.0" stroke-opacity="1.0" stroke-linecap="round" stroke-linejoin="round"  filling="0" d="M165 759 C170 759 170 766 171 769 C173 773 173 778 175 782 C178 787 179 791 179 797"></path>
<path id="" fill="none" stroke="#000000" stroke-width="2.0" stroke-opacity="1.0" stroke-linecap="round" stroke-linejoin="round"  filling="0" d="M137 835 C137 832 134 827 133 824 C132 822 133 818 132 816 C130 812 130 806 128 802 C127 801 129 800 129 799 C130 797 129 792 129 790 C129 778 129 766 129 754 C129 747 129 741 129 734 C129 732 128 728 130 726"></path>
<path id="" fill="none" stroke="#000000" stroke-width="2.0" stroke-opacity="1.0" stroke-linecap="round" stroke-linejoin="round"  filling="0" d="M251 892 C244 892 240 881 234 878 C228 875 222 867 219 861 C218 859 215 858 214 856 C212 852 207 848 205 844 C204 842 203 840 201 839 C200 838 198 838 197 837"></path>
<path id="" fill="none" stroke="#000000" stroke-width="2.0" stroke-opacity="1.0" stroke-linecap="round" stroke-linejoin="round"  filling="0" d="M155 759 C154 759 153 760 152 760"></path>
<path id="" fill="none" stroke="#000000" stroke-width="2.0" stroke-opacity="1.0" stroke-linecap="round" stroke-linejoin="round"  filling="0" d="M629 774 C633 778 631 786 633 791 C634 792 633 793 632 794"></path>
<path id="" fill="none" stroke="#000000" stroke-width="2.0" stroke-opacity="1.0" stroke-linecap="round" stroke-linejoin="round"  filling="0" d="M505 780 C506 779 506 778 507 777 C510 776 511 780 512 781 C514 785 515 789 512 792"></path>
<path id="" fill="none" stroke="#000000" stroke-width="2.0" stroke-opacity="1.0" stroke-linecap="round" stroke-linejoin="round"  filling="0" d="M485 780 C487 782 487 785 488 787 C489 788 490 789 491 791 C492 793 494 796 496 796"></path>
<path id="" fill="none" stroke="#000000" stroke-width="2.0" stroke-opacity="1.0" stroke-linecap="round" stroke-linejoin="round"  filling="0" d="M387 795 C389 795 392 790 394 791 C397 792 396 796 396 799 C396 803 395 809 393 812 C391 815 394 820 391 823"></path>
<path id="" fill="none" stroke="#000000" stroke-width="2.0" stroke-opacity="1.0" stroke-linecap="round" stroke-linejoin="round"  filling="0" d="M364 800 C361 803 365 812 367 815 C368 817 370 818 368 820"></path>
<path id="" fill="none" stroke="#000000" stroke-width="2.0" stroke-opacity="1.0" stroke-linecap="round" stroke-linejoin="round"  filling="0" d="M335 808 C339 808 336 811 337 813 C338 815 338 819 339 821 C340 823 342 826 342 829"></path>
<path id="" fill="none" stroke="#000000" stroke-width="2.0" stroke-opacity="1.0" stroke-linecap="round" stroke-linejoin="round"  filling="0" d="M520 898 C522 900 526 898 529 899 C536 903 544 908 553 908"></path>
<path id="" fill="none" stroke="#000000" stroke-width="2.0" stroke-opacity="1.0" stroke-linecap="round" stroke-linejoin="round"  filling="0" d="M493 908 C489 912 485 910 481 912 C477 914 473 915 469 917 C467 918 464 922 462 922"></path>
<path id="" fill="none" stroke="#000000" stroke-width="2.0" stroke-opacity="1.0" stroke-linecap="round" stroke-linejoin="round"  filling="0" d="M207 919 C210 922 210 924 211 927 C215 934 216 943 220 950 C225 960 232 966 240 974 C244 978 248 983 252 985 C256 987 258 992 262 994 C270 998 280 1001 288 1005 C290 1006 293 1005 295 1006 C299 1008 304 1009 308 1011 C312 1013 318 1014 322 1016 C324 1017 328 1017 330 1019"></path>
<path id="" fill="none" stroke="#000000" stroke-width="2.0" stroke-opacity="1.0" stroke-linecap="round" stroke-linejoin="round"  filling="0" d="M619 945 C617 947 612 947 610 951 C609 954 610 958 609 961 C607 964 608 969 606 972 C605 973 608 974 607 975 C606 978 606 982 605 985 C604 986 603 990 603 991 C603 992 605 992 606 992 C609 992 615 995 618 993 C622 991 626 995 630 995 C635 995 640 995 644 997 C647 998 654 997 657 997 C659 997 662 998 664 999 C667 1000 670 1000 673 1001 C680 1005 687 1011 694 1015 C697 1017 699 1022 702 1023 C711 1028 719 1035 728 1040 C731 1041 733 1045 736 1046 C762 1059 784 1075 816 1075"></path>
<path id="" fill="none" stroke="#000000" stroke-width="2.0" stroke-opacity="1.0" stroke-linecap="round" stroke-linejoin="round"  filling="0" d="M584 988 C586 990 589 988 592 989 C594 990 596 990 598 991 C599 992 601 990 602 992 C602 993 600 997 600 998 C599 1000 600 1004 599 1006 C598 1008 597 1011 597 1013 C597 1014 596 1016 596 1017 C597 1019 598 1027 597 1030 C597 1031 595 1032 596 1033 C599 1038 602 1044 597 1049"></path>
<path id="" fill="none" stroke="#000000" stroke-width="2.0" stroke-opacity="1.0" stroke-linecap="round" stroke-linejoin="round"  filling="0" d="M299 972 C299 976 301 975 302 978 C306 985 313 991 319 997 C325 1003 331 1012 338 1016 C341 1017 342 1022 344 1023 C346 1024 349 1021 351 1020 C356 1017 362 1017 367 1014 C374 1010 383 1009 390 1005 C392 1004 396 1004 398 1003 C404 1000 413 1006 419 1003 C419 1003 420 1002 420 1002 C420 1002 420 1005 420 1005 C420 1006 421 1007 421 1008 C421 1013 421 1019 421 1024 C421 1026 422 1028 420 1029 C419 1030 416 1029 415 1030 C411 1032 408 1036 404 1038 C402 1039 402 1041 400 1042 C395 1044 391 1048 386 1050 C380 1053 374 1053 368 1056 C367 1056 363 1056 363 1057 C363 1058 365 1060 365 1061 C367 1065 368 1075 374 1075"></path>
<path id="" fill="none" stroke="#000000" stroke-width="2.0" stroke-opacity="1.0" stroke-linecap="round" stroke-linejoin="round"  filling="0" d="M392 1030 C390 1032 387 1032 384 1033 C378 1036 372 1039 366 1042 C359 1045 363 1052 361 1057 C360 1059 355 1059 354 1058"></path>
<path id="" fill="none" stroke="#000000" stroke-width="2.0" stroke-opacity="1.0" stroke-linecap="round" stroke-linejoin="round"  filling="0" d="M416 1042 C419 1039 421 1033 421 1029"></path>
<path id="" fill="none" stroke="#000000" stroke-width="2.0" stroke-opacity="1.0" stroke-linecap="round" stroke-linejoin="round"  filling="0" d="M246 1075 C249 1075 250 1073 252 1072 C256 1070 260 1069 264 1067 C266 1066 267 1064 269 1063 C277 1059 285 1055 293 1051 C294 1051 295 1051 296 1051 C299 1049 303 1049 306 1047 C312 1044 318 1038 324 1035 C331 1032 337 1029 343 1023"></path>
<path id="" fill="none" stroke="#000000" stroke-width="2.0" stroke-opacity="1.0" stroke-linecap="round" stroke-linejoin="round"  filling="0" d="M409 976 C413 980 414 987 417 992 C418 995 420 998 420 1001"></path>
<path id="" fill="none" stroke="#000000" stroke-width="2.0" stroke-opacity="1.0" stroke-linecap="round" stroke-linejoin="round"  filling="0" d="M405 968 C407 970 407 973 409 975"></path>
<path id="" fill="none" stroke="#000000" stroke-width="2.0" stroke-opacity="1.0" stroke-linecap="round" stroke-linejoin="round"  filling="0" d="M409 968 C408 968 402 965 404 967"></path>
<path id="" fill="none" stroke="#000000" stroke-width="2.0" stroke-opacity="1.0" stroke-linecap="round" stroke-linejoin="round"  filling="0" d="M408 969 C408 969 407 969 407 969"></path>
<path id="" fill="none" stroke="#000000" stroke-width="2.0" stroke-opacity="1.0" stroke-linecap="round" stroke-linejoin="round"  filling="0" d="M636 1015 C641 1020 647 1028 650 1034 C651 1035 653 1038 652 1040 C651 1043 644 1040 642 1039 C635 1035 626 1034 619 1030 C615 1028 610 1029 607 1026"></path>
<path id="" fill="none" stroke="#000000" stroke-width="2.0" stroke-opacity="1.0" stroke-linecap="round" stroke-linejoin="round"  filling="0" d="M664 1043 C663 1044 658 1046 657 1046 C656 1046 657 1045 656 1044 C655 1043 654 1042 653 1041"></path>
<path id="" fill="none" stroke="#000000" stroke-width="2.0" stroke-opacity="1.0" stroke-linecap="round" stroke-linejoin="round"  filling="0" d="M653 1074 C655 1072 654 1070 655 1068 C658 1062 657 1054 657 1047"></path>
</svg>