<svg xmlns="http://www.w3.org/2000/svg" viewBox="0 0 878 1076" height="1076.0px" width="878.0px">
<path id="" fill="none" stroke="#000000" stroke-width="2.0" stroke-opacity="1.0" stroke-linecap="round" stroke-linejoin="round"  filling="0" d="M465 85 C469 89 473 93 475 98 C476 99 477 100 478 101 C479 103 479 105 480 107 C481 109 484 113 484 115 C484 115 483 116 483 116 C483 117 484 116 485 116 C486 116 486 117 487 117 C489 118 490 121 491 122 C492 123 493 124 494 125 C494 125 495 125 495 125 C495 126 493 127 494 128 C498 135 500 144 504 151 C506 155 505 160 507 164 C508 167 510 178 510 178 C510 178 510 181 510 181 C510 184 511 189 510 191 C508 194 512 201 510 204 C507 209 506 215 503 220 C502 222 498 224 498 227 C498 229 502 228 503 228 C507 228 512 229 517 229 C521 229 528 229 532 231 C534 232 537 231 539 232 C541 233 543 231 545 232 C549 234 553 233 557 235 C558 236 560 234 561 235 C565 237 570 236 574 238 C579 240 585 240 590 243 C591 243 592 243 593 243 C599 246 605 248 611 251 C613 252 616 250 618 251 C620 252 623 253 625 254 C627 255 627 257 629 258 C631 259 633 257 635 258 C649 265 662 272 676 279 C685 284 693 291 702 296 C704 297 704 299 706 300 C712 303 719 309 724 314 C727 317 730 322 734 324 C739 326 747 334 749 339 C751 342 755 344 756 347 C757 349 759 349 760 351 C764 358 771 363 775 370 C782 383 791 396 798 409 C804 420 807 432 813 443 C815 447 815 452 817 456 C819 459 818 463 820 466 C821 467 824 470 825 469 C827 468 826 463 826 461 C826 454 822 447 822 440 C822 438 821 435 820 433 C819 432 821 430 820 429 C818 425 818 421 816 417 C815 415 816 413 815 411 C812 405 811 397 808 391 C804 383 801 373 797 365 C795 360 791 356 789 351 C776 324 757 300 734 277 C724 267 714 256 703 250 C701 249 701 247 699 246 C691 242 683 235 675 231 C670 228 665 224 660 221 C650 216 639 211 629 206 C623 203 617 202 611 199 C610 199 609 199 608 199 C603 197 598 195 593 193 C591 192 589 193 587 192 C582 190 577 189 572 187 C570 186 566 187 564 186 C561 185 559 182 556 181 C552 179 547 184 543 182 C541 181 538 181 536 180 C534 179 531 181 529 180 C524 178 518 178 512 178"></path>
<path id="" fill="none" stroke="#000000" stroke-width="2.0" stroke-opacity="1.0" stroke-linecap="round" stroke-linejoin="round"  filling="0" d="M518 162 C522 162 525 165 528 166 C533 169 539 170 544 173 C546 174 551 178 551 180"></path>
<path id="" fill="none" stroke="#000000" stroke-width="2.0" stroke-opacity="1.0" stroke-linecap="round" stroke-linejoin="round"  filling="0" d="M609 166 C603 166 595 167 590 169 C589 170 587 168 586 169 C582 171 578 171 574 173 C568 176 562 176 557 181"></path>
<path id="" fill="none" stroke="#000000" stroke-width="2.0" stroke-opacity="1.0" stroke-linecap="round" stroke-linejoin="round"  filling="0" d="M451 226 C451 225 451 225 452 224 C454 223 457 225 459 224 C461 223 464 221 466 220 C469 219 473 213 474 211 C475 209 478 207 479 205 C480 202 482 199 483 196 C484 193 484 190 485 187 C486 186 489 178 487 176 C487 176 483 176 482 176 C477 176 473 176 468 176 C462 176 457 177 452 177 C448 177 443 176 439 178 C438 179 434 178 433 178 C430 178 426 179 423 180 C422 181 418 180 417 180 C414 180 409 181 407 182 C406 183 403 181 402 182 C399 184 394 183 391 185 C390 186 388 184 387 185 C383 187 379 186 375 188 C365 193 351 193 341 198 C335 201 330 202 324 205 C322 206 318 206 316 207 C306 212 296 216 286 221 C277 225 270 231 261 235 C259 236 257 238 255 239 C253 240 255 241 253 242 C251 243 250 241 248 240 C245 239 242 238 239 237 C237 236 236 239 235 238 C227 234 216 241 210 244 C208 245 207 248 205 249 C199 252 194 261 191 266 C190 267 189 268 188 269 C188 270 188 271 188 272 C187 275 186 277 185 280 C184 282 186 284 184 286"></path>
<path id="" fill="none" stroke="#000000" stroke-width="2.0" stroke-opacity="1.0" stroke-linecap="round" stroke-linejoin="round"  filling="0" d="M457 236 C460 236 462 236 464 237 C467 238 470 236 472 236 C474 236 478 237 479 236 C483 234 487 233 491 231 C493 230 494 228 497 228"></path>
<path id="" fill="none" stroke="#000000" stroke-width="2.0" stroke-opacity="1.0" stroke-linecap="round" stroke-linejoin="round"  filling="0" d="M406 239 C408 239 409 235 408 234 C406 233 403 235 401 235 C398 235 395 236 393 237 C392 238 390 236 389 237 C386 238 384 239 381 240 C380 241 378 239 377 240 C370 243 362 244 355 247 C354 247 353 247 352 247 C340 253 327 255 315 261 C303 267 291 274 278 280 C277 281 275 281 274 282 C273 282 271 281 270 282 C270 282 270 286 270 287 C270 289 269 289 268 290 C267 291 269 293 268 294 C266 298 266 302 264 306 C261 311 259 316 256 321 C253 327 247 332 244 338 C241 343 235 346 232 351 C231 354 229 356 228 359 C228 360 226 360 226 361 C226 361 226 362 226 362 C225 362 224 360 222 361 C218 363 212 369 208 373 C207 374 205 377 203 378 C202 378 200 378 200 378 C199 379 200 380 199 381"></path>
<path id="" fill="none" stroke="#000000" stroke-width="2.0" stroke-opacity="1.0" stroke-linecap="round" stroke-linejoin="round"  filling="0" d="M574 362 C574 364 575 366 576 368 C576 369 576 370 576 371 C577 374 578 376 579 379 C580 381 579 384 580 386 C584 395 584 405 588 414 C589 415 587 417 588 418 C591 425 590 434 593 441 C594 443 592 445 593 447 C595 452 594 458 596 463 C597 465 595 467 596 469 C597 470 596 472 597 473 C598 474 600 474 600 475 C600 477 598 481 599 483 C600 484 601 486 600 488 C599 490 598 496 598 498 C598 498 599 499 599 499 C600 500 599 504 599 505 C599 511 599 516 599 522 C599 527 598 532 598 536 C598 540 599 545 597 549 C596 550 597 554 597 555 C597 558 596 563 595 566 C594 568 596 570 595 572 C593 576 594 582 592 586 C590 590 590 593 588 597 C588 597 588 601 587 601 C586 601 585 599 583 600 C581 601 581 605 581 607 C581 608 580 610 581 610 C584 610 587 604 587 602"></path>
<path id="" fill="none" stroke="#000000" stroke-width="2.0" stroke-opacity="1.0" stroke-linecap="round" stroke-linejoin="round"  filling="0" d="M686 365 C689 362 685 359 684 357 C683 356 684 353 683 352 C681 347 678 343 676 338 C670 326 662 314 656 302 C653 296 648 292 645 287 C644 285 642 285 641 283 C640 281 640 277 639 275 C638 274 637 274 636 273 C636 273 635 270 635 269 C633 265 629 264 629 259"></path>
<path id="" fill="none" stroke="#000000" stroke-width="2.0" stroke-opacity="1.0" stroke-linecap="round" stroke-linejoin="round"  filling="0" d="M342 383 C342 392 341 401 341 409 C341 416 342 424 339 429 C338 430 340 431 340 432 C341 434 340 436 339 437 C339 437 340 441 340 442 C340 448 340 454 340 460 C340 462 338 465 339 466 C342 471 340 480 340 486 C340 488 341 490 341 492 C341 494 342 498 340 500 C339 501 336 498 336 497 C334 493 334 487 332 483 C332 482 332 481 332 480 C331 478 330 475 329 473 C328 472 330 470 329 469 C328 467 326 467 325 465 C323 461 326 456 324 452 C323 449 324 445 323 442 C322 439 322 437 321 434 C320 432 322 430 321 428 C320 425 319 421 319 418"></path>
<path id="" fill="none" stroke="#000000" stroke-width="2.0" stroke-opacity="1.0" stroke-linecap="round" stroke-linejoin="round"  filling="0" d="M602 390 C602 396 601 403 604 409 C606 413 603 420 605 425 C607 429 604 436 606 440 C607 442 609 441 610 443 C611 445 611 449 612 451 C613 453 612 456 613 458 C617 467 618 477 622 486 C628 498 632 510 638 522 C640 525 643 520 645 523 C645 524 644 528 644 528 C643 528 640 525 639 524"></path>
<path id="" fill="none" stroke="#000000" stroke-width="2.0" stroke-opacity="1.0" stroke-linecap="round" stroke-linejoin="round"  filling="0" d="M217 410 C220 407 217 403 218 400 C219 397 220 394 221 391 C222 390 220 387 221 386 C222 383 223 380 224 377 C225 375 223 373 224 371 C225 369 226 365 226 363"></path>
<path id="" fill="none" stroke="#000000" stroke-width="2.0" stroke-opacity="1.0" stroke-linecap="round" stroke-linejoin="round"  filling="0" d="M627 435 C627 440 629 446 631 450 C632 451 630 454 631 455 C632 458 633 461 634 464 C635 465 633 467 634 468 C637 474 636 481 639 487 C640 488 638 491 639 492 C640 494 640 496 641 498 C642 499 640 502 641 503 C643 508 644 515 644 521"></path>
<path id="" fill="none" stroke="#000000" stroke-width="2.0" stroke-opacity="1.0" stroke-linecap="round" stroke-linejoin="round"  filling="0" d="M566 441 C566 445 568 450 570 453 C573 458 572 465 575 470 C576 471 574 473 575 474 C576 477 577 479 578 482 C579 483 577 486 578 487 C579 489 579 490 580 492 C581 494 579 496 580 498 C581 500 581 502 582 504 C583 506 581 509 582 511 C583 513 582 517 583 519 C585 523 585 529 585 533 C585 543 588 555 584 564 C583 566 585 568 584 570 C583 572 580 573 579 575 C578 578 578 582 574 584 C569 586 572 576 573 575"></path>
<path id="" fill="none" stroke="#000000" stroke-width="2.0" stroke-opacity="1.0" stroke-linecap="round" stroke-linejoin="round"  filling="0" d="M701 448 C701 451 703 452 704 454 C706 458 708 463 710 467 C716 479 719 494 725 506 C725 507 725 508 725 509 C727 513 727 516 729 520 C732 525 731 532 734 538 C735 539 735 542 737 542 C739 542 739 538 739 537 C739 533 738 530 738 527 C738 526 739 522 738 521 C736 517 737 511 735 506 C734 504 736 501 735 499 C733 495 734 491 732 487 C731 485 733 483 732 481 C730 477 730 471 728 467 C727 466 729 463 728 462 C727 459 725 455 725 452"></path>
<path id="" fill="none" stroke="#000000" stroke-width="2.0" stroke-opacity="1.0" stroke-linecap="round" stroke-linejoin="round"  filling="0" d="M367 457 C367 462 367 467 365 471 C364 474 365 481 365 484 C365 495 365 505 365 516 C365 523 363 533 366 539 C368 543 364 550 366 554 C367 557 368 564 368 567 C368 569 367 573 368 574 C369 576 368 578 369 580 C370 581 371 582 372 584 C373 585 372 587 373 589 C375 592 371 596 372 599 C374 603 374 609 376 613 C377 615 375 619 375 621 C375 623 378 626 379 628 C382 633 384 639 387 645 C388 647 389 648 390 650 C390 651 392 650 392 651 C392 652 391 655 392 657 C393 660 398 662 398 665 C398 666 394 666 394 666 C391 668 385 665 382 667 C379 669 373 666 370 668 C364 671 353 669 346 669 C343 669 337 668 334 669 C330 671 322 670 317 670 C316 670 312 669 311 670 C307 672 300 671 295 671 C288 671 279 672 271 672 C267 672 265 672 262 674 C260 675 257 673 255 674 C252 675 250 678 248 679 C247 679 241 679 241 679 C240 678 244 672 244 671 C244 670 242 670 241 670 C238 670 236 668 232 668"></path>
<path id="" fill="none" stroke="#000000" stroke-width="2.0" stroke-opacity="1.0" stroke-linecap="round" stroke-linejoin="round"  filling="0" d="M662 459 C662 463 662 467 664 470 C665 472 663 474 664 476 C665 478 665 480 666 482 C667 484 666 487 667 489 C669 492 666 497 668 500 C669 502 668 508 668 510 C668 515 669 525 671 530 C673 533 669 536 669 539 C669 543 669 546 668 549 C666 553 669 558 667 562 C666 564 668 568 668 570 C668 570 667 571 667 571 C667 572 668 571 669 571 C671 572 672 573 673 574 C678 579 682 584 688 587 C690 588 692 591 694 591 C695 591 695 587 695 586 C692 581 690 576 687 571 C684 565 682 558 679 552 C679 551 679 550 679 549 C677 544 676 539 672 535"></path>
<path id="" fill="none" stroke="#000000" stroke-width="2.0" stroke-opacity="1.0" stroke-linecap="round" stroke-linejoin="round"  filling="0" d="M851 468 C853 470 852 472 853 474 C855 478 856 484 858 488 C859 491 860 494 861 496 C862 498 865 498 866 500 C868 504 867 509 869 513 C870 515 872 517 873 519 C874 520 872 523 873 524 C876 529 877 535 877 542"></path>
<path id="" fill="none" stroke="#000000" stroke-width="2.0" stroke-opacity="1.0" stroke-linecap="round" stroke-linejoin="round"  filling="0" d="M311 476 C311 481 312 485 312 491 C312 495 312 499 312 503 C312 506 311 513 312 516 C312 517 314 519 315 518 C319 516 319 510 319 506 C319 503 320 500 321 498 C322 495 320 491 321 488 C322 485 323 477 322 475 C321 474 323 474 323 473 C324 471 322 466 325 466"></path>
<path id="" fill="none" stroke="#000000" stroke-width="2.0" stroke-opacity="1.0" stroke-linecap="round" stroke-linejoin="round"  filling="0" d="M549 502 C549 505 550 508 550 511 C550 516 549 523 551 527 C552 529 550 533 550 535 C550 540 551 547 549 551 C547 554 550 560 548 563 C547 565 549 570 548 572 C546 576 547 581 545 585 C544 586 546 589 545 590 C542 596 542 604 539 610 C539 611 539 612 539 613 C535 621 534 630 530 638 C530 639 531 639 531 640 C531 641 529 640 529 640 C529 640 529 641 529 642 C528 643 527 644 526 645 C520 656 515 666 505 676 C503 678 500 683 497 684 C493 686 490 689 486 691 C482 693 477 694 473 696 C472 697 467 696 468 694 C469 692 472 689 473 687 C473 686 476 684 475 683 C474 682 469 684 468 683 C464 681 460 681 456 679 C450 676 444 671 438 668 C435 666 434 662 431 660 C430 659 428 660 427 659 C422 657 418 650 414 646 C412 644 409 642 408 640 C407 637 403 636 402 633 C399 626 392 621 389 614 C388 612 384 610 383 608 C381 604 380 594 374 594"></path>
<path id="" fill="none" stroke="#000000" stroke-width="2.0" stroke-opacity="1.0" stroke-linecap="round" stroke-linejoin="round"  filling="0" d="M193 507 C193 511 194 513 194 517 C194 523 192 527 195 532 C197 537 193 544 195 548 C197 552 194 559 196 564 C197 565 196 569 196 571 C196 576 196 582 198 586 C199 588 197 590 198 592 C199 594 200 600 200 602 C200 604 199 608 200 609 C203 615 201 625 204 631 C205 633 209 631 210 634 C211 637 209 639 208 641 C207 642 209 642 209 643 C210 645 209 649 210 651 C211 654 210 659 211 662 C214 668 213 675 216 681 C219 687 212 687 208 687 C206 687 205 688 204 687"></path>
<path id="" fill="none" stroke="#000000" stroke-width="2.0" stroke-opacity="1.0" stroke-linecap="round" stroke-linejoin="round"  filling="0" d="M407 507 C407 511 407 514 409 518 C410 520 408 524 409 526 C411 530 411 536 413 540 C414 542 409 547 411 551 C413 554 410 559 412 562 C413 565 412 569 413 572 C414 575 413 578 414 581 C417 588 415 597 418 604 C419 607 418 611 419 614 C422 620 421 627 424 633 C425 635 424 638 425 640 C427 643 426 647 428 650 C430 653 431 655 431 659"></path>
<path id="" fill="none" stroke="#000000" stroke-width="2.0" stroke-opacity="1.0" stroke-linecap="round" stroke-linejoin="round"  filling="0" d="M214 512 C214 517 214 521 212 525 C211 526 214 527 213 528 C212 531 212 534 211 537 C209 540 212 545 210 548 C209 550 210 554 210 556 C210 559 210 560 209 562 C207 566 210 573 208 577 C206 580 208 588 208 592 C208 606 209 619 209 632"></path>
<path id="" fill="none" stroke="#000000" stroke-width="2.0" stroke-opacity="1.0" stroke-linecap="round" stroke-linejoin="round"  filling="0" d="M289 522 C289 530 289 540 292 547 C293 548 291 551 292 552 C293 554 293 555 294 557 C295 559 294 563 295 565 C296 567 296 571 297 573 C298 576 301 582 299 586 C293 597 288 608 282 619 C281 621 279 622 278 624 C274 631 268 638 262 644 C260 646 257 650 254 650 C253 650 254 647 254 646 C254 643 256 639 257 637 C257 636 257 635 257 634 C260 629 259 622 262 617 C263 616 261 614 262 613 C263 611 264 607 264 605 C264 604 263 600 264 599 C266 595 267 587 267 582 C267 580 266 574 267 572 C269 569 269 564 269 560 C269 558 268 554 269 553 C271 549 270 543 270 539"></path>
<path id="" fill="none" stroke="#000000" stroke-width="2.0" stroke-opacity="1.0" stroke-linecap="round" stroke-linejoin="round"  filling="0" d="M838 569 C838 573 838 576 839 579 C840 582 839 586 840 589 C841 592 840 596 841 599 C842 601 841 607 840 609 C839 611 840 615 840 617 C840 620 840 624 841 627 C842 628 843 631 842 633 C842 634 840 634 840 635 C840 636 840 637 840 638 C837 644 839 653 836 660 C835 662 837 664 836 666 C835 668 835 669 834 671 C832 675 834 680 832 684 C831 686 828 688 827 690 C826 691 828 693 827 694 C824 700 827 709 824 715 C823 716 824 720 824 721 C824 726 823 730 823 734 C823 735 824 739 823 740 C821 744 822 751 820 755 C819 756 821 759 820 760 C818 763 820 768 818 771 C817 774 816 777 815 780 C814 781 816 783 815 784 C811 792 810 802 806 810 C805 811 803 811 802 812 C801 813 802 816 801 817 C800 818 799 819 798 821 C797 822 799 824 798 825 C794 833 790 841 786 849 C785 850 784 851 783 852 C782 855 776 865 772 865"></path>
<path id="" fill="none" stroke="#000000" stroke-width="2.0" stroke-opacity="1.0" stroke-linecap="round" stroke-linejoin="round"  filling="0" d="M74 572 C74 576 74 580 72 583 C70 586 73 591 71 594 C69 598 72 603 70 607 C69 609 67 610 66 612 C65 613 66 616 66 617 C66 620 65 623 65 626 C65 627 66 631 65 632 C60 641 62 653 57 662 C56 663 58 665 57 666 C52 676 53 687 48 697 C46 700 48 705 46 708 C43 715 43 723 40 730 C39 731 41 733 40 734 C36 741 38 750 34 757 C33 759 35 762 34 764 C33 766 33 767 32 769 C31 771 33 775 32 777 C31 780 30 784 30 787 C30 788 31 792 30 793 C28 797 28 804 30 808 C31 810 29 814 29 816 C29 816 35 816 36 815 C38 812 36 807 38 804 C43 795 42 782 47 773 C49 769 50 763 52 759 C59 746 62 731 69 718 C70 716 71 714 72 713 C73 712 74 712 75 711 C76 708 76 705 77 702 C79 699 81 695 81 691"></path>
<path id="" fill="none" stroke="#000000" stroke-width="2.0" stroke-opacity="1.0" stroke-linecap="round" stroke-linejoin="round"  filling="0" d="M731 621 C730 622 726 625 724 623 C723 622 721 618 719 617 C714 614 709 607 706 602 C704 597 698 594 695 591"></path>
<path id="" fill="none" stroke="#000000" stroke-width="2.0" stroke-opacity="1.0" stroke-linecap="round" stroke-linejoin="round"  filling="0" d="M680 627 C678 629 675 627 673 628 C668 630 662 629 657 631 C656 632 653 630 652 631 C649 633 644 630 641 632 C638 633 635 634 632 635 C630 636 628 634 626 635 C619 639 609 636 602 640 C600 641 596 639 594 640 C590 642 584 643 579 643"></path>
<path id="" fill="none" stroke="#000000" stroke-width="2.0" stroke-opacity="1.0" stroke-linecap="round" stroke-linejoin="round"  filling="0" d="M821 627 C821 632 822 639 824 643 C825 645 823 648 824 650 C826 653 826 661 824 664 C823 665 825 668 825 670 C825 675 823 685 827 689"></path>
<path id="" fill="none" stroke="#000000" stroke-width="2.0" stroke-opacity="1.0" stroke-linecap="round" stroke-linejoin="round"  filling="0" d="M763 635 C763 635 760 637 759 637 C758 637 758 636 757 636 C755 637 747 639 744 638 C744 638 743 637 743 637 C742 637 742 639 742 640 C741 642 739 641 738 643 C736 647 739 655 737 659 C736 661 736 663 735 665 C734 667 736 669 735 671 C733 675 734 680 732 684 C728 693 727 704 723 713 C721 717 719 721 717 725 C716 726 717 729 716 730 C715 732 714 730 713 732 C713 733 713 734 713 735 C710 742 705 747 702 754 C698 763 687 769 683 778 C682 780 677 783 675 784 C674 785 673 783 672 783 C671 783 671 790 671 790 C670 791 668 790 667 791 C665 792 666 795 665 796 C663 798 659 794 658 797 C657 798 656 799 656 800 C656 802 657 804 655 806"></path>
<path id="" fill="none" stroke="#000000" stroke-width="2.0" stroke-opacity="1.0" stroke-linecap="round" stroke-linejoin="round"  filling="0" d="M121 644 C121 646 123 650 122 653 C121 656 122 656 122 659 C122 664 121 670 123 674 C124 677 123 680 124 683 C125 684 124 688 124 689 C124 691 125 696 126 698 C128 702 125 711 125 715 C125 716 126 715 127 715 C128 715 129 716 129 717 C130 719 130 721 131 723 C132 724 130 726 131 727 C135 736 136 747 140 756 C144 764 147 771 151 779 C152 781 154 783 155 784 C156 785 157 784 157 785 C157 785 156 786 156 786 C156 787 160 792 162 790 C162 790 162 787 162 786 C162 783 160 777 159 774 C157 771 159 766 157 763 C156 760 156 757 155 754 C154 752 154 751 153 749 C152 747 154 745 153 743 C151 738 151 732 151 726"></path>
<path id="" fill="none" stroke="#000000" stroke-width="2.0" stroke-opacity="1.0" stroke-linecap="round" stroke-linejoin="round"  filling="0" d="M360 648 C358 650 357 649 355 648 C354 648 353 648 352 648 C349 646 345 645 342 643 C337 640 331 633 328 628 C327 627 329 624 328 623 C326 620 324 624 322 623 C320 622 319 620 318 618 C316 613 311 609 309 604 C307 600 305 595 303 591 C302 589 303 586 300 586"></path>
<path id="" fill="none" stroke="#000000" stroke-width="2.0" stroke-opacity="1.0" stroke-linecap="round" stroke-linejoin="round"  filling="0" d="M550 650 C553 650 557 652 560 652 C561 652 565 652 565 652 C565 652 566 654 566 655 C567 656 571 659 572 660 C574 662 575 663 576 665 C576 666 576 667 576 668 C577 669 579 669 579 670 C579 672 578 676 577 678 C576 680 577 682 575 684"></path>
<path id="" fill="none" stroke="#000000" stroke-width="2.0" stroke-opacity="1.0" stroke-linecap="round" stroke-linejoin="round"  filling="0" d="M294 662 C296 660 301 661 303 662 C305 663 308 662 309 661 C310 660 313 662 314 661 C316 660 317 662 318 661 C320 660 325 659 327 660 C328 661 329 662 331 661 C336 659 344 660 350 660 C357 660 370 662 376 659 C377 658 378 660 379 660 C381 661 385 660 386 659 C386 659 392 660 393 660"></path>
<path id="" fill="none" stroke="#000000" stroke-width="2.0" stroke-opacity="1.0" stroke-linecap="round" stroke-linejoin="round"  filling="0" d="M415 662 C412 665 407 665 404 667 C403 667 401 667 401 667 C401 667 401 669 401 670 C400 672 397 673 396 675 C395 677 394 679 393 681 C392 683 395 686 391 688 C388 689 382 685 381 687 C380 688 381 691 381 692 C381 697 381 701 381 706 C381 708 381 708 380 709 C379 710 378 709 378 710 C378 717 380 726 377 733 C376 735 377 739 376 741 C372 749 366 761 357 766 C355 767 352 769 350 770 C348 771 346 770 344 772"></path>
<path id="" fill="none" stroke="#000000" stroke-width="2.0" stroke-opacity="1.0" stroke-linecap="round" stroke-linejoin="round"  filling="0" d="M443 680 C443 682 445 683 446 685 C450 693 458 696 467 696"></path>
<path id="" fill="none" stroke="#000000" stroke-width="2.0" stroke-opacity="1.0" stroke-linecap="round" stroke-linejoin="round"  filling="0" d="M483 685 C486 682 483 677 481 675 C480 674 480 673 479 673 C478 673 476 681 476 682"></path>
<path id="" fill="none" stroke="#000000" stroke-width="2.0" stroke-opacity="1.0" stroke-linecap="round" stroke-linejoin="round"  filling="0" d="M801 694 C801 697 802 701 803 703 C804 704 801 705 802 707 C803 709 803 710 804 712 C805 713 802 714 803 716 C804 718 804 721 805 723 C806 724 803 725 804 727 C806 731 804 738 806 742 C807 743 804 744 805 746 C808 751 804 756 806 761 C807 764 806 773 805 775 C803 778 807 785 805 788 C804 790 805 794 804 796 C802 800 801 807 801 811"></path>
<path id="" fill="none" stroke="#000000" stroke-width="2.0" stroke-opacity="1.0" stroke-linecap="round" stroke-linejoin="round"  filling="0" d="M395 699 C395 695 391 693 391 689"></path>
<path id="" fill="none" stroke="#000000" stroke-width="2.0" stroke-opacity="1.0" stroke-linecap="round" stroke-linejoin="round"  filling="0" d="M711 716 C715 712 715 706 717 702 C721 695 723 687 723 678 C723 676 725 673 724 672 C723 671 722 670 721 669 C720 668 722 665 721 664 C720 663 720 661 719 660 C718 658 717 660 716 658 C714 655 707 651 703 649 C701 648 695 649 693 650 C691 651 689 649 687 650 C685 651 686 653 686 655 C686 660 687 665 687 670 C687 673 688 678 686 680 C685 681 684 683 683 682 C678 680 682 675 680 672 C678 668 679 663 677 659 C676 658 675 657 674 656 C673 655 673 654 672 653 C669 652 665 652 662 653 C659 654 655 653 652 654 C648 656 643 653 639 655 C636 656 633 655 630 656 C622 660 612 657 604 661 C602 662 602 664 601 666 C599 670 597 677 597 682 C597 684 598 689 597 691 C596 692 594 692 594 693 C594 693 596 696 596 696 C597 697 595 700 596 701 C597 702 597 704 598 705 C599 706 597 708 598 709 C599 712 601 715 602 718 C609 733 624 744 641 744"></path>
<path id="" fill="none" stroke="#000000" stroke-width="2.0" stroke-opacity="1.0" stroke-linecap="round" stroke-linejoin="round"  filling="0" d="M766 728 C760 734 756 742 749 749 C747 751 744 756 741 757 C739 758 737 759 736 761 C735 763 736 767 735 769 C729 781 725 793 719 805 C715 813 709 820 705 828 C703 832 699 834 697 838 C694 844 689 848 684 853 C683 854 682 857 681 858 C680 858 680 858 679 858 C676 859 673 864 672 866 C672 867 672 868 672 868 C671 869 668 869 667 870 C663 872 660 874 656 876 C653 877 650 877 647 878 C644 879 641 882 638 882"></path>
<path id="" fill="none" stroke="#000000" stroke-width="2.0" stroke-opacity="1.0" stroke-linecap="round" stroke-linejoin="round"  filling="0" d="M704 730 C706 730 708 728 710 729 C711 729 712 730 713 730"></path>
<path id="" fill="none" stroke="#000000" stroke-width="2.0" stroke-opacity="1.0" stroke-linecap="round" stroke-linejoin="round"  filling="0" d="M725 733 C724 732 719 730 717 730"></path>
<path id="" fill="none" stroke="#000000" stroke-width="2.0" stroke-opacity="1.0" stroke-linecap="round" stroke-linejoin="round"  filling="0" d="M657 740 C663 740 670 732 672 727 C673 726 674 725 675 724 C677 720 678 717 680 713 C680 712 680 711 680 710 C681 707 682 704 682 701 C682 699 681 695 682 694 C683 691 684 686 684 683"></path>
<path id="" fill="none" stroke="#000000" stroke-width="2.0" stroke-opacity="1.0" stroke-linecap="round" stroke-linejoin="round"  filling="0" d="M877 754 C877 766 875 775 870 785 C867 791 867 797 864 803 C858 815 852 826 846 838 C841 848 832 855 827 865 C826 867 822 869 821 871 C820 874 816 876 814 879 C812 884 806 888 802 892 C801 893 799 895 798 896 C796 897 795 896 794 898 C790 906 785 914 778 921"></path>
<path id="" fill="none" stroke="#000000" stroke-width="2.0" stroke-opacity="1.0" stroke-linecap="round" stroke-linejoin="round"  filling="0" d="M669 758 C669 766 671 774 671 782"></path>
<path id="" fill="none" stroke="#000000" stroke-width="2.0" stroke-opacity="1.0" stroke-linecap="round" stroke-linejoin="round"  filling="0" d="M272 761 C263 752 258 741 253 731 C252 729 251 726 250 724 C249 722 250 718 249 717 C248 716 245 716 244 714 C243 713 244 710 243 709 C242 706 241 703 239 700 C238 698 239 696 238 694 C237 693 234 690 233 691 C231 692 229 697 228 699 C227 701 224 700 223 702 C221 705 226 711 227 713 C229 718 231 724 233 729 C237 737 242 745 246 753 C249 760 256 764 259 771 C260 773 260 776 257 776"></path>
<path id="" fill="none" stroke="#000000" stroke-width="2.0" stroke-opacity="1.0" stroke-linecap="round" stroke-linejoin="round"  filling="0" d="M279 769 C276 769 273 770 270 771 C269 771 268 771 267 771 C266 772 265 772 264 773 C263 774 264 775 263 775 C262 775 262 774 261 774"></path>
<path id="" fill="none" stroke="#000000" stroke-width="2.0" stroke-opacity="1.0" stroke-linecap="round" stroke-linejoin="round"  filling="0" d="M838 769 C845 762 849 755 853 747 C853 746 853 745 853 744 C856 737 857 730 860 723 C861 722 858 721 858 720 C856 717 858 709 858 705 C858 701 859 695 857 691 C856 689 857 685 856 683 C855 681 857 677 856 675 C855 674 855 672 854 671 C853 670 855 667 854 666 C853 664 853 663 852 661 C851 660 853 657 852 656 C850 651 849 646 847 641 C846 639 847 637 846 635 C845 634 844 634 843 633"></path>
<path id="" fill="none" stroke="#000000" stroke-width="2.0" stroke-opacity="1.0" stroke-linecap="round" stroke-linejoin="round"  filling="0" d="M326 770 C317 770 307 761 303 753 C300 747 297 742 294 737 C292 734 294 729 292 726 C290 722 292 720 292 716 C292 706 291 696 295 688 C297 684 303 688 306 686 C310 684 316 687 320 685 C325 683 333 684 339 684 C345 684 351 683 357 683 C358 683 362 682 363 683 C371 687 372 696 375 703 C376 706 374 706 377 709"></path>
<path id="" fill="none" stroke="#000000" stroke-width="2.0" stroke-opacity="1.0" stroke-linecap="round" stroke-linejoin="round"  filling="0" d="M693 774 C693 779 695 784 694 787 C693 789 692 787 691 788 C690 789 684 792 682 790 C681 789 683 782 683 780"></path>
<path id="" fill="none" stroke="#000000" stroke-width="2.0" stroke-opacity="1.0" stroke-linecap="round" stroke-linejoin="round"  filling="0" d="M177 776 C177 778 178 782 179 784 C180 785 178 788 179 789 C181 794 181 800 184 805 C185 806 183 808 184 809 C186 813 186 816 188 820 C188 821 188 822 188 823 C189 825 190 828 191 830 C192 831 194 834 194 834 C194 835 192 836 193 838 C196 844 198 852 201 858 C203 863 196 860 196 863 C196 865 200 865 201 866 C202 866 204 869 204 870 C209 880 216 890 224 898 C233 907 243 919 254 925 C257 927 260 932 264 932"></path>
<path id="" fill="none" stroke="#000000" stroke-width="2.0" stroke-opacity="1.0" stroke-linecap="round" stroke-linejoin="round"  filling="0" d="M210 780 C215 785 221 788 227 791 C233 794 238 797 244 800 C246 801 248 804 250 805 C253 806 256 806 259 807 C265 810 272 813 278 816 C279 816 280 816 281 816 C288 820 296 821 303 824 C305 825 309 824 311 825 C313 826 313 827 314 828 C315 829 316 827 316 827 C317 827 320 828 320 826 C320 826 318 823 318 823 C317 821 317 812 322 814 C326 816 327 826 321 826"></path>
<path id="" fill="none" stroke="#000000" stroke-width="2.0" stroke-opacity="1.0" stroke-linecap="round" stroke-linejoin="round"  filling="0" d="M659 788 C657 790 658 793 658 795"></path>
<path id="" fill="none" stroke="#000000" stroke-width="2.0" stroke-opacity="1.0" stroke-linecap="round" stroke-linejoin="round"  filling="0" d="M694 795 C696 793 694 792 694 789"></path>
<path id="" fill="none" stroke="#000000" stroke-width="2.0" stroke-opacity="1.0" stroke-linecap="round" stroke-linejoin="round"  filling="0" d="M680 796 C680 793 676 793 673 794 C669 796 674 799 671 802"></path>
<path id="" fill="none" stroke="#000000" stroke-width="2.0" stroke-opacity="1.0" stroke-linecap="round" stroke-linejoin="round"  filling="0" d="M162 799 C163 799 164 797 165 798 C168 799 167 802 168 804 C170 808 171 813 173 817 C176 824 179 831 182 838 C184 842 186 844 188 848 C190 853 192 858 196 862"></path>
<path id="" fill="none" stroke="#000000" stroke-width="2.0" stroke-opacity="1.0" stroke-linecap="round" stroke-linejoin="round"  filling="0" d="M646 803 C649 800 653 802 655 800"></path>
<path id="" fill="none" stroke="#000000" stroke-width="2.0" stroke-opacity="1.0" stroke-linecap="round" stroke-linejoin="round"  filling="0" d="M321 804 C319 806 318 810 318 813"></path>
<path id="" fill="none" stroke="#000000" stroke-width="2.0" stroke-opacity="1.0" stroke-linecap="round" stroke-linejoin="round"  filling="0" d="M349 804 C349 811 348 818 348 825 C348 826 346 831 347 832 C348 833 350 831 350 831"></path>
<path id="" fill="none" stroke="#000000" stroke-width="2.0" stroke-opacity="1.0" stroke-linecap="round" stroke-linejoin="round"  filling="0" d="M335 813 C333 815 335 818 334 821 C333 824 333 827 333 829 C333 831 330 828 328 828 C326 828 324 827 323 826"></path>
<path id="" fill="none" stroke="#000000" stroke-width="2.0" stroke-opacity="1.0" stroke-linecap="round" stroke-linejoin="round"  filling="0" d="M312 831 C313 830 313 830 313 829"></path>
<path id="" fill="none" stroke="#000000" stroke-width="2.0" stroke-opacity="1.0" stroke-linecap="round" stroke-linejoin="round"  filling="0" d="M801 843 C801 844 802 846 802 847 C801 850 800 855 800 858 C800 860 801 865 800 867 C800 868 798 868 798 869 C797 870 799 874 798 875 C797 876 795 876 794 877 C792 880 792 885 790 888 C787 894 783 899 780 905 C777 911 770 916 767 922 C766 924 762 926 761 928 C757 936 747 942 743 950 C739 959 731 966 727 975 C725 979 724 986 719 988 C718 988 716 988 716 987 C715 986 717 985 717 984 C717 983 716 979 717 978 C718 977 719 973 719 972 C719 971 718 971 718 970 C720 966 720 962 720 958 C720 957 723 950 720 950 C720 950 716 952 716 952 C714 953 714 955 713 957 C711 961 708 963 706 967 C704 970 700 972 698 976 C696 981 689 988 684 990 C681 991 678 995 676 997 C675 998 675 999 674 1000 C671 1002 664 999 661 998 C658 996 653 998 650 997 C644 994 637 996 631 993 C627 991 621 994 617 992 C615 991 611 992 609 991 C608 991 607 989 606 990 C604 991 605 996 605 998 C605 999 604 1001 604 1002 C606 1005 606 1013 604 1016 C603 1018 605 1019 605 1020 C605 1023 605 1028 606 1030 C606 1031 608 1031 608 1032 C608 1032 607 1032 607 1032"></path>
<path id="" fill="none" stroke="#000000" stroke-width="2.0" stroke-opacity="1.0" stroke-linecap="round" stroke-linejoin="round"  filling="0" d="M344 850 C347 847 345 843 347 839 C348 837 346 835 348 833"></path>
<path id="" fill="none" stroke="#000000" stroke-width="2.0" stroke-opacity="1.0" stroke-linecap="round" stroke-linejoin="round"  filling="0" d="M126 858 C126 861 125 869 126 872 C127 874 129 873 130 875 C132 878 132 882 134 885 C135 886 134 889 135 890 C138 896 140 901 143 907 C152 926 166 943 182 959 C187 964 192 969 198 972 C200 973 203 976 205 976 C205 976 206 975 206 975 C207 975 208 978 209 978 C212 979 218 983 221 980"></path>
<path id="" fill="none" stroke="#000000" stroke-width="2.0" stroke-opacity="1.0" stroke-linecap="round" stroke-linejoin="round"  filling="0" d="M35 867 C35 862 30 854 33 849 C34 848 31 847 32 846 C34 842 33 837 33 833 C33 832 34 829 33 828 C32 826 33 824 32 823 C31 821 29 820 29 817"></path>
<path id="" fill="none" stroke="#000000" stroke-width="2.0" stroke-opacity="1.0" stroke-linecap="round" stroke-linejoin="round"  filling="0" d="M160 875 C155 870 148 864 145 858 C144 855 142 852 141 849 C140 848 142 846 141 845 C140 844 139 843 138 842 C135 837 134 830 131 825 C131 824 131 823 131 822 C129 818 126 813 126 808 C126 808 129 800 126 800 C125 800 123 803 122 802 C119 800 120 797 119 795 C117 791 116 785 114 781 C113 779 114 776 113 774 C109 766 111 757 107 749 C106 748 108 745 107 744 C106 742 106 740 105 738 C104 736 105 732 104 730 C103 729 104 725 104 724 C104 721 103 715 102 713 C101 712 102 708 102 706 C102 702 101 697 101 692 C101 691 102 687 101 686 C98 679 101 669 101 662 C101 662 100 661 100 661 C99 659 100 655 101 654 C102 653 100 652 100 651 C100 648 101 647 101 644 C101 640 100 635 102 632 C103 630 102 626 103 624 C105 621 102 616 104 613 C105 612 104 608 104 606 C104 603 105 596 106 593 C107 591 106 589 105 588 C104 585 105 577 105 574 C105 568 104 563 104 557 C104 556 106 552 105 551 C104 550 103 550 102 549 C101 547 103 543 102 541 C100 537 100 526 102 522 C105 516 99 507 102 501 C104 498 101 493 103 490 C104 488 103 485 104 483 C105 481 104 477 105 475 C108 470 106 462 109 457 C110 455 109 450 110 448 C114 439 114 429 118 420 C119 418 118 416 119 414 C123 406 124 398 128 390 C133 380 137 371 142 361 C143 359 139 355 137 354 C130 351 124 341 121 335 C119 331 119 325 117 321 C116 320 118 317 118 315 C118 312 118 307 119 304 C120 302 121 300 122 298 C122 297 122 296 122 295 C122 294 124 292 124 291 C124 288 118 292 117 293 C113 301 108 308 104 316 C97 330 91 344 84 358 C82 363 81 369 79 374 C74 385 73 397 68 408 C66 411 68 417 66 420 C63 427 64 435 61 442 C60 444 62 446 61 448 C60 450 59 455 59 458 C59 459 60 463 59 464 C57 467 60 472 58 475 C56 479 59 485 57 489 C54 494 56 504 56 510 C56 517 56 525 56 532 C56 536 55 540 57 543 C59 547 56 554 58 558 C59 561 57 565 58 568 C62 576 58 587 62 595 C64 600 61 607 65 611"></path>
<path id="" fill="none" stroke="#000000" stroke-width="2.0" stroke-opacity="1.0" stroke-linecap="round" stroke-linejoin="round"  filling="0" d="M195 902 C195 904 195 904 196 906 C197 908 195 909 195 910 C195 913 196 914 197 917 C198 919 196 922 196 923 C196 924 197 923 198 923 C199 923 201 924 201 925 C203 928 197 930 196 932 C195 933 197 934 197 935 C199 938 196 944 198 947 C199 950 199 954 200 957 C201 960 202 963 203 966 C204 969 206 970 206 974"></path>
<path id="" fill="none" stroke="#000000" stroke-width="2.0" stroke-opacity="1.0" stroke-linecap="round" stroke-linejoin="round"  filling="0" d="M414 922 C412 924 403 922 400 921 C398 920 394 922 392 921 C386 918 379 919 373 916 C372 915 369 917 368 916 C367 916 365 914 364 914 C363 914 364 916 363 916 C361 917 359 914 359 914 C359 914 358 915 358 915 C355 916 350 914 348 913 C347 912 345 914 344 913 C340 911 336 912 332 910 C322 905 309 903 299 898 C295 896 290 895 286 893 C285 892 282 894 281 893 C279 892 279 890 277 889 C266 883 254 877 243 871 C234 866 227 858 218 853 C214 851 211 846 207 844 C203 842 200 835 195 835"></path>
<path id="" fill="none" stroke="#000000" stroke-width="2.0" stroke-opacity="1.0" stroke-linecap="round" stroke-linejoin="round"  filling="0" d="M726 928 C722 932 723 939 721 944 C720 946 722 947 720 949"></path>
<path id="" fill="none" stroke="#000000" stroke-width="2.0" stroke-opacity="1.0" stroke-linecap="round" stroke-linejoin="round"  filling="0" d="M151 965 C146 960 141 955 138 949 C137 947 134 945 133 943 C132 942 131 940 130 939 C130 939 130 936 130 936 C129 936 129 937 128 937 C124 935 120 929 118 925 C115 920 111 915 108 910 C104 901 99 893 95 884 C94 883 95 880 94 879 C90 871 89 863 85 855 C85 854 85 853 85 852 C84 849 83 847 82 844 C81 842 82 838 81 836 C78 829 79 821 76 814 C75 812 76 809 75 807 C74 805 75 802 74 800 C73 799 74 795 74 793 C74 790 73 782 72 779 C71 778 72 775 72 774 C72 770 72 766 72 762 C72 755 73 748 73 742 C73 740 72 734 73 732 C74 729 73 726 74 723 C76 720 76 716 76 712"></path>
<path id="" fill="none" stroke="#000000" stroke-width="2.0" stroke-opacity="1.0" stroke-linecap="round" stroke-linejoin="round"  filling="0" d="M282 970 C284 972 286 975 287 977 C288 979 292 981 293 983 C296 988 302 993 307 998 C308 999 315 1005 313 1007 C313 1007 310 1007 309 1007 C305 1007 300 1006 297 1004 C296 1003 294 1005 293 1004 C290 1003 287 1002 284 1001 C283 1000 281 1002 280 1001 C275 998 268 998 263 995 C259 993 254 990 250 988 C248 987 247 985 245 984 C237 980 225 968 221 960 C219 956 214 952 212 948 C210 944 207 939 205 935 C204 933 204 930 202 928"></path>
<path id="" fill="none" stroke="#000000" stroke-width="2.0" stroke-opacity="1.0" stroke-linecap="round" stroke-linejoin="round"  filling="0" d="M709 1014 C713 1010 714 1003 716 998 C717 997 715 994 716 993 C717 992 718 991 718 989"></path>
<path id="" fill="none" stroke="#000000" stroke-width="2.0" stroke-opacity="1.0" stroke-linecap="round" stroke-linejoin="round"  filling="0" d="M630 1023 C638 1023 647 1028 653 1031 C655 1032 658 1033 659 1035 C660 1036 659 1040 659 1042 C659 1044 660 1048 659 1049 C659 1050 657 1050 657 1051 C656 1052 658 1055 657 1056 C656 1059 655 1062 653 1065 C651 1068 652 1072 649 1075"></path>
<path id="" fill="none" stroke="#000000" stroke-width="2.0" stroke-opacity="1.0" stroke-linecap="round" stroke-linejoin="round"  filling="0" d="M396 1031 C394 1033 391 1034 389 1035 C388 1035 387 1035 386 1035 C382 1037 377 1040 373 1042 C371 1043 368 1048 368 1050 C368 1050 370 1053 370 1053 C370 1053 369 1053 369 1053"></path>
<path id="" fill="none" stroke="#000000" stroke-width="2.0" stroke-opacity="1.0" stroke-linecap="round" stroke-linejoin="round"  filling="0" d="M608 1046 C608 1043 605 1036 607 1034"></path>
<path id="" fill="none" stroke="#000000" stroke-width="2.0" stroke-opacity="1.0" stroke-linecap="round" stroke-linejoin="round"  filling="0" d="M414 1055 C417 1052 418 1044 418 1041 C418 1040 419 1034 416 1035 C409 1038 402 1042 395 1045 C393 1046 390 1046 388 1047 C383 1049 377 1053 371 1053"></path>
<path id="" fill="none" stroke="#000000" stroke-width="2.0" stroke-opacity="1.0" stroke-linecap="round" stroke-linejoin="round"  filling="0" d="M375 1074 C371 1070 369 1061 369 1055"></path>
<path id="" fill="none" stroke="#000000" stroke-width="2.0" stroke-opacity="1.0" stroke-linecap="round" stroke-linejoin="round"  filling="0" d="M248 1075 C256 1075 261 1071 268 1068 C279 1062 291 1057 302 1051 C308 1048 312 1044 318 1041 C324 1038 328 1034 334 1031 C335 1031 339 1028 339 1027 C339 1025 333 1022 332 1021 C329 1019 327 1015 323 1013 C320 1011 317 1010 314 1007"></path>
<path id="" fill="none" stroke="#000000" stroke-width="2.0" stroke-opacity="1.0" stroke-linecap="round" stroke-linejoin="round"  filling="0" d="M830 1075 C817 1075 804 1072 793 1067 C791 1066 789 1067 787 1066 C781 1063 775 1062 769 1059 C757 1053 744 1047 732 1041 C724 1037 717 1030 709 1026 C705 1024 700 1020 696 1018 C695 1017 694 1016 693 1015 C687 1012 679 1006 674 1001"></path>
<path id="" fill="none" stroke="#000000" stroke-width="2.0" stroke-opacity="1.0" stroke-linecap="round" stroke-linejoin="round"  filling="0" d="M142 421 C142 424 138 428 137 431 C134 436 133 443 130 448 C129 449 130 452 129 453 C125 461 124 470 120 478 C120 479 120 480 120 481 C118 485 118 489 116 493 C115 494 117 496 116 497 C114 502 114 507 112 512 C111 513 113 516 112 517 C108 524 111 534 108 541 C106 544 109 547 106 550"></path>
<path id="" fill="none" stroke="#000000" stroke-width="2.0" stroke-opacity="1.0" stroke-linecap="round" stroke-linejoin="round"  filling="0" d="M319 588 C319 594 320 601 323 606 C324 608 323 610 324 612 C325 615 327 618 327 621"></path>
<path id="" fill="none" stroke="#000000" stroke-width="2.0" stroke-opacity="1.0" stroke-linecap="round" stroke-linejoin="round"  filling="0" d="M859 427 C859 423 858 418 856 415 C855 414 857 412 856 411 C854 407 854 403 852 399 C852 398 852 397 852 396 C850 393 850 389 848 386 C848 385 848 384 848 383 C844 374 842 365 838 356 C838 355 838 354 838 353 C834 345 832 337 828 329 C821 315 813 300 806 286 C805 284 803 283 802 281 C798 273 792 266 788 258 C787 255 783 253 782 250 C780 245 774 242 772 237 C769 231 761 228 758 222 C756 218 751 212 747 210 C743 208 740 202 736 200 C733 198 731 194 728 192 C725 191 724 187 721 186 C712 182 706 173 697 169 C685 163 673 157 661 151 C655 148 647 148 641 145 C638 143 633 145 629 143 C626 141 619 145 616 143 C612 141 609 143 605 143 C603 143 599 142 598 143 C596 144 594 143 592 144 C587 147 580 146 575 149 C573 150 571 152 568 151 C559 147 551 142 542 138 C535 135 527 134 520 131 C513 128 504 125 496 125"></path>
<path id="" fill="none" stroke="#000000" stroke-width="2.0" stroke-opacity="1.0" stroke-linecap="round" stroke-linejoin="round"  filling="0" d="M314 530 C314 531 313 532 313 533 C311 538 314 546 314 551 C314 553 313 558 314 560 C315 563 314 567 315 570 C317 574 318 582 318 587"></path>
<path id="" fill="none" stroke="#000000" stroke-width="2.0" stroke-opacity="1.0" stroke-linecap="round" stroke-linejoin="round"  filling="0" d="M430 576 C435 581 437 590 440 596 C449 614 461 632 470 650 C472 655 475 659 477 664 C478 666 477 670 479 672"></path>
<path id="" fill="none" stroke="#000000" stroke-width="2.0" stroke-opacity="1.0" stroke-linecap="round" stroke-linejoin="round"  filling="0" d="M317 884 C326 893 339 900 350 905 C353 906 355 908 358 909 C359 909 359 911 360 911 C360 911 361 911 361 911 C361 912 360 912 359 913"></path>
<path id="" fill="none" stroke="#000000" stroke-width="2.0" stroke-opacity="1.0" stroke-linecap="round" stroke-linejoin="round"  filling="0" d="M674 908 C669 913 663 917 657 920 C654 922 651 925 648 927 C643 930 637 933 632 936 C625 939 620 944 613 947 C612 947 610 949 610 950 C610 950 610 951 610 951 C610 951 609 950 609 950 C607 950 605 952 603 953 C597 956 592 959 586 962 C569 971 551 978 534 987 C529 989 524 990 519 992 C517 993 515 992 513 993 C511 994 507 993 505 992 C503 991 498 993 496 992 C490 989 483 990 477 987 C475 986 472 987 470 986 C465 984 460 983 455 981 C453 980 450 981 448 980 C438 975 427 975 417 970 C415 969 412 970 410 969 C408 968 407 966 405 965 C403 964 400 965 398 964 C390 960 381 958 373 954 C372 953 369 954 368 953 C363 950 357 949 352 946 C341 941 331 934 320 929 C318 928 317 926 315 925 C310 923 300 917 298 912 C297 910 296 912 295 911 C293 910 292 908 291 906 C289 901 282 900 282 894"></path>
<path id="" fill="none" stroke="#000000" stroke-width="2.0" stroke-opacity="1.0" stroke-linecap="round" stroke-linejoin="round"  filling="0" d="M795 774 C791 778 787 785 784 790 C781 795 776 799 773 804 C772 806 769 808 767 810 C762 815 757 821 752 824 C750 825 748 829 746 830 C742 832 738 836 734 838 C732 839 730 843 728 844 C720 848 711 852 703 856 C702 857 701 858 699 859 C694 861 688 863 683 865 C680 867 677 868 673 868"></path>
<path id="" fill="none" stroke="#000000" stroke-width="2.0" stroke-opacity="1.0" stroke-linecap="round" stroke-linejoin="round"  filling="0" d="M680 903 C678 905 677 906 675 908"></path>
<path id="" fill="none" stroke="#000000" stroke-width="2.0" stroke-opacity="1.0" stroke-linecap="round" stroke-linejoin="round"  filling="0" d="M864 594 C864 596 865 598 866 600 C867 601 865 604 866 605 C868 609 867 615 869 619 C870 621 868 623 869 625 C870 628 870 631 871 634 C873 638 869 646 871 650 C873 653 872 657 872 661 C872 671 870 680 870 689 C870 697 868 706 865 713 C864 715 865 721 860 721"></path>
<path id="" fill="none" stroke="#000000" stroke-width="2.0" stroke-opacity="1.0" stroke-linecap="round" stroke-linejoin="round"  filling="0" d="M289 148 C286 151 280 152 276 154 C272 156 268 158 264 160 C250 167 237 177 223 184 C220 185 219 189 216 190 C208 194 201 203 193 207 C190 208 189 212 186 213 C181 216 178 223 173 225 C170 227 169 231 166 233 C162 235 161 238 158 241 C152 247 145 254 141 261 C139 266 132 269 130 274 C129 276 127 278 126 280 C124 283 129 282 129 284 C129 285 125 290 124 290"></path>
<path id="" fill="none" stroke="#000000" stroke-width="2.0" stroke-opacity="1.0" stroke-linecap="round" stroke-linejoin="round"  filling="0" d="M741 579 C741 587 742 594 742 602 C742 606 743 610 741 613 C740 616 741 619 740 622 C739 624 741 626 740 628 C740 628 739 634 739 635 C739 636 741 636 742 636"></path>
<path id="" fill="none" stroke="#000000" stroke-width="2.0" stroke-opacity="1.0" stroke-linecap="round" stroke-linejoin="round"  filling="0" d="M327 134 C325 136 321 136 318 137 C311 140 304 142 297 145 C295 146 292 148 290 148"></path>
<path id="" fill="none" stroke="#000000" stroke-width="2.0" stroke-opacity="1.0" stroke-linecap="round" stroke-linejoin="round"  filling="0" d="M862 445 C865 448 862 455 864 459 C865 461 864 464 865 466 C866 468 865 472 866 474 C868 478 867 484 867 489 C867 492 870 496 867 499"></path>
<path id="" fill="none" stroke="#000000" stroke-width="2.0" stroke-opacity="1.0" stroke-linecap="round" stroke-linejoin="round"  filling="0" d="M859 572 C859 579 864 586 864 593"></path>
<path id="" fill="none" stroke="#000000" stroke-width="2.0" stroke-opacity="1.0" stroke-linecap="round" stroke-linejoin="round"  filling="0" d="M336 830 C335 830 335 830 334 830"></path>
<path id="" fill="none" stroke="#000000" stroke-width="2.0" stroke-opacity="1.0" stroke-linecap="round" stroke-linejoin="round"  filling="0" d="M564 606 C563 607 563 609 562 610 C561 613 557 614 556 617 C553 623 545 632 539 635 C536 636 536 639 532 639"></path>
<path id="" fill="none" stroke="#000000" stroke-width="2.0" stroke-opacity="1.0" stroke-linecap="round" stroke-linejoin="round"  filling="0" d="M827 477 C827 493 834 507 841 521 C845 528 846 537 850 544 C851 546 851 550 852 552 C855 557 858 565 858 571"></path>
<path id="" fill="none" stroke="#000000" stroke-width="2.0" stroke-opacity="1.0" stroke-linecap="round" stroke-linejoin="round"  filling="0" d="M578 617 C578 623 575 628 572 633 C571 636 570 639 569 642 C568 644 563 648 567 650 C569 651 575 650 577 649 C579 648 584 650 586 649 C591 646 598 649 603 646 C607 644 613 647 617 645 C620 643 625 644 628 642 C630 641 632 643 634 642 C637 641 639 641 642 640 C644 639 646 641 648 640 C651 639 654 640 657 639 C660 637 663 637 667 637 C668 637 672 638 673 637 C680 633 690 636 697 632 C698 631 703 635 704 634 C704 634 706 632 707 633 C708 634 707 635 709 635 C716 635 722 636 729 636 C732 636 736 637 738 635"></path>
<path id="" fill="none" stroke="#000000" stroke-width="2.0" stroke-opacity="1.0" stroke-linecap="round" stroke-linejoin="round"  filling="0" d="M390 1006 C387 1009 381 1008 377 1010 C369 1014 360 1016 352 1020 C349 1022 344 1027 340 1027"></path>
<path id="" fill="none" stroke="#000000" stroke-width="2.0" stroke-opacity="1.0" stroke-linecap="round" stroke-linejoin="round"  filling="0" d="M488 164 C488 168 487 172 487 175"></path>
<path id="" fill="none" stroke="#000000" stroke-width="2.0" stroke-opacity="1.0" stroke-linecap="round" stroke-linejoin="round"  filling="0" d="M124 774 C124 783 126 790 126 799"></path>
<path id="" fill="none" stroke="#000000" stroke-width="2.0" stroke-opacity="1.0" stroke-linecap="round" stroke-linejoin="round"  filling="0" d="M124 908 C126 910 124 912 125 914 C126 917 126 920 127 923 C129 927 130 930 130 935"></path>
<path id="" fill="none" stroke="#000000" stroke-width="2.0" stroke-opacity="1.0" stroke-linecap="round" stroke-linejoin="round"  filling="0" d="M420 1024 C420 1017 421 1008 418 1002 C416 998 419 993 417 989 C415 985 415 981 413 977 C412 975 410 972 410 970"></path>
<path id="" fill="none" stroke="#000000" stroke-width="2.0" stroke-opacity="1.0" stroke-linecap="round" stroke-linejoin="round"  filling="0" d="M604 453 C604 455 603 455 603 457 C603 462 605 470 601 474"></path>
<path id="" fill="none" stroke="#000000" stroke-width="2.0" stroke-opacity="1.0" stroke-linecap="round" stroke-linejoin="round"  filling="0" d="M185 267 C186 268 186 268 188 268"></path>
<path id="" fill="none" stroke="#000000" stroke-width="2.0" stroke-opacity="1.0" stroke-linecap="round" stroke-linejoin="round"  filling="0" d="M368 612 C368 614 371 620 374 620"></path>
<path id="" fill="none" stroke="#000000" stroke-width="2.0" stroke-opacity="1.0" stroke-linecap="round" stroke-linejoin="round"  filling="0" d="M710 779 C705 779 701 785 696 785"></path>
<path id="" fill="none" stroke="#000000" stroke-width="2.0" stroke-opacity="1.0" stroke-linecap="round" stroke-linejoin="round"  filling="0" d="M645 531 C645 534 647 537 648 540 C649 541 647 544 648 545 C651 551 649 561 652 567 C653 568 652 572 652 573 C652 577 653 579 653 583 C653 584 652 588 653 589 C655 592 652 598 654 601 C654 602 655 601 656 602 C656 602 656 606 656 606 C655 608 655 611 654 613 C652 616 650 620 648 623 C646 626 643 627 643 631"></path>
<path id="" fill="none" stroke="#000000" stroke-width="2.0" stroke-opacity="1.0" stroke-linecap="round" stroke-linejoin="round"  filling="0" d="M481 121 C477 121 471 121 468 119 C465 117 460 120 457 118 C455 117 449 118 446 118 C442 118 438 118 434 118 C433 118 432 116 430 117 C427 118 424 118 420 118 C415 118 409 119 404 119 C402 119 397 118 395 119 C393 120 390 119 388 120 C386 121 383 120 381 121 C376 123 370 123 365 125 C364 126 361 124 360 125 C355 128 349 127 344 130 C342 131 339 130 337 131 C335 132 331 134 328 134"></path>
<path id="" fill="none" stroke="#000000" stroke-width="2.0" stroke-opacity="1.0" stroke-linecap="round" stroke-linejoin="round"  filling="0" d="M646 1047 C644 1047 641 1045 639 1044 C632 1040 623 1039 616 1035 C614 1034 611 1032 609 1032"></path>
<path id="" fill="none" stroke="#000000" stroke-width="2.0" stroke-opacity="1.0" stroke-linecap="round" stroke-linejoin="round"  filling="0" d="M263 253 C269 259 270 272 270 281"></path>
<path id="" fill="none" stroke="#000000" stroke-width="2.0" stroke-opacity="1.0" stroke-linecap="round" stroke-linejoin="round"  filling="0" d="M264 690 C259 695 253 699 250 705 C248 708 252 713 249 716"></path>
<path id="" fill="none" stroke="#000000" stroke-width="2.0" stroke-opacity="1.0" stroke-linecap="round" stroke-linejoin="round"  filling="0" d="M608 968 C608 973 606 978 606 984 C606 986 604 987 606 989"></path>
<path id="" fill="none" stroke="#000000" stroke-width="2.0" stroke-opacity="1.0" stroke-linecap="round" stroke-linejoin="round"  filling="0" d="M739 554 C739 562 741 569 741 578"></path>
<path id="" fill="none" stroke="#000000" stroke-width="2.0" stroke-opacity="1.0" stroke-linecap="round" stroke-linejoin="round"  filling="0" d="M799 878 C799 884 795 889 795 895"></path>
<path id="" fill="none" stroke="#000000" stroke-width="2.0" stroke-opacity="1.0" stroke-linecap="round" stroke-linejoin="round"  filling="0" d="M609 960 C609 963 608 964 608 967"></path>
<path id="" fill="none" stroke="#000000" stroke-width="2.0" stroke-opacity="1.0" stroke-linecap="round" stroke-linejoin="round"  filling="0" d="M581 669 C581 669 580 669 580 669"></path>
<path id="" fill="none" stroke="#000000" stroke-width="2.0" stroke-opacity="1.0" stroke-linecap="round" stroke-linejoin="round"  filling="0" d="M267 689 C266 689 266 689 265 690"></path>
<path id="" fill="none" stroke="#000000" stroke-width="2.0" stroke-opacity="1.0" stroke-linecap="round" stroke-linejoin="round"  filling="0" d="M284 707 C284 702 283 698 283 693 C283 691 284 689 282 688 C278 686 272 689 268 689"></path>
<path id="" fill="none" stroke="#000000" stroke-width="2.0" stroke-opacity="1.0" stroke-linecap="round" stroke-linejoin="round"  filling="0" d="M399 1004 C398 1005 392 1006 391 1006"></path>
<path id="" fill="none" stroke="#000000" stroke-width="2.0" stroke-opacity="1.0" stroke-linecap="round" stroke-linejoin="round"  filling="0" d="M181 265 C183 265 183 266 184 267"></path>
<path id="" fill="none" stroke="#000000" stroke-width="2.0" stroke-opacity="1.0" stroke-linecap="round" stroke-linejoin="round"  filling="0" d="M414 233 C420 227 430 226 437 222 C441 220 448 223 451 223"></path>
<path id="" fill="none" stroke="#000000" stroke-width="2.0" stroke-opacity="1.0" stroke-linecap="round" stroke-linejoin="round"  filling="0" d="M590 682 C590 685 591 690 593 692"></path>
<path id="" fill="none" stroke="#000000" stroke-width="2.0" stroke-opacity="1.0" stroke-linecap="round" stroke-linejoin="round"  filling="0" d="M279 794 C286 801 295 809 304 813 C309 815 310 819 316 819"></path>
<path id="" fill="none" stroke="#000000" stroke-width="2.0" stroke-opacity="1.0" stroke-linecap="round" stroke-linejoin="round"  filling="0" d="M484 124 C482 122 481 119 483 117"></path>
<path id="" fill="none" stroke="#000000" stroke-width="2.0" stroke-opacity="1.0" stroke-linecap="round" stroke-linejoin="round"  filling="0" d="M123 741 C123 749 123 756 123 764 C123 767 122 771 124 773"></path>
<path id="" fill="none" stroke="#000000" stroke-width="2.0" stroke-opacity="1.0" stroke-linecap="round" stroke-linejoin="round"  filling="0" d="M584 668 C585 667 587 665 588 665 C590 665 589 668 589 669 C589 673 590 677 590 681"></path>
<path id="" fill="none" stroke="#000000" stroke-width="2.0" stroke-opacity="1.0" stroke-linecap="round" stroke-linejoin="round"  filling="0" d="M713 629 C711 629 709 631 708 632"></path>
<path id="" fill="none" stroke="#000000" stroke-width="2.0" stroke-opacity="1.0" stroke-linecap="round" stroke-linejoin="round"  filling="0" d="M705 881 C705 878 710 877 711 874 C712 872 715 870 716 868 C719 863 722 858 725 853 C727 850 729 848 729 844"></path>
<path id="" fill="none" stroke="#000000" stroke-width="2.0" stroke-opacity="1.0" stroke-linecap="round" stroke-linejoin="round"  filling="0" d="M123 722 C123 728 123 734 123 740"></path>
<path id="" fill="none" stroke="#000000" stroke-width="2.0" stroke-opacity="1.0" stroke-linecap="round" stroke-linejoin="round"  filling="0" d="M487 142 C487 138 487 134 485 131 C484 129 486 127 484 125"></path>
<path id="" fill="none" stroke="#000000" stroke-width="2.0" stroke-opacity="1.0" stroke-linecap="round" stroke-linejoin="round"  filling="0" d="M204 636 C204 634 204 634 205 633"></path>
<path id="" fill="none" stroke="#000000" stroke-width="2.0" stroke-opacity="1.0" stroke-linecap="round" stroke-linejoin="round"  filling="0" d="M149 266 C152 263 158 263 162 261 C163 261 165 262 166 262 C168 262 171 260 172 261 C174 262 178 264 180 264"></path>
<path id="" fill="none" stroke="#000000" stroke-width="2.0" stroke-opacity="1.0" stroke-linecap="round" stroke-linejoin="round"  filling="0" d="M727 670 C727 668 728 663 729 661 C730 660 728 657 729 656 C731 651 729 643 737 643"></path>
<path id="" fill="none" stroke="#000000" stroke-width="2.0" stroke-opacity="1.0" stroke-linecap="round" stroke-linejoin="round"  filling="0" d="M419 1032 C419 1034 419 1034 418 1035"></path>
<path id="" fill="none" stroke="#000000" stroke-width="2.0" stroke-opacity="1.0" stroke-linecap="round" stroke-linejoin="round"  filling="0" d="M861 438 C861 440 862 442 862 444"></path>
<path id="" fill="none" stroke="#000000" stroke-width="2.0" stroke-opacity="1.0" stroke-linecap="round" stroke-linejoin="round"  filling="0" d="M738 551 C738 552 738 552 739 553"></path>
<path id="" fill="none" stroke="#000000" stroke-width="2.0" stroke-opacity="1.0" stroke-linecap="round" stroke-linejoin="round"  filling="0" d="M338 830 C338 830 337 830 337 830"></path>
<path id="" fill="none" stroke="#000000" stroke-width="2.0" stroke-opacity="1.0" stroke-linecap="round" stroke-linejoin="round"  filling="0" d="M179 374 C177 372 174 373 171 372 C164 368 156 367 149 363 C147 362 146 360 143 360"></path>
<path id="" fill="none" stroke="#000000" stroke-width="2.0" stroke-opacity="1.0" stroke-linecap="round" stroke-linejoin="round"  filling="0" d="M660 599 C659 600 658 601 657 602"></path>
<path id="" fill="none" stroke="#000000" stroke-width="2.0" stroke-opacity="1.0" stroke-linecap="round" stroke-linejoin="round"  filling="0" d="M315 882 C313 882 311 879 309 877 C308 876 306 875 304 874 C302 873 299 868 297 866 C292 861 284 855 281 849 C280 846 276 845 275 842 C273 838 269 836 267 832 C265 828 261 825 259 821 C256 816 250 812 250 806"></path>
<path id="" fill="none" stroke="#000000" stroke-width="2.0" stroke-opacity="1.0" stroke-linecap="round" stroke-linejoin="round"  filling="0" d="M663 587 C665 585 663 584 664 582 C665 579 666 575 666 572"></path>
<path id="" fill="none" stroke="#000000" stroke-width="2.0" stroke-opacity="1.0" stroke-linecap="round" stroke-linejoin="round"  filling="0" d="M610 957 C610 955 610 954 610 952"></path>
<path id="" fill="none" stroke="#000000" stroke-width="2.0" stroke-opacity="1.0" stroke-linecap="round" stroke-linejoin="round"  filling="0" d="M253 652 C250 655 248 662 246 666 C245 668 247 671 245 671"></path>
<path id="" fill="none" stroke="#000000" stroke-width="2.0" stroke-opacity="1.0" stroke-linecap="round" stroke-linejoin="round"  filling="0" d="M728 767 C725 770 720 772 717 774 C715 775 713 778 711 778"></path>
<path id="" fill="none" stroke="#000000" stroke-width="2.0" stroke-opacity="1.0" stroke-linecap="round" stroke-linejoin="round"  filling="0" d="M572 586 C572 591 570 596 568 600 C567 602 565 603 565 605"></path>
<path id="" fill="none" stroke="#000000" stroke-width="2.0" stroke-opacity="1.0" stroke-linecap="round" stroke-linejoin="round"  filling="0" d="M344 523 C344 527 344 531 346 534 C347 536 345 538 346 540 C347 542 347 544 348 546 C349 547 347 550 348 551 C350 555 350 561 352 565 C353 566 351 568 352 569 C354 573 355 579 357 583 C357 584 357 585 357 586 C359 590 360 596 362 600 C363 603 367 608 367 611"></path>
<path id="" fill="none" stroke="#000000" stroke-width="2.0" stroke-opacity="1.0" stroke-linecap="round" stroke-linejoin="round"  filling="0" d="M401 1004 C401 1004 400 1004 400 1004"></path>
<path id="" fill="none" stroke="#000000" stroke-width="2.0" stroke-opacity="1.0" stroke-linecap="round" stroke-linejoin="round"  filling="0" d="M124 719 C124 720 124 720 124 721"></path>
<path id="" fill="none" stroke="#000000" stroke-width="2.0" stroke-opacity="1.0" stroke-linecap="round" stroke-linejoin="round"  filling="0" d="M584 587 C584 591 582 596 582 600"></path>
<path id="" fill="none" stroke="#000000" stroke-width="2.0" stroke-opacity="1.0" stroke-linecap="round" stroke-linejoin="round"  filling="0" d="M423 561 C427 565 426 571 430 575"></path>
<path id="" fill="none" stroke="#000000" stroke-width="2.0" stroke-opacity="1.0" stroke-linecap="round" stroke-linejoin="round"  filling="0" d="M420 554 C420 550 417 545 414 542"></path>
<path id="" fill="none" stroke="#000000" stroke-width="2.0" stroke-opacity="1.0" stroke-linecap="round" stroke-linejoin="round"  filling="0" d="M715 629 C718 626 721 627 724 624"></path>
<path id="" fill="none" stroke="#000000" stroke-width="2.0" stroke-opacity="1.0" stroke-linecap="round" stroke-linejoin="round"  filling="0" d="M340 502 C340 505 341 509 342 512 C343 513 341 515 342 516 C343 518 344 520 344 522"></path>
<path id="" fill="none" stroke="#000000" stroke-width="2.0" stroke-opacity="1.0" stroke-linecap="round" stroke-linejoin="round"  filling="0" d="M686 899 C685 900 682 902 681 902"></path>
<path id="" fill="none" stroke="#000000" stroke-width="2.0" stroke-opacity="1.0" stroke-linecap="round" stroke-linejoin="round"  filling="0" d="M220 688 C219 688 218 687 217 687"></path>
<path id="" fill="none" stroke="#000000" stroke-width="2.0" stroke-opacity="1.0" stroke-linecap="round" stroke-linejoin="round"  filling="0" d="M584 583 C584 584 584 585 584 586"></path>
<path id="" fill="none" stroke="#000000" stroke-width="2.0" stroke-opacity="1.0" stroke-linecap="round" stroke-linejoin="round"  filling="0" d="M181 374 C181 374 180 374 180 374"></path>
<path id="" fill="none" stroke="#000000" stroke-width="2.0" stroke-opacity="1.0" stroke-linecap="round" stroke-linejoin="round"  filling="0" d="M124 891 C124 889 125 885 124 884 C124 883 122 883 123 882 C124 880 124 880 124 878 C124 876 126 873 125 873"></path>
<path id="" fill="none" stroke="#000000" stroke-width="2.0" stroke-opacity="1.0" stroke-linecap="round" stroke-linejoin="round"  filling="0" d="M314 528 C314 528 314 529 314 529"></path>
<path id="" fill="none" stroke="#000000" stroke-width="2.0" stroke-opacity="1.0" stroke-linecap="round" stroke-linejoin="round"  filling="0" d="M488 158 C488 160 488 161 488 163"></path>
<path id="" fill="none" stroke="#000000" stroke-width="2.0" stroke-opacity="1.0" stroke-linecap="round" stroke-linejoin="round"  filling="0" d="M124 902 C124 904 124 905 124 907"></path>
<path id="" fill="none" stroke="#000000" stroke-width="2.0" stroke-opacity="1.0" stroke-linecap="round" stroke-linejoin="round"  filling="0" d="M604 447 C604 449 604 450 604 452"></path>
<path id="" fill="none" stroke="#000000" stroke-width="2.0" stroke-opacity="1.0" stroke-linecap="round" stroke-linejoin="round"  filling="0" d="M35 818 C35 820 35 820 33 822"></path>
<path id="" fill="none" stroke="#000000" stroke-width="2.0" stroke-opacity="1.0" stroke-linecap="round" stroke-linejoin="round"  filling="0" d="M403 1004 C406 1001 411 1005 414 1003 C415 1003 416 1002 417 1002"></path>
<path id="" fill="none" stroke="#000000" stroke-width="2.0" stroke-opacity="1.0" stroke-linecap="round" stroke-linejoin="round"  filling="0" d="M288 718 C289 719 289 719 290 719"></path>
<path id="" fill="none" stroke="#000000" stroke-width="2.0" stroke-opacity="1.0" stroke-linecap="round" stroke-linejoin="round"  filling="0" d="M148 410 C148 407 153 403 154 400 C157 393 163 387 166 380 C167 378 171 376 171 373"></path>
<path id="" fill="none" stroke="#000000" stroke-width="2.0" stroke-opacity="1.0" stroke-linecap="round" stroke-linejoin="round"  filling="0" d="M661 596 C661 593 663 591 663 588"></path>
<path id="" fill="none" stroke="#000000" stroke-width="2.0" stroke-opacity="1.0" stroke-linecap="round" stroke-linejoin="round"  filling="0" d="M734 628 C732 628 730 625 729 624"></path>
<path id="" fill="none" stroke="#000000" stroke-width="2.0" stroke-opacity="1.0" stroke-linecap="round" stroke-linejoin="round"  filling="0" d="M796 771 C799 768 799 765 801 762 C802 761 803 761 804 760"></path>
<path id="" fill="none" stroke="#000000" stroke-width="2.0" stroke-opacity="1.0" stroke-linecap="round" stroke-linejoin="round"  filling="0" d="M634 278 C635 279 637 280 639 280"></path>
<path id="" fill="none" stroke="#000000" stroke-width="2.0" stroke-opacity="1.0" stroke-linecap="round" stroke-linejoin="round"  filling="0" d="M222 688 C222 688 221 688 221 688"></path>
<path id="" fill="none" stroke="#000000" stroke-width="2.0" stroke-opacity="1.0" stroke-linecap="round" stroke-linejoin="round"  filling="0" d="M861 436 C861 436 861 437 861 437"></path>
<path id="" fill="none" stroke="#000000" stroke-width="2.0" stroke-opacity="1.0" stroke-linecap="round" stroke-linejoin="round"  filling="0" d="M738 549 C738 549 738 550 738 550"></path>
<path id="" fill="none" stroke="#000000" stroke-width="2.0" stroke-opacity="1.0" stroke-linecap="round" stroke-linejoin="round"  filling="0" d="M325 626 C324 626 323 625 323 624"></path>
<path id="" fill="none" stroke="#000000" stroke-width="2.0" stroke-opacity="1.0" stroke-linecap="round" stroke-linejoin="round"  filling="0" d="M633 275 C632 275 633 276 635 274"></path>
<path id="" fill="none" stroke="#000000" stroke-width="2.0" stroke-opacity="1.0" stroke-linecap="round" stroke-linejoin="round"  filling="0" d="M233 682 C232 682 224 684 225 687 C226 690 230 689 232 691"></path>
<path id="" fill="none" stroke="#000000" stroke-width="2.0" stroke-opacity="1.0" stroke-linecap="round" stroke-linejoin="round"  filling="0" d="M125 286 C124 285 125 284 124 284 C123 284 121 288 121 289"></path>
<path id="" fill="none" stroke="#000000" stroke-width="2.0" stroke-opacity="1.0" stroke-linecap="round" stroke-linejoin="round"  filling="0" d="M220 693 C219 692 219 691 219 689"></path>
<path id="" fill="none" stroke="#000000" stroke-width="2.0" stroke-opacity="1.0" stroke-linecap="round" stroke-linejoin="round"  filling="0" d="M131 281 C133 279 130 279 129 278"></path>
<path id="" fill="none" stroke="#000000" stroke-width="2.0" stroke-opacity="1.0" stroke-linecap="round" stroke-linejoin="round"  filling="0" d="M585 580 C584 581 584 581 584 582"></path>
<path id="" fill="none" stroke="#000000" stroke-width="2.0" stroke-opacity="1.0" stroke-linecap="round" stroke-linejoin="round"  filling="0" d="M198 378 C195 378 189 376 186 375 C184 374 184 376 182 374"></path>
<path id="" fill="none" stroke="#000000" stroke-width="2.0" stroke-opacity="1.0" stroke-linecap="round" stroke-linejoin="round"  filling="0" d="M612 255 C618 261 625 268 631 274"></path>
<path id="" fill="none" stroke="#000000" stroke-width="2.0" stroke-opacity="1.0" stroke-linecap="round" stroke-linejoin="round"  filling="0" d="M860 433 C860 434 860 434 861 435"></path>
<path id="" fill="none" stroke="#000000" stroke-width="2.0" stroke-opacity="1.0" stroke-linecap="round" stroke-linejoin="round"  filling="0" d="M286 716 C286 716 287 717 287 717"></path>
<path id="" fill="none" stroke="#000000" stroke-width="2.0" stroke-opacity="1.0" stroke-linecap="round" stroke-linejoin="round"  filling="0" d="M343 831 C341 831 341 830 339 830"></path>
<path id="" fill="none" stroke="#000000" stroke-width="2.0" stroke-opacity="1.0" stroke-linecap="round" stroke-linejoin="round"  filling="0" d="M270 784 C273 787 275 790 278 793"></path>
<path id="" fill="none" stroke="#000000" stroke-width="2.0" stroke-opacity="1.0" stroke-linecap="round" stroke-linejoin="round"  filling="0" d="M235 682 C235 682 234 682 234 682"></path>
<path id="" fill="none" stroke="#000000" stroke-width="2.0" stroke-opacity="1.0" stroke-linecap="round" stroke-linejoin="round"  filling="0" d="M124 900 C124 900 124 901 124 901"></path>
<path id="" fill="none" stroke="#000000" stroke-width="2.0" stroke-opacity="1.0" stroke-linecap="round" stroke-linejoin="round"  filling="0" d="M363 912 C363 912 362 911 362 911"></path>
<path id="" fill="none" stroke="#000000" stroke-width="2.0" stroke-opacity="1.0" stroke-linecap="round" stroke-linejoin="round"  filling="0" d="M604 445 C604 445 604 446 604 446"></path>
<path id="" fill="none" stroke="#000000" stroke-width="2.0" stroke-opacity="1.0" stroke-linecap="round" stroke-linejoin="round"  filling="0" d="M145 416 C144 417 143 419 143 420"></path>
<path id="" fill="none" stroke="#000000" stroke-width="2.0" stroke-opacity="1.0" stroke-linecap="round" stroke-linejoin="round"  filling="0" d="M733 764 C732 765 730 766 729 766"></path>
<path id="" fill="none" stroke="#000000" stroke-width="2.0" stroke-opacity="1.0" stroke-linecap="round" stroke-linejoin="round"  filling="0" d="M162 792 C163 793 164 795 164 797"></path>
<path id="" fill="none" stroke="#000000" stroke-width="2.0" stroke-opacity="1.0" stroke-linecap="round" stroke-linejoin="round"  filling="0" d="M285 709 C285 711 286 713 286 715"></path>
<path id="" fill="none" stroke="#000000" stroke-width="2.0" stroke-opacity="1.0" stroke-linecap="round" stroke-linejoin="round"  filling="0" d="M581 612 C581 613 580 615 579 616"></path>
<path id="" fill="none" stroke="#000000" stroke-width="2.0" stroke-opacity="1.0" stroke-linecap="round" stroke-linejoin="round"  filling="0" d="M488 152 C488 154 488 155 488 157"></path>
<path id="" fill="none" stroke="#000000" stroke-width="2.0" stroke-opacity="1.0" stroke-linecap="round" stroke-linejoin="round"  filling="0" d="M345 831 C345 831 344 831 344 831"></path>
<path id="" fill="none" stroke="#000000" stroke-width="2.0" stroke-opacity="1.0" stroke-linecap="round" stroke-linejoin="round"  filling="0" d="M696 890 C693 893 690 895 687 898"></path>
<path id="" fill="none" stroke="#000000" stroke-width="2.0" stroke-opacity="1.0" stroke-linecap="round" stroke-linejoin="round"  filling="0" d="M205 638 C205 639 206 640 207 640"></path>
<path id="" fill="none" stroke="#000000" stroke-width="2.0" stroke-opacity="1.0" stroke-linecap="round" stroke-linejoin="round"  filling="0" d="M268 782 C268 782 269 783 269 783"></path>
<path id="" fill="none" stroke="#000000" stroke-width="2.0" stroke-opacity="1.0" stroke-linecap="round" stroke-linejoin="round"  filling="0" d="M314 522 C314 524 314 525 314 527"></path>
<path id="" fill="none" stroke="#000000" stroke-width="2.0" stroke-opacity="1.0" stroke-linecap="round" stroke-linejoin="round"  filling="0" d="M585 578 C585 578 585 579 585 579"></path>
<path id="" fill="none" stroke="#000000" stroke-width="2.0" stroke-opacity="1.0" stroke-linecap="round" stroke-linejoin="round"  filling="0" d="M612 253 C612 253 612 254 612 254"></path>
<path id="" fill="none" stroke="#000000" stroke-width="2.0" stroke-opacity="1.0" stroke-linecap="round" stroke-linejoin="round"  filling="0" d="M825 474 C826 475 826 475 826 476"></path>
<path id="" fill="none" stroke="#000000" stroke-width="2.0" stroke-opacity="1.0" stroke-linecap="round" stroke-linejoin="round"  filling="0" d="M261 250 C261 251 261 251 262 252"></path>
<path id="" fill="none" stroke="#000000" stroke-width="2.0" stroke-opacity="1.0" stroke-linecap="round" stroke-linejoin="round"  filling="0" d="M220 695 C220 697 222 699 222 701"></path>
<path id="" fill="none" stroke="#000000" stroke-width="2.0" stroke-opacity="1.0" stroke-linecap="round" stroke-linejoin="round"  filling="0" d="M647 1047 C649 1049 653 1050 657 1050"></path>
<path id="" fill="none" stroke="#000000" stroke-width="2.0" stroke-opacity="1.0" stroke-linecap="round" stroke-linejoin="round"  filling="0" d="M134 278 C134 278 133 279 133 279"></path>
<path id="" fill="none" stroke="#000000" stroke-width="2.0" stroke-opacity="1.0" stroke-linecap="round" stroke-linejoin="round"  filling="0" d="M122 805 C122 804 121 803 121 802"></path>
<path id="" fill="none" stroke="#000000" stroke-width="2.0" stroke-opacity="1.0" stroke-linecap="round" stroke-linejoin="round"  filling="0" d="M258 247 C259 248 259 248 260 249"></path>
<path id="" fill="none" stroke="#000000" stroke-width="2.0" stroke-opacity="1.0" stroke-linecap="round" stroke-linejoin="round"  filling="0" d="M146 413 C147 412 147 412 147 411"></path>
<path id="" fill="none" stroke="#000000" stroke-width="2.0" stroke-opacity="1.0" stroke-linecap="round" stroke-linejoin="round"  filling="0" d="M487 147 C487 146 487 144 487 143"></path>
<path id="" fill="none" stroke="#000000" stroke-width="2.0" stroke-opacity="1.0" stroke-linecap="round" stroke-linejoin="round"  filling="0" d="M488 150 C488 150 488 151 488 151"></path>
<path id="" fill="none" stroke="#000000" stroke-width="2.0" stroke-opacity="1.0" stroke-linecap="round" stroke-linejoin="round"  filling="0" d="M124 894 C122 896 124 897 124 899"></path>
<path id="" fill="none" stroke="#000000" stroke-width="2.0" stroke-opacity="1.0" stroke-linecap="round" stroke-linejoin="round"  filling="0" d="M644 529 C644 529 644 530 644 530"></path>
<path id="" fill="none" stroke="#000000" stroke-width="2.0" stroke-opacity="1.0" stroke-linecap="round" stroke-linejoin="round"  filling="0" d="M698 888 C700 886 702 884 704 882"></path>
<path id="" fill="none" stroke="#000000" stroke-width="2.0" stroke-opacity="1.0" stroke-linecap="round" stroke-linejoin="round"  filling="0" d="M144 269 C141 272 138 274 135 277"></path>
<path id="" fill="none" stroke="#000000" stroke-width="2.0" stroke-opacity="1.0" stroke-linecap="round" stroke-linejoin="round"  filling="0" d="M667 796 C667 796 666 796 666 796"></path>
<path id="" fill="none" stroke="#000000" stroke-width="2.0" stroke-opacity="1.0" stroke-linecap="round" stroke-linejoin="round"  filling="0" d="M256 245 C256 245 257 246 257 246"></path>
<path id="" fill="none" stroke="#000000" stroke-width="2.0" stroke-opacity="1.0" stroke-linecap="round" stroke-linejoin="round"  filling="0" d="M585 572 C585 574 585 575 585 577"></path>
<path id="" fill="none" stroke="#000000" stroke-width="2.0" stroke-opacity="1.0" stroke-linecap="round" stroke-linejoin="round"  filling="0" d="M239 680 C237 680 237 681 236 682"></path>
<path id="" fill="none" stroke="#000000" stroke-width="2.0" stroke-opacity="1.0" stroke-linecap="round" stroke-linejoin="round"  filling="0" d="M196 928 C196 928 196 929 196 929"></path>
<path id="" fill="none" stroke="#000000" stroke-width="2.0" stroke-opacity="1.0" stroke-linecap="round" stroke-linejoin="round"  filling="0" d="M669 796 C669 796 668 796 668 796"></path>
<path id="" fill="none" stroke="#000000" stroke-width="2.0" stroke-opacity="1.0" stroke-linecap="round" stroke-linejoin="round"  filling="0" d="M266 781 C266 779 264 777 263 776"></path>
<path id="" fill="none" stroke="#000000" stroke-width="2.0" stroke-opacity="1.0" stroke-linecap="round" stroke-linejoin="round"  filling="0" d="M420 1030 C420 1030 419 1031 419 1031"></path>
<path id="" fill="none" stroke="#000000" stroke-width="2.0" stroke-opacity="1.0" stroke-linecap="round" stroke-linejoin="round"  filling="0" d="M247 671 C249 673 252 672 254 674"></path>
<path id="" fill="none" stroke="#000000" stroke-width="2.0" stroke-opacity="1.0" stroke-linecap="round" stroke-linejoin="round"  filling="0" d="M860 430 C860 431 860 431 860 432"></path>
<path id="" fill="none" stroke="#000000" stroke-width="2.0" stroke-opacity="1.0" stroke-linecap="round" stroke-linejoin="round"  filling="0" d="M195 925 C195 926 195 926 195 927"></path>
<path id="" fill="none" stroke="#000000" stroke-width="2.0" stroke-opacity="1.0" stroke-linecap="round" stroke-linejoin="round"  filling="0" d="M660 598 C660 598 660 597 660 597"></path>
<path id="" fill="none" stroke="#000000" stroke-width="2.0" stroke-opacity="1.0" stroke-linecap="round" stroke-linejoin="round"  filling="0" d="M131 282 C131 282 130 283 130 283"></path>
<path id="" fill="none" stroke="#000000" stroke-width="2.0" stroke-opacity="1.0" stroke-linecap="round" stroke-linejoin="round"  filling="0" d="M202 864 C202 865 202 865 202 866"></path>
<path id="" fill="none" stroke="#000000" stroke-width="2.0" stroke-opacity="1.0" stroke-linecap="round" stroke-linejoin="round"  filling="0" d="M411 234 C411 234 410 234 410 234"></path>
<path id="" fill="none" stroke="#000000" stroke-width="2.0" stroke-opacity="1.0" stroke-linecap="round" stroke-linejoin="round"  filling="0" d="M420 1028 C420 1027 420 1026 420 1025"></path>
<path id="" fill="none" stroke="#000000" stroke-width="2.0" stroke-opacity="1.0" stroke-linecap="round" stroke-linejoin="round"  filling="0" d="M737 543 C737 545 738 546 738 548"></path>
<path id="" fill="none" stroke="#000000" stroke-width="2.0" stroke-opacity="1.0" stroke-linecap="round" stroke-linejoin="round"  filling="0" d="M145 268 C147 268 147 267 148 266"></path>
<path id="" fill="none" stroke="#000000" stroke-width="2.0" stroke-opacity="1.0" stroke-linecap="round" stroke-linejoin="round"  filling="0" d="M825 471 C825 472 825 472 825 473"></path>
<path id="" fill="none" stroke="#000000" stroke-width="2.0" stroke-opacity="1.0" stroke-linecap="round" stroke-linejoin="round"  filling="0" d="M202 862 C202 862 202 863 202 863"></path>
<path id="" fill="none" stroke="#000000" stroke-width="2.0" stroke-opacity="1.0" stroke-linecap="round" stroke-linejoin="round"  filling="0" d="M422 558 C422 559 422 559 423 560"></path>
<path id="" fill="none" stroke="#000000" stroke-width="2.0" stroke-opacity="1.0" stroke-linecap="round" stroke-linejoin="round"  filling="0" d="M726 671 C726 671 725 672 725 672"></path>
<path id="" fill="none" stroke="#000000" stroke-width="2.0" stroke-opacity="1.0" stroke-linecap="round" stroke-linejoin="round"  filling="0" d="M609 958 C609 958 609 959 609 959"></path>
<path id="" fill="none" stroke="#000000" stroke-width="2.0" stroke-opacity="1.0" stroke-linecap="round" stroke-linejoin="round"  filling="0" d="M680 793 C681 792 681 792 682 791"></path>
<path id="" fill="none" stroke="#000000" stroke-width="2.0" stroke-opacity="1.0" stroke-linecap="round" stroke-linejoin="round"  filling="0" d="M799 876 C799 876 799 877 799 877"></path>
<path id="" fill="none" stroke="#000000" stroke-width="2.0" stroke-opacity="1.0" stroke-linecap="round" stroke-linejoin="round"  filling="0" d="M735 629 C736 629 737 629 738 629"></path>
<path id="" fill="none" stroke="#000000" stroke-width="2.0" stroke-opacity="1.0" stroke-linecap="round" stroke-linejoin="round"  filling="0" d="M698 889 C698 889 697 890 697 890"></path>
<path id="" fill="none" stroke="#000000" stroke-width="2.0" stroke-opacity="1.0" stroke-linecap="round" stroke-linejoin="round"  filling="0" d="M421 555 C421 556 421 556 422 557"></path>
<path id="" fill="none" stroke="#000000" stroke-width="2.0" stroke-opacity="1.0" stroke-linecap="round" stroke-linejoin="round"  filling="0" d="M124 717 C124 717 124 718 124 718"></path>
<path id="" fill="none" stroke="#000000" stroke-width="2.0" stroke-opacity="1.0" stroke-linecap="round" stroke-linejoin="round"  filling="0" d="M671 793 C671 793 671 794 671 794"></path>
<path id="" fill="none" stroke="#000000" stroke-width="2.0" stroke-opacity="1.0" stroke-linecap="round" stroke-linejoin="round"  filling="0" d="M605 442 C604 443 604 443 604 444"></path>
<path id="" fill="none" stroke="#000000" stroke-width="2.0" stroke-opacity="1.0" stroke-linecap="round" stroke-linejoin="round"  filling="0" d="M566 651 C566 651 566 650 566 650"></path>
<path id="" fill="none" stroke="#000000" stroke-width="2.0" stroke-opacity="1.0" stroke-linecap="round" stroke-linejoin="round"  filling="0" d="M223 687 C223 687 224 687 224 687"></path>
<path id="" fill="none" stroke="#000000" stroke-width="2.0" stroke-opacity="1.0" stroke-linecap="round" stroke-linejoin="round"  filling="0" d="M412 234 C412 234 413 233 413 233"></path>
<path id="" fill="none" stroke="#000000" stroke-width="2.0" stroke-opacity="1.0" stroke-linecap="round" stroke-linejoin="round"  filling="0" d="M314 520 C314 520 314 521 314 521"></path>
<path id="" fill="none" stroke="#000000" stroke-width="2.0" stroke-opacity="1.0" stroke-linecap="round" stroke-linejoin="round"  filling="0" d="M859 428 C859 428 860 429 860 429"></path>
<path id="" fill="none" stroke="#000000" stroke-width="2.0" stroke-opacity="1.0" stroke-linecap="round" stroke-linejoin="round"  filling="0" d="M671 791 C671 791 671 792 671 792"></path>
<path id="" fill="none" stroke="#000000" stroke-width="2.0" stroke-opacity="1.0" stroke-linecap="round" stroke-linejoin="round"  filling="0" d="M160 784 C159 784 159 784 158 785"></path>
<path id="" fill="none" stroke="#000000" stroke-width="2.0" stroke-opacity="1.0" stroke-linecap="round" stroke-linejoin="round"  filling="0" d="M381 685 C381 685 381 686 381 686"></path>
<path id="" fill="none" stroke="#000000" stroke-width="2.0" stroke-opacity="1.0" stroke-linecap="round" stroke-linejoin="round"  filling="0" d="M125 282 C125 282 124 283 124 283"></path>
<path id="" fill="none" stroke="#000000" stroke-width="2.0" stroke-opacity="1.0" stroke-linecap="round" stroke-linejoin="round"  filling="0" d="M254 243 C254 243 255 244 255 244"></path>
<path id="" fill="none" stroke="#000000" stroke-width="2.0" stroke-opacity="1.0" stroke-linecap="round" stroke-linejoin="round"  filling="0" d="M124 892 C124 892 124 893 124 893"></path>
<path id="" fill="none" stroke="#000000" stroke-width="2.0" stroke-opacity="1.0" stroke-linecap="round" stroke-linejoin="round"  filling="0" d="M796 772 C796 772 795 773 795 773"></path>
<path id="" fill="none" stroke="#000000" stroke-width="2.0" stroke-opacity="1.0" stroke-linecap="round" stroke-linejoin="round"  filling="0" d="M123 806 C124 807 124 807 125 807"></path>
<path id="" fill="none" stroke="#000000" stroke-width="2.0" stroke-opacity="1.0" stroke-linecap="round" stroke-linejoin="round"  filling="0" d="M583 604 C583 604 582 604 582 604"></path>
<path id="" fill="none" stroke="#000000" stroke-width="2.0" stroke-opacity="1.0" stroke-linecap="round" stroke-linejoin="round"  filling="0" d="M488 148 C488 148 488 149 488 149"></path>
<path id="" fill="none" stroke="#000000" stroke-width="2.0" stroke-opacity="1.0" stroke-linecap="round" stroke-linejoin="round"  filling="0" d="M606 441 C606 441 605 441 605 441"></path>
<path id="" fill="none" stroke="#000000" stroke-width="2.0" stroke-opacity="1.0" stroke-linecap="round" stroke-linejoin="round"  filling="0" d="M327 627 C327 627 326 627 326 627"></path>
<path id="" fill="none" stroke="#000000" stroke-width="2.0" stroke-opacity="1.0" stroke-linecap="round" stroke-linejoin="round"  filling="0" d="M585 604 C585 604 584 604 584 604"></path>
<path id="" fill="none" stroke="#000000" stroke-width="2.0" stroke-opacity="1.0" stroke-linecap="round" stroke-linejoin="round"  filling="0" d="M583 668 C583 668 582 669 582 669"></path>
<path id="" fill="none" stroke="#000000" stroke-width="2.0" stroke-opacity="1.0" stroke-linecap="round" stroke-linejoin="round"  filling="0" d="M399 665 C399 665 400 666 400 666"></path>
<path id="" fill="none" stroke="#000000" stroke-width="2.0" stroke-opacity="1.0" stroke-linecap="round" stroke-linejoin="round"  filling="0" d="M146 414 C146 414 145 415 145 415"></path>
<path id="" fill="none" stroke="#000000" stroke-width="2.0" stroke-opacity="1.0" stroke-linecap="round" stroke-linejoin="round"  filling="0" d="M633 763 C633 766 634 769 634 772 C634 775 632 777 634 780 C635 782 634 786 633 788 C632 790 633 791 634 792 C634 792 633 796 633 797 C633 801 635 809 632 812"></path>
<path id="" fill="none" stroke="#000000" stroke-width="2.0" stroke-opacity="1.0" stroke-linecap="round" stroke-linejoin="round"  filling="0" d="M644 783 C644 785 645 789 643 791"></path>
<path id="" fill="none" stroke="#000000" stroke-width="2.0" stroke-opacity="1.0" stroke-linecap="round" stroke-linejoin="round"  filling="0" d="M503 787 C502 786 501 788 501 789"></path>
<path id="" fill="none" stroke="#000000" stroke-width="2.0" stroke-opacity="1.0" stroke-linecap="round" stroke-linejoin="round"  filling="0" d="M503 785 C503 785 503 786 503 786"></path>
<path id="" fill="none" stroke="#000000" stroke-width="2.0" stroke-opacity="1.0" stroke-linecap="round" stroke-linejoin="round"  filling="0" d="M611 785 C611 787 610 789 610 790 C610 790 611 791 611 791 C612 791 611 790 610 789"></path>
<path id="" fill="none" stroke="#000000" stroke-width="2.0" stroke-opacity="1.0" stroke-linecap="round" stroke-linejoin="round"  filling="0" d="M610 791 C610 791 610 792 610 792"></path>
<path id="" fill="none" stroke="#000000" stroke-width="2.0" stroke-opacity="1.0" stroke-linecap="round" stroke-linejoin="round"  filling="0" d="M483 786 C483 788 485 790 485 790"></path>
<path id="" fill="none" stroke="#000000" stroke-width="2.0" stroke-opacity="1.0" stroke-linecap="round" stroke-linejoin="round"  filling="0" d="M621 787 C621 789 620 794 620 790"></path>
<path id="" fill="none" stroke="#000000" stroke-width="2.0" stroke-opacity="1.0" stroke-linecap="round" stroke-linejoin="round"  filling="0" d="M370 795 C370 800 371 806 371 812 C371 814 372 817 370 819"></path>
<path id="" fill="none" stroke="#000000" stroke-width="2.0" stroke-opacity="1.0" stroke-linecap="round" stroke-linejoin="round"  filling="0" d="M359 809 C359 810 360 810 360 811 C360 811 359 813 359 814 C359 817 360 824 358 826"></path>
<path id="" fill="none" stroke="#000000" stroke-width="2.0" stroke-opacity="1.0" stroke-linecap="round" stroke-linejoin="round"  filling="0" d="M379 821 C381 819 380 817 381 815 C381 815 384 811 383 811 C383 811 382 812 382 812"></path>
<path id="" fill="none" stroke="#000000" stroke-width="2.0" stroke-opacity="1.0" stroke-linecap="round" stroke-linejoin="round"  filling="0" d="M519 905 C521 905 521 905 523 906 C525 907 530 905 532 906 C535 907 539 909 542 909"></path>
<path id="" fill="none" stroke="#000000" stroke-width="2.0" stroke-opacity="1.0" stroke-linecap="round" stroke-linejoin="round"  filling="0" d="M494 907 C492 909 489 908 487 909 C481 912 475 914 469 920"></path>
</svg>